<?xml version="1.0" encoding="utf-8"?>
<!-- Generator: Adobe Illustrator 26.3.1, SVG Export Plug-In . SVG Version: 6.00 Build 0)  -->
<svg version="1.1" id="レイヤー_1" xmlns="http://www.w3.org/2000/svg" xmlns:xlink="http://www.w3.org/1999/xlink" x="0px"
	 y="0px" width="178px" height="168px" viewBox="0 0 178 168" style="enable-background:new 0 0 178 168;" xml:space="preserve">
<style type="text/css">
	.st0{fill:#7A805F;}
</style>
<g>
	<path class="st0" d="M0,9.4c0.5,0.1,1,0.1,1.4,0.1c1.2,0,1.7-0.4,1.7-1.6V1.5h1.4V8c0,2-0.8,2.8-2.9,2.8c-0.5,0-1.3,0-1.7-0.1V9.4z
		"/>
	<path class="st0" d="M10.6,1.5c1.3,0,2,0.2,2.6,0.7c0.5,0.5,0.8,1.2,0.8,2c0,0.7-0.2,1.4-0.6,1.8c-0.3,0.3-0.6,0.5-1.1,0.7l2.2,3.9
		h-1.7l-2.1-3.7H9.4v3.7H7.9V1.5H10.6z M10.5,5.7c0.8,0,1.2-0.1,1.5-0.3c0.3-0.3,0.5-0.7,0.5-1.2c0-0.5-0.2-0.9-0.5-1.2
		c-0.3-0.2-0.7-0.3-1.5-0.3H9.4v3H10.5z"/>
	<path class="st0" d="M21.2,9.2V3.3c0-1.4,0-2.1-0.1-2.5l1.3,0.1c0.1,0,0.2,0.1,0.2,0.1c0,0.1-0.1,0.1-0.2,0.2c0,0.2,0,0.2,0,2.1
		v5.9h3v-4c0-1.4,0-2.1,0-2.5l1.3,0.1c0.1,0,0.2,0,0.2,0.1c0,0.1-0.1,0.1-0.2,0.2c0,0.2,0,0.2,0,2.1v3.6c0,1.1,0,1.9,0,2.4h-1.2v-1
		h-7.1v1.2h-1.2c0-0.5,0-1.4,0-2.5V5.2c0-1.4,0-2.1,0-2.5l1.3,0.1c0.1,0,0.2,0,0.2,0.1c0,0.1-0.1,0.1-0.2,0.2c0,0.2,0,0.2,0,2.1v4
		H21.2z"/>
	<path class="st0" d="M35.5,7.8c0,0.5,0,1.1,0,2.1v0.2c0,0.7-0.1,1-0.5,1.2c-0.4,0.2-0.7,0.3-2.2,0.3c0-0.5-0.1-0.8-0.2-1.3
		c0.5,0,0.8,0,1.1,0c0.4,0,0.5,0,0.5-0.5v-2h-2.6c-0.7,0-1.7,0-2.4,0V6.6c0.6,0,1.7,0,2.4,0h2.6V5.2h-2.1c-0.6,0-1.6,0-2.2,0V4.1
		c0.5,0,1.5,0,2.2,0h2.1V2.6c-0.9,0.1-1.6,0.1-4.1,0.3c-0.1-0.5-0.2-0.7-0.3-1.1c3.7-0.1,6.5-0.5,8.6-1.1l0.8,0.8
		c0.1,0.1,0.1,0.1,0.1,0.1c0,0.1-0.1,0.1-0.2,0.1c-0.1,0-0.2,0-0.2,0c-1.2,0.3-2.2,0.6-3.5,0.8v1.7h2.1c0.7,0,1.6,0,2.1,0v1.2
		c-0.6,0-1.5,0-2.1,0h-2.1v1.5H38c0.8,0,1.8,0,2.4,0v1.2c-0.6,0-1.7,0-2.4,0H35.5z"/>
	<path class="st0" d="M43.9,7.3C44,7.4,44,7.4,44,7.5c0,0,0,0.1-0.1,0.1l-0.1,0.1c-0.1,1.3-0.2,2.3-0.5,3.1c-0.4-0.2-0.6-0.3-1-0.4
		c0.3-1,0.4-1.9,0.4-3.2L43.9,7.3z M45.4,6.3v2.8c0,1.1,0,1.9,0,2.5h-1.2c0-0.5,0-1.4,0-2.5V6.4c-0.3,0-0.7,0.1-1,0.1
		c-0.1,0.1-0.2,0.2-0.2,0.2s-0.1-0.1-0.2-0.2l-0.3-1.1c0.3,0,0.6,0,0.8,0c0.2-0.3,0.5-0.7,0.7-1c-0.5-0.5-0.9-0.8-1.6-1.3L43,2.3
		c0.1,0.1,0.3,0.2,0.4,0.3c0.4-0.7,0.8-1.5,0.9-2l1,0.4c0.1,0,0.1,0.1,0.1,0.2c0,0.1-0.1,0.1-0.3,0.2c-0.3,0.7-0.7,1.4-1,1.8
		c0.2,0.1,0.3,0.3,0.5,0.4c0.4-0.6,0.6-1.2,0.8-1.7l1,0.5c0.1,0,0.1,0.1,0.1,0.2c0,0.1-0.1,0.1-0.3,0.2c-0.9,1.5-1.2,2-1.8,2.7
		c0.3,0,0.7,0,1.1-0.1c-0.1-0.2-0.2-0.3-0.3-0.5l0.8-0.5c0.5,0.8,0.8,1.3,1.1,2.1l-0.9,0.5c-0.1-0.3-0.2-0.5-0.3-0.7L45.4,6.3z
		 M46.3,7.1c0.4,0.7,0.4,0.8,0.8,2l-1,0.4c-0.2-1-0.4-1.5-0.6-2L46.3,7.1z M49.4,7.7c-0.5,1-0.7,1.4-1.2,2c-0.5,0.6-0.9,0.9-1.6,1.4
		c-0.2-0.4-0.4-0.6-0.7-0.9c1.1-0.7,1.8-1.3,2.3-2.4c-0.5,0-0.9,0-1.4,0V6.9c0.4,0,1.2,0,1.7,0h0.3L49,6.7l0.6,0.6
		c0.1,0.1,0.1,0.1,0.1,0.2C49.7,7.6,49.7,7.7,49.4,7.7L49.4,7.7z M48.6,5.9v0.5h-1.1c0-0.3,0-0.7,0-1.3V2.8c0-0.4,0-0.9,0-1.1
		c0.4,0,0.8,0,1.3,0h0.8c0.2-0.5,0.3-0.9,0.5-1.4l1.2,0.3c0.1,0,0.1,0.1,0.1,0.1c0,0.1,0,0.1-0.3,0.2C51,1.2,51,1.3,51,1.4
		c-0.1,0.2-0.2,0.3-0.2,0.4h1.1c0.5,0,0.9,0,1.3,0c0,0.2,0,0.7,0,1.1V5c0,0.6,0,1,0,1.2h-1.1V5.9h-1.2v0.8C51,7,51.2,7.3,51.4,7.6
		c0.5-0.3,1-0.7,1.4-1.2l0.9,0.6c0.1,0,0.1,0.1,0.1,0.1c0,0.1-0.1,0.1-0.4,0.1c-0.9,0.7-1.1,0.8-1.4,1c0.5,0.6,1.2,1.1,2.1,1.7
		c-0.2,0.2-0.2,0.2-0.8,0.9c-0.9-0.6-1.3-1.1-1.9-1.8c-0.2-0.3-0.4-0.5-0.5-0.8v0.6c0,0.2,0,0.7,0,1.1v0.2c0,0.7-0.2,0.9-0.7,1.1
		c-0.3,0.1-0.7,0.1-1.6,0.1c0-0.5,0-0.6-0.2-1.2c0.3,0,0.5,0,0.8,0c0.5,0,0.5,0,0.5-0.5v-4H48.6z M52.1,3.4V2.8h-3.5v0.6H52.1z
		 M48.6,4.9h3.5V4.3h-3.5V4.9z"/>
	<path class="st0" d="M61.1,6c0,0.7-0.5,1.2-1.2,1.2S58.7,6.7,58.7,6c0-0.7,0.5-1.2,1.2-1.2S61.1,5.4,61.1,6z"/>
	<path class="st0" d="M71,11.6c0-0.7,0-1.8,0-3.1c-0.6,0.7-1.1,1.1-1.9,1.5c-0.9,0.6-1.6,0.9-2.6,1.3c-0.2-0.4-0.2-0.5-0.6-1.1
		C67.2,9.8,68,9.5,68.8,9c0.6-0.3,0.9-0.6,1.5-1.2h-1.6v0.4h-1.2c0-0.3,0-0.7,0-1.3V4.5c0-0.4,0-0.8,0-1.1c0.4,0,0.8,0,1.3,0H71V2.7
		h-2.6c-0.7,0-1.8,0-2.4,0V1.6c0.6,0,1.7,0,2.4,0H71c0-0.6,0-0.9,0-1.1l1.3,0.1c0.1,0,0.2,0.1,0.2,0.1c0,0.1-0.1,0.2-0.3,0.2
		c0,0.2,0,0.3,0,0.7h2.5c0.8,0,1.8,0,2.4,0v1.2c-0.6,0-1.7,0-2.4,0h-2.5c0,0.3,0,0.5,0,0.7h2.2c0.5,0,0.9,0,1.3,0c0,0.2,0,0.7,0,1.1
		v2.4c0,0.6,0,1,0,1.2h-1.2V7.8h-1.7c1.3,1.2,2.3,1.7,4.4,2.5c-0.3,0.3-0.5,0.5-0.7,1c-0.8-0.3-1.6-0.7-2.3-1.2
		c-0.7-0.5-1.3-0.9-2-1.6c0,1.4,0,2.4,0.1,3.1H71z M68.7,4.4v0.7H71V4.4H68.7z M71,6.1h-2.3v0.7H71V6.1z M72.2,5.1h2.3V4.4h-2.3V5.1
		z M74.5,6.8V6.1h-2.3v0.7H74.5z"/>
	<path class="st0" d="M83.7,8.3c0.1,0.1,0.2,0.1,0.2,0.2c0,0.1,0,0.1-0.3,0.2c-1.3,1.4-1.8,1.8-3.4,2.6c-0.3-0.5-0.4-0.7-0.7-1
		c1.4-0.6,2.4-1.4,3.3-2.5L83.7,8.3z M84.5,1.8c0-0.5,0-0.9,0-1.5l1.2,0.1c0.1,0,0.2,0,0.2,0.1c0,0.1-0.1,0.1-0.2,0.2v1h2.5
		c0.8,0,1.8,0,2.4,0v1.2c-0.6,0-1.7,0-2.4,0H82c-0.7,0-1.7,0-2.4,0V1.8c0.6,0,1.7,0,2.4,0H84.5z M85.7,7.1v2c0,0.2,0,0.9,0,1.3
		c0,0,0,0,0,0.2c0,0.9-0.4,1.1-2.2,1.1h-0.1c0-0.5-0.1-0.7-0.3-1.3c0.4,0,0.6,0,0.8,0c0.6,0,0.6,0,0.6-0.5V7.1h-1.9v0.4h-1.2
		c0-0.3,0-0.7,0-1.3V4.7c0-0.4,0-0.9,0-1.1c0.4,0,0.8,0,1.3,0h4.5c0.5,0,0.9,0,1.3,0c0,0.2,0,0.7,0,1.1v1.5c0,0.6,0,1,0,1.2h-1.2
		V7.1H85.7z M87.5,4.7h-4.7V6h4.7V4.7z M87.4,7.7c1.1,1,1.9,1.6,3.3,2.3c-0.3,0.3-0.4,0.5-0.7,1c-1.3-0.7-2.2-1.3-3.4-2.6L87.4,7.7z
		"/>
	<path class="st0" d="M101,9.2c-0.5-0.8-1.3-1.6-2-2.3c-1.3,1.7-2.7,2.8-4.7,4c-0.3-0.5-0.4-0.6-0.8-1c1.4-0.8,2.1-1.4,3.2-2.4
		c0.5-0.5,0.8-0.8,1.4-1.5c-0.9-0.7-1.2-0.9-2.9-2l0.7-1c1.9,1.1,2,1.2,3,2c0.9-1.4,1.3-2.4,1.6-3.9l1.2,0.5c0.1,0,0.1,0.1,0.1,0.2
		c0,0.1-0.1,0.2-0.2,0.2c-0.1,0.3-0.1,0.3-0.3,0.9c-0.5,1.2-1,2.2-1.5,3c1,0.9,1.6,1.5,2.3,2.4L101,9.2z"/>
	<path class="st0" d="M108.8,4c1.8,0.8,2.7,1.3,4.1,2.4l-0.9,1.2c-1.2-1.1-2.2-1.8-3.7-2.4v3.3c0,1.3,0,2.2,0,2.8H107
		c0-0.6,0.1-1.6,0.1-2.8V3.6c0-1.6,0-2.5-0.1-2.8l1.4,0.1c0.1,0,0.2,0,0.2,0.1c0,0.1,0,0.1-0.2,0.2c0,0.3,0,0.3,0,2.4v1.1L108.8,4z"
		/>
	<path class="st0" d="M117.9,10.4h-1.3c0-0.4,0-1.2,0-2.1V4.1c0-1.5,0-1.5,0-1.9c0.3,0,0.6,0,1,0h6.2c0.4,0,0.7,0,1,0
		c0,0.4,0,1.2,0,1.9v4.1c0,1,0,1.6,0,2.1h-1.3V9.8h-5.7V10.4z M123.6,8.6V3.4h-5.7v5.1H123.6z"/>
	<path class="st0" d="M130.3,11.2h-1.2c0-0.4,0-1.2,0-2.1V3.2c0-1.5,0-1.5,0-1.9c0.3,0,0.6,0,1,0h5.3c0.4,0,0.7,0,1,0
		c0,0.4,0,1.2,0,1.9v5.7c0,1,0,1.7,0,2.1h-1.2v-0.6h-4.9V11.2z M135.2,2.4h-4.9v2.8h4.9V2.4z M135.2,6.4h-4.9v3h4.9V6.4z"/>
	<path class="st0" d="M144.4,4.3c0.3,0,0.9,0,1.2,0v1.2c-0.3,0-0.9,0-1.2,0h-1.8v4c0.9-0.3,1.8-0.5,2.9-0.9l0.2,1.1
		c-1.8,0.6-3.8,1.2-5.3,1.6c-0.1,0.2-0.2,0.2-0.2,0.2c-0.1,0-0.1-0.1-0.2-0.1l-0.5-1.2c0.7-0.2,1.3-0.3,1.9-0.4v-7
		c0-0.9,0-1.5,0-1.8l1.2,0.1c0.1,0,0.2,0,0.2,0.1c0,0.1-0.1,0.1-0.2,0.2c0,0.3,0,0.6,0,1.4v1.7H144.4z M147.4,4.3
		c0.9-0.4,1.5-0.8,2.3-1.4l0.9,0.8c0.1,0,0.1,0.1,0.1,0.2c0,0.1-0.1,0.1-0.2,0.1c0,0-0.1,0-0.2,0c-1.2,0.7-1.8,1-2.9,1.4v4.2
		c0,0.4,0.1,0.5,1,0.5c0.8,0,1.2-0.1,1.3-0.3c0.1-0.2,0.1-0.2,0.1-1.6c0.6,0.3,0.7,0.3,1.1,0.4c-0.1,1.6-0.2,2-0.6,2.3
		c-0.4,0.2-0.9,0.3-2.1,0.3c-1.7,0-2.1-0.2-2.1-1.3l0-7.3c0-1,0-1.5,0-1.8l1.2,0.1c0.1,0,0.2,0.1,0.2,0.1c0,0.1-0.1,0.1-0.2,0.2
		c0,0.3,0,0.6,0,1.4V4.3z"/>
	<path class="st0" d="M159.4,2.9c0.2,0.1,0.3,0.1,0.3,0.2c0,0.1,0,0.2-0.3,0.2c0.5,0.7,1.1,1.2,1.8,1.8c0.8,0.6,1.4,1,3.1,1.7
		c-0.3,0.4-0.5,0.6-0.7,1c-0.6-0.3-1.1-0.5-1.5-0.8c0,0.2,0,0.6,0,1.5v0.6c0,1,0,1.7,0,2.1h-1.2V11h-4.3v0.6h-1.2c0-0.5,0-1.2,0-2.1
		V8.7c0-0.5,0-1.1,0-1.5c-0.5,0.3-1,0.7-1.8,1.1c-0.3-0.6-0.4-0.8-0.7-1c1.3-0.7,2-1.2,3-2c1.1-0.9,1.6-1.6,2.5-2.9L159.4,2.9z
		 M157.7,1.4c0.1,0,0.2,0.1,0.2,0.2c0,0.1-0.1,0.1-0.4,0.2c-1.5,1.5-2.3,2-3.7,2.8c-0.3-0.5-0.4-0.6-0.7-0.9
		c1.6-0.9,2.7-1.7,3.6-2.8L157.7,1.4z M161.4,6.8c-0.7-0.5-1.3-1-1.9-1.6c-0.3-0.4-0.7-0.8-1-1.2c-0.6,0.9-1.1,1.4-1.9,2.1
		c-0.3,0.2-0.6,0.5-0.8,0.7c0.2,0,0.3,0,0.5,0H161.4z M160.8,9.9v-2h-4.3v2H160.8z M160.5,0.8c1.7,1.4,2.2,1.7,3.7,2.4
		c-0.3,0.3-0.5,0.6-0.7,1c-1.6-0.9-2.5-1.6-3.8-2.7L160.5,0.8z"/>
	<path class="st0" d="M167.8,7.3c0.1,0,0.1,0.1,0.1,0.1c0,0,0,0.1-0.1,0.1l-0.1,0.1c-0.1,1.3-0.2,2.3-0.5,3.1
		c-0.4-0.2-0.6-0.3-1-0.4c0.3-1,0.4-1.9,0.4-3.2L167.8,7.3z M169.3,6.3v2.8c0,1.1,0,1.9,0,2.5h-1.2c0-0.5,0-1.4,0-2.5V6.4
		c-0.3,0-0.7,0.1-1,0.1c-0.1,0.1-0.2,0.2-0.2,0.2c-0.1,0-0.1-0.1-0.2-0.2l-0.3-1.1c0.3,0,0.6,0,0.8,0c0.2-0.3,0.5-0.7,0.7-1
		c-0.5-0.5-0.9-0.8-1.6-1.3l0.5-0.8c0.1,0.1,0.3,0.2,0.4,0.3c0.4-0.7,0.8-1.5,0.9-2l1,0.4c0.1,0,0.1,0.1,0.1,0.2
		c0,0.1-0.1,0.1-0.3,0.2c-0.3,0.7-0.7,1.4-1,1.8c0.2,0.1,0.3,0.3,0.5,0.4c0.4-0.6,0.6-1.2,0.8-1.7l1,0.5c0.1,0,0.1,0.1,0.1,0.2
		c0,0.1-0.1,0.1-0.3,0.2c-0.9,1.5-1.2,2-1.8,2.7c0.3,0,0.7,0,1.1-0.1c-0.1-0.2-0.2-0.3-0.3-0.5l0.8-0.5c0.5,0.8,0.8,1.3,1.1,2.1
		l-0.9,0.5c-0.1-0.3-0.2-0.5-0.3-0.7L169.3,6.3z M170.2,7.1c0.4,0.7,0.4,0.8,0.8,2l-1,0.4c-0.2-1-0.4-1.5-0.6-2L170.2,7.1z
		 M173.3,7.7c-0.5,1-0.7,1.4-1.2,2c-0.5,0.6-0.9,0.9-1.6,1.4c-0.2-0.4-0.4-0.6-0.7-0.9c1.1-0.7,1.8-1.3,2.3-2.4c-0.5,0-0.9,0-1.4,0
		V6.9c0.4,0,1.2,0,1.7,0h0.3l0.2-0.2l0.6,0.6c0.1,0.1,0.1,0.1,0.1,0.2C173.6,7.6,173.6,7.7,173.3,7.7L173.3,7.7z M172.5,5.9v0.5
		h-1.1c0-0.3,0-0.7,0-1.3V2.8c0-0.4,0-0.9,0-1.1c0.4,0,0.8,0,1.3,0h0.8c0.2-0.5,0.3-0.9,0.5-1.4l1.2,0.3c0.1,0,0.1,0.1,0.1,0.1
		c0,0.1,0,0.1-0.3,0.2c-0.1,0.1-0.1,0.3-0.2,0.3c-0.1,0.2-0.2,0.3-0.2,0.4h1.1c0.5,0,0.9,0,1.3,0c0,0.2,0,0.7,0,1.1V5
		c0,0.6,0,1,0,1.2H176V5.9h-1.2v0.8c0.1,0.3,0.3,0.6,0.5,0.9c0.5-0.3,1-0.7,1.4-1.2l0.9,0.6c0.1,0,0.1,0.1,0.1,0.1
		c0,0.1-0.1,0.1-0.4,0.1c-0.9,0.7-1.1,0.8-1.4,1c0.5,0.6,1.2,1.1,2.1,1.7c-0.2,0.2-0.2,0.2-0.8,0.9c-0.9-0.6-1.3-1.1-1.9-1.8
		c-0.2-0.3-0.4-0.5-0.5-0.8v0.6c0,0.2,0,0.7,0,1.1v0.2c0,0.7-0.2,0.9-0.7,1.1c-0.3,0.1-0.7,0.1-1.6,0.1c0-0.5,0-0.6-0.2-1.2
		c0.3,0,0.5,0,0.8,0c0.5,0,0.5,0,0.5-0.5v-4H172.5z M176,3.4V2.8h-3.5v0.6H176z M172.5,4.9h3.5V4.3h-3.5V4.9z"/>
	<path class="st0" d="M32.6,36.9c0.2,0.1,0.2,0.1,0.2,0.2c0,0.2-0.1,0.2-0.4,0.3c-0.8,2.7-1.2,3.4-2.6,5c-0.6-0.8-0.9-1.2-1.8-1.8
		c1.3-1.4,2.1-2.9,2.5-4.7L32.6,36.9z M45.2,26.3c1.1,0,1.8,0,2.6,0c0,0.4-0.1,1.3-0.1,2.1v4.5c0,1.1,0,1.9,0.1,2.5h-2.3v-0.7h-12
		v0.8h-2.3c0-0.6,0-1.4,0-2.5v-4.6c0-0.8,0-1.7,0-2.1c0.8,0,1.6,0,2.6,0h4.4v-1.2h-5.1c-1.3,0-3.5,0-4.8,0.1v-2.3
		c1.2,0,3.4,0.1,4.8,0.1h5.1c0-1.1,0-1.3,0-2.2l2.4,0.1c0.3,0,0.4,0.1,0.4,0.2s-0.1,0.3-0.5,0.5v1.3h5.1c1.5,0,3.6,0,4.8-0.1v2.3
		c-1.3,0-3.3-0.1-4.8-0.1h-5.1v1.2H45.2z M33.5,28.3v1.3h4.8v-1.3H33.5z M33.5,32.7h4.8v-1.3h-4.8V32.7z M36.7,35.8
		c0.2,0,0.4,0.1,0.4,0.3c0,0.2-0.2,0.3-0.5,0.5c0,0.3,0,0.6,0,1v2c0,0.9,0.2,1,2.4,1c3.6,0,4.2,0,4.5-0.4c0.2-0.3,0.3-1.8,0.3-1.9
		c0,0,0-0.1,0-0.3c1.1,0.4,1.5,0.5,2.4,0.7c-0.1,2.1-0.3,3-1,3.5c-0.6,0.5-1.7,0.6-5.2,0.6c-2.7,0-3.7,0-4.5-0.2
		c-0.8-0.2-1.2-0.8-1.2-1.9v-2.7c0-1.3,0-1.9-0.1-2.2L36.7,35.8z M39.3,34.9c1.6,1,2.4,1.7,3.5,2.9l-1.7,1.7
		c-0.9-1.2-1.8-2.1-3.3-3.1L39.3,34.9z M45.6,28.3h-4.8v1.3h4.8V28.3z M40.7,31.4v1.3h4.8v-1.3H40.7z M47,35.6
		c0.7,0.6,1.3,1.3,2.2,2.3c0.5,0.5,0.7,0.8,1.1,1.4c0.3,0.5,0.3,0.5,0.6,0.8l-2,1.5C48,40,47.1,38.8,45.4,37L47,35.6z"/>
	<path class="st0" d="M64.8,28.6c0.7,0,1.7,0,2.4,0v2.3c-0.7,0-1.7,0-2.4,0h-3.6v7.9c1.8-0.5,3.6-1.1,5.9-1.8l0.4,2.2
		c-3.6,1.3-7.5,2.5-10.6,3.3c-0.2,0.3-0.3,0.5-0.5,0.5c-0.1,0-0.3-0.1-0.3-0.3l-1-2.4c1.4-0.3,2.7-0.6,3.8-0.9V25.2
		c0-1.9,0-2.9-0.1-3.6l2.5,0.2c0.3,0,0.4,0.1,0.4,0.2s-0.1,0.3-0.4,0.5c0,0.6,0,1.2,0,2.7v3.3H64.8z M70.8,28.5
		c1.8-0.8,3-1.5,4.6-2.8l1.8,1.7c0.1,0.1,0.2,0.2,0.2,0.3c0,0.1-0.1,0.2-0.4,0.2c-0.1,0-0.2,0-0.5,0c-2.5,1.5-3.6,2-5.8,2.9v8.5
		c0,0.9,0.3,1,2,1c1.7,0,2.4-0.1,2.6-0.6c0.2-0.4,0.2-0.4,0.3-3.1c1.3,0.5,1.3,0.6,2.3,0.8c-0.2,3.3-0.4,4-1.2,4.6
		c-0.7,0.5-1.8,0.6-4.2,0.6c-3.5,0-4.2-0.5-4.2-2.6l0-14.7c0-1.9,0-2.9-0.1-3.6l2.5,0.2c0.3,0,0.4,0.1,0.4,0.2
		c0,0.1-0.1,0.3-0.5,0.5c0,0.6,0,1.2,0,2.7V28.5z"/>
	<path class="st0" d="M92,31.9c-0.2,0.7-0.5,1.3-0.8,2h6.3c0-0.8-0.1-1.4-0.1-1.6l2.6,0.2c0.2,0,0.3,0.1,0.3,0.2
		c0,0.1-0.1,0.3-0.4,0.5c0,0.2,0,0.4,0,0.7c1.5,0,3.4,0,4.6-0.1v2.3c-1.2,0-3.2-0.1-4.6-0.1V38c0,0.4,0,1.3,0.1,2v0.4
		c0,1.1-0.2,1.7-0.8,2.1c-0.7,0.5-1.4,0.6-3.6,0.6h-0.3c0-1,0-1-0.5-2.5c0.7,0.1,1.1,0.1,1.7,0.1c0.9,0,1.1-0.1,1.1-1v-3.6H90
		c-1.6,2.4-3.7,4.4-6.6,6.1c-0.4-0.8-0.7-1.2-1.3-1.9c2-1.1,3.7-2.5,5-4.2c-1.3,0-3,0-4.1,0.1v-2.3c1.2,0,3.4,0.1,4.8,0.1h0.8
		c0-0.1,0.1-0.1,0.1-0.2c0.3-0.6,0.6-1.1,0.8-1.8h-2.1c-1.3,0-3.5,0-4.8,0.1v-2.3c1.2,0,3.4,0.1,4.8,0.1h2.8
		c0.1-0.4,0.2-0.7,0.3-1.1h-2.4c-1,0-2.4,0-3.3,0v-2.3c0.9,0,2.3,0.1,3.3,0.1H91c0-0.3,0.1-0.7,0.2-1h-3.7c-1.2,0-2.8,0-3.8,0.1
		v-2.3c1,0,2.6,0.1,3.8,0.1h4c0.1-0.8,0.2-1.7,0.2-2.6l2.3,0.4c0.3,0,0.5,0.1,0.5,0.3c0,0.2-0.1,0.3-0.5,0.4c0,0.5-0.1,1-0.2,1.5
		h5.7c1.1,0,2.8,0,3.8-0.1v2.3c-1,0-2.7-0.1-3.8-0.1h-6l-0.1,1h5.5c1,0,2.5,0,3.4-0.1v2.3c-0.9,0-2.4,0-3.4,0h-5.9
		c-0.1,0.4-0.1,0.7-0.2,1.1h6.8c1.5,0,3.6,0,4.8-0.1V32c-1.3,0-3.3-0.1-4.8-0.1H92z M92.3,36.3c1.1,1,1.9,1.9,3,3.3L93.5,41
		c-0.9-1.4-1.7-2.4-2.7-3.5L92.3,36.3z"/>
	<path class="st0" d="M109.8,38.2c0.1,0,0.2,0.1,0.2,0.1c0,0,0,0.1-0.1,0.1l-0.1,0.1c0,1.2-0.1,1.9-0.4,2.9c-0.4-0.3-0.6-0.4-1-0.5
		c0.3-0.9,0.3-1.4,0.4-2.9L109.8,38.2z M112.8,32.1L112.8,32.1c0.6,0,1.3,0,1.8,0v1.2c-0.4,0-1.2,0-1.7,0h-0.1V34h0.1
		c0.5,0,1.2,0,1.7,0v1.1c-0.4,0-1.2,0-1.7,0h-0.1V36h1.3l0.2-0.2l0.8,0.8c0.1,0.1,0.1,0.2,0.1,0.2c0,0.1-0.1,0.2-0.3,0.3
		c-0.2,2.1-0.3,2.7-0.5,3.6c-0.3,1-0.6,1.4-1.3,1.6c-0.4,0.1-0.5,0.1-1.6,0.2c-0.1-0.7-0.1-1-0.3-1.3c0.2,0,0.5,0,0.7,0
		c0.8,0,1-0.1,1.2-0.4c0.1-0.3,0.3-0.9,0.4-1.6l-0.5,0.3c-0.2-0.6-0.5-1.2-0.9-1.7l0.7-0.4c0.3,0.4,0.6,0.8,0.8,1.2
		c0-0.4,0.1-0.9,0.1-1.3h-3.2v0.4h-1.3c0-0.6,0-1.4,0-2.5v-2.8c0-0.8,0-1.8,0-2.2c0.3,0,0.7,0,1.1,0h0.1l2.9,0c1.1,0,1.1,0,1.7,0
		v1.2c-0.5,0-1.2,0-1.7,0h-0.4V32.1z M110.9,38.1c0.3,1,0.4,1.3,0.5,2.3l-0.9,0.3c-0.1-1-0.2-1.7-0.4-2.4L110.9,38.1z M110.4,31.2
		v0.9h1.2v-0.9H110.4z M110.4,34h1.2v-0.9h-1.2V34z M110.4,36h1.2v-0.9h-1.2V36z M111.8,37.8c0.5,1,0.6,1.1,0.8,1.9l-0.9,0.4
		c-0.1-0.6-0.4-1.3-0.7-2L111.8,37.8z M119.3,35.4c0.3,2.4,1,3.8,2.6,5.6c-0.4,0.3-0.7,0.7-1.1,1.1c-1.1-1.3-1.5-2-2-3.3
		c-0.4-1.1-0.6-1.9-0.8-3.5h-1c0,0.7-0.1,1.5-0.1,1.7c-0.1,1.1-0.3,2.1-0.7,3.3c-0.3,0.8-0.4,1.2-0.8,1.9c-0.3-0.4-0.6-0.6-1.1-0.9
		c0.9-1.8,1.3-3.7,1.3-6.8v-3.3c0-1,0-1,0-1.2c0.5,0,0.9,0,1.5,0h2.5c0.6,0,1.1,0,1.5,0c0,0.3,0,0.8,0,1.2v3.1c0,0.7,0,1.1,0,1.5
		H120v-0.5H119.3z M120,31.3h-2.8v2.8h2.8V31.3z"/>
	<path class="st0" d="M130.7,30c0.2,0,0.3,0.1,0.3,0.2c0,0.1,0,0.1-0.2,0.3c0,0.8,0,1,0,1.5c0,0.3,0,0.5,0,0.8
		c1.8-0.1,2.6-0.2,3.8-0.7l0.3,1.4c-1.1,0.4-2.7,0.6-4.1,0.6c0,1.3,0,1.8,0.1,3.4c1.4,0.5,1.6,0.6,2.7,1.1c0.7,0.4,1.5,0.8,1.8,1
		c-0.4,0.4-0.6,0.6-0.9,1.3c-0.1,0-0.1,0-0.3-0.2c-0.8-0.6-2.3-1.3-3.3-1.7c0,0.7-0.1,0.9-0.2,1.2c-0.4,0.9-1.3,1.3-2.7,1.3
		c-1,0-1.9-0.2-2.3-0.6c-0.5-0.4-0.8-1-0.8-1.6c0-1.3,1.2-2.2,3-2.2c0.5,0,1.1,0.1,1.6,0.2c0-1.5,0-1.8-0.1-2.8
		c-0.1-1.8-0.1-1.9-0.1-3.2c0-0.4,0-0.8-0.1-1.2L130.7,30z M129.5,38.6c-0.5-0.2-1.1-0.3-1.7-0.3c-0.9,0-1.4,0.4-1.4,1
		c0,0.6,0.6,1,1.5,1c0.7,0,1.2-0.2,1.4-0.6c0.1-0.3,0.2-0.5,0.2-0.9V38.6z"/>
	<path class="st0" d="M141.7,30.3c0.1,0,0.2,0.1,0.2,0.2c0,0.1-0.1,0.2-0.3,0.2c-0.3,1.1-0.4,2.1-0.4,3.5c0,1.4,0.1,1.7,0.5,3.3
		l-1.5,0.4c-0.4-1.1-0.5-2.1-0.5-3.6c0-1.4,0.1-2.7,0.3-3.9c0-0.1,0-0.2,0-0.4L141.7,30.3z M147.2,30.1c0.1,0,0.2,0.1,0.2,0.2
		c0,0.1-0.1,0.2-0.3,0.3c0.1,1.4,0.2,3.2,0.2,4.2c0,3.1-0.6,4.7-2.2,5.9c-0.8,0.6-2,1.2-3.4,1.6c-0.3-0.8-0.4-0.9-0.8-1.4
		c1.7-0.4,2.5-0.9,3.3-1.5c1.1-1,1.5-2.1,1.5-4.7c0-1-0.1-2.7-0.2-3.7c0-0.4-0.1-0.6-0.1-0.8L147.2,30.1z"/>
	<path class="st0" d="M49.1,72.4c-0.3,0.4-0.7,0.8-1.1,1.2c-0.3-0.5-0.5-0.9-0.8-1.1c1.4-1.4,2.2-2.6,3.2-4.7l1.2,0.6
		c0.2,0.1,0.2,0.1,0.2,0.2c0,0.1,0,0.1-0.4,0.2c-0.1,0.3-0.3,0.5-0.4,0.6c-0.3,0.5-0.5,0.9-0.7,1.3l0.1,0c0.1,0,0.2,0.1,0.2,0.1
		s-0.1,0.2-0.3,0.3v3.7c0,1.3,0,2.3,0,2.9h-1.4c0-0.6,0-1.6,0-2.9V72.4z M51.4,65.3c0.2,0.1,0.2,0.1,0.2,0.2c0,0.1,0,0.1-0.4,0.2
		c-1,1.3-1.9,2-3.2,2.8c-0.2-0.5-0.4-0.8-0.7-1.1c1.6-1,2.2-1.5,3.1-2.7L51.4,65.3z M56.6,70.6c0.1,0,0.2,0.1,0.2,0.2
		c0,0.1-0.1,0.1-0.2,0.2v1.4h1.6c0.4,0,1,0,1.4,0v1.3c-0.4,0-1,0-1.4,0h-1.6v2.3c0.6,0.1,1.2,0.2,2,0.2c0.5,0,0.6,0,2.2-0.1
		c-0.1,0.4-0.2,0.6-0.2,0.8c-0.1,0.4-0.1,0.4-0.1,0.6c-0.8,0-1.2,0.1-1.7,0.1c-2.2,0-3.3-0.2-4.4-0.8c-0.5-0.3-1-0.8-1.3-1.3
		c-0.3,0.9-0.7,1.4-1.4,2.2c-0.4-0.5-0.6-0.7-0.9-1c1.2-1.5,1.7-2.9,1.9-5.6l1.2,0.3c0.2,0,0.3,0.1,0.3,0.2s-0.1,0.1-0.3,0.2
		c-0.1,0.9-0.2,1.6-0.4,2.3c0.4,0.7,0.9,1.3,1.7,1.6v-4.2c0-0.2,0-0.6,0-0.9h-1.8c-0.6,0-1.4,0-2,0v-1.4c0.5,0,1.3,0,2,0h1.8v-1.6
		h-1.5c-0.5,0-1.2,0-1.7,0v-1.3c0.4,0,1.1,0,1.7,0h1.5c0-0.8,0-1.3,0-1.7l1.4,0.1c0.2,0,0.2,0.1,0.2,0.1s-0.1,0.2-0.3,0.3v1.2h1.6
		c0.5,0,1.3,0,1.7,0v1.3c-0.4,0-1.2,0-1.7,0h-1.6v1.6h2c0.6,0,1.5,0,1.9,0v1.4c-0.5,0-1.4,0-1.9,0h-2.9L56.6,70.6z"/>
	<path class="st0" d="M67.7,71.4c0.2,0.1,0.2,0.2,0.2,0.3c0,0.1-0.1,0.2-0.4,0.2c-1,1.4-2,2.3-3.7,3.2c-0.2-0.4-0.4-0.7-0.7-1.1
		c1.7-1,2.5-1.7,3.5-3.2L67.7,71.4z M66,67.8c0-1.1,0-1.7,0-2.1l1.5,0.1c0.2,0,0.2,0.1,0.2,0.1c0,0.1-0.1,0.2-0.3,0.3v2.9h2v-3.2
		c0-0.6,0-0.8,0-1.3l1.4,0.1c0.2,0,0.3,0.1,0.3,0.1s-0.1,0.2-0.3,0.3v1.2h2.8c0.4,0,1,0,1.4,0v1.3c-0.4,0-1,0-1.4,0h-2.8v1.5h2.6
		c0.9,0,2.1,0,2.8-0.1v1.4c-0.8,0-1.9-0.1-2.8-0.1h-2.8V72c0,0.2,0,0.9,0,1.3v0.2c0,1.2-0.5,1.5-2.5,1.5h-0.3c0-0.4,0-0.5-0.1-0.7
		c0-0.1,0-0.2-0.1-0.4c0-0.1-0.1-0.3-0.1-0.5c0.5,0,0.7,0.1,1,0.1c0.7,0,0.8,0,0.8-0.6v-2.5H66c-0.8,0-2,0-2.8,0.1V69
		c0.7,0,2,0.1,2.8,0.1h0V67.8z M73.8,73.7c0.2,0.1,0.2,0.2,0.2,0.2c0,0.1-0.1,0.2-0.5,0.2C72,75.4,71,76,69.3,76.6
		c-1.8,0.6-3.1,0.9-5.6,1c-0.1-0.5-0.2-0.8-0.3-1.3c2.6-0.2,3.8-0.4,5.5-0.9c1.5-0.5,2.5-1.1,3.9-2.3L73.8,73.7z M72.6,70.8
		c1.6,0.9,2.6,1.6,3.7,2.7l-1,1c-1.3-1.4-1.5-1.5-3.4-2.7L72.6,70.8z"/>
	<path class="st0" d="M101.2,53.6v2.8l-9.8,20h-3.8L97.2,57H86.4v-3.3H101.2z"/>
	<path class="st0" d="M105.6,68.8c0.1,0.3,0.2,0.6,0.2,1v0.1c0.5-0.8,1.2-1.2,2.3-1.2c1,0,1.7,0.4,2.1,1.3c0.6-0.9,1.3-1.3,2.4-1.3
		c1,0,1.7,0.4,2.1,1.1c0.2,0.5,0.3,0.7,0.3,2.2v4.5h-1.6v-4.5c0-0.8,0-1.1-0.2-1.3c-0.2-0.3-0.6-0.5-1.1-0.5c-0.6,0-1,0.2-1.3,0.6
		c-0.2,0.3-0.3,0.7-0.3,1.3v4.4h-1.6v-4.3c0-0.9,0-1.2-0.2-1.4c-0.2-0.4-0.6-0.6-1.2-0.6c-0.7,0-1.2,0.3-1.4,0.8
		c-0.1,0.3-0.2,0.7-0.2,1.2v4.3h-1.6v-5.5c0-1.3,0-1.5-0.2-2H105.6z"/>
	<path class="st0" d="M120.2,65.8v1.7h-1.7v-1.7H120.2z M120.1,68.8v7.6h-1.6v-7.6H120.1z"/>
	<path class="st0" d="M125,68.8c0.1,0.3,0.2,0.5,0.2,1c0.5-0.8,1.3-1.2,2.3-1.2s1.8,0.4,2.2,1.2c0.3,0.5,0.3,0.8,0.3,2.2v4.4h-1.6
		v-4.1c0-0.9,0-1.3-0.2-1.6c-0.2-0.4-0.6-0.7-1.2-0.7c-0.6,0-1.1,0.3-1.4,0.8c-0.2,0.3-0.3,0.8-0.3,1.5v4h-1.6v-4.9
		c0-1.9,0-1.9-0.2-2.6H125z"/>
	<path class="st0" d="M38.2,101.6c0-0.7,0-1.8,0-3.1c-0.6,0.7-1.1,1.1-1.9,1.5c-0.9,0.6-1.6,0.9-2.6,1.3c-0.2-0.4-0.2-0.5-0.6-1.1
		c1.3-0.5,2.1-0.8,2.9-1.4c0.6-0.3,0.9-0.6,1.5-1.2h-1.6v0.4h-1.2c0-0.3,0-0.7,0-1.3v-2.4c0-0.4,0-0.8,0-1.1c0.4,0,0.8,0,1.3,0h2.2
		v-0.7h-2.6c-0.7,0-1.8,0-2.4,0v-1.2c0.6,0,1.7,0,2.4,0h2.5c0-0.6,0-0.9,0-1.1l1.3,0.1c0.1,0,0.2,0.1,0.2,0.1c0,0.1-0.1,0.2-0.3,0.2
		c0,0.2,0,0.3,0,0.7h2.5c0.8,0,1.8,0,2.4,0v1.2c-0.6,0-1.7,0-2.4,0h-2.5c0,0.3,0,0.5,0,0.7h2.2c0.5,0,0.9,0,1.3,0c0,0.2,0,0.7,0,1.1
		v2.4c0,0.6,0,1,0,1.2h-1.2v-0.4H40c1.3,1.2,2.3,1.7,4.4,2.5c-0.3,0.3-0.5,0.5-0.7,1c-0.8-0.3-1.6-0.7-2.3-1.2
		c-0.7-0.5-1.3-0.9-2-1.6c0,1.4,0,2.4,0.1,3.1H38.2z M35.9,94.4v0.7h2.3v-0.7H35.9z M38.2,96.1h-2.3v0.7h2.3V96.1z M39.4,95.1h2.3
		v-0.7h-2.3V95.1z M41.7,96.8v-0.7h-2.3v0.7H41.7z"/>
	<path class="st0" d="M50.9,98.3c0.1,0.1,0.2,0.1,0.2,0.2c0,0.1,0,0.1-0.3,0.2c-1.3,1.4-1.8,1.8-3.4,2.6c-0.3-0.5-0.4-0.7-0.7-1
		c1.4-0.6,2.4-1.4,3.3-2.5L50.9,98.3z M51.7,91.8c0-0.5,0-0.9,0-1.5l1.2,0.1c0.1,0,0.2,0,0.2,0.1c0,0.1-0.1,0.1-0.2,0.2v1h2.5
		c0.8,0,1.8,0,2.4,0v1.2c-0.6,0-1.7,0-2.4,0h-6.3c-0.7,0-1.7,0-2.4,0v-1.2c0.6,0,1.7,0,2.4,0H51.7z M52.9,97.1v2c0,0.2,0,0.9,0,1.3
		c0,0,0,0,0,0.2c0,0.9-0.4,1.1-2.2,1.1h-0.1c0-0.5-0.1-0.7-0.3-1.3c0.4,0,0.6,0,0.8,0c0.6,0,0.6,0,0.6-0.5v-2.7h-1.9v0.4h-1.2
		c0-0.3,0-0.7,0-1.3v-1.6c0-0.4,0-0.9,0-1.1c0.4,0,0.8,0,1.3,0h4.5c0.5,0,0.9,0,1.3,0c0,0.2,0,0.7,0,1.1v1.5c0,0.6,0,1,0,1.2h-1.2
		v-0.4H52.9z M54.7,94.7h-4.7V96h4.7V94.7z M54.6,97.7c1.1,1,1.9,1.6,3.3,2.3c-0.3,0.3-0.4,0.5-0.7,1c-1.3-0.7-2.2-1.3-3.4-2.6
		L54.6,97.7z"/>
	<path class="st0" d="M68.2,99.2c-0.5-0.8-1.3-1.6-2-2.3c-1.3,1.7-2.7,2.8-4.8,4c-0.3-0.5-0.4-0.6-0.8-1c1.4-0.8,2.1-1.4,3.2-2.4
		c0.5-0.5,0.8-0.8,1.4-1.5c-0.9-0.7-1.2-0.9-2.9-2l0.7-1c1.9,1.1,2,1.2,3,2c0.9-1.4,1.3-2.4,1.6-3.9l1.2,0.5c0.1,0,0.1,0.1,0.1,0.2
		c0,0.1-0.1,0.2-0.2,0.2c-0.1,0.3-0.1,0.3-0.3,0.9c-0.5,1.2-1,2.2-1.5,3c1,0.9,1.6,1.5,2.3,2.4L68.2,99.2z"/>
	<path class="st0" d="M76,94c1.8,0.8,2.7,1.3,4.1,2.4l-0.9,1.2c-1.2-1.1-2.2-1.8-3.7-2.4v3.3c0,1.3,0,2.2,0,2.8h-1.4
		c0-0.6,0.1-1.6,0.1-2.8v-4.8c0-1.6,0-2.5-0.1-2.8l1.4,0.1c0.1,0,0.2,0,0.2,0.1c0,0.1,0,0.1-0.2,0.2c0,0.3,0,0.3,0,2.4v1.1L76,94z"
		/>
	<path class="st0" d="M85.1,100.4h-1.3c0-0.4,0-1.2,0-2.1v-4.1c0-1.5,0-1.5,0-1.9c0.3,0,0.6,0,1,0H91c0.4,0,0.7,0,1,0
		c0,0.4,0,1.2,0,1.9v4.1c0,1,0,1.6,0,2.1h-1.3v-0.6h-5.7V100.4z M90.8,98.6v-5.1h-5.7v5.1H90.8z"/>
	<path class="st0" d="M97.5,101.2h-1.2c0-0.4,0-1.2,0-2.1v-5.9c0-1.5,0-1.5,0-1.9c0.3,0,0.6,0,1,0h5.3c0.4,0,0.7,0,1,0
		c0,0.4,0,1.2,0,1.9v5.7c0,1,0,1.7,0,2.1h-1.2v-0.6h-4.9V101.2z M102.4,92.4h-4.9v2.8h4.9V92.4z M102.4,96.4h-4.9v3h4.9V96.4z"/>
	<path class="st0" d="M111.6,94.3c0.3,0,0.9,0,1.2,0v1.2c-0.3,0-0.9,0-1.2,0h-1.8v4c0.9-0.3,1.8-0.5,2.9-0.9l0.2,1.1
		c-1.8,0.6-3.8,1.2-5.3,1.6c-0.1,0.2-0.2,0.2-0.2,0.2c-0.1,0-0.1-0.1-0.2-0.1l-0.5-1.2c0.7-0.2,1.3-0.3,1.9-0.4v-7
		c0-0.9,0-1.5,0-1.8l1.2,0.1c0.1,0,0.2,0,0.2,0.1c0,0.1-0.1,0.1-0.2,0.2c0,0.3,0,0.6,0,1.4v1.7H111.6z M114.6,94.3
		c0.9-0.4,1.5-0.8,2.3-1.4l0.9,0.8c0.1,0,0.1,0.1,0.1,0.2c0,0.1-0.1,0.1-0.2,0.1c0,0-0.1,0-0.2,0c-1.2,0.7-1.8,1-2.9,1.4v4.2
		c0,0.4,0.1,0.5,1,0.5c0.8,0,1.2-0.1,1.3-0.3c0.1-0.2,0.1-0.2,0.1-1.6c0.6,0.3,0.7,0.3,1.1,0.4c-0.1,1.6-0.2,2-0.6,2.3
		c-0.4,0.2-0.9,0.3-2.1,0.3c-1.7,0-2.1-0.2-2.1-1.3l0-7.3c0-1,0-1.5,0-1.8l1.2,0.1c0.1,0,0.2,0.1,0.2,0.1c0,0.1-0.1,0.1-0.2,0.2
		c0,0.3,0,0.6,0,1.4V94.3z"/>
	<path class="st0" d="M126.6,92.9c0.2,0.1,0.3,0.1,0.3,0.2c0,0.1,0,0.2-0.3,0.2c0.5,0.7,1.1,1.2,1.8,1.8c0.8,0.6,1.4,1,3.1,1.7
		c-0.3,0.4-0.5,0.6-0.7,1c-0.6-0.3-1.1-0.5-1.5-0.8c0,0.2,0,0.6,0,1.5v0.6c0,1,0,1.7,0,2.1H128V101h-4.3v0.6h-1.2c0-0.5,0-1.2,0-2.1
		v-0.8c0-0.5,0-1.1,0-1.5c-0.5,0.3-1,0.7-1.8,1.1c-0.3-0.6-0.4-0.8-0.7-1c1.3-0.7,2-1.2,3-2c1.1-0.9,1.6-1.6,2.5-2.9L126.6,92.9z
		 M124.9,91.4c0.1,0,0.2,0.1,0.2,0.2c0,0.1-0.1,0.1-0.4,0.2c-1.5,1.5-2.3,2-3.7,2.8c-0.3-0.5-0.4-0.6-0.7-0.9
		c1.6-0.9,2.7-1.7,3.6-2.8L124.9,91.4z M128.6,96.8c-0.7-0.5-1.3-1-1.9-1.6c-0.3-0.4-0.7-0.8-1-1.2c-0.6,0.9-1.1,1.4-1.9,2.1
		c-0.3,0.2-0.6,0.5-0.8,0.7c0.2,0,0.3,0,0.5,0H128.6z M128,99.9v-2h-4.3v2H128z M127.7,90.8c1.7,1.4,2.2,1.7,3.7,2.4
		c-0.3,0.3-0.5,0.6-0.7,1c-1.6-0.9-2.5-1.6-3.8-2.7L127.7,90.8z"/>
	<path class="st0" d="M135,97.3c0.1,0,0.1,0.1,0.1,0.1c0,0,0,0.1-0.1,0.1l-0.1,0.1c-0.1,1.3-0.2,2.3-0.5,3.1c-0.4-0.2-0.6-0.3-1-0.4
		c0.3-1,0.4-1.9,0.4-3.2L135,97.3z M136.5,96.3v2.8c0,1.1,0,1.9,0,2.5h-1.2c0-0.5,0-1.4,0-2.5v-2.7c-0.3,0-0.7,0.1-1,0.1
		c-0.1,0.1-0.2,0.2-0.2,0.2s-0.1-0.1-0.2-0.2l-0.3-1.1c0.3,0,0.6,0,0.8,0c0.2-0.3,0.5-0.7,0.7-1c-0.5-0.5-0.9-0.8-1.6-1.3l0.5-0.8
		c0.1,0.1,0.3,0.2,0.4,0.3c0.4-0.7,0.8-1.5,0.9-2l1,0.4c0.1,0,0.1,0.1,0.1,0.2c0,0.1-0.1,0.1-0.3,0.2c-0.3,0.7-0.7,1.4-1,1.8
		c0.2,0.1,0.3,0.3,0.5,0.4c0.4-0.6,0.6-1.2,0.8-1.7l1,0.5c0.1,0,0.1,0.1,0.1,0.2c0,0.1-0.1,0.1-0.3,0.2c-0.9,1.5-1.2,2-1.8,2.7
		c0.3,0,0.7,0,1.1-0.1c-0.1-0.2-0.2-0.3-0.3-0.5l0.8-0.5c0.5,0.8,0.8,1.3,1.1,2.1l-0.9,0.5c-0.1-0.3-0.2-0.5-0.3-0.7L136.5,96.3z
		 M137.4,97.1c0.4,0.7,0.4,0.8,0.8,2l-1,0.4c-0.2-1-0.4-1.5-0.6-2L137.4,97.1z M140.5,97.7c-0.5,1-0.7,1.4-1.2,2
		c-0.5,0.6-0.9,0.9-1.6,1.4c-0.2-0.4-0.4-0.6-0.7-0.9c1.1-0.7,1.8-1.3,2.3-2.4c-0.5,0-0.9,0-1.4,0v-1.1c0.4,0,1.2,0,1.7,0h0.3
		l0.2-0.2l0.6,0.6c0.1,0.1,0.1,0.1,0.1,0.2C140.8,97.6,140.8,97.7,140.5,97.7L140.5,97.7z M139.7,95.9v0.5h-1.1c0-0.3,0-0.7,0-1.3
		v-2.3c0-0.4,0-0.9,0-1.1c0.4,0,0.8,0,1.3,0h0.8c0.2-0.5,0.3-0.9,0.5-1.4l1.2,0.3c0.1,0,0.1,0.1,0.1,0.1c0,0.1,0,0.1-0.3,0.2
		c-0.1,0.1-0.1,0.3-0.2,0.3c-0.1,0.2-0.2,0.3-0.2,0.4h1.1c0.5,0,0.9,0,1.3,0c0,0.2,0,0.7,0,1.1V95c0,0.6,0,1,0,1.2h-1.1v-0.4H142
		v0.8c0.1,0.3,0.3,0.6,0.5,0.9c0.5-0.3,1-0.7,1.4-1.2l0.9,0.6c0.1,0,0.1,0.1,0.1,0.1c0,0.1-0.1,0.1-0.4,0.1c-0.9,0.7-1.1,0.8-1.4,1
		c0.5,0.6,1.2,1.1,2.1,1.7c-0.2,0.2-0.2,0.2-0.8,0.9c-0.9-0.6-1.3-1.1-1.9-1.8c-0.2-0.3-0.4-0.5-0.5-0.8v0.6c0,0.2,0,0.7,0,1.1v0.2
		c0,0.7-0.2,0.9-0.7,1.1c-0.3,0.1-0.7,0.1-1.6,0.1c0-0.5,0-0.6-0.2-1.2c0.3,0,0.5,0,0.8,0c0.5,0,0.5,0,0.5-0.5v-4H139.7z
		 M143.2,93.4v-0.6h-3.5v0.6H143.2z M139.7,94.9h3.5v-0.6h-3.5V94.9z"/>
	<path class="st0" d="M58.9,114c1.5,0,3.5,0,4.8-0.1v2.3c-1.2,0-3.4-0.1-4.8-0.1H46.4v5.1c0,4.8-1.1,8.5-3.6,11.7
		c-0.4-0.9-0.8-1.6-1.4-2.4c1.8-2.5,2.6-5.4,2.6-9.3v-5.1c0-0.7,0-1.7-0.1-2.1c0.8,0,1.6,0,2.7,0h5.5v-1.6c0-0.7,0-1.2,0-1.6
		l2.4,0.2c0.3,0,0.4,0.1,0.4,0.2c0,0.1-0.1,0.3-0.5,0.5v2.3H58.9z M55.2,117.7c0.4,0.1,0.6,0.3,0.6,0.4c0,0.2-0.2,0.3-0.7,0.4
		c-0.9,2.8-1.6,4.4-2.7,7c-0.2,0.6-1.2,2.4-1.8,3.7c2.9-0.3,5.8-0.6,8.7-1c-0.2-0.2-0.3-0.5-0.5-0.7c-1-1.4-2.2-2.7-3.1-3.6l1.5-1.4
		c2.6,2.3,4.7,5,6.5,8.3l-2.2,1.4c-0.3-0.7-0.7-1.4-1.1-2.1c-2.8,0.5-9.1,1.3-13.5,1.8c-0.2,0.3-0.3,0.5-0.5,0.5
		c-0.1,0-0.3-0.1-0.3-0.3l-0.9-2.5c1,0,1.9-0.1,2.9-0.2c0.2-0.4,0.3-0.7,1-2.2c1.5-3.4,2.4-5.7,3.8-10.3L55.2,117.7z"/>
	<path class="st0" d="M73.1,119.8c0,6.2-0.9,9.4-3.6,12.7c-0.6-1.2-0.6-1.3-1.3-2c1-1.4,1.6-2.8,2-4.6c0.3-1.3,0.6-4.1,0.6-6.3v-5.5
		c0-0.7,0-1.7-0.1-2.1c0.8,0,1.6,0,2.6,0H86c1.1,0,1.8,0,2.6,0c0,0.5-0.1,1.3-0.1,2.1v1.8c0,0.8,0,1.9,0.1,2.3h-2.4v-0.5H73.1V119.8
		z M76.7,125c-0.6,0.1-2.1,0.3-3.3,0.4l-0.2-2.3c1.7-0.1,1.7-0.1,3.4-0.3l2.2-0.2v-1.1c-1.3,0.2-2.7,0.4-4.6,0.7
		c-0.2-0.9-0.4-1.4-0.7-2c5.1-0.6,8.4-1.2,11.9-2.1l1.5,1.3c0.1,0.1,0.2,0.2,0.2,0.3c0,0.1-0.1,0.2-0.3,0.2c-0.1,0-0.2,0-0.5,0
		c-2,0.5-3.6,0.9-5.3,1.2v1.2l3.8-0.4c0.5,0,2.5-0.3,3.3-0.4l0.2,2.3c-1.7,0.1-1.7,0.1-3.3,0.3l-3.9,0.4v1.2l5-0.5
		c0.3,0,2.5-0.3,3.3-0.4l0.2,2.3c-1.6,0.1-1.6,0.1-3.3,0.3l-5.1,0.5v1.5c0,1,0.2,1,3.2,1c2.8,0,3.5-0.1,3.9-0.4
		c0.3-0.2,0.3-0.3,0.3-2.2c1,0.4,1.5,0.5,2.2,0.7c-0.2,2.6-0.4,3.2-1.2,3.7c-0.6,0.3-2.1,0.5-4.7,0.5c-2.7,0-3.8,0-4.4-0.1
		c-1.2-0.3-1.6-0.9-1.6-2.4v-2l-2.5,0.2c-0.4,0-2.1,0.3-3.3,0.4l-0.2-2.2c1.7-0.1,1.7-0.1,3.3-0.3l2.6-0.2v-1.2L76.7,125z
		 M86.2,114.2H73.1v1.5h13.1V114.2z"/>
	<path class="st0" d="M96.3,128.2c0.1,0,0.2,0.1,0.2,0.1c0,0,0,0.1-0.1,0.1l-0.1,0.1c0,1.2-0.1,1.9-0.4,2.9c-0.4-0.3-0.6-0.4-1-0.5
		c0.3-0.9,0.3-1.4,0.4-2.9L96.3,128.2z M99.3,122.1L99.3,122.1c0.6,0,1.3,0,1.8,0v1.2c-0.4,0-1.2,0-1.7,0h-0.1v0.9h0.1
		c0.5,0,1.2,0,1.7,0v1.1c-0.4,0-1.2,0-1.7,0h-0.1v0.9h1.3l0.2-0.2l0.8,0.8c0.1,0.1,0.1,0.2,0.1,0.2c0,0.1-0.1,0.2-0.3,0.3
		c-0.2,2.1-0.3,2.7-0.5,3.6c-0.3,1-0.6,1.4-1.3,1.6c-0.4,0.1-0.5,0.1-1.6,0.2c-0.1-0.7-0.1-1-0.3-1.3c0.2,0,0.5,0,0.7,0
		c0.8,0,1-0.1,1.2-0.4c0.1-0.3,0.3-0.9,0.4-1.6l-0.5,0.3c-0.2-0.6-0.5-1.2-0.9-1.7l0.7-0.4c0.3,0.4,0.6,0.8,0.8,1.2
		c0-0.4,0.1-0.9,0.1-1.3h-3.2v0.4h-1.3c0-0.6,0-1.4,0-2.5v-2.8c0-0.8,0-1.8,0-2.2c0.3,0,0.7,0,1.1,0h0.1l2.9,0c1.1,0,1.1,0,1.7,0
		v1.2c-0.5,0-1.2,0-1.7,0h-0.4V122.1z M97.4,128.1c0.3,1,0.4,1.3,0.5,2.3l-0.9,0.3c-0.1-1-0.2-1.7-0.4-2.4L97.4,128.1z M96.9,121.2
		v0.9h1.2v-0.9H96.9z M96.9,124h1.2v-0.9h-1.2V124z M96.9,126h1.2v-0.9h-1.2V126z M98.3,127.8c0.5,1,0.6,1.1,0.8,1.9l-0.9,0.4
		c-0.1-0.6-0.4-1.3-0.7-2L98.3,127.8z M105.8,125.4c0.3,2.4,1,3.8,2.6,5.6c-0.4,0.3-0.7,0.7-1.1,1.1c-1-1.3-1.5-2-2-3.3
		c-0.4-1.1-0.6-1.9-0.8-3.5h-1c0,0.7-0.1,1.5-0.1,1.7c-0.1,1.1-0.3,2.1-0.7,3.3c-0.3,0.8-0.4,1.2-0.8,1.9c-0.3-0.4-0.6-0.6-1.1-0.9
		c0.9-1.8,1.3-3.7,1.3-6.8v-3.3c0-1,0-1,0-1.2c0.5,0,0.9,0,1.5,0h2.5c0.6,0,1.1,0,1.5,0c0,0.3,0,0.8,0,1.2v3.1c0,0.7,0,1.1,0,1.5
		h-1.4v-0.5H105.8z M106.5,121.3h-2.8v2.8h2.8V121.3z"/>
	<path class="st0" d="M117.2,120c0.2,0,0.3,0.1,0.3,0.2c0,0.1,0,0.1-0.2,0.3c0,0.8,0,1,0,1.5c0,0.3,0,0.5,0,0.8
		c1.8-0.1,2.6-0.2,3.8-0.7l0.3,1.4c-1.1,0.4-2.7,0.6-4.1,0.6c0,1.3,0,1.8,0.1,3.4c1.4,0.5,1.6,0.6,2.7,1.1c0.7,0.4,1.5,0.8,1.8,1
		c-0.4,0.4-0.6,0.6-0.9,1.3c-0.1,0-0.1,0-0.3-0.2c-0.8-0.6-2.3-1.3-3.3-1.7c0,0.7-0.1,0.9-0.2,1.2c-0.4,0.9-1.3,1.3-2.7,1.3
		c-1,0-1.9-0.2-2.3-0.6c-0.5-0.4-0.8-1-0.8-1.6c0-1.3,1.2-2.2,3-2.2c0.5,0,1.1,0.1,1.6,0.2c0-1.5,0-1.8-0.1-2.8
		c-0.1-1.8-0.1-1.9-0.1-3.2c0-0.4,0-0.8-0.1-1.2L117.2,120z M116,128.6c-0.5-0.2-1.1-0.3-1.7-0.3c-0.9,0-1.4,0.4-1.4,1
		c0,0.6,0.6,1,1.5,1c0.7,0,1.2-0.2,1.4-0.6c0.1-0.3,0.2-0.5,0.2-0.9V128.6z"/>
	<path class="st0" d="M128.2,120.3c0.1,0,0.2,0.1,0.2,0.2c0,0.1-0.1,0.2-0.3,0.2c-0.3,1.1-0.4,2.1-0.4,3.5c0,1.4,0.1,1.7,0.5,3.3
		l-1.5,0.4c-0.4-1.1-0.5-2.1-0.5-3.6c0-1.4,0.1-2.7,0.3-3.9c0-0.1,0-0.2,0-0.4L128.2,120.3z M133.7,120.1c0.1,0,0.2,0.1,0.2,0.2
		c0,0.1-0.1,0.2-0.3,0.3c0.1,1.4,0.2,3.2,0.2,4.2c0,3.1-0.6,4.7-2.2,5.9c-0.8,0.6-2,1.2-3.4,1.6c-0.3-0.8-0.4-0.9-0.8-1.4
		c1.7-0.4,2.5-0.9,3.3-1.5c1.1-1,1.5-2.1,1.5-4.7c0-1-0.1-2.7-0.2-3.7c0-0.4-0.1-0.6-0.1-0.8L133.7,120.1z"/>
	<path class="st0" d="M37.5,162.4c-0.3,0.4-0.7,0.8-1.1,1.2c-0.3-0.5-0.5-0.9-0.8-1.1c1.4-1.4,2.2-2.6,3.2-4.7l1.2,0.6
		c0.2,0.1,0.2,0.1,0.2,0.2c0,0.1,0,0.1-0.4,0.2c-0.1,0.3-0.3,0.5-0.3,0.6c-0.3,0.5-0.5,0.9-0.7,1.3l0.1,0c0.1,0,0.2,0.1,0.2,0.1
		s-0.1,0.2-0.3,0.3v3.7c0,1.3,0,2.3,0,2.9h-1.4c0-0.6,0-1.6,0-2.9V162.4z M39.8,155.3c0.2,0.1,0.2,0.1,0.2,0.2c0,0.1,0,0.1-0.4,0.2
		c-1.1,1.3-1.9,2-3.2,2.8c-0.2-0.5-0.4-0.8-0.7-1.1c1.6-1,2.2-1.5,3.1-2.7L39.8,155.3z M44.9,160.6c0.1,0,0.2,0.1,0.2,0.2
		c0,0.1-0.1,0.1-0.2,0.2v1.4h1.6c0.4,0,1,0,1.4,0v1.3c-0.4,0-1,0-1.4,0h-1.6v2.3c0.6,0.1,1.2,0.2,2,0.2c0.5,0,0.6,0,2.2-0.1
		c-0.1,0.4-0.2,0.6-0.2,0.8c-0.1,0.4-0.1,0.4-0.1,0.6c-0.8,0-1.2,0.1-1.7,0.1c-2.2,0-3.3-0.2-4.4-0.8c-0.5-0.3-1-0.8-1.3-1.3
		c-0.3,0.9-0.7,1.4-1.4,2.2c-0.4-0.5-0.6-0.7-0.9-1c1.2-1.5,1.7-2.9,1.9-5.6l1.2,0.3c0.2,0,0.3,0.1,0.3,0.2s-0.1,0.1-0.3,0.2
		c-0.1,0.9-0.2,1.6-0.4,2.3c0.4,0.7,0.9,1.3,1.7,1.6v-4.2c0-0.2,0-0.6,0-0.9h-1.8c-0.6,0-1.4,0-2,0v-1.4c0.5,0,1.3,0,2,0h1.8v-1.6
		h-1.5c-0.5,0-1.2,0-1.7,0v-1.3c0.4,0,1.1,0,1.7,0h1.5c0-0.8,0-1.3,0-1.7l1.4,0.1c0.2,0,0.2,0.1,0.2,0.1s-0.1,0.2-0.3,0.3v1.2h1.6
		c0.5,0,1.3,0,1.7,0v1.3c-0.4,0-1.2,0-1.7,0h-1.6v1.6h2c0.6,0,1.5,0,1.9,0v1.4c-0.5,0-1.4,0-1.9,0H44L44.9,160.6z"/>
	<path class="st0" d="M56.1,161.4c0.2,0.1,0.2,0.2,0.2,0.3c0,0.1-0.1,0.2-0.4,0.2c-1,1.4-2,2.3-3.7,3.2c-0.2-0.4-0.4-0.7-0.7-1.1
		c1.7-1,2.5-1.7,3.5-3.2L56.1,161.4z M54.4,157.8c0-1.1,0-1.7,0-2.1l1.5,0.1c0.2,0,0.2,0.1,0.2,0.1c0,0.1-0.1,0.2-0.3,0.3v2.9h2
		v-3.2c0-0.6,0-0.8,0-1.3l1.4,0.1c0.2,0,0.3,0.1,0.3,0.1s-0.1,0.2-0.3,0.3v1.2h2.8c0.4,0,1,0,1.4,0v1.3c-0.4,0-1,0-1.4,0h-2.8v1.5
		h2.6c0.9,0,2.1,0,2.8-0.1v1.4c-0.8,0-1.9-0.1-2.8-0.1h-2.8v1.6c0,0.2,0,0.9,0,1.3v0.2c0,1.2-0.5,1.5-2.5,1.5h-0.4
		c0-0.4,0-0.5-0.1-0.7c0-0.1,0-0.2-0.1-0.4c0-0.1-0.1-0.3-0.1-0.5c0.5,0,0.7,0.1,1,0.1c0.7,0,0.8,0,0.8-0.6v-2.5h-3.2
		c-0.8,0-2,0-2.8,0.1V159c0.7,0,2,0.1,2.8,0.1h0V157.8z M62.1,163.7c0.2,0.1,0.2,0.2,0.2,0.2c0,0.1-0.1,0.2-0.5,0.2
		c-1.5,1.3-2.5,1.8-4.2,2.4c-1.8,0.6-3.1,0.9-5.6,1c-0.1-0.5-0.2-0.8-0.3-1.3c2.6-0.2,3.8-0.4,5.5-0.9c1.5-0.5,2.5-1.1,3.9-2.3
		L62.1,163.7z M61,160.8c1.6,0.9,2.6,1.6,3.7,2.7l-1,1c-1.3-1.4-1.5-1.5-3.4-2.7L61,160.8z"/>
	<path class="st0" d="M77.1,147.3c3.2-0.1,4.7-1.1,5.3-3.8h2.4v22.9h-3.5v-17h-4.3V147.3z"/>
	<path class="st0" d="M110,155c0,7.4-3,11.8-7.9,11.8c-5,0-8-4.4-8-11.8c0-7.4,3-11.8,8-11.8C107,143.2,110,147.6,110,155z
		 M99.2,147.8c-1,1.7-1.5,4.2-1.5,7.2s0.5,5.5,1.5,7.2c0.6,1.1,1.6,1.7,2.9,1.7c1.2,0,2.2-0.6,2.9-1.7c1-1.7,1.5-4.2,1.5-7.2
		s-0.6-5.6-1.5-7.2c-0.7-1.1-1.7-1.7-2.9-1.7C100.8,146.1,99.8,146.7,99.2,147.8z"/>
	<path class="st0" d="M117.3,158.8c0.1,0.3,0.2,0.6,0.2,1v0.1c0.5-0.8,1.2-1.2,2.3-1.2c1,0,1.7,0.4,2.1,1.3c0.6-0.9,1.3-1.3,2.4-1.3
		c1,0,1.7,0.4,2.1,1.1c0.2,0.5,0.3,0.7,0.3,2.2v4.5H125v-4.5c0-0.8,0-1.1-0.2-1.3c-0.2-0.3-0.6-0.5-1.1-0.5c-0.6,0-1,0.2-1.3,0.6
		c-0.2,0.3-0.3,0.7-0.3,1.3v4.4h-1.6v-4.3c0-0.9,0-1.2-0.2-1.4c-0.2-0.4-0.6-0.6-1.2-0.6c-0.7,0-1.2,0.3-1.4,0.8
		c-0.1,0.3-0.2,0.7-0.2,1.2v4.3H116v-5.5c0-1.3,0-1.5-0.2-2H117.3z"/>
	<path class="st0" d="M131.8,155.8v1.7h-1.7v-1.7H131.8z M131.7,158.8v7.6h-1.6v-7.6H131.7z"/>
	<path class="st0" d="M136.7,158.8c0.1,0.3,0.2,0.5,0.2,1c0.5-0.8,1.3-1.2,2.3-1.2s1.8,0.4,2.2,1.2c0.3,0.5,0.3,0.8,0.3,2.2v4.4H140
		v-4.1c0-0.9,0-1.3-0.2-1.6c-0.2-0.4-0.6-0.7-1.2-0.7c-0.6,0-1.1,0.3-1.4,0.8c-0.2,0.3-0.3,0.8-0.3,1.5v4h-1.6v-4.9
		c0-1.9,0-1.9-0.2-2.6H136.7z"/>
</g>
</svg>
