<?xml version="1.0" encoding="utf-8"?>
<!-- Generator: Adobe Illustrator 26.3.1, SVG Export Plug-In . SVG Version: 6.00 Build 0)  -->
<svg version="1.1" id="レイヤー_1" xmlns="http://www.w3.org/2000/svg" xmlns:xlink="http://www.w3.org/1999/xlink" x="0px"
	 y="0px" width="211.7px" height="219.9px" viewBox="0 0 211.7 219.9" style="enable-background:new 0 0 211.7 219.9;"
	 xml:space="preserve">
<style type="text/css">
	.st0{fill:#555252;}
</style>
<g>
	<path class="st0" d="M191.4,55.3l-48.5-4.8l0.3-33.4l0-1.9L111.6,0L0,3.1l1.4,58.3l15.1,25.3l15.6-0.8l3.5-0.2l0.6,37.8l103.5,15.9
		l50.5-27.4L191.4,55.3z M19.8,80.6L7.3,59.7L6,8.8l104.3-2.9l26.9,13l0,2.8L137,55.9h0l-0.2,18.9l-95.4,4.7v0L19.8,80.6z
		 M184.4,108.5l-45.7,24.8l-96.6-14.9l-0.5-33l101.1-5l0.2-24l42.5,4.2L184.4,108.5z"/>
	<path class="st0" d="M56.5,199.1c-5,0-7.4,4-7.4,8v4.9c0,4,2.4,7.9,7.4,7.9s7.4-3.8,7.4-7.9v-4.9C63.9,203.1,61.5,199.1,56.5,199.1
		z M60.3,211.5c0,2.3-0.8,4.7-3.7,4.7c-2.9,0-3.7-2.4-3.7-4.7v-3.9c0-2,0.6-4.8,3.7-4.8c3.1,0,3.7,2.8,3.7,4.8V211.5z"/>
	<polygon class="st0" points="71.9,219.5 75.6,219.5 75.6,211.2 81.9,211.2 81.9,207.5 75.6,207.5 75.6,203.1 83.6,203.1 
		83.6,199.4 71.9,199.4 	"/>
	<polygon class="st0" points="91.3,219.5 94.9,219.5 94.9,211.2 101.3,211.2 101.3,207.5 94.9,207.5 94.9,203.1 103,203.1 
		103,199.4 91.3,199.4 	"/>
	<rect x="110.7" y="199.4" class="st0" width="3.6" height="20.1"/>
	<path class="st0" d="M129.4,216.2c-2.8,0-3.5-2.2-3.5-5.3v-3.3c0-2.5,1.1-4.7,3.7-4.7c1.5,0,2.9,0.8,3.3,2.5l3.6-0.6
		c-0.6-3.4-3.3-5.7-6.9-5.7c-4.7,0-7.3,3.7-7.3,8.3v4.3c0,4.9,2.7,8.2,7,8.2c4,0,6.9-2.6,7.3-6.3l-3.7-0.3
		C132.7,215,131.4,216.2,129.4,216.2z"/>
	<polygon class="st0" points="147.9,211.2 154.3,211.2 154.3,207.6 147.9,207.6 147.9,203 156.5,203 156.5,199.4 144.4,199.4 
		144.4,219.5 156.9,219.5 156.9,216 147.9,216 	"/>
	<path class="st0" d="M31.5,71.7l-4.5,0.2c0,0-0.1,0-0.1-0.1l-0.1-2.2c0,0,0-0.1,0.1-0.1l3-0.1c0.1,0,0.2-0.1,0.2-0.2l-0.1-1.3
		c0-0.1-0.1-0.2-0.2-0.2l-3,0.1c0,0-0.1,0-0.1-0.1l-0.1-2.2c0,0,0-0.1,0.1-0.1l4.5-0.2c0.1,0,0.2-0.1,0.2-0.2l-0.1-1.3
		c0-0.1-0.1-0.2-0.2-0.2l-6.4,0.3c-0.1,0-0.2,0.1-0.2,0.2l0.4,9.4c0,0.1,0.1,0.2,0.2,0.2l6.4-0.3c0.1,0,0.2-0.1,0.2-0.2l-0.1-1.3
		C31.7,71.8,31.6,71.7,31.5,71.7z"/>
	<path class="st0" d="M40.8,68C40.7,68,40.7,68,40.8,68c0.8-0.5,1.1-1.2,1.1-2.1c-0.1-1.9-1.3-2.6-3.4-2.5L35,63.5
		c-0.1,0-0.2,0.1-0.2,0.2l0.4,9.4c0,0.1,0.1,0.2,0.2,0.2l3.6-0.1c1.9-0.1,3.3-1,3.2-2.9C42.1,69.2,41.7,68.4,40.8,68z M36.8,65.2
		C36.8,65.2,36.9,65.1,36.8,65.2l1.7-0.1c0.9,0,1.4,0.4,1.4,1.1c0,0.7-0.5,1.2-1.3,1.2L37,67.4c0,0-0.1,0-0.1-0.1L36.8,65.2z
		 M38.9,71.4l-1.7,0.1c0,0-0.1,0-0.1-0.1L37,69.1c0,0,0-0.1,0.1-0.1l1.7-0.1c0.9,0,1.4,0.4,1.4,1.2C40.2,70.9,39.8,71.4,38.9,71.4z"
		/>
	<path class="st0" d="M45.9,72.8l1.6-0.1c0.1,0,0.2-0.1,0.2-0.2l-0.4-9.4c0-0.1-0.1-0.2-0.2-0.2l-1.6,0.1c-0.1,0-0.2,0.1-0.2,0.2
		l0.4,9.4C45.7,72.7,45.8,72.8,45.9,72.8z"/>
	<path class="st0" d="M54,68.4c1.4,0.4,2.1,0.7,2.1,1.4c0,0.6-0.4,1.1-1.4,1.1c-1.2,0.1-1.9-0.5-2-1.2l0-0.2c0-0.1-0.1-0.2-0.2-0.2
		L51,69.3c-0.1,0-0.2,0.1-0.2,0.2l0,0.3c0.1,1.8,1.6,2.8,3.8,2.8c2.2-0.1,3.5-1.2,3.4-3c-0.1-1.9-1.9-2.4-3.1-2.8
		c-1.6-0.5-2.2-0.7-2.2-1.4c0-0.7,0.5-1.1,1.3-1.1c1.2,0,1.8,0.6,1.9,1.3l0,0.1c0,0.1,0.1,0.2,0.2,0.2l1.6-0.1
		c0.1,0,0.2-0.1,0.2-0.2l0-0.2c-0.1-1.8-1.6-2.9-3.8-2.8c-2,0.1-3.3,1.2-3.3,2.9C50.9,67.3,52.5,67.9,54,68.4z"/>
	<path class="st0" d="M65,72.1c2.2-0.1,3.5-1.5,3.5-3.5l-0.3-6.3c0-0.1-0.1-0.2-0.2-0.2l-1.6,0.1c-0.1,0-0.2,0.1-0.2,0.2l0.3,6.3
		c0,1-0.6,1.7-1.6,1.7c-1,0-1.7-0.6-1.7-1.6L63,62.5c0-0.1-0.1-0.2-0.2-0.2l-1.6,0.1c-0.1,0-0.2,0.1-0.2,0.2l0.3,6.3
		C61.4,70.9,62.9,72.2,65,72.1z"/>
	<path class="st0" d="M31,176c2.2-0.2,4.3-2.2,4.3-6.2c0-5.7-3.7-8.4-9.7-8.4H15.4v30.2h10.8c6.7,0,9.6-4.2,9.6-8.8
		C35.8,178.4,33.2,176.2,31,176z M20.8,166.6h5.1c2.1,0,3.8,1.2,3.8,3.3c0,2.2-1.7,3.7-4.1,3.7h-4.8V166.6z M25.9,186.3h-5.1V179
		h5.1c2.7,0,4.4,1.4,4.4,3.6C30.3,185,28.2,186.3,25.9,186.3z"/>
	<polygon class="st0" points="53.2,161.4 47.9,161.4 47.9,191.5 65.3,191.5 65.3,186.2 53.2,186.2 	"/>
	<path class="st0" d="M97,180.2v-7.3c0-6.1-3.5-12.1-11-12.1c-7.5,0-11,6-11,12.1v7.3c0,6.1,3.5,11.8,11,11.8
		C93.5,192.1,97,186.3,97,180.2z M91.6,179.4c0,3.4-1.2,7.1-5.6,7.1c-4.4,0-5.6-3.7-5.6-7.1v-5.9c0-3,0.9-7.2,5.6-7.2
		c4.7,0,5.6,4.2,5.6,7.2V179.4z"/>
	<path class="st0" d="M129.2,182.5l-5.6-0.4c-0.3,2.6-2.3,4.3-5.3,4.3c-4.2,0-5.2-3.4-5.2-7.9v-5c0-3.8,1.6-7,5.5-7
		c2.3,0,4.3,1.2,5,3.7l5.4-0.9c-0.9-5.2-5-8.5-10.4-8.5c-7.1,0-10.9,5.6-10.9,12.4v6.5c0,7.4,4.1,12.3,10.6,12.3
		C124.3,192.1,128.7,188.1,129.2,182.5z"/>
	<polygon class="st0" points="162.6,161.4 156.1,161.4 146.3,174.3 146.3,161.4 140.9,161.4 140.9,191.5 146.3,191.5 146.3,183.1 
		149.7,178.6 157.7,191.5 164.3,191.5 153.3,173.8 	"/>
	<path class="st0" d="M186.7,175.7l-4.5-1.9c-3.3-1.3-4.4-2.3-4.4-4.1c0-2.3,2.1-3.6,4.3-3.6c2.6,0,4.3,1.7,4.7,3.9l5.3-0.8
		c-0.8-5-4.4-8.4-10-8.4c-5.9,0-9.9,3.5-9.9,8.7c0,4,2.2,6.7,6.8,8.7l4.1,1.7c3.5,1.5,3.9,2.9,3.7,4.1c-0.3,2.1-2.8,2.9-4.8,2.8
		c-2.4-0.1-4.6-1.6-5-4.7l-5.6,0.7c0.7,5.5,5.3,9.3,10.9,9.3c5.8,0,10.1-3.5,10.1-8.7C192.5,180,190.8,177.3,186.7,175.7z"/>
	<path class="st0" d="M205.2,160.3c-3.7,0-6.7,3-6.7,6.6c0,3.6,2.9,6.6,6.7,6.6c3.6,0,6.6-3,6.6-6.6
		C211.7,163.3,208.8,160.3,205.2,160.3z M205.3,172c-2.9,0-5.2-2.3-5.2-5.1c0-2.9,2.3-5.1,5.2-5.1c2.7,0,5,2.3,5,5.1
		C210.2,169.7,208,172,205.3,172z"/>
	<path class="st0" d="M207.6,165.6L207.6,165.6c0-1.4-0.8-2.3-2.2-2.3H203v6.9h1.3v-2.5h0.9h0.2l1.1,2.5h1.4l-1.2-2.8
		C207.3,167.1,207.6,166.5,207.6,165.6z M205.4,166.5h-1v-1.8h1c0.6,0,0.9,0.3,0.9,0.9C206.3,166.2,206,166.5,205.4,166.5z"/>
</g>
</svg>
