<?xml version="1.0" encoding="utf-8"?>
<!-- Generator: Adobe Illustrator 26.3.1, SVG Export Plug-In . SVG Version: 6.00 Build 0)  -->
<svg version="1.1" id="レイヤー_1" xmlns="http://www.w3.org/2000/svg" xmlns:xlink="http://www.w3.org/1999/xlink" x="0px"
	 y="0px" width="467.5px" height="24.6px" viewBox="0 0 467.5 24.6" style="enable-background:new 0 0 467.5 24.6;"
	 xml:space="preserve">
<style type="text/css">
	.st0{fill:#FFFFFF;}
</style>
<g>
	<path class="st0" d="M0,24.2V0.4h8c4.7,0,7.6,2.1,7.6,6.6c0,3.2-1.6,4.8-3.4,4.9c1.8,0.1,3.8,1.9,3.8,5.3c0,3.7-2.3,7-7.5,7H0z
		 M4.2,10.1H8c1.9,0,3.2-1.2,3.2-2.9c0-1.7-1.4-2.6-3-2.6h-4V10.1z M4.2,20.1h4c1.8,0,3.5-1,3.5-2.9c0-1.8-1.4-2.9-3.5-2.9h-4V20.1z
		"/>
	<path class="st0" d="M23.2,24.2V0.4h4.2V20h9.5v4.2H23.2z"/>
	<path class="st0" d="M42.9,15.3V9.5c0-4.8,2.8-9.5,8.7-9.5s8.7,4.7,8.7,9.5v5.7c0,4.8-2.8,9.3-8.7,9.3S42.9,20.1,42.9,15.3z
		 M56,14.7V10c0-2.4-0.7-5.7-4.4-5.7c-3.7,0-4.4,3.3-4.4,5.7v4.6c0,2.7,1,5.6,4.4,5.6C55.1,20.3,56,17.4,56,14.7z"/>
	<path class="st0" d="M66.9,14.9V9.8c0-5.4,3-9.8,8.6-9.8c4.3,0,7.5,2.7,8.2,6.7l-4.3,0.7c-0.5-2-2.1-3-3.9-3
		c-3.1,0-4.4,2.5-4.4,5.5v3.9c0,3.6,0.8,6.3,4.1,6.3c2.3,0,3.9-1.4,4.1-3.4l4.4,0.3c-0.4,4.4-3.9,7.5-8.6,7.5
		C70.1,24.6,66.9,20.8,66.9,14.9z"/>
	<path class="st0" d="M103.9,24.2L97.6,14L95,17.5v6.7h-4.3V0.4H95v10.2l7.8-10.2h5.1l-7.4,9.8l8.7,14H103.9z"/>
	<path class="st0" d="M113.2,17.3l4.4-0.5c0.4,2.4,2.1,3.6,4,3.7c1.6,0.1,3.5-0.5,3.8-2.2c0.1-0.9-0.2-2-3-3.2l-3.2-1.3
		c-3.6-1.6-5.3-3.7-5.3-6.9c0-4.1,3.2-6.9,7.8-6.9c4.4,0,7.2,2.7,7.9,6.6l-4.2,0.6c-0.3-1.7-1.6-3.1-3.7-3.1c-1.8,0-3.4,1-3.4,2.8
		c0,1.4,0.9,2.1,3.5,3.2l3.6,1.5c3.2,1.3,4.5,3.4,4.5,6.1c0,4.1-3.4,6.9-8,6.9C117.4,24.6,113.8,21.6,113.2,17.3z"/>
	<path class="st0" d="M164,0.4h4.1v23.8h-4.2V9.7l-4.4,8.2h-2.9l-4.4-8.2v14.6h-4.2V0.4h4.1l6,11.6L164,0.4z"/>
	<path class="st0" d="M176.1,24.2V0.4h14.3v4.2h-10.1v5.4h7.5v4.2h-7.5V20h10.6v4.2H176.1z"/>
	<path class="st0" d="M215,24.2h-2.7l-0.6-1.8c-1.2,1.3-3.1,2.2-5.7,2.2c-6.3,0-9-5.2-9-10.1v-4c0-4.8,2.5-10.5,9.1-10.5
		c5.5,0,8.6,3.5,8.8,8h-4.4c-0.1-1.9-1.6-3.6-4.3-3.6c-3.9,0-4.9,3.9-4.9,7.1v2.1c0,3.7,1.4,6.8,4.9,6.8c2.2,0,4.8-1.2,4.8-4.4v-0.7
		l-4-0.5v-3.3h8V24.2z"/>
	<path class="st0" d="M222.2,14.9V0.4h4.3v14.5c0,2.8,1.3,5.2,4.4,5.2s4.4-2.4,4.4-5.2V0.4h4.3v14.5c0,5.1-2.9,9.7-8.6,9.7
		C225.1,24.6,222.2,20,222.2,14.9z"/>
	<path class="st0" d="M264.5,24.2h-4.7l-3.9-8.6c-0.4,0-0.8,0-1.2,0h-2.9v8.6h-4.2V0.4h8.2c5.6,0,7.5,3.7,7.5,7.5
		c0,3.1-1.1,5.2-3.2,6.5L264.5,24.2z M251.7,11.4h3.9c2.4,0,3.2-1.9,3.2-3.4c0-2-1.3-3.3-3.2-3.3h-3.9V11.4z"/>
	<path class="st0" d="M270.1,15.3V9.5c0-4.8,2.8-9.5,8.7-9.5c5.9,0,8.7,4.7,8.7,9.5v5.7c0,4.8-2.8,9.3-8.7,9.3
		C272.9,24.6,270.1,20.1,270.1,15.3z M283.2,14.7V10c0-2.4-0.7-5.7-4.4-5.7c-3.7,0-4.4,3.3-4.4,5.7v4.6c0,2.7,1,5.6,4.4,5.6
		S283.2,17.4,283.2,14.7z"/>
	<path class="st0" d="M305.8,24.2V0.4h13.8v4.4h-9.5V10h7.5v4.4h-7.5v9.9H305.8z"/>
	<path class="st0" d="M326.5,14.9V0.4h4.3v14.5c0,2.8,1.3,5.2,4.4,5.2c3.1,0,4.4-2.4,4.4-5.2V0.4h4.3v14.5c0,5.1-2.9,9.7-8.6,9.7
		C329.3,24.6,326.5,20,326.5,14.9z"/>
	<path class="st0" d="M351.8,24.2V0.4h8.4c5.2,0,8,3.6,8,8.5v6.2c0,5.8-3,9.1-8.2,9.1H351.8z M356,20h3.9c2.5,0,4.1-1.5,4.1-4.9V9.3
		c0-3-2-4.6-4.1-4.6H356V20z"/>
	<path class="st0" d="M374.7,15.3V9.5c0-4.8,2.8-9.5,8.7-9.5c5.9,0,8.7,4.7,8.7,9.5v5.7c0,4.8-2.8,9.3-8.7,9.3
		C377.5,24.6,374.7,20.1,374.7,15.3z M387.8,14.7V10c0-2.4-0.7-5.7-4.4-5.7c-3.7,0-4.4,3.3-4.4,5.7v4.6c0,2.7,1,5.6,4.4,5.6
		C386.9,20.3,387.8,17.4,387.8,14.7z"/>
	<path class="st0" d="M415.5,0.4h4.1v23.8h-4.2V9.7l-4.4,8.2h-2.9l-4.4-8.2v14.6h-4.2V0.4h4.1l6,11.6L415.5,0.4z"/>
	<path class="st0" d="M441.7,24.2l-1.4-4.6H432l-1.4,4.6H426l7.8-23.8h4.8l7.8,23.8H441.7z M433.4,15.3h5.6l-2.8-9L433.4,15.3z"/>
	<path class="st0" d="M452.7,24.2V0.4H467v4.2h-10.1v5.4h7.5v4.2h-7.5V20h10.6v4.2H452.7z"/>
</g>
</svg>
