<?xml version="1.0" encoding="utf-8"?>
<!-- Generator: Adobe Illustrator 26.3.1, SVG Export Plug-In . SVG Version: 6.00 Build 0)  -->
<svg version="1.1" id="レイヤー_1" xmlns="http://www.w3.org/2000/svg" xmlns:xlink="http://www.w3.org/1999/xlink" x="0px"
	 y="0px" width="359.6px" height="36.2px" viewBox="0 0 359.6 36.2" style="enable-background:new 0 0 359.6 36.2;"
	 xml:space="preserve">
<style type="text/css">
	.st0{fill:#FFFFFF;}
</style>
<g>
	<path class="st0" d="M0,22.5V14C0,7,4.1,0,12.8,0c8.7,0,12.8,7,12.8,14v8.5c0,7.1-4.1,13.8-12.8,13.8C4.1,36.2,0,29.5,0,22.5z
		 M19.3,21.6v-6.8c0-3.5-1.1-8.4-6.5-8.4s-6.5,4.9-6.5,8.4v6.8c0,4,1.4,8.3,6.5,8.3S19.3,25.6,19.3,21.6z"/>
	<path class="st0" d="M36.1,35.6v-35h20.3V7h-14v7.7h11.1v6.4H42.4v14.5H36.1z"/>
	<path class="st0" d="M66.1,35.6v-35h20.3V7h-14v7.7h11.1v6.4H72.4v14.5H66.1z"/>
	<path class="st0" d="M96.2,35.6v-35h6.2v35H96.2z"/>
	<path class="st0" d="M112.9,22v-7.6c0-8,4.5-14.4,12.7-14.4c6.3,0,11.1,3.9,12.1,9.9l-6.3,1.1c-0.8-3-3.1-4.4-5.8-4.4
		c-4.5,0-6.4,3.7-6.4,8.1v5.8c0,5.3,1.2,9.2,6,9.2c3.5,0,5.8-2,6.1-5l6.5,0.5c-0.6,6.5-5.8,11.1-12.7,11.1
		C117.6,36.2,112.9,30.6,112.9,22z"/>
	<path class="st0" d="M147.6,35.6v-35h21.1v6.2h-14.9v8h11V21h-11v8.4h15.6v6.2H147.6z"/>
	<path class="st0" d="M215.8,0.6h6.3v35h-6.3V21.6h-12.9v14.1h-6.3v-35h6.3v14.7h12.9V0.6z"/>
	<path class="st0" d="M232.6,22.5V14c0-7.1,4.1-14,12.8-14c8.7,0,12.8,7,12.8,14v8.5c0,7.1-4.1,13.8-12.8,13.8
		C236.7,36.2,232.6,29.5,232.6,22.5z M251.9,21.6v-6.8c0-3.5-1.1-8.4-6.5-8.4s-6.5,4.9-6.5,8.4v6.8c0,4,1.4,8.3,6.5,8.3
		S251.9,25.6,251.9,21.6z"/>
	<path class="st0" d="M268.4,21.9V0.6h6.3v21.3c0,4.2,1.9,7.7,6.4,7.7s6.4-3.5,6.4-7.7V0.6h6.3v21.3c0,7.6-4.2,14.3-12.7,14.3
		C272.6,36.2,268.4,29.5,268.4,21.9z"/>
	<path class="st0" d="M303.6,25.5l6.5-0.8c0.6,3.6,3.1,5.3,5.9,5.4c2.3,0.2,5.2-0.8,5.6-3.2c0.2-1.3-0.2-3-4.4-4.7l-4.8-2
		c-5.4-2.4-7.9-5.5-7.9-10.1c0-6,4.7-10.1,11.5-10.1c6.5,0,10.6,4,11.5,9.8l-6.2,0.9C321,8.1,319,6.1,316,6.1c-2.6,0-5,1.5-5,4.2
		c0,2.1,1.4,3.2,5.2,4.7l5.2,2.3c4.7,1.9,6.7,5.1,6.7,8.9c0,6.1-5,10.1-11.8,10.1C309.7,36.2,304.4,31.8,303.6,25.5z"/>
	<path class="st0" d="M337.9,35.6v-35h21.1v6.2h-14.9v8h11V21h-11v8.4h15.6v6.2H337.9z"/>
</g>
</svg>
