<?xml version="1.0" encoding="utf-8"?>
<!-- Generator: Adobe Illustrator 26.3.1, SVG Export Plug-In . SVG Version: 6.00 Build 0)  -->
<svg version="1.1" id="レイヤー_1" xmlns="http://www.w3.org/2000/svg" xmlns:xlink="http://www.w3.org/1999/xlink" x="0px"
	 y="0px" width="1996px" height="53px" viewBox="0 0 1996 53" style="enable-background:new 0 0 1996 53;" xml:space="preserve">
<style type="text/css">
	.st0{fill:none;stroke:#7A805F;stroke-miterlimit:10;}
	.st1{fill:#7A805F;}
</style>
<path class="st0" d="M45.2,19.5H36l-2.5,12.1h9.1L42,38.2h-9.9l-2.8,13.5h-7.2l2.8-13.5H11.7L8.9,51.7H1.7l2.8-13.5h-8.2v-6.6h9.6
	l2.4-12.1H0.1v-6.6h9.6l2.6-12.5h7.2l-2.6,12.5h13.3l2.6-12.5H40l-2.6,12.5h8.4L45.2,19.5z M26.3,31.6l2.5-12.1H15.5l-2.4,12.1H26.3
	z"/>
<path class="st0" d="M60,51.7V1.3h17.3c10.9,0,16.8,7.3,16.8,17.7v13.8c0,12-6.2,18.9-17.1,18.9H60z M67.5,44.2h9.2
	c6.2,0,10-3.7,10-11.4V19.6c0-6.8-4.5-10.8-10-10.8h-9.2V44.2z"/>
<path class="st0" d="M108.1,33V20.3c0-10.2,6-19.9,18.1-19.9c12.2,0,18.2,9.6,18.2,19.9V33c0,10.2-6,19.6-18.2,19.6
	C114.1,52.6,108.1,43.1,108.1,33z M136.9,31.9V21.2c0-6-2.4-13-10.7-13c-8.2,0-10.6,7.1-10.6,13v10.7c0,6.6,2.7,13,10.6,13
	S136.9,38.5,136.9,31.9z"/>
<path class="st0" d="M159.5,32.4V1.3h7.6v31c0,6.9,3.3,12.3,10.4,12.3c7.1,0,10.4-5.5,10.4-12.4V1.3h7.6v31c0,10.9-6.2,20.3-18,20.3
	C165.6,52.6,159.5,43.3,159.5,32.4z"/>
<path class="st0" d="M212.1,51.7V1.3h16.1c8.7,0,16.1,3.6,16.1,13.8c0,6.8-3.4,10.4-7.4,10.8c4.1,0.3,8.4,4.3,8.4,11.4
	c0,7.8-5,14.5-16.1,14.5H212.1z M219.6,22.6h9.2c4.5,0,7.7-2.8,7.7-7.3c0-4.2-3.2-6.7-7.8-6.7h-9.1V22.6z M219.6,44.4h9
	c5,0,8.9-2.5,8.9-7.3c0-4.4-3.3-7.1-8.4-7.1h-9.6V44.4z"/>
<path class="st0" d="M260,51.7V1.3h7.5v42.9h21v7.5H260z"/>
<path class="st0" d="M302.7,51.7V1.3h29.7v7.5h-22.2v13.7H327V30h-16.8v14.3h23.3v7.5H302.7z"/>
<g>
	<path class="st0" d="M381.2,52.1L368.7,1.7h8.6l8.6,39.7L395,1.7h8.4l9.1,39.7L421,1.7h8.6l-12.4,50.4H408l-8.8-36.2l-8.5,36.2
		H381.2z"/>
	<path class="st0" d="M440.3,33.4V20.7c0-10.2,6-19.9,18.1-19.9c12.2,0,18.2,9.6,18.2,19.9v12.7c0,10.2-6,19.6-18.2,19.6
		C446.3,53,440.3,43.6,440.3,33.4z M469.1,32.3V21.6c0-6-2.4-13-10.7-13c-8.2,0-10.6,7.1-10.6,13v10.7c0,6.6,2.7,13,10.6,13
		S469.1,38.9,469.1,32.3z"/>
	<path class="st0" d="M527.2,52.1h-8.4l-8.9-19.1c-0.9,0.1-1.9,0.1-2.8,0.1h-7.6v18.9H492V1.7h16.7c11.5,0,15.8,7.2,15.8,15.6
		c0,6.8-2.6,11.4-7.3,13.8L527.2,52.1z M499.5,25.7h9.2c6,0,8.1-4,8.1-8.4c0-5.2-3.1-8.1-8.2-8.1h-9.1V25.7z"/>
	<path class="st0" d="M569.9,52.1l-14.3-23l-6.6,8.7v14.3h-7.6V1.7h7.6v24l18.3-24h9.1l-15.7,20.7l18.6,29.7H569.9z"/>
	<path class="st1" d="M661.9,18.2H652l-3.2,15.6h10.1l-0.4,4h-10.5l-2.9,14.3h-4.3l2.9-14.3h-16.9l-2.9,14.3h-4.4l2.9-14.3h-9.2v-4
		h10.1l3.2-15.6h-9.4v-4h10.2L630,0.8h4.3l-2.7,13.4h16.9l2.7-13.4h4.3l-2.7,13.4h9.4L661.9,18.2z M644.5,33.8l3.2-15.6h-16.9
		l-3.2,15.6H644.5z"/>
	<path class="st1" d="M676,41.1l4.6-0.9c2.1,5.6,6.3,8.2,11.5,8.4c6.2,0.1,11.2-3.5,11.4-9.1c0.1-4.5-3-7.3-9-9.5l-5.4-2.1
		c-7.4-2.7-12-6.5-12-13.6c0-8.2,6.4-13.4,15.4-13.4c7.3,0,12.5,3.7,14.7,10L703,12c-1.8-4.2-5.3-6.7-10.4-6.7
		c-6.2,0-10.7,3.3-10.7,9c0,5.8,4.4,7.7,9.3,9.6l5.9,2.3c7.8,2.7,11.2,7.1,11.2,13c0,8.2-6.8,13.9-15.9,13.9
		C683.1,53,677.5,47,676,41.1z"/>
	<path class="st1" d="M760.2,1.7h4.3v50.4H760V12l-14,27.3h-3.2l-14-27.4v40.3h-4.5V1.7h4.4L744.4,33L760.2,1.7z"/>
	<path class="st1" d="M813.4,52.1l-4-12.3h-20.8l-4,12.3h-4.9l16.9-50.4h4.9l16.8,50.4H813.4z M790.1,35.2h17.8l-8.9-27L790.1,35.2z
		"/>
	<path class="st1" d="M833.4,52.1V1.7h4.5v45.9h22.9v4.5H833.4z"/>
	<path class="st1" d="M876.1,52.1V1.7h4.5v45.9h22.9v4.5H876.1z"/>
	<path class="st1" d="M916.1,33.8V20.1c0-10.2,6-19.2,17.6-19.2c11.7,0,17.6,9,17.6,19.2v13.8c0,10.2-6,19.2-17.6,19.2
		C922.1,53,916.1,44.1,916.1,33.8z M946.8,33.3V20.6c0-7.8-4-15.1-13.1-15.1c-9.1,0-13,7.3-13,15.1v12.7c0,8.1,4.2,15.1,13,15.1
		C942.6,48.4,946.8,41.4,946.8,33.3z"/>
	<path class="st1" d="M968.3,52.1V1.7h27.6v4.6h-23v17.9h18.6V29h-18.6v23.2H968.3z"/>
	<path class="st1" d="M1011.4,52.1V1.7h27.6v4.6h-23v17.9h18.6V29H1016v23.2H1011.4z"/>
	<path class="st1" d="M1054.6,52.1V1.7h4.5v50.4H1054.6z"/>
	<path class="st1" d="M1075.8,31.7v-9.4c0-11.9,6.5-21.5,17.9-21.5c8.9,0,15.6,5.7,17.1,13.9l-4.5,0.9c-1.5-6.2-6.5-10-12.7-10
		c-9,0-13.3,7.8-13.3,16.9v8.2c0,9.6,3.7,17.6,13,17.6c7.1,0,12-4.5,13-11.1l4.6,0.4c-1,8.9-7.9,15.4-17.6,15.4
		C1082.1,53,1075.8,43.9,1075.8,31.7z"/>
	<path class="st1" d="M1126.9,52.1V1.7h28.4v4.5h-23.8v18.1h18.6v4.5h-18.6v18.7h25.1v4.5H1126.9z"/>
	<path class="st1" d="M1241.8,19.9h-9.1l-2.5,12.1h9.1l-0.6,6.6h-9.9l-2.8,13.5h-7.2l2.8-13.5h-13.2l-2.8,13.5h-7.2l2.8-13.5h-8.2
		V32h9.6l2.4-12.1h-8.2v-6.6h9.6l2.6-12.5h7.2l-2.6,12.5h13.3l2.6-12.5h7.2l-2.6,12.5h8.4L1241.8,19.9z M1222.9,32l2.5-12.1h-13.3
		l-2.4,12.1H1222.9z"/>
	<path class="st1" d="M1255.2,52.1V1.7h16.1c8.7,0,16.1,3.6,16.1,13.8c0,6.8-3.4,10.4-7.4,10.8c4.1,0.3,8.4,4.3,8.4,11.4
		c0,7.8-5,14.5-16.1,14.5H1255.2z M1262.6,23h9.2c4.5,0,7.7-2.8,7.7-7.3c0-4.2-3.2-6.7-7.8-6.7h-9.1V23z M1262.6,44.8h9
		c5,0,8.9-2.5,8.9-7.3c0-4.4-3.3-7.1-8.4-7.1h-9.6V44.8z"/>
	<path class="st1" d="M1336.8,52.1h-8.4l-8.9-19.1c-0.9,0.1-1.9,0.1-2.8,0.1h-7.6v18.9h-7.5V1.7h16.7c11.5,0,15.8,7.2,15.8,15.6
		c0,6.8-2.6,11.4-7.3,13.8L1336.8,52.1z M1309.1,25.7h9.2c6,0,8.1-4,8.1-8.4c0-5.2-3.1-8.1-8.2-8.1h-9.1V25.7z"/>
	<path class="st1" d="M1380.8,52.1l-3.3-10.6h-18.6l-3.3,10.6h-8.1l16.6-50.4h8.4l16.6,50.4H1380.8z M1361.2,34h13.8l-6.8-21.8
		L1361.2,34z"/>
	<path class="st1" d="M1400.9,52.1V1.7h7l22.4,35.3V1.7h7.4v50.4h-7l-22.3-34.5v34.5H1400.9z"/>
	<path class="st1" d="M1451.6,32.2V21.8c0-11.6,6.4-21,18.1-21c9,0,15.8,5.6,17.4,14.1l-7.6,1.3c-1.2-4.9-5.2-7.5-9.8-7.5
		c-7.3,0-10.6,6.2-10.6,13.4v8.4c0,8.3,2.4,14.7,10.2,14.7c5.7,0,9.6-3.5,10.2-8.5l7.7,0.5c-0.9,9.2-8.1,15.8-18,15.8
		C1458.2,53,1451.6,44.5,1451.6,32.2z"/>
	<path class="st1" d="M1528.3,1.7h7.6v50.4h-7.6V31h-20.6v21.2h-7.6V1.7h7.6v21.7h20.6V1.7z"/>
	<path class="st0" d="M1620.9,19.9h-9.1l-2.5,12.1h9.1l-0.6,6.6h-9.9l-2.8,13.5h-7.2l2.8-13.5h-13.2l-2.8,13.5h-7.2l2.8-13.5h-8.2
		V32h9.6l2.4-12.1h-8.2v-6.6h9.6l2.6-12.5h7.2l-2.6,12.5h13.3l2.6-12.5h7.2l-2.6,12.5h8.4L1620.9,19.9z M1602.1,32l2.5-12.1h-13.3
		l-2.4,12.1H1602.1z"/>
	<path class="st0" d="M1633.8,38.7l7.7-1.1c1.2,5.3,5.1,7.8,9.5,7.9c4.2,0.2,8.7-1.9,9.1-6c0.2-2.7-1.2-5.3-7.1-7.7l-6.4-2.6
		c-7.6-3.2-11.5-7.3-11.5-14.2c0-8.5,6.7-14.2,16.2-14.2c8.6,0,14.3,5,16,12.7l-7.3,1.2c-0.9-3.8-4-6.6-8.6-6.6
		c-4.5,0-8.4,2.4-8.4,7c0,3.9,2.7,5.5,8,7.7l7.1,2.9c7.1,2.7,10.1,7.2,10.1,12.9c0,8.6-7.1,14.3-16.6,14.3
		C1642.1,53,1635.1,46.7,1633.8,38.7z"/>
	<path class="st0" d="M1716.4,9.1h-14.6v43h-7.5v-43h-14.6V1.7h36.7V9.1z"/>
	<path class="st0" d="M1754,52.1l-3.3-10.6H1732l-3.3,10.6h-8.1l16.6-50.4h8.4l16.6,50.4H1754z M1734.4,34h13.8l-6.8-21.8L1734.4,34
		z"/>
	<path class="st0" d="M1810.7,52.1h-8.4l-8.9-19.1c-0.9,0.1-1.9,0.1-2.8,0.1h-7.6v18.9h-7.5V1.7h16.7c11.5,0,15.8,7.2,15.8,15.6
		c0,6.8-2.6,11.4-7.3,13.8L1810.7,52.1z M1783,25.7h9.2c6,0,8.1-4,8.1-8.4c0-5.2-3.1-8.1-8.2-8.1h-9.1V25.7z"/>
	<path class="st0" d="M1857.7,9.1h-14.6v43h-7.5v-43H1821V1.7h36.7V9.1z"/>
	<path class="st0" d="M1871.6,32.8V1.7h7.6v31c0,6.9,3.3,12.3,10.4,12.3s10.4-5.5,10.4-12.4V1.7h7.6v31c0,10.9-6.2,20.3-18,20.3
		C1877.7,53,1871.6,43.7,1871.6,32.8z"/>
	<path class="st0" d="M1924.2,52.1V1.7h15.8c10.1,0,15.6,5.5,15.6,16.4c0,7.2-4,15.2-15.6,15.2h-8.4v18.8H1924.2z M1931.7,25.9h7.8
		c5.3,0,8.6-2.4,8.6-8.2c0-6-3.3-8.2-8.6-8.2h-7.8V25.9z"/>
</g>
</svg>
