<?xml version="1.0" encoding="utf-8"?>
<!-- Generator: Adobe Illustrator 26.3.1, SVG Export Plug-In . SVG Version: 6.00 Build 0)  -->
<svg version="1.1" id="レイヤー_1" xmlns="http://www.w3.org/2000/svg" xmlns:xlink="http://www.w3.org/1999/xlink" x="0px"
	 y="0px" width="1732px" height="53px" viewBox="0 0 1732 53" style="enable-background:new 0 0 1732 53;" xml:space="preserve">
<style type="text/css">
	.st0{fill:#7A805F;}
	.st1{fill:none;stroke:#7A805F;stroke-miterlimit:10;}
</style>
<g>
	<path class="st0" d="M49.3,18.2h-9.9l-3.2,15.6h10.1l-0.4,4H35.5l-2.9,14.3h-4.3l2.9-14.3H14.2l-2.9,14.3H7l2.9-14.3H0.6v-4h10.1
		l3.2-15.6H4.5v-4h10.2l2.7-13.4h4.3L19,14.2h16.9l2.7-13.4H43l-2.7,13.4h9.4L49.3,18.2z M31.9,33.8l3.2-15.6H18.2L15,33.8H31.9z"/>
	<path class="st0" d="M63.7,52.1V1.7h14.2c9.9,0,15.3,5.2,15.3,15.6c0,8.5-4.5,14.9-15.3,14.9h-9.6v19.9H63.7z M68.3,27.7h9.4
		c7.4,0,11.1-3.5,11.1-10.7S85,6.3,77.7,6.3h-9.4V27.7z"/>
	<path class="st0" d="M140.7,52.1h-5.1l-10.2-20.6c-1,0.1-2,0.1-3.2,0.1H112v20.4h-4.5V1.7h15.6c10.7,0,15.4,5.8,15.4,14.8
		c0,7.3-2.9,11.9-8.4,14L140.7,52.1z M112,27.1h11.1c7.6,0,10.7-4.2,10.7-10.7c0-6.9-3.7-10.2-10.9-10.2H112V27.1z"/>
	<path class="st0" d="M153.2,33.8V20.1c0-10.2,6-19.2,17.6-19.2c11.7,0,17.6,9,17.6,19.2v13.8c0,10.2-6,19.2-17.6,19.2
		C159.2,53,153.2,44.1,153.2,33.8z M183.9,33.3V20.6c0-7.8-4-15.1-13.1-15.1c-9.1,0-13,7.3-13,15.1v12.7c0,8.1,4.2,15.1,13,15.1
		S183.9,41.4,183.9,33.3z"/>
	<path class="st0" d="M203.9,52.1V1.7h27.6v4.6h-23v17.9h18.6V29h-18.6v23.2H203.9z"/>
	<path class="st0" d="M245.6,52.1V1.7h4.5v50.4H245.6z"/>
	<path class="st0" d="M264.6,41.1l4.6-0.9c2.1,5.6,6.3,8.2,11.5,8.4c6.2,0.1,11.2-3.5,11.4-9.1c0.1-4.5-3-7.3-9-9.5l-5.4-2.1
		c-7.4-2.7-12-6.5-12-13.6c0-8.2,6.4-13.4,15.4-13.4c7.3,0,12.5,3.7,14.7,10l-4.2,1.1c-1.8-4.2-5.3-6.7-10.4-6.7
		c-6.2,0-10.7,3.3-10.7,9c0,5.8,4.4,7.7,9.3,9.6l5.9,2.3c7.8,2.7,11.2,7.1,11.2,13c0,8.2-6.8,13.9-15.9,13.9
		C271.7,53,266.1,47,264.6,41.1z"/>
	<path class="st0" d="M310.3,41.1l4.6-0.9c2.1,5.6,6.3,8.2,11.5,8.4c6.2,0.1,11.2-3.5,11.4-9.1c0.1-4.5-3-7.3-9-9.5l-5.4-2.1
		c-7.4-2.7-12-6.5-12-13.6c0-8.2,6.4-13.4,15.4-13.4c7.3,0,12.5,3.7,14.7,10l-4.2,1.1c-1.8-4.2-5.3-6.7-10.4-6.7
		c-6.2,0-10.7,3.3-10.7,9c0,5.8,4.4,7.7,9.3,9.6l5.9,2.3c7.8,2.7,11.2,7.1,11.2,13c0,8.2-6.8,13.9-15.9,13.9
		C317.4,53,311.8,47,310.3,41.1z"/>
	<path class="st0" d="M357.1,52.1V1.7h4.5v50.4H357.1z"/>
	<path class="st0" d="M377.1,33.8V20.1c0-10.2,6-19.2,17.6-19.2c11.7,0,17.6,9,17.6,19.2v13.8c0,10.2-6,19.2-17.6,19.2
		C383.1,53,377.1,44.1,377.1,33.8z M407.8,33.3V20.6c0-7.8-4-15.1-13.1-15.1c-9.1,0-13,7.3-13,15.1v12.7c0,8.1,4.2,15.1,13,15.1
		S407.8,41.4,407.8,33.3z"/>
	<path class="st0" d="M427.8,52.1V1.7h4.2L458.8,43V1.7h4.5v50.4h-4.2l-26.8-40.9v40.9H427.8z"/>
	<path class="st0" d="M510.8,52.1l-4-12.3H486l-4,12.3h-4.9L494,1.7h4.9l16.8,50.4H510.8z M487.5,35.2h17.8l-8.9-27L487.5,35.2z"/>
	<path class="st0" d="M529.4,52.1V1.7h4.5v45.9h22.9v4.5H529.4z"/>
	<path class="st0" d="M568.2,41.1l4.6-0.9c2.1,5.6,6.3,8.2,11.5,8.4c6.2,0.1,11.2-3.5,11.4-9.1c0.1-4.5-3-7.3-9-9.5l-5.4-2.1
		c-7.4-2.7-12-6.5-12-13.6c0-8.2,6.4-13.4,15.4-13.4c7.3,0,12.5,3.7,14.7,10l-4.2,1.1c-1.8-4.2-5.3-6.7-10.4-6.7
		c-6.2,0-10.7,3.3-10.7,9c0,5.8,4.4,7.7,9.3,9.6l5.9,2.3c7.8,2.7,11.2,7.1,11.2,13c0,8.2-6.8,13.9-15.9,13.9
		C575.2,53,569.7,47,568.2,41.1z"/>
	<path class="st0" d="M685.2,19.9H676L673.5,32h9.1l-0.6,6.6h-9.9l-2.8,13.5h-7.2l2.8-13.5h-13.2l-2.8,13.5h-7.2l2.8-13.5h-8.2V32
		h9.6l2.4-12.1h-8.2v-6.6h9.6l2.6-12.5h7.2l-2.6,12.5h13.3l2.6-12.5h7.2l-2.6,12.5h8.4L685.2,19.9z M666.3,32l2.5-12.1h-13.3
		L653.1,32H666.3z"/>
	<path class="st0" d="M700,52.1V1.7h7L729.3,37V1.7h7.4v50.4h-7l-22.3-34.5v34.5H700z"/>
	<path class="st0" d="M753.6,52.1V1.7h29.7v7.5h-22.2v13.7h16.8v7.5h-16.8v14.3h23.3v7.5H753.6z"/>
	<path class="st0" d="M833.6,9.1H819v43h-7.5v-43h-14.6V1.7h36.7V9.1z"/>
	<path class="st0" d="M857.8,52.1L845.4,1.7h8.6l8.6,39.7l9.1-39.7h8.4l9.1,39.7l8.5-39.7h8.6l-12.4,50.4h-9.2l-8.8-36.2l-8.5,36.2
		H857.8z"/>
	<path class="st0" d="M917,33.4V20.7c0-10.2,6-19.9,18.1-19.9c12.2,0,18.2,9.6,18.2,19.9v12.7c0,10.2-6,19.6-18.2,19.6
		C922.9,53,917,43.6,917,33.4z M945.8,32.3V21.6c0-6-2.4-13-10.7-13c-8.2,0-10.6,7.1-10.6,13v10.7c0,6.6,2.7,13,10.6,13
		S945.8,38.9,945.8,32.3z"/>
	<path class="st0" d="M1003.8,52.1h-8.4l-8.9-19.1c-0.9,0.1-1.9,0.1-2.8,0.1h-7.6v18.9h-7.5V1.7h16.7c11.5,0,15.8,7.2,15.8,15.6
		c0,6.8-2.6,11.4-7.3,13.8L1003.8,52.1z M976.2,25.7h9.2c6,0,8.1-4,8.1-8.4c0-5.2-3.1-8.1-8.2-8.1h-9.1V25.7z"/>
	<path class="st0" d="M1046.5,52.1l-14.3-23l-6.6,8.7v14.3h-7.6V1.7h7.6v24l18.3-24h9.1l-15.7,20.7l18.6,29.7H1046.5z"/>
	<path class="st0" d="M1069,52.1V1.7h7.5v50.4H1069z"/>
	<path class="st0" d="M1093.1,52.1V1.7h7l22.4,35.3V1.7h7.4v50.4h-7l-22.3-34.5v34.5H1093.1z"/>
	<path class="st0" d="M1182.8,52.1h-4.8l-1.3-4.7c-2.6,3.3-6.7,5.5-12.8,5.5c-12.7,0-18.9-10.6-18.9-21.5v-8.1
		c0-10.7,5.5-22.5,19.2-22.5c11.4,0,17.9,7.5,18.4,16.8h-7.6c-0.4-4.8-4-9.1-10.5-9.1c-9.1,0-11.7,8.8-11.7,16.3v4.8
		c0,8.7,3.7,15.6,11.7,15.6c5.8,0,11.4-3.5,11.4-10.9v-1.9l-9.1-0.8v-6h16.1V52.1z"/>
	<path class="st1" d="M1267.5,19.9h-9.1l-2.5,12.1h9.1l-0.6,6.6h-9.9l-2.8,13.5h-7.2l2.8-13.5H1234l-2.8,13.5h-7.2l2.8-13.5h-8.2V32
		h9.6l2.4-12.1h-8.2v-6.6h9.6l2.6-12.5h7.2l-2.6,12.5h13.3l2.6-12.5h7.2l-2.6,12.5h8.4L1267.5,19.9z M1248.6,32l2.5-12.1h-13.3
		l-2.4,12.1H1248.6z"/>
	<path class="st1" d="M1315.6,9.1H1301v43h-7.5v-43h-14.6V1.7h36.7V9.1z"/>
	<path class="st1" d="M1329.5,52.1V1.7h29.7v7.5H1337v13.7h16.8v7.5H1337v14.3h23.3v7.5H1329.5z"/>
	<path class="st1" d="M1406.3,52.1l-3.3-10.6h-18.6l-3.3,10.6h-8.1l16.6-50.4h8.4l16.6,50.4H1406.3z M1386.8,34h13.8l-6.8-21.8
		L1386.8,34z"/>
	<path class="st1" d="M1462.6,1.7h7.2v50.4h-7.4V18.2l-10.9,20.7h-5.2l-10.9-20.7v33.9h-7.5V1.7h7.2l13.8,26.7L1462.6,1.7z"/>
	<path class="st1" d="M1495.8,52.1l-12.5-50.4h8.6l8.6,39.7l9.1-39.7h8.4l9.1,39.7l8.5-39.7h8.6l-12.4,50.4h-9.2l-8.8-36.2
		l-8.5,36.2H1495.8z"/>
	<path class="st1" d="M1554.9,33.4V20.7c0-10.2,6-19.9,18.1-19.9c12.2,0,18.2,9.6,18.2,19.9v12.7c0,10.2-6,19.6-18.2,19.6
		C1560.9,53,1554.9,43.6,1554.9,33.4z M1583.7,32.3V21.6c0-6-2.4-13-10.7-13c-8.2,0-10.6,7.1-10.6,13v10.7c0,6.6,2.7,13,10.6,13
		S1583.7,38.9,1583.7,32.3z"/>
	<path class="st1" d="M1641.7,52.1h-8.4l-8.9-19.1c-0.9,0.1-1.9,0.1-2.8,0.1h-7.6v18.9h-7.5V1.7h16.7c11.5,0,15.8,7.2,15.8,15.6
		c0,6.8-2.6,11.4-7.3,13.8L1641.7,52.1z M1614.1,25.7h9.2c6,0,8.1-4,8.1-8.4c0-5.2-3.1-8.1-8.2-8.1h-9.1V25.7z"/>
	<path class="st1" d="M1684.4,52.1l-14.3-23l-6.6,8.7v14.3h-7.6V1.7h7.6v24l18.3-24h9.1l-15.7,20.7l18.6,29.7H1684.4z"/>
</g>
</svg>
