<?xml version="1.0" encoding="utf-8"?>
<!-- Generator: Adobe Illustrator 26.3.1, SVG Export Plug-In . SVG Version: 6.00 Build 0)  -->
<svg version="1.1" id="レイヤー_1" xmlns="http://www.w3.org/2000/svg" xmlns:xlink="http://www.w3.org/1999/xlink" x="0px"
	 y="0px" width="1764px" height="53px" viewBox="0 0 1764 53" style="enable-background:new 0 0 1764 53;" xml:space="preserve">
<style type="text/css">
	.st0{fill:#7A805F;}
	.st1{fill:none;stroke:#7A805F;stroke-miterlimit:10;}
</style>
<g>
	<path class="st0" d="M48.9,18.2H39l-3.2,15.6H46l-0.4,4H35.1l-2.9,14.3h-4.3l2.9-14.3H13.8L11,52.1H6.6l2.9-14.3H0.2v-4h10.1
		l3.2-15.6H4.1v-4h10.2L17,0.8h4.3l-2.7,13.4h16.9l2.7-13.4h4.3l-2.7,13.4h9.4L48.9,18.2z M31.5,33.8l3.2-15.6H17.8l-3.2,15.6H31.5z
		"/>
	<path class="st0" d="M94,1.7h4.5v50.4H94v-23H69.4v23h-4.6V1.7h4.6v22.9H94V1.7z"/>
	<path class="st0" d="M127.8,52.1V30.8L113.6,1.7h5.2l11.4,23.3l11.3-23.3h5.2l-14.3,29.1v21.3H127.8z"/>
	<path class="st0" d="M161.6,52.1V1.7H176c6.3,0,15.8,1.8,15.8,13.3c0,6.8-3.5,11-8,11.4c4.8,0.4,9,4.9,9,11.7
		c0,7.8-5.5,13.9-16.2,13.9H161.6z M166.2,24.6h11.5c5.7,0,9.4-3.4,9.4-9.4c0-5.8-3.5-9-10.5-9h-10.4V24.6z M166.2,47.7h10.2
		c7,0,11.9-3.3,11.9-9.5c0-5.7-4.1-9.1-10.3-9.1h-11.7V47.7z"/>
	<path class="st0" d="M208.9,52.1V1.7h4.5v45.9h22.9v4.5H208.9z"/>
	<path class="st0" d="M251.6,52.1V1.7h4.5v50.4H251.6z"/>
	<path class="st0" d="M274.1,52.1V1.7h16.2c10.4,0,16.7,6.8,16.7,16.9v15.2c0,11.4-6.1,18.3-16.8,18.3H274.1z M278.7,47.6h11.2
		c8.1,0,12.6-4.8,12.6-13.8V19c0-8.1-5.1-12.7-12.5-12.7h-11.3V47.6z"/>
	<path class="st0" d="M332.9,52.1L319.6,1.7h5.1l10.8,43.5l11.4-43.5h4.8l11.4,43.5L374,1.7h5.1l-13.2,50.4h-5.3l-11.2-41.6
		l-11,41.6H332.9z"/>
	<path class="st0" d="M391.6,33.8V20.1c0-10.2,6-19.2,17.6-19.2c11.7,0,17.6,9,17.6,19.2v13.8c0,10.2-6,19.2-17.6,19.2
		C397.7,53,391.6,44.1,391.6,33.8z M422.4,33.3V20.6c0-7.8-4-15.1-13.1-15.1c-9.1,0-13,7.3-13,15.1v12.7c0,8.1,4.2,15.1,13,15.1
		S422.4,41.4,422.4,33.3z"/>
	<path class="st0" d="M477.1,52.1H472l-10.2-20.6c-1,0.1-2,0.1-3.2,0.1h-10.3v20.4h-4.5V1.7h15.6c10.7,0,15.4,5.8,15.4,14.8
		c0,7.3-2.9,11.9-8.4,14L477.1,52.1z M448.3,27.1h11.1c7.6,0,10.7-4.2,10.7-10.7c0-6.9-3.7-10.2-10.9-10.2h-10.9V27.1z"/>
	<path class="st0" d="M522.3,52.1l-16.3-25.6l-8.6,11.2v14.5h-4.6V1.7h4.6v28.5l22-28.5h5.5l-15.9,20.7l18.8,29.7H522.3z"/>
	<path class="st1" d="M611.4,19.9h-9.1L599.7,32h9.1l-0.6,6.6h-9.9l-2.8,13.5h-7.2l2.8-13.5h-13.2l-2.8,13.5h-7.2l2.8-13.5h-8.2V32
		h9.6l2.4-12.1h-8.2v-6.6h9.6l2.6-12.5h7.2l-2.6,12.5h13.3L599,0.9h7.2l-2.6,12.5h8.4L611.4,19.9z M592.5,32l2.5-12.1h-13.3
		L579.3,32H592.5z"/>
	<path class="st1" d="M624.3,38.7l7.7-1.1c1.2,5.3,5.1,7.8,9.5,7.9c4.2,0.2,8.7-1.9,9.1-6c0.2-2.7-1.2-5.3-7.1-7.7l-6.4-2.6
		c-7.6-3.2-11.5-7.3-11.5-14.2c0-8.5,6.7-14.2,16.2-14.2c8.6,0,14.3,5,16,12.7l-7.3,1.2c-0.9-3.8-4-6.6-8.6-6.6
		c-4.5,0-8.4,2.4-8.4,7c0,3.9,2.7,5.5,8,7.7l7.1,2.9c7.1,2.7,10.1,7.2,10.1,12.9c0,8.6-7.1,14.3-16.6,14.3
		C632.6,53,625.6,46.7,624.3,38.7z"/>
	<path class="st1" d="M702.4,52.1l-3.3-10.6h-18.6l-3.3,10.6H669l16.6-50.4h8.4l16.6,50.4H702.4z M682.9,34h13.8l-6.8-21.8L682.9,34
		z"/>
	<path class="st1" d="M751.3,9.1h-14.6v43h-7.5v-43h-14.6V1.7h36.7V9.1z"/>
	<path class="st1" d="M765.3,52.1V1.7h29.7v7.5h-22.2v13.7h16.8v7.5h-16.8v14.3H796v7.5H765.3z"/>
	<path class="st1" d="M810.8,52.1V1.7h7.5v42.9h21v7.5H810.8z"/>
	<path class="st1" d="M853.5,52.1V1.7h7.5v42.9h21v7.5H853.5z"/>
	<path class="st1" d="M896.2,52.1V1.7h7.5v50.4H896.2z"/>
	<path class="st1" d="M954.3,9.1h-14.6v43h-7.5v-43h-14.6V1.7h36.7V9.1z"/>
	<path class="st1" d="M968.3,52.1V1.7h29.7v7.5h-22.2v13.7h16.8v7.5h-16.8v14.3H999v7.5H968.3z"/>
	<path class="st0" d="M1084.9,18.2h-9.9l-3.2,15.6h10.1l-0.4,4h-10.5l-2.9,14.3h-4.3l2.9-14.3h-16.9l-2.9,14.3h-4.4l2.9-14.3h-9.2
		v-4h10.1l3.2-15.6h-9.4v-4h10.2l2.7-13.4h4.3l-2.7,13.4h16.9l2.7-13.4h4.3l-2.7,13.4h9.4L1084.9,18.2z M1067.6,33.8l3.2-15.6h-16.9
		l-3.2,15.6H1067.6z"/>
	<path class="st0" d="M1099.3,52.1V1.7h14.2c9.9,0,15.3,5.2,15.3,15.6c0,8.5-4.5,14.9-15.3,14.9h-9.6v19.9H1099.3z M1103.9,27.7h9.4
		c7.4,0,11.1-3.5,11.1-10.7s-3.7-10.7-11-10.7h-9.4V27.7z"/>
	<path class="st0" d="M1143.1,52.1V1.7h28.4v4.5h-23.8v18.1h18.6v4.5h-18.6v18.7h25.1v4.5H1143.1z"/>
	<path class="st0" d="M1220.8,52.1h-5.1l-10.2-20.6c-1,0.1-2,0.1-3.2,0.1h-10.3v20.4h-4.5V1.7h15.6c10.7,0,15.4,5.8,15.4,14.8
		c0,7.3-2.9,11.9-8.4,14L1220.8,52.1z M1192.1,27.1h11.1c7.6,0,10.7-4.2,10.7-10.7c0-6.9-3.7-10.2-10.9-10.2h-10.9V27.1z"/>
	<path class="st0" d="M1232.2,41.1l4.6-0.9c2.1,5.6,6.3,8.2,11.5,8.4c6.2,0.1,11.2-3.5,11.4-9.1c0.1-4.5-3-7.3-9-9.5l-5.4-2.1
		c-7.4-2.7-12-6.5-12-13.6c0-8.2,6.4-13.4,15.4-13.4c7.3,0,12.5,3.7,14.7,10l-4.2,1.1c-1.8-4.2-5.3-6.7-10.4-6.7
		c-6.2,0-10.7,3.3-10.7,9c0,5.8,4.4,7.7,9.3,9.6l5.9,2.3c7.8,2.7,11.2,7.1,11.2,13c0,8.2-6.8,13.9-15.9,13.9
		C1239.3,53,1233.7,47,1232.2,41.1z"/>
	<path class="st0" d="M1278.2,33.8V20.1c0-10.2,6-19.2,17.6-19.2c11.7,0,17.6,9,17.6,19.2v13.8c0,10.2-6,19.2-17.6,19.2
		S1278.2,44.1,1278.2,33.8z M1308.9,33.3V20.6c0-7.8-4-15.1-13.1-15.1c-9.1,0-13,7.3-13,15.1v12.7c0,8.1,4.2,15.1,13,15.1
		C1304.7,48.4,1308.9,41.4,1308.9,33.3z"/>
	<path class="st0" d="M1328.9,52.1V1.7h4.2L1360,43V1.7h4.5v50.4h-4.2l-26.8-40.9v40.9H1328.9z"/>
	<path class="st0" d="M1412,52.1l-4-12.3h-20.8l-4,12.3h-4.9l16.9-50.4h4.9l16.8,50.4H1412z M1388.6,35.2h17.8l-8.9-27L1388.6,35.2z
		"/>
	<path class="st0" d="M1430.6,52.1V1.7h4.5v45.9h22.9v4.5H1430.6z"/>
	<path class="st0" d="M1493.3,33.8V20.1c0-10.2,6-19.2,17.6-19.2c11.7,0,17.6,9,17.6,19.2v13.8c0,10.2-6,19.2-17.6,19.2
		S1493.3,44.1,1493.3,33.8z M1524,33.3V20.6c0-7.8-4-15.1-13.1-15.1c-9.1,0-13,7.3-13,15.1v12.7c0,8.1,4.2,15.1,13,15.1
		C1519.8,48.4,1524,41.4,1524,33.3z"/>
	<path class="st0" d="M1544,52.1V1.7h27.6v4.6h-23v17.9h18.6V29h-18.6v23.2H1544z"/>
	<path class="st0" d="M1585.7,52.1V1.7h27.6v4.6h-23v17.9h18.6V29h-18.6v23.2H1585.7z"/>
	<path class="st0" d="M1627.4,52.1V1.7h4.5v50.4H1627.4z"/>
	<path class="st0" d="M1647.2,31.7v-9.4c0-11.9,6.5-21.5,17.9-21.5c8.9,0,15.6,5.7,17.1,13.9l-4.5,0.9c-1.5-6.2-6.5-10-12.7-10
		c-9,0-13.3,7.8-13.3,16.9v8.2c0,9.6,3.7,17.6,13,17.6c7.1,0,12-4.5,13-11.1l4.6,0.4c-1,8.9-7.9,15.4-17.6,15.4
		C1653.6,53,1647.2,43.9,1647.2,31.7z"/>
	<path class="st0" d="M1696.9,52.1V1.7h28.4v4.5h-23.8v18.1h18.6v4.5h-18.6v18.7h25.1v4.5H1696.9z"/>
</g>
</svg>
