<?xml version="1.0" encoding="utf-8"?>
<!-- Generator: Adobe Illustrator 26.3.1, SVG Export Plug-In . SVG Version: 6.00 Build 0)  -->
<svg version="1.1" id="レイヤー_1" xmlns="http://www.w3.org/2000/svg" xmlns:xlink="http://www.w3.org/1999/xlink" x="0px"
	 y="0px" width="1660px" height="53px" viewBox="0 0 1660 53" style="enable-background:new 0 0 1660 53;" xml:space="preserve">
<style type="text/css">
	.st0{fill:#7A805F;}
</style>
<g>
	<path class="st0" d="M48.9,18.2h-9.9l-3.2,15.6H46l-0.4,4H35.1l-2.9,14.3h-4.3l2.9-14.3H13.9L11,52.1H6.6l2.9-14.3H0.3v-4h10.1
		l3.2-15.6H4.2v-4h10.2L17,0.8h4.3l-2.7,13.4h16.9l2.7-13.4h4.3l-2.7,13.4h9.4L48.9,18.2z M31.6,33.8l3.2-15.6H17.8l-3.2,15.6H31.6z
		"/>
	<path class="st0" d="M64.8,52.1V1.7h27.6v4.6h-23v17.9h18.6V29H69.4v23.2H64.8z"/>
	<path class="st0" d="M141.2,52.1h-5.1L126,31.5c-1,0.1-2,0.1-3.2,0.1h-10.3v20.4H108V1.7h15.6c10.7,0,15.4,5.8,15.4,14.8
		c0,7.3-2.9,11.9-8.4,14L141.2,52.1z M112.5,27.1h11.1c7.6,0,10.7-4.2,10.7-10.7c0-6.9-3.7-10.2-10.9-10.2h-10.9V27.1z"/>
	<path class="st0" d="M157,52.1V1.7h28.4v4.5h-23.8v18.1h18.6v4.5h-18.6v18.7h25.1v4.5H157z"/>
	<path class="st0" d="M202.9,52.1V1.7h28.4v4.5h-23.8v18.1h18.6v4.5h-18.6v18.7h25.1v4.5H202.9z"/>
	<path class="st0" d="M248.9,52.1V1.7h4.5v45.9h22.9v4.5H248.9z"/>
	<path class="st0" d="M323.4,52.1l-4-12.3h-20.8l-4,12.3h-4.9l16.9-50.4h4.9l16.8,50.4H323.4z M300,35.2h17.8l-8.9-27L300,35.2z"/>
	<path class="st0" d="M343.4,52.1V1.7h4.2L374.4,43V1.7h4.5v50.4h-4.2l-26.8-40.9v40.9H343.4z"/>
	<path class="st0" d="M395.7,31.7v-9.4c0-11.9,6.5-21.5,17.9-21.5c8.9,0,15.6,5.7,17.1,13.9l-4.5,0.9c-1.5-6.2-6.5-10-12.7-10
		c-9,0-13.3,7.8-13.3,16.9v8.2c0,9.6,3.7,17.6,13,17.6c7.1,0,12-4.5,13-11.1l4.6,0.4c-1,8.9-7.9,15.4-17.6,15.4
		C402.1,53,395.7,43.9,395.7,31.7z"/>
	<path class="st0" d="M446.8,52.1V1.7h28.4v4.5h-23.8v18.1H470v4.5h-18.6v18.7h25.1v4.5H446.8z"/>
	<path class="st0" d="M526,52.1h-5.1l-10.2-20.6c-1,0.1-2,0.1-3.2,0.1h-10.3v20.4h-4.5V1.7h15.6c10.7,0,15.4,5.8,15.4,14.8
		c0,7.3-2.9,11.9-8.4,14L526,52.1z M497.3,27.1h11.1c7.6,0,10.7-4.2,10.7-10.7c0-6.9-3.7-10.2-10.9-10.2h-10.9V27.1z"/>
	<path class="st0" d="M610.4,19.9h-9.1L598.7,32h9.1l-0.6,6.6h-9.9l-2.8,13.5h-7.2l2.8-13.5h-13.2l-2.8,13.5h-7.2l2.8-13.5h-8.2V32
		h9.6l2.4-12.1h-8.2v-6.6h9.6l2.6-12.5h7.2l-2.6,12.5h13.3L598,0.9h7.2l-2.6,12.5h8.4L610.4,19.9z M591.5,32l2.5-12.1h-13.3
		L578.3,32H591.5z"/>
	<path class="st0" d="M659.9,1.7h7.2v50.4h-7.4V18.2l-10.9,20.7h-5.2l-10.9-20.7v33.9h-7.5V1.7h7.2l13.8,26.7L659.9,1.7z"/>
	<path class="st0" d="M683.9,52.1V1.7h7.5v50.4H683.9z"/>
	<path class="st0" d="M706.7,32.2V21.8c0-11.6,6.4-21,18.1-21c9,0,15.8,5.6,17.4,14.1l-7.6,1.3c-1.2-4.9-5.2-7.5-9.8-7.5
		c-7.3,0-10.6,6.2-10.6,13.4v8.4c0,8.3,2.4,14.7,10.2,14.7c5.7,0,9.6-3.5,10.2-8.5l7.7,0.5c-0.9,9.2-8.1,15.8-18,15.8
		C713.3,53,706.7,44.5,706.7,32.2z"/>
	<path class="st0" d="M791.8,52.1h-8.4l-8.9-19.1c-0.9,0.1-1.9,0.1-2.8,0.1h-7.6v18.9h-7.5V1.7h16.7c11.5,0,15.8,7.2,15.8,15.6
		c0,6.8-2.6,11.4-7.3,13.8L791.8,52.1z M764.2,25.7h9.2c6,0,8.1-4,8.1-8.4c0-5.2-3.1-8.1-8.2-8.1h-9.1V25.7z"/>
	<path class="st0" d="M803.7,33.4V20.7c0-10.2,6-19.9,18.1-19.9c12.2,0,18.2,9.6,18.2,19.9v12.7c0,10.2-6,19.6-18.2,19.6
		C809.7,53,803.7,43.6,803.7,33.4z M832.5,32.3V21.6c0-6-2.4-13-10.7-13c-8.2,0-10.6,7.1-10.6,13v10.7c0,6.6,2.7,13,10.6,13
		S832.5,38.9,832.5,32.3z"/>
	<path class="st0" d="M853.9,33.4V20.7c0-10.2,6-19.9,18.1-19.9c12.2,0,18.2,9.6,18.2,19.9v12.7c0,10.2-6,19.6-18.2,19.6
		C859.9,53,853.9,43.6,853.9,33.4z M882.7,32.3V21.6c0-6-2.4-13-10.7-13c-8.2,0-10.6,7.1-10.6,13v10.7c0,6.6,2.7,13,10.6,13
		S882.7,38.9,882.7,32.3z"/>
	<path class="st0" d="M905.6,52.1V1.7h28.7v7.7h-21.1v13.3h16.9v7.7h-16.9v21.7H905.6z"/>
	<path class="st0" d="M948.6,52.1V1.7h28.7v7.7h-21.1v13.3H973v7.7h-16.9v21.7H948.6z"/>
	<path class="st0" d="M991.5,52.1V1.7h7.5v50.4H991.5z"/>
	<path class="st0" d="M1014.3,32.2V21.8c0-11.6,6.4-21,18.1-21c9,0,15.8,5.6,17.4,14.1l-7.6,1.3c-1.2-4.9-5.2-7.5-9.8-7.5
		c-7.3,0-10.6,6.2-10.6,13.4v8.4c0,8.3,2.4,14.7,10.2,14.7c5.7,0,9.6-3.5,10.2-8.5l7.7,0.5c-0.9,9.2-8.1,15.8-18,15.8
		C1020.9,53,1014.3,44.5,1014.3,32.2z"/>
	<path class="st0" d="M1064.3,52.1V1.7h29.7v7.5h-22.2v13.7h16.8v7.5h-16.8v14.3h23.3v7.5H1064.3z"/>
	<path class="st0" d="M1181,18.2h-9.9l-3.2,15.6h10.1l-0.4,4h-10.5l-2.9,14.3h-4.3l2.9-14.3h-16.9l-2.9,14.3h-4.4l2.9-14.3h-9.2v-4
		h10.1l3.2-15.6h-9.4v-4h10.2l2.7-13.4h4.3l-2.7,13.4h16.9l2.7-13.4h4.3l-2.7,13.4h9.4L1181,18.2z M1163.6,33.8l3.2-15.6h-16.9
		l-3.2,15.6H1163.6z"/>
	<path class="st0" d="M1195.1,41.1l4.6-0.9c2.1,5.6,6.3,8.2,11.5,8.4c6.2,0.1,11.2-3.5,11.4-9.1c0.1-4.5-3-7.3-9-9.5l-5.4-2.1
		c-7.4-2.7-12-6.5-12-13.6c0-8.2,6.4-13.4,15.4-13.4c7.3,0,12.5,3.7,14.7,10l-4.2,1.1c-1.8-4.2-5.3-6.7-10.4-6.7
		c-6.2,0-10.7,3.3-10.7,9c0,5.8,4.4,7.7,9.3,9.6l5.9,2.3c7.8,2.7,11.2,7.1,11.2,13c0,8.2-6.8,13.9-15.9,13.9
		C1202.1,53,1196.6,47,1195.1,41.1z"/>
	<path class="st0" d="M1275.3,6.2h-15.5v45.9h-4.5V6.2h-15.4V1.7h35.4V6.2z"/>
	<path class="st0" d="M1290.5,33.6V1.7h4.6v31.5c0,8.7,4.5,15,12.7,15s12.7-6.4,12.7-15.1V1.7h4.5v31.6c0,11.1-6.3,19.7-17.3,19.7
		C1296.8,53,1290.5,44.6,1290.5,33.6z"/>
	<path class="st0" d="M1343,52.1V1.7h16.2c10.4,0,16.7,6.8,16.7,16.9v15.2c0,11.4-6.1,18.3-16.8,18.3H1343z M1347.6,47.6h11.2
		c8.1,0,12.6-4.8,12.6-13.8V19c0-8.1-5.1-12.7-12.5-12.7h-11.3V47.6z"/>
	<path class="st0" d="M1401.7,52.1V30.8l-14.3-29.1h5.2l11.4,23.3l11.3-23.3h5.2l-14.3,29.1v21.3H1401.7z"/>
	<path class="st0" d="M1468.8,52.1h-5.1l-10.2-20.6c-1,0.1-2,0.1-3.2,0.1H1440v20.4h-4.5V1.7h15.6c10.7,0,15.4,5.8,15.4,14.8
		c0,7.3-2.9,11.9-8.4,14L1468.8,52.1z M1440,27.1h11.1c7.6,0,10.7-4.2,10.7-10.7c0-6.9-3.7-10.2-10.9-10.2H1440V27.1z"/>
	<path class="st0" d="M1482.7,33.8V20.1c0-10.2,6-19.2,17.6-19.2c11.7,0,17.6,9,17.6,19.2v13.8c0,10.2-6,19.2-17.6,19.2
		C1488.7,53,1482.7,44.1,1482.7,33.8z M1513.4,33.3V20.6c0-7.8-4-15.1-13.1-15.1c-9.1,0-13,7.3-13,15.1v12.7c0,8.1,4.2,15.1,13,15.1
		C1509.2,48.4,1513.4,41.4,1513.4,33.3z"/>
	<path class="st0" d="M1533.7,33.8V20.1c0-10.2,6-19.2,17.6-19.2c11.7,0,17.6,9,17.6,19.2v13.8c0,10.2-6,19.2-17.6,19.2
		S1533.7,44.1,1533.7,33.8z M1564.4,33.3V20.6c0-7.8-4-15.1-13.1-15.1c-9.1,0-13,7.3-13,15.1v12.7c0,8.1,4.2,15.1,13,15.1
		S1564.4,41.4,1564.4,33.3z"/>
	<path class="st0" d="M1621.8,1.7h4.3v50.4h-4.5V12l-14,27.3h-3.2l-14-27.4v40.3h-4.5V1.7h4.4L1606,33L1621.8,1.7z"/>
</g>
</svg>
