<?xml version="1.0" encoding="utf-8"?>
<!-- Generator: Adobe Illustrator 26.3.1, SVG Export Plug-In . SVG Version: 6.00 Build 0)  -->
<svg version="1.1" id="レイヤー_1" xmlns="http://www.w3.org/2000/svg" xmlns:xlink="http://www.w3.org/1999/xlink" x="0px"
	 y="0px" width="749.7px" height="470.8px" viewBox="0 0 749.7 470.8" style="enable-background:new 0 0 749.7 470.8;"
	 xml:space="preserve">
<style type="text/css">
	.st0{clip-path:url(#SVGID_00000062875973502309947210000016490255138173646479_);fill:#F5F3F0;}
	
		.st1{clip-path:url(#SVGID_00000062875973502309947210000016490255138173646479_);fill:none;stroke:#BCC0AF;stroke-width:6;stroke-miterlimit:10;}
	
		.st2{clip-path:url(#SVGID_00000062875973502309947210000016490255138173646479_);fill:none;stroke:#DEDFD7;stroke-width:6;stroke-miterlimit:10;}
	
		.st3{clip-path:url(#SVGID_00000062875973502309947210000016490255138173646479_);fill:none;stroke:#BCC0AF;stroke-width:13.5;stroke-miterlimit:10;}
	
		.st4{clip-path:url(#SVGID_00000062875973502309947210000016490255138173646479_);fill:none;stroke:#BCC0AF;stroke-width:15;stroke-miterlimit:10;}
	.st5{clip-path:url(#SVGID_00000062875973502309947210000016490255138173646479_);fill:#555252;}
	.st6{clip-path:url(#SVGID_00000062875973502309947210000016490255138173646479_);}
	.st7{fill:#555252;}
	.st8{fill:#7A805F;}
	
		.st9{clip-path:url(#SVGID_00000062875973502309947210000016490255138173646479_);fill:none;stroke:#798160;stroke-width:9;stroke-miterlimit:10;}
	
		.st10{clip-path:url(#SVGID_00000062875973502309947210000016490255138173646479_);fill:none;stroke:#BCC0AF;stroke-width:12;stroke-miterlimit:10;}
	
		.st11{clip-path:url(#SVGID_00000062875973502309947210000016490255138173646479_);fill:none;stroke:#798160;stroke-width:4;stroke-miterlimit:10;}
	.st12{fill:none;stroke:#798160;stroke-width:4;stroke-miterlimit:10;}
	.st13{fill:none;stroke:#798160;stroke-width:4;stroke-miterlimit:10;stroke-dasharray:11.8203,11.8203;}
	.st14{fill:none;stroke:#798160;stroke-width:4;stroke-miterlimit:10;stroke-dasharray:12.3501,12.3501;}
	
		.st15{clip-path:url(#SVGID_00000062875973502309947210000016490255138173646479_);fill:none;stroke:#798160;stroke-width:4;stroke-miterlimit:10;stroke-dasharray:12,12;}
</style>
<g>
	<g>
		<defs>
			<rect id="SVGID_1_" width="750" height="470"/>
		</defs>
		<clipPath id="SVGID_00000085252412740462799340000014401053352277809544_">
			<use xlink:href="#SVGID_1_"  style="overflow:visible;"/>
		</clipPath>
		
			<rect style="clip-path:url(#SVGID_00000085252412740462799340000014401053352277809544_);fill:#F5F3F0;" width="750" height="470"/>
		
			<path style="clip-path:url(#SVGID_00000085252412740462799340000014401053352277809544_);fill:none;stroke:#BCC0AF;stroke-width:6;stroke-miterlimit:10;" d="
			M-260.3-0.3"/>
		
			<path style="clip-path:url(#SVGID_00000085252412740462799340000014401053352277809544_);fill:none;stroke:#DEDFD7;stroke-width:6;stroke-miterlimit:10;" d="
			M6-32.6l26,107c0,0,2,29,4,45c1.8,14.8,55.5,67.5,61.5,77.5s37,57,57,69c25,15,51.4,21.5,98,31c10.1,2.1,21.3,3.9,43.7,7.5
			c48.9,7.9,73.4,11.8,84.4,12.3c53.8,2.3,105.8-13.7,129.4-21c10.5-3.2,27.1-8.8,50.1-9.7c26.7-1.1,45.9,4.6,50.6,6.1
			c9.5,3,8.3,3.8,32.2,14.3c14.5,6.4,29.5,13,48.1,19.4c25.5,8.8,28.9,7.3,42.5,13.8c17.3,8.3,29.2,19.1,36.3,26.6"/>
		
			<path style="clip-path:url(#SVGID_00000085252412740462799340000014401053352277809544_);fill:none;stroke:#BCC0AF;stroke-width:6;stroke-miterlimit:10;" d="
			M80.3,292.2c20.5,34.1,29.8,43.9,33.4,47.2c0.6,0.5,5.3,4.7,11,9.8c5.4,4.8,8.7,7.6,10.5,9.2c3.1,2.7,5.7,5,7.7,6.6
			c22.7-9.4,42.6-15.3,58-19.1c35.7-8.8,64.6-10.8,83.1-11.9c14.9-0.9,25.5-1,40.9-1.1c55.2-0.2,61.4,4.1,89.7,2.3
			c47.6-3,50.1-16.5,77-13.5c20.1,2.2,48.8,13.1,81,55.3"/>
		
			<path style="clip-path:url(#SVGID_00000085252412740462799340000014401053352277809544_);fill:none;stroke:#BCC0AF;stroke-width:13.5;stroke-miterlimit:10;" d="
			M689.6-19.6l-0.2,126.9l20.7,167l7.7,51.2C700,385.2,682.2,445,664.4,504.7"/>
		
			<line style="clip-path:url(#SVGID_00000085252412740462799340000014401053352277809544_);fill:none;stroke:#BCC0AF;stroke-width:6;stroke-miterlimit:10;" x1="-4.6" y1="212.7" x2="57.4" y2="303.1"/>
		
			<path style="clip-path:url(#SVGID_00000085252412740462799340000014401053352277809544_);fill:none;stroke:#BCC0AF;stroke-width:6;stroke-miterlimit:10;" d="
			M450-26.6l13,194c-39.6,10-79.1,20-118.7,30c-1.1,0.3-2.7,0.6-4.7,0.8c-1.6,0.2-6,0.7-10.1-0.2c-5.2-1.2-8.4-4.2-13.4-8.8
			c-3.2-3-5.5-5.8-7.1-7.8C262.7,114,216.3,46.7,170-20.6"/>
		
			<path style="clip-path:url(#SVGID_00000085252412740462799340000014401053352277809544_);fill:none;stroke:#BCC0AF;stroke-width:6;stroke-miterlimit:10;" d="
			M-13,121.4c0-1,92-42,92-42s76-50,96-57s99-17,99-17l101,29l-22,77c0,0-10,45-5,57s13.4,24.4,13.4,24.4"/>
		
			<path style="clip-path:url(#SVGID_00000085252412740462799340000014401053352277809544_);fill:none;stroke:#BCC0AF;stroke-width:15;stroke-miterlimit:10;" d="
			M268-20.6l-22,86c-28.6,53.7-57.3,107.4-85.9,161.1c-34,28-68.1,55.9-102.1,83.9c-23,26-46,52.1-69,78.1"/>
		
			<path style="clip-path:url(#SVGID_00000085252412740462799340000014401053352277809544_);fill:none;stroke:#BCC0AF;stroke-width:6;stroke-miterlimit:10;" d="
			M765,93.4c-2,0-179,74-179,74l-12-27l-111,27"/>
		
			<polyline style="clip-path:url(#SVGID_00000085252412740462799340000014401053352277809544_);fill:none;stroke:#BCC0AF;stroke-width:6;stroke-miterlimit:10;" points="
			442.6,172.5 467,306.4 463,347.4 369,503.4 		"/>
		
			<path style="clip-path:url(#SVGID_00000085252412740462799340000014401053352277809544_);fill:none;stroke:#BCC0AF;stroke-width:6;stroke-miterlimit:10;" d="
			M170,234.4l83-17c0,0,57,1,65,8s12,39,12,39"/>
		
			<line style="clip-path:url(#SVGID_00000085252412740462799340000014401053352277809544_);fill:none;stroke:#BCC0AF;stroke-width:6;stroke-miterlimit:10;" x1="260.9" y1="217.6" x2="258" y2="253.4"/>
		
			<line style="clip-path:url(#SVGID_00000085252412740462799340000014401053352277809544_);fill:none;stroke:#BCC0AF;stroke-width:6;stroke-miterlimit:10;" x1="299.6" y1="220.5" x2="295" y2="258.4"/>
		
			<polyline style="clip-path:url(#SVGID_00000085252412740462799340000014401053352277809544_);fill:none;stroke:#BCC0AF;stroke-width:6;stroke-miterlimit:10;" points="
			456.8,75.8 405,57.4 383,115.4 401,253.4 		"/>
		
			<polyline style="clip-path:url(#SVGID_00000085252412740462799340000014401053352277809544_);fill:none;stroke:#BCC0AF;stroke-width:6;stroke-miterlimit:10;" points="
			343,267.2 335,341.4 322,418.4 346,476.4 359,508.4 		"/>
		
			<rect x="352.5" y="276.9" style="clip-path:url(#SVGID_00000085252412740462799340000014401053352277809544_);fill:#555252;" width="29" height="29"/>
		<g style="clip-path:url(#SVGID_00000085252412740462799340000014401053352277809544_);">
			<path class="st7" d="M395.7,282.1c0.9,0.5,1.4,1.3,1.4,2.4c0,1-0.3,1.7-1,2.2c-0.7,0.5-1.5,0.7-2.6,0.7h-3.9
				c-0.1,0-0.1,0-0.1-0.1c0,0-0.1-0.1-0.1-0.1v-10.1c0-0.1,0-0.1,0.1-0.1s0.1-0.1,0.1-0.1h3.8c2.4,0,3.6,1,3.6,2.9
				C397,280.9,396.6,281.6,395.7,282.1C395.6,282,395.6,282.1,395.7,282.1z M391.6,278.9v2.3c0,0,0,0.1,0.1,0.1h1.8
				c0.5,0,0.8-0.1,1.1-0.3c0.3-0.2,0.4-0.5,0.4-0.9c0-0.4-0.1-0.7-0.4-0.9c-0.3-0.2-0.6-0.3-1.1-0.3L391.6,278.9
				C391.6,278.8,391.6,278.8,391.6,278.9z M394.6,285.3c0.3-0.2,0.4-0.6,0.4-1s-0.1-0.7-0.4-1c-0.3-0.2-0.6-0.4-1.1-0.4h-1.9
				c-0.1,0-0.1,0-0.1,0.1v2.5c0,0,0,0.1,0.1,0.1h1.9C394,285.6,394.4,285.5,394.6,285.3z"/>
			<path class="st7" d="M400.2,287.4c0,0-0.1-0.1-0.1-0.1v-10.1c0-0.1,0-0.1,0.1-0.1s0.1-0.1,0.1-0.1h1.8c0,0,0.1,0,0.1,0.1
				c0,0,0.1,0.1,0.1,0.1v8.4c0,0,0,0.1,0.1,0.1h4.9c0.1,0,0.1,0,0.1,0.1c0,0,0.1,0.1,0.1,0.1v1.5c0,0,0,0.1-0.1,0.1
				c0,0-0.1,0.1-0.1,0.1h-6.9C400.3,287.5,400.2,287.5,400.2,287.4z"/>
			<path class="st7" d="M411.9,287.2c-0.6-0.3-1.1-0.8-1.4-1.3c-0.3-0.6-0.5-1.2-0.5-2v-3.2c0-0.7,0.2-1.4,0.5-2
				c0.3-0.6,0.8-1,1.4-1.3c0.6-0.3,1.3-0.5,2.1-0.5c0.8,0,1.5,0.2,2.1,0.5c0.6,0.3,1.1,0.8,1.4,1.3c0.3,0.6,0.5,1.2,0.5,2v3.2
				c0,0.8-0.2,1.4-0.5,2c-0.3,0.6-0.8,1-1.4,1.3c-0.6,0.3-1.3,0.5-2.1,0.5C413.1,287.6,412.5,287.5,411.9,287.2z M415.3,285.3
				c0.3-0.3,0.5-0.8,0.5-1.4v-3.3c0-0.6-0.2-1-0.5-1.4c-0.3-0.4-0.8-0.5-1.3-0.5c-0.5,0-1,0.2-1.3,0.5c-0.3,0.4-0.5,0.8-0.5,1.4v3.3
				c0,0.6,0.2,1,0.5,1.4c0.3,0.4,0.8,0.5,1.3,0.5S414.9,285.7,415.3,285.3z"/>
			<path class="st7" d="M422.7,287.1c-0.6-0.3-1-0.7-1.4-1.3c-0.3-0.5-0.5-1.2-0.5-1.9v-3.5c0-0.7,0.2-1.4,0.5-1.9
				c0.3-0.5,0.8-1,1.4-1.3c0.6-0.3,1.3-0.5,2.1-0.5c0.8,0,1.4,0.1,2,0.4s1,0.7,1.4,1.2c0.3,0.5,0.5,1.1,0.5,1.8
				c0,0.1-0.1,0.1-0.2,0.2l-1.8,0.1h0c-0.1,0-0.1-0.1-0.1-0.2c0-0.5-0.2-1-0.5-1.3c-0.3-0.3-0.8-0.5-1.3-0.5c-0.5,0-1,0.2-1.3,0.5
				c-0.3,0.3-0.5,0.7-0.5,1.3v3.6c0,0.5,0.2,0.9,0.5,1.3c0.3,0.3,0.8,0.5,1.3,0.5c0.5,0,1-0.2,1.3-0.5c0.3-0.3,0.5-0.7,0.5-1.3
				c0-0.1,0.1-0.2,0.2-0.2l1.8,0.1c0,0,0.1,0,0.1,0c0,0,0.1,0.1,0.1,0.1c0,0.7-0.2,1.3-0.5,1.8c-0.3,0.5-0.8,0.9-1.4,1.2
				s-1.3,0.4-2,0.4C423.9,287.6,423.2,287.4,422.7,287.1z"/>
			<path class="st7" d="M431.6,287.4c0,0-0.1-0.1-0.1-0.1v-10.1c0-0.1,0-0.1,0.1-0.1s0.1-0.1,0.1-0.1h1.8c0,0,0.1,0,0.1,0.1
				c0,0,0.1,0.1,0.1,0.1v4.2c0,0,0,0,0,0.1s0,0,0.1,0l3.5-4.3c0.1-0.1,0.1-0.1,0.2-0.1h2c0.1,0,0.1,0,0.1,0.1s0,0.1,0,0.2l-3.3,4.3
				c0,0,0,0.1,0,0.1l3.5,5.7c0,0.1,0,0.1,0,0.1c0,0.1-0.1,0.1-0.1,0.1h-2c-0.1,0-0.2,0-0.2-0.1l-2.7-4.3c0,0,0,0,0,0s0,0-0.1,0
				l-0.9,1.2c0,0,0,0.1,0,0.1v3c0,0,0,0.1-0.1,0.1c0,0-0.1,0.1-0.1,0.1h-1.8C431.7,287.5,431.6,287.5,431.6,287.4z"/>
			<path class="st7" d="M443.8,287.2c-0.6-0.3-1.1-0.6-1.4-1.1c-0.3-0.5-0.5-1-0.5-1.7v-0.3c0,0,0-0.1,0.1-0.1c0,0,0.1-0.1,0.1-0.1
				h1.7c0,0,0.1,0,0.1,0.1c0,0,0.1,0.1,0.1,0.1v0.2c0,0.4,0.2,0.7,0.6,1c0.4,0.3,0.9,0.4,1.5,0.4c0.5,0,0.9-0.1,1.2-0.3
				c0.3-0.2,0.4-0.5,0.4-0.8c0-0.2-0.1-0.4-0.2-0.6c-0.2-0.2-0.4-0.3-0.7-0.4c-0.3-0.1-0.7-0.3-1.3-0.5c-0.7-0.2-1.2-0.5-1.7-0.7
				s-0.9-0.6-1.2-1s-0.5-0.9-0.5-1.5c0-0.6,0.2-1.1,0.5-1.6s0.7-0.8,1.3-1s1.2-0.4,1.9-0.4c0.8,0,1.4,0.1,2,0.4
				c0.6,0.3,1.1,0.6,1.4,1.1s0.5,1,0.5,1.7v0.2c0,0.1,0,0.1-0.1,0.1c0,0-0.1,0.1-0.1,0.1h-1.7c-0.1,0-0.1,0-0.1-0.1
				c0,0-0.1-0.1-0.1-0.1v-0.1c0-0.4-0.2-0.8-0.5-1.1c-0.3-0.3-0.8-0.4-1.4-0.4c-0.5,0-0.8,0.1-1.1,0.3c-0.3,0.2-0.4,0.5-0.4,0.8
				c0,0.2,0.1,0.5,0.2,0.6c0.2,0.2,0.4,0.3,0.7,0.5c0.3,0.1,0.8,0.3,1.4,0.5c0.7,0.3,1.3,0.5,1.7,0.7c0.4,0.2,0.8,0.5,1.1,0.9
				c0.3,0.4,0.5,0.9,0.5,1.5c0,0.9-0.3,1.7-1,2.2s-1.6,0.8-2.8,0.8C445.1,287.6,444.4,287.5,443.8,287.2z"/>
			<path class="st7" d="M458.9,287.2c-0.6-0.3-1.1-0.8-1.4-1.3c-0.3-0.6-0.5-1.2-0.5-2v-3.2c0-0.7,0.2-1.4,0.5-2
				c0.3-0.6,0.8-1,1.4-1.3c0.6-0.3,1.3-0.5,2.1-0.5c0.8,0,1.5,0.2,2.1,0.5c0.6,0.3,1.1,0.8,1.4,1.3c0.3,0.6,0.5,1.2,0.5,2v3.2
				c0,0.8-0.2,1.4-0.5,2c-0.3,0.6-0.8,1-1.4,1.3c-0.6,0.3-1.3,0.5-2.1,0.5C460.2,287.6,459.5,287.5,458.9,287.2z M462.3,285.3
				c0.3-0.3,0.5-0.8,0.5-1.4v-3.3c0-0.6-0.2-1-0.5-1.4c-0.3-0.4-0.8-0.5-1.3-0.5c-0.5,0-1,0.2-1.3,0.5c-0.3,0.4-0.5,0.8-0.5,1.4v3.3
				c0,0.6,0.2,1,0.5,1.4c0.3,0.4,0.8,0.5,1.3,0.5S462,285.7,462.3,285.3z"/>
			<path class="st7" d="M475.2,278.7c0,0-0.1,0.1-0.1,0.1h-4.9c-0.1,0-0.1,0-0.1,0.1v2.3c0,0.1,0,0.1,0.1,0.1h3.2c0,0,0.1,0,0.1,0.1
				c0,0,0.1,0.1,0.1,0.1v1.5c0,0.1,0,0.1-0.1,0.1c0,0-0.1,0.1-0.1,0.1h-3.2c-0.1,0-0.1,0-0.1,0.1v4.1c0,0,0,0.1-0.1,0.1
				c0,0-0.1,0.1-0.1,0.1h-1.8c-0.1,0-0.1,0-0.1-0.1c0,0-0.1-0.1-0.1-0.1v-10.1c0-0.1,0-0.1,0.1-0.1s0.1-0.1,0.1-0.1h6.9
				c0.1,0,0.1,0,0.1,0.1c0,0,0.1,0.1,0.1,0.1v1.5C475.2,278.7,475.2,278.7,475.2,278.7z"/>
			<path class="st7" d="M485,278.7c0,0-0.1,0.1-0.1,0.1H480c-0.1,0-0.1,0-0.1,0.1v2.3c0,0.1,0,0.1,0.1,0.1h3.2c0,0,0.1,0,0.1,0.1
				c0,0,0.1,0.1,0.1,0.1v1.5c0,0.1,0,0.1-0.1,0.1c0,0-0.1,0.1-0.1,0.1H480c-0.1,0-0.1,0-0.1,0.1v4.1c0,0,0,0.1-0.1,0.1
				c0,0-0.1,0.1-0.1,0.1H478c-0.1,0-0.1,0-0.1-0.1c0,0-0.1-0.1-0.1-0.1v-10.1c0-0.1,0-0.1,0.1-0.1s0.1-0.1,0.1-0.1h6.9
				c0.1,0,0.1,0,0.1,0.1c0,0,0.1,0.1,0.1,0.1v1.5C485.1,278.7,485,278.7,485,278.7z"/>
			<path class="st7" d="M487.7,287.4c0,0-0.1-0.1-0.1-0.1v-10.1c0-0.1,0-0.1,0.1-0.1s0.1-0.1,0.1-0.1h1.8c0,0,0.1,0,0.1,0.1
				c0,0,0.1,0.1,0.1,0.1v10.1c0,0,0,0.1-0.1,0.1c0,0-0.1,0.1-0.1,0.1h-1.8C487.7,287.5,487.7,287.5,487.7,287.4z"/>
			<path class="st7" d="M494.6,287.1c-0.6-0.3-1-0.7-1.4-1.3c-0.3-0.5-0.5-1.2-0.5-1.9v-3.5c0-0.7,0.2-1.4,0.5-1.9
				c0.3-0.5,0.8-1,1.4-1.3c0.6-0.3,1.3-0.5,2.1-0.5c0.8,0,1.4,0.1,2,0.4s1,0.7,1.4,1.2c0.3,0.5,0.5,1.1,0.5,1.8
				c0,0.1-0.1,0.1-0.2,0.2l-1.8,0.1h0c-0.1,0-0.1-0.1-0.1-0.2c0-0.5-0.2-1-0.5-1.3c-0.3-0.3-0.8-0.5-1.3-0.5c-0.5,0-1,0.2-1.3,0.5
				c-0.3,0.3-0.5,0.7-0.5,1.3v3.6c0,0.5,0.2,0.9,0.5,1.3c0.3,0.3,0.8,0.5,1.3,0.5c0.5,0,1-0.2,1.3-0.5c0.3-0.3,0.5-0.7,0.5-1.3
				c0-0.1,0.1-0.2,0.2-0.2l1.8,0.1c0,0,0.1,0,0.1,0c0,0,0.1,0.1,0.1,0.1c0,0.7-0.2,1.3-0.5,1.8c-0.3,0.5-0.8,0.9-1.4,1.2
				s-1.3,0.4-2,0.4C495.9,287.6,495.2,287.4,494.6,287.1z"/>
			<path class="st7" d="M510.7,278.7c0,0-0.1,0.1-0.1,0.1h-4.9c-0.1,0-0.1,0-0.1,0.1v2.3c0,0.1,0,0.1,0.1,0.1h3.2c0,0,0.1,0,0.1,0.1
				c0,0,0.1,0.1,0.1,0.1v1.5c0,0.1,0,0.1-0.1,0.1c0,0-0.1,0.1-0.1,0.1h-3.2c-0.1,0-0.1,0-0.1,0.1v2.4c0,0,0,0.1,0.1,0.1h4.9
				c0,0,0.1,0,0.1,0.1c0,0,0.1,0.1,0.1,0.1v1.5c0,0,0,0.1-0.1,0.1c0,0-0.1,0.1-0.1,0.1h-6.9c-0.1,0-0.1,0-0.1-0.1
				c0,0-0.1-0.1-0.1-0.1v-10.1c0-0.1,0-0.1,0.1-0.1s0.1-0.1,0.1-0.1h6.9c0,0,0.1,0,0.1,0.1s0.1,0.1,0.1,0.1v1.5
				C510.8,278.7,510.8,278.7,510.7,278.7z"/>
			<path class="st7" d="M396.7,294c0,0-0.1,0.1-0.1,0.1h-4.9c-0.1,0-0.1,0-0.1,0.1v2.3c0,0.1,0,0.1,0.1,0.1h3.2c0,0,0.1,0,0.1,0.1
				c0,0,0.1,0.1,0.1,0.1v1.5c0,0.1,0,0.1-0.1,0.1c0,0-0.1,0.1-0.1,0.1h-3.2c-0.1,0-0.1,0-0.1,0.1v2.4c0,0,0,0.1,0.1,0.1h4.9
				c0,0,0.1,0,0.1,0.1c0,0,0.1,0.1,0.1,0.1v1.5c0,0,0,0.1-0.1,0.1c0,0-0.1,0.1-0.1,0.1h-6.9c-0.1,0-0.1,0-0.1-0.1
				c0,0-0.1-0.1-0.1-0.1v-10.1c0-0.1,0-0.1,0.1-0.1s0.1-0.1,0.1-0.1h6.9c0,0,0.1,0,0.1,0.1s0.1,0.1,0.1,0.1v1.5
				C396.8,293.9,396.7,294,396.7,294z"/>
			<path class="st7" d="M405.8,297.4c0.9,0.5,1.4,1.3,1.4,2.4c0,1-0.3,1.7-1,2.2c-0.7,0.5-1.5,0.7-2.6,0.7h-3.9
				c-0.1,0-0.1,0-0.1-0.1c0,0-0.1-0.1-0.1-0.1v-10.1c0-0.1,0-0.1,0.1-0.1s0.1-0.1,0.1-0.1h3.8c2.4,0,3.6,1,3.6,2.9
				C407.1,296.1,406.6,296.8,405.8,297.4C405.7,297.3,405.7,297.3,405.8,297.4z M401.7,294.1v2.3c0,0,0,0.1,0.1,0.1h1.8
				c0.5,0,0.8-0.1,1.1-0.3c0.3-0.2,0.4-0.5,0.4-0.9c0-0.4-0.1-0.7-0.4-0.9c-0.3-0.2-0.6-0.3-1.1-0.3L401.7,294.1
				C401.7,294.1,401.7,294.1,401.7,294.1z M404.7,300.6c0.3-0.2,0.4-0.6,0.4-1s-0.1-0.7-0.4-1c-0.3-0.2-0.6-0.4-1.1-0.4h-1.9
				c-0.1,0-0.1,0-0.1,0.1v2.5c0,0,0,0.1,0.1,0.1h1.9C404.1,300.9,404.4,300.8,404.7,300.6z"/>
			<path class="st7" d="M410.3,302.7c0,0-0.1-0.1-0.1-0.1v-10.1c0-0.1,0-0.1,0.1-0.1s0.1-0.1,0.1-0.1h1.8c0,0,0.1,0,0.1,0.1
				c0,0,0.1,0.1,0.1,0.1v10.1c0,0,0,0.1-0.1,0.1c0,0-0.1,0.1-0.1,0.1h-1.8C410.4,302.7,410.3,302.7,410.3,302.7z"/>
			<path class="st7" d="M417.1,302.5c-0.6-0.3-1.1-0.6-1.4-1.1c-0.3-0.5-0.5-1-0.5-1.7v-0.3c0,0,0-0.1,0.1-0.1c0,0,0.1-0.1,0.1-0.1
				h1.7c0,0,0.1,0,0.1,0.1c0,0,0.1,0.1,0.1,0.1v0.2c0,0.4,0.2,0.7,0.6,1c0.4,0.3,0.9,0.4,1.5,0.4c0.5,0,0.9-0.1,1.2-0.3
				c0.3-0.2,0.4-0.5,0.4-0.8c0-0.2-0.1-0.4-0.2-0.6c-0.2-0.2-0.4-0.3-0.7-0.4c-0.3-0.1-0.7-0.3-1.3-0.5c-0.7-0.2-1.2-0.5-1.7-0.7
				s-0.9-0.6-1.2-1s-0.5-0.9-0.5-1.5c0-0.6,0.2-1.1,0.5-1.6s0.7-0.8,1.3-1s1.2-0.4,1.9-0.4c0.8,0,1.4,0.1,2,0.4
				c0.6,0.3,1.1,0.6,1.4,1.1s0.5,1,0.5,1.7v0.2c0,0.1,0,0.1-0.1,0.1c0,0-0.1,0.1-0.1,0.1h-1.7c-0.1,0-0.1,0-0.1-0.1
				c0,0-0.1-0.1-0.1-0.1v-0.1c0-0.4-0.2-0.8-0.5-1.1c-0.3-0.3-0.8-0.4-1.4-0.4c-0.5,0-0.8,0.1-1.1,0.3c-0.3,0.2-0.4,0.5-0.4,0.8
				c0,0.2,0.1,0.5,0.2,0.6c0.2,0.2,0.4,0.3,0.7,0.5c0.3,0.1,0.8,0.3,1.4,0.5c0.7,0.3,1.3,0.5,1.7,0.7c0.4,0.2,0.8,0.5,1.1,0.9
				c0.3,0.4,0.5,0.9,0.5,1.5c0,0.9-0.3,1.7-1,2.2s-1.6,0.8-2.8,0.8C418.4,302.9,417.7,302.7,417.1,302.5z"/>
			<path class="st7" d="M427.8,302.4c-0.6-0.3-1-0.7-1.4-1.3c-0.3-0.5-0.5-1.2-0.5-1.9v-6.8c0-0.1,0-0.1,0.1-0.1
				c0,0,0.1-0.1,0.1-0.1h1.8c0,0,0.1,0,0.1,0.1s0.1,0.1,0.1,0.1v6.9c0,0.5,0.2,1,0.5,1.3c0.3,0.3,0.8,0.5,1.3,0.5
				c0.5,0,1-0.2,1.3-0.5c0.3-0.3,0.5-0.8,0.5-1.3v-6.9c0-0.1,0-0.1,0.1-0.1s0.1-0.1,0.1-0.1h1.8c0,0,0.1,0,0.1,0.1
				c0,0,0.1,0.1,0.1,0.1v6.8c0,0.7-0.2,1.3-0.5,1.9c-0.3,0.5-0.8,1-1.4,1.3c-0.6,0.3-1.3,0.5-2,0.5S428.3,302.7,427.8,302.4z"/>
		</g>
		<g style="clip-path:url(#SVGID_00000085252412740462799340000014401053352277809544_);">
			<path class="st8" d="M36.6,379.5c0,0-0.1,0.1-0.1,0.1h-4.9c-0.1,0-0.1,0-0.1,0.1v2.3c0,0.1,0,0.1,0.1,0.1h3.2c0,0,0.1,0,0.1,0.1
				c0,0,0.1,0.1,0.1,0.1v1.5c0,0.1,0,0.1-0.1,0.1c0,0-0.1,0.1-0.1,0.1h-3.2c-0.1,0-0.1,0-0.1,0.1v2.4c0,0.1,0,0.1,0.1,0.1h4.9
				c0,0,0.1,0,0.1,0.1c0,0,0.1,0.1,0.1,0.1v1.5c0,0.1,0,0.1-0.1,0.1c0,0-0.1,0.1-0.1,0.1h-6.9c-0.1,0-0.1,0-0.1-0.1
				c0,0-0.1-0.1-0.1-0.1v-10.1c0-0.1,0-0.1,0.1-0.1s0.1-0.1,0.1-0.1h6.9c0,0,0.1,0,0.1,0.1s0.1,0.1,0.1,0.1v1.5
				C36.6,379.4,36.6,379.5,36.6,379.5z"/>
			<path class="st8" d="M45.6,382.9c1,0.5,1.4,1.3,1.4,2.4c0,1-0.3,1.7-1,2.2c-0.7,0.5-1.5,0.7-2.6,0.7h-3.9c0,0-0.1,0-0.1-0.1
				c0,0-0.1-0.1-0.1-0.1v-10.1c0-0.1,0-0.1,0.1-0.1s0.1-0.1,0.1-0.1h3.8c2.4,0,3.6,1,3.6,2.9C46.9,381.6,46.5,382.4,45.6,382.9
				C45.6,382.8,45.6,382.8,45.6,382.9z M41.5,379.7v2.3c0,0.1,0,0.1,0.1,0.1h1.8c0.5,0,0.8-0.1,1.1-0.3c0.3-0.2,0.4-0.5,0.4-0.9
				c0-0.4-0.1-0.7-0.4-0.9c-0.3-0.2-0.6-0.3-1.1-0.3L41.5,379.7C41.6,379.6,41.5,379.6,41.5,379.7z M44.6,386.1
				c0.3-0.2,0.4-0.6,0.4-1s-0.1-0.7-0.4-1c-0.3-0.2-0.6-0.4-1.1-0.4h-1.9c0,0-0.1,0-0.1,0.1v2.5c0,0,0,0.1,0.1,0.1h1.9
				C43.9,386.4,44.3,386.3,44.6,386.1z"/>
			<path class="st8" d="M50.1,388.2c0,0-0.1-0.1-0.1-0.1v-10.1c0-0.1,0-0.1,0.1-0.1s0.1-0.1,0.1-0.1H52c0,0,0.1,0,0.1,0.1
				c0,0,0.1,0.1,0.1,0.1v10.1c0,0.1,0,0.1-0.1,0.1c0,0-0.1,0.1-0.1,0.1h-1.8C50.2,388.3,50.2,388.2,50.1,388.2z"/>
			<path class="st8" d="M57,388c-0.6-0.3-1.1-0.6-1.4-1.1c-0.3-0.5-0.5-1-0.5-1.7v-0.3c0,0,0-0.1,0.1-0.1c0,0,0.1-0.1,0.1-0.1H57
				c0,0,0.1,0,0.1,0.1c0,0,0.1,0.1,0.1,0.1v0.2c0,0.4,0.2,0.7,0.6,1s0.9,0.4,1.5,0.4c0.5,0,0.9-0.1,1.2-0.3c0.3-0.2,0.4-0.5,0.4-0.8
				c0-0.2-0.1-0.4-0.2-0.6s-0.4-0.3-0.7-0.4c-0.3-0.1-0.7-0.3-1.3-0.5c-0.7-0.2-1.2-0.5-1.7-0.7c-0.5-0.2-0.9-0.6-1.2-1
				c-0.3-0.4-0.5-0.9-0.5-1.5c0-0.6,0.2-1.1,0.5-1.6c0.3-0.4,0.7-0.8,1.3-1c0.5-0.2,1.2-0.4,1.9-0.4c0.8,0,1.4,0.1,2,0.4
				s1.1,0.6,1.4,1.1c0.3,0.5,0.5,1,0.5,1.7v0.2c0,0.1,0,0.1-0.1,0.1s-0.1,0.1-0.1,0.1h-1.7c0,0-0.1,0-0.1-0.1c0,0-0.1-0.1-0.1-0.1
				V381c0-0.4-0.2-0.8-0.5-1.1s-0.8-0.4-1.4-0.4c-0.5,0-0.8,0.1-1.1,0.3c-0.3,0.2-0.4,0.5-0.4,0.8c0,0.3,0.1,0.5,0.2,0.6
				c0.2,0.2,0.4,0.3,0.7,0.5c0.3,0.1,0.8,0.3,1.4,0.5c0.7,0.3,1.3,0.5,1.7,0.7c0.4,0.2,0.8,0.5,1.1,0.9c0.3,0.4,0.5,0.9,0.5,1.5
				c0,0.9-0.3,1.7-1,2.2c-0.7,0.5-1.6,0.8-2.8,0.8C58.3,388.4,57.6,388.3,57,388z"/>
			<path class="st8" d="M67.6,387.9c-0.6-0.3-1-0.7-1.4-1.3c-0.3-0.5-0.5-1.2-0.5-1.9v-6.8c0-0.1,0-0.1,0.1-0.1s0.1-0.1,0.1-0.1h1.8
				c0,0,0.1,0,0.1,0.1s0.1,0.1,0.1,0.1v6.9c0,0.5,0.2,1,0.5,1.3c0.3,0.3,0.8,0.5,1.3,0.5c0.5,0,1-0.2,1.3-0.5
				c0.3-0.3,0.5-0.8,0.5-1.3v-6.9c0-0.1,0-0.1,0.1-0.1s0.1-0.1,0.1-0.1h1.8c0,0,0.1,0,0.1,0.1s0.1,0.1,0.1,0.1v6.8
				c0,0.7-0.2,1.3-0.5,1.9c-0.3,0.5-0.8,1-1.4,1.3c-0.6,0.3-1.3,0.5-2,0.5C68.9,388.4,68.2,388.2,67.6,387.9z"/>
			<path class="st8" d="M30.8,403.3c-0.6-0.3-1.1-0.6-1.4-1.1c-0.3-0.5-0.5-1-0.5-1.7v-0.3c0,0,0-0.1,0.1-0.1c0,0,0.1-0.1,0.1-0.1
				h1.7c0,0,0.1,0,0.1,0.1c0,0,0.1,0.1,0.1,0.1v0.2c0,0.4,0.2,0.7,0.6,1s0.9,0.4,1.5,0.4c0.5,0,0.9-0.1,1.2-0.3
				c0.3-0.2,0.4-0.5,0.4-0.8c0-0.2-0.1-0.4-0.2-0.6s-0.4-0.3-0.7-0.4c-0.3-0.1-0.7-0.3-1.3-0.5c-0.7-0.2-1.2-0.5-1.7-0.7
				c-0.5-0.2-0.9-0.6-1.2-1c-0.3-0.4-0.5-0.9-0.5-1.5c0-0.6,0.2-1.1,0.5-1.6c0.3-0.4,0.7-0.8,1.3-1c0.5-0.2,1.2-0.4,1.9-0.4
				c0.8,0,1.4,0.1,2,0.4s1.1,0.6,1.4,1.1c0.3,0.5,0.5,1,0.5,1.7v0.2c0,0.1,0,0.1-0.1,0.1s-0.1,0.1-0.1,0.1h-1.7c0,0-0.1,0-0.1-0.1
				c0,0-0.1-0.1-0.1-0.1v-0.1c0-0.4-0.2-0.8-0.5-1.1s-0.8-0.4-1.4-0.4c-0.5,0-0.8,0.1-1.1,0.3c-0.3,0.2-0.4,0.5-0.4,0.8
				c0,0.3,0.1,0.5,0.2,0.6c0.2,0.2,0.4,0.3,0.7,0.5c0.3,0.1,0.8,0.3,1.4,0.5c0.7,0.3,1.3,0.5,1.7,0.7c0.4,0.2,0.8,0.5,1.1,0.9
				c0.3,0.4,0.5,0.9,0.5,1.5c0,0.9-0.3,1.7-1,2.2c-0.7,0.5-1.6,0.8-2.8,0.8C32.1,403.6,31.4,403.5,30.8,403.3z"/>
			<path class="st8" d="M47.3,393.1c0,0,0.1,0.1,0.1,0.1v1.5c0,0.1,0,0.1-0.1,0.1c0,0-0.1,0.1-0.1,0.1h-2.7c-0.1,0-0.1,0-0.1,0.1
				v8.4c0,0.1,0,0.1-0.1,0.1c0,0-0.1,0.1-0.1,0.1h-1.8c0,0-0.1,0-0.1-0.1c0,0-0.1-0.1-0.1-0.1v-8.4c0,0,0-0.1-0.1-0.1h-2.6
				c-0.1,0-0.1,0-0.1-0.1c0,0-0.1-0.1-0.1-0.1v-1.5c0-0.1,0-0.1,0.1-0.1s0.1-0.1,0.1-0.1h7.6C47.2,393,47.2,393,47.3,393.1z"/>
			<path class="st8" d="M55.6,403.4l-0.5-1.5c0,0,0-0.1-0.1-0.1h-3.7c0,0-0.1,0-0.1,0.1l-0.4,1.5c0,0.1-0.1,0.1-0.2,0.1h-1.9
				c-0.1,0-0.1,0-0.1-0.1c0,0,0-0.1,0-0.2l3.2-10.1c0-0.1,0.1-0.1,0.2-0.1h2.4c0.1,0,0.2,0.1,0.2,0.1l3.2,10.1c0,0,0,0,0,0.1
				c0,0.1-0.1,0.1-0.2,0.1h-1.9C55.7,403.5,55.7,403.5,55.6,403.4z M51.9,400.2h2.6c0.1,0,0.1,0,0.1-0.1l-1.3-4.5c0,0,0-0.1,0-0.1
				c0,0,0,0,0,0.1L51.9,400.2C51.9,400.2,51.9,400.2,51.9,400.2z"/>
			<path class="st8" d="M67.1,393.1c0,0,0.1,0.1,0.1,0.1v1.5c0,0.1,0,0.1-0.1,0.1c0,0-0.1,0.1-0.1,0.1h-2.7c-0.1,0-0.1,0-0.1,0.1
				v8.4c0,0.1,0,0.1-0.1,0.1c0,0-0.1,0.1-0.1,0.1h-1.8c0,0-0.1,0-0.1-0.1c0,0-0.1-0.1-0.1-0.1v-8.4c0,0,0-0.1-0.1-0.1h-2.6
				c-0.1,0-0.1,0-0.1-0.1c0,0-0.1-0.1-0.1-0.1v-1.5c0-0.1,0-0.1,0.1-0.1s0.1-0.1,0.1-0.1H67C67,393,67.1,393,67.1,393.1z"/>
			<path class="st8" d="M70,403.5c0,0-0.1-0.1-0.1-0.1v-10.1c0-0.1,0-0.1,0.1-0.1s0.1-0.1,0.1-0.1h1.8c0,0,0.1,0,0.1,0.1
				c0,0,0.1,0.1,0.1,0.1v10.1c0,0.1,0,0.1-0.1,0.1c0,0-0.1,0.1-0.1,0.1h-1.8C70.1,403.5,70,403.5,70,403.5z"/>
			<path class="st8" d="M77,403.2c-0.6-0.3-1.1-0.8-1.4-1.3c-0.3-0.6-0.5-1.2-0.5-2v-3.2c0-0.7,0.2-1.4,0.5-2c0.3-0.6,0.8-1,1.4-1.3
				s1.3-0.5,2.1-0.5c0.8,0,1.5,0.2,2.1,0.5c0.6,0.3,1.1,0.8,1.4,1.3c0.3,0.6,0.5,1.2,0.5,2v3.2c0,0.8-0.2,1.4-0.5,2
				c-0.3,0.6-0.8,1-1.4,1.3c-0.6,0.3-1.3,0.5-2.1,0.5C78.3,403.7,77.6,403.5,77,403.2z M80.4,401.3c0.3-0.4,0.5-0.8,0.5-1.4v-3.3
				c0-0.6-0.2-1-0.5-1.4s-0.8-0.5-1.3-0.5c-0.5,0-1,0.2-1.3,0.5s-0.5,0.8-0.5,1.4v3.3c0,0.6,0.2,1,0.5,1.4s0.8,0.5,1.3,0.5
				S80,401.7,80.4,401.3z"/>
			<path class="st8" d="M92.1,393.1c0,0,0.1-0.1,0.1-0.1H94c0,0,0.1,0,0.1,0.1s0.1,0.1,0.1,0.1v10.1c0,0.1,0,0.1-0.1,0.1
				c0,0-0.1,0.1-0.1,0.1h-1.7c-0.1,0-0.2,0-0.2-0.1l-3.9-6.4c0,0,0,0-0.1,0c0,0,0,0,0,0.1l0,6.3c0,0.1,0,0.1-0.1,0.1
				c0,0-0.1,0.1-0.1,0.1h-1.8c-0.1,0-0.1,0-0.1-0.1c0,0-0.1-0.1-0.1-0.1v-10.1c0-0.1,0-0.1,0.1-0.1s0.1-0.1,0.1-0.1h1.7
				c0.1,0,0.2,0,0.2,0.1l3.9,6.4c0,0,0,0,0.1,0c0,0,0,0,0-0.1l0-6.3C92.1,393.2,92.1,393.1,92.1,393.1z"/>
		</g>
		<g style="clip-path:url(#SVGID_00000085252412740462799340000014401053352277809544_);">
			<path class="st8" d="M613,41.8c0,0,0.1-0.1,0.1-0.1h1.8c0,0,0.1,0,0.1,0.1s0.1,0.1,0.1,0.1v10.1c0,0.1,0,0.1-0.1,0.1
				c0,0-0.1,0.1-0.1,0.1h-1.8c0,0-0.1,0-0.1-0.1c0,0-0.1-0.1-0.1-0.1v-4.1c0-0.1,0-0.1-0.1-0.1h-3.3c-0.1,0-0.1,0-0.1,0.1v4.1
				c0,0.1,0,0.1-0.1,0.1c0,0-0.1,0.1-0.1,0.1h-1.8c-0.1,0-0.1,0-0.1-0.1c0,0-0.1-0.1-0.1-0.1V41.9c0-0.1,0-0.1,0.1-0.1
				s0.1-0.1,0.1-0.1h1.8c0,0,0.1,0,0.1,0.1s0.1,0.1,0.1,0.1v4c0,0.1,0,0.1,0.1,0.1h3.3c0,0,0.1,0,0.1-0.1v-4
				C612.9,41.9,612.9,41.9,613,41.8z"/>
			<path class="st8" d="M618.1,52.2c0,0-0.1-0.1-0.1-0.1V41.9c0-0.1,0-0.1,0.1-0.1s0.1-0.1,0.1-0.1h1.8c0,0,0.1,0,0.1,0.1
				c0,0,0.1,0.1,0.1,0.1v10.1c0,0.1,0,0.1-0.1,0.1c0,0-0.1,0.1-0.1,0.1h-1.8C618.2,52.3,618.1,52.2,618.1,52.2z"/>
			<path class="st8" d="M628.9,52.1L627,48c0,0,0-0.1-0.1-0.1h-1.4c-0.1,0-0.1,0-0.1,0.1v4.1c0,0.1,0,0.1-0.1,0.1
				c0,0-0.1,0.1-0.1,0.1h-1.8c-0.1,0-0.1,0-0.1-0.1c0,0-0.1-0.1-0.1-0.1V41.9c0-0.1,0-0.1,0.1-0.1s0.1-0.1,0.1-0.1h4.3
				c0.6,0,1.2,0.1,1.7,0.4c0.5,0.3,0.9,0.6,1.1,1.1c0.3,0.5,0.4,1,0.4,1.7c0,0.7-0.2,1.3-0.5,1.7s-0.8,0.8-1.4,1c0,0-0.1,0.1,0,0.1
				l2,4.2c0,0,0,0.1,0,0.1c0,0.1-0.1,0.1-0.2,0.1h-1.8C629,52.3,628.9,52.2,628.9,52.1z M625.4,43.7v2.6c0,0.1,0,0.1,0.1,0.1h2
				c0.4,0,0.8-0.1,1-0.4c0.3-0.2,0.4-0.6,0.4-1s-0.1-0.7-0.4-1c-0.3-0.3-0.6-0.4-1-0.4L625.4,43.7C625.4,43.6,625.4,43.6,625.4,43.7
				z"/>
			<path class="st8" d="M635.7,51.9c-0.6-0.3-1.1-0.8-1.4-1.3c-0.3-0.6-0.5-1.2-0.5-2v-3.2c0-0.7,0.2-1.4,0.5-2
				c0.3-0.6,0.8-1,1.4-1.3s1.3-0.5,2.1-0.5c0.8,0,1.5,0.2,2.1,0.5c0.6,0.3,1.1,0.8,1.4,1.3c0.3,0.6,0.5,1.2,0.5,2v3.2
				c0,0.8-0.2,1.4-0.5,2c-0.3,0.6-0.8,1-1.4,1.3c-0.6,0.3-1.3,0.5-2.1,0.5C637,52.4,636.3,52.3,635.7,51.9z M639.1,50.1
				c0.3-0.4,0.5-0.8,0.5-1.4v-3.3c0-0.6-0.2-1-0.5-1.4s-0.8-0.5-1.3-0.5c-0.5,0-1,0.2-1.3,0.5s-0.5,0.8-0.5,1.4v3.3
				c0,0.6,0.2,1,0.5,1.4s0.8,0.5,1.3,0.5S638.8,50.4,639.1,50.1z"/>
			<path class="st8" d="M646.5,51.9c-0.6-0.3-1.1-0.8-1.4-1.3c-0.3-0.6-0.5-1.2-0.5-2v-3.2c0-0.7,0.2-1.4,0.5-2
				c0.3-0.6,0.8-1,1.4-1.3c0.6-0.3,1.3-0.5,2.1-0.5c0.8,0,1.5,0.2,2.1,0.5s1.1,0.8,1.4,1.3c0.3,0.6,0.5,1.2,0.5,2v3.2
				c0,0.8-0.2,1.4-0.5,2s-0.8,1-1.4,1.3s-1.3,0.5-2.1,0.5C647.8,52.4,647.1,52.3,646.5,51.9z M649.9,50.1c0.3-0.4,0.5-0.8,0.5-1.4
				v-3.3c0-0.6-0.2-1-0.5-1.4c-0.3-0.4-0.8-0.5-1.3-0.5c-0.5,0-1,0.2-1.3,0.5s-0.5,0.8-0.5,1.4v3.3c0,0.6,0.2,1,0.5,1.4
				s0.8,0.5,1.3,0.5S649.6,50.4,649.9,50.1z"/>
			<path class="st8" d="M608.8,67.3c-0.6-0.3-1.1-0.6-1.4-1.1c-0.3-0.5-0.5-1-0.5-1.7v-0.3c0,0,0-0.1,0.1-0.1c0,0,0.1-0.1,0.1-0.1
				h1.7c0,0,0.1,0,0.1,0.1c0,0,0.1,0.1,0.1,0.1v0.2c0,0.4,0.2,0.7,0.6,1s0.9,0.4,1.5,0.4c0.5,0,0.9-0.1,1.2-0.3
				c0.3-0.2,0.4-0.5,0.4-0.8c0-0.2-0.1-0.4-0.2-0.6c-0.2-0.2-0.4-0.3-0.7-0.4c-0.3-0.1-0.7-0.3-1.3-0.5c-0.7-0.2-1.2-0.5-1.7-0.7
				c-0.5-0.2-0.9-0.6-1.2-1c-0.3-0.4-0.5-0.9-0.5-1.5c0-0.6,0.2-1.1,0.5-1.6c0.3-0.4,0.7-0.8,1.3-1c0.5-0.2,1.2-0.4,1.9-0.4
				c0.8,0,1.4,0.1,2,0.4s1.1,0.6,1.4,1.1c0.3,0.5,0.5,1,0.5,1.7v0.2c0,0.1,0,0.1-0.1,0.1s-0.1,0.1-0.1,0.1h-1.7c0,0-0.1,0-0.1-0.1
				c0,0-0.1-0.1-0.1-0.1v-0.1c0-0.4-0.2-0.8-0.5-1.1s-0.8-0.4-1.4-0.4c-0.5,0-0.8,0.1-1.1,0.3c-0.3,0.2-0.4,0.5-0.4,0.8
				c0,0.3,0.1,0.5,0.2,0.6c0.2,0.2,0.4,0.3,0.7,0.5c0.3,0.1,0.8,0.3,1.4,0.5c0.7,0.3,1.3,0.5,1.7,0.7c0.4,0.2,0.8,0.5,1.1,0.9
				c0.3,0.4,0.5,0.9,0.5,1.5c0,0.9-0.3,1.7-1,2.2c-0.7,0.5-1.6,0.8-2.8,0.8C610.1,67.6,609.4,67.5,608.8,67.3z"/>
			<path class="st8" d="M625.3,57.1c0,0,0.1,0.1,0.1,0.1v1.5c0,0.1,0,0.1-0.1,0.1c0,0-0.1,0.1-0.1,0.1h-2.7c-0.1,0-0.1,0-0.1,0.1
				v8.4c0,0.1,0,0.1-0.1,0.1c0,0-0.1,0.1-0.1,0.1h-1.8c0,0-0.1,0-0.1-0.1c0,0-0.1-0.1-0.1-0.1v-8.4c0,0,0-0.1-0.1-0.1h-2.6
				c-0.1,0-0.1,0-0.1-0.1c0,0-0.1-0.1-0.1-0.1v-1.5c0-0.1,0-0.1,0.1-0.1s0.1-0.1,0.1-0.1h7.6C625.2,57,625.2,57,625.3,57.1z"/>
			<path class="st8" d="M633.6,67.4l-0.5-1.5c0,0,0-0.1-0.1-0.1h-3.7c0,0-0.1,0-0.1,0.1l-0.4,1.5c0,0.1-0.1,0.1-0.2,0.1h-1.9
				c-0.1,0-0.1,0-0.1-0.1c0,0,0-0.1,0-0.2l3.2-10.1c0-0.1,0.1-0.1,0.2-0.1h2.4c0.1,0,0.2,0.1,0.2,0.1l3.2,10.1c0,0,0,0,0,0.1
				c0,0.1-0.1,0.1-0.2,0.1h-1.9C633.7,67.5,633.7,67.5,633.6,67.4z M629.9,64.2h2.6c0.1,0,0.1,0,0.1-0.1l-1.3-4.5c0,0,0-0.1,0-0.1
				c0,0,0,0,0,0.1L629.9,64.2C629.9,64.2,629.9,64.2,629.9,64.2z"/>
			<path class="st8" d="M645.1,57.1c0,0,0.1,0.1,0.1,0.1v1.5c0,0.1,0,0.1-0.1,0.1c0,0-0.1,0.1-0.1,0.1h-2.7c-0.1,0-0.1,0-0.1,0.1
				v8.4c0,0.1,0,0.1-0.1,0.1c0,0-0.1,0.1-0.1,0.1h-1.8c0,0-0.1,0-0.1-0.1c0,0-0.1-0.1-0.1-0.1v-8.4c0,0,0-0.1-0.1-0.1h-2.6
				c-0.1,0-0.1,0-0.1-0.1c0,0-0.1-0.1-0.1-0.1v-1.5c0-0.1,0-0.1,0.1-0.1s0.1-0.1,0.1-0.1h7.6C645,57,645.1,57,645.1,57.1z"/>
			<path class="st8" d="M648,67.5c0,0-0.1-0.1-0.1-0.1V57.2c0-0.1,0-0.1,0.1-0.1s0.1-0.1,0.1-0.1h1.8c0,0,0.1,0,0.1,0.1
				c0,0,0.1,0.1,0.1,0.1v10.1c0,0.1,0,0.1-0.1,0.1c0,0-0.1,0.1-0.1,0.1h-1.8C648.1,67.5,648,67.5,648,67.5z"/>
			<path class="st8" d="M655,67.2c-0.6-0.3-1.1-0.8-1.4-1.3c-0.3-0.6-0.5-1.2-0.5-2v-3.2c0-0.7,0.2-1.4,0.5-2c0.3-0.6,0.8-1,1.4-1.3
				s1.3-0.5,2.1-0.5c0.8,0,1.5,0.2,2.1,0.5c0.6,0.3,1.1,0.8,1.4,1.3c0.3,0.6,0.5,1.2,0.5,2v3.2c0,0.8-0.2,1.4-0.5,2
				c-0.3,0.6-0.8,1-1.4,1.3c-0.6,0.3-1.3,0.5-2.1,0.5C656.3,67.7,655.6,67.5,655,67.2z M658.4,65.3c0.3-0.4,0.5-0.8,0.5-1.4v-3.3
				c0-0.6-0.2-1-0.5-1.4s-0.8-0.5-1.3-0.5c-0.5,0-1,0.2-1.3,0.5s-0.5,0.8-0.5,1.4V64c0,0.6,0.2,1,0.5,1.4s0.8,0.5,1.3,0.5
				S658,65.7,658.4,65.3z"/>
			<path class="st8" d="M670.1,57.1c0,0,0.1-0.1,0.1-0.1h1.8c0,0,0.1,0,0.1,0.1s0.1,0.1,0.1,0.1v10.1c0,0.1,0,0.1-0.1,0.1
				c0,0-0.1,0.1-0.1,0.1h-1.7c-0.1,0-0.2,0-0.2-0.1l-3.9-6.4c0,0,0,0-0.1,0c0,0,0,0,0,0.1l0,6.3c0,0.1,0,0.1-0.1,0.1
				c0,0-0.1,0.1-0.1,0.1h-1.8c-0.1,0-0.1,0-0.1-0.1c0,0-0.1-0.1-0.1-0.1V57.2c0-0.1,0-0.1,0.1-0.1s0.1-0.1,0.1-0.1h1.7
				c0.1,0,0.2,0,0.2,0.1l3.9,6.4c0,0,0,0,0.1,0c0,0,0,0,0-0.1l0-6.3C670.1,57.2,670.1,57.1,670.1,57.1z"/>
		</g>
		<g style="clip-path:url(#SVGID_00000085252412740462799340000014401053352277809544_);">
			<path class="st8" d="M634.6,243l1.6,0.7c0,0,0.1,0.1,0.1,0.1s0,0.1,0,0.1l-4.3,9.2c0,0-0.1,0.1-0.1,0.1c0,0-0.1,0-0.1,0l-1.6-0.7
				c0,0-0.1-0.1-0.1-0.1c0,0,0-0.1,0-0.1l2.8-6c0,0,0-0.1,0-0.1c0,0,0,0-0.1,0l-2.5,1.6c-0.1,0.1-0.2,0.1-0.2,0l-0.8-0.4
				c-0.1,0-0.1-0.1-0.1-0.2l-0.4-2.9c0,0,0-0.1,0-0.1c0,0,0,0-0.1,0l-2.8,6c0,0-0.1,0.1-0.1,0.1s-0.1,0-0.1,0l-1.6-0.7
				c0,0-0.1-0.1-0.1-0.1c0,0,0-0.1,0-0.1l4.3-9.2c0,0,0.1-0.1,0.1-0.1c0,0,0.1,0,0.1,0l1.6,0.7c0.1,0,0.1,0.1,0.1,0.2l0.6,4.1
				c0,0.1,0,0.1,0.1,0l3.5-2.2C634.5,243,634.5,243,634.6,243z"/>
			<path class="st8" d="M642.5,254.5c-0.1,0.1-0.1,0.1-0.3,0.1l-4.2-2c-0.1,0-0.1,0-0.1,0c-0.1,0.2-0.1,0.4-0.1,0.6
				c0,0.6,0.4,1.1,1.1,1.4c0.6,0.3,1.2,0.2,1.7-0.1c0.1,0,0.1,0,0.2,0c0,0,0.1,0,0.1,0.1l0.5,1.4c0,0.1,0,0.1,0,0.2c0,0,0,0-0.1,0.1
				c-0.5,0.2-1,0.3-1.6,0.3c-0.6,0-1.1-0.2-1.7-0.4c-0.8-0.4-1.4-0.8-1.7-1.4c-0.4-0.6-0.5-1.3-0.5-2c0-0.5,0.2-1.2,0.5-1.9
				c0.2-0.5,0.5-0.9,0.8-1.2c0.5-0.5,1.1-0.9,1.8-1c0.7-0.1,1.4,0,2.1,0.3c0.9,0.4,1.5,1,1.8,1.8s0.3,1.6,0,2.6
				C642.9,253.7,642.7,254.1,642.5,254.5z M638.9,250.9c-0.1,0.1-0.2,0.2-0.3,0.4c0,0,0,0.1,0,0.1l2.4,1.1c0.1,0,0.1,0,0.1,0
				c0.1-0.3,0.1-0.4,0.1-0.4c0-0.3,0-0.6-0.1-0.8c-0.1-0.2-0.4-0.4-0.7-0.6C639.8,250.4,639.3,250.5,638.9,250.9z"/>
			<path class="st8" d="M643.9,258.8c0,0,0-0.1,0-0.1l3.1-6.7c0,0,0.1-0.1,0.1-0.1s0.1,0,0.1,0l1.6,0.7c0,0,0.1,0.1,0.1,0.1
				c0,0,0,0.1,0,0.1l-3.1,6.7c0,0-0.1,0.1-0.1,0.1c0,0-0.1,0-0.1,0l-1.6-0.7C643.9,258.9,643.9,258.9,643.9,258.8z M644.3,262.3
				l0.6-1.3c0.1-0.1,0.1-0.1,0.2-0.1c0.5,0.3,0.9,0.4,1.2,0.3c0.3-0.1,0.5-0.3,0.7-0.8l3.2-6.9c0,0,0.1-0.1,0.1-0.1c0,0,0.1,0,0.1,0
				l1.6,0.7c0,0,0.1,0.1,0.1,0.1c0,0,0,0.1,0,0.1l-3.2,6.8c-0.3,0.7-0.7,1.3-1.1,1.6c-0.4,0.3-0.9,0.4-1.4,0.4
				c-0.6-0.1-1.3-0.3-2.1-0.7C644.3,262.5,644.3,262.4,644.3,262.3z M647.7,250.8c-0.1-0.3-0.1-0.6,0.1-0.9c0.1-0.3,0.4-0.5,0.7-0.6
				c0.3-0.1,0.6-0.1,0.9,0.1c0.3,0.1,0.5,0.4,0.6,0.7s0.1,0.6-0.1,0.9c-0.1,0.3-0.4,0.5-0.7,0.6c-0.3,0.1-0.6,0.1-0.9-0.1
				C648,251.3,647.8,251.1,647.7,250.8z M651.1,252.4c-0.1-0.3-0.1-0.6,0.1-0.9c0.1-0.3,0.4-0.5,0.7-0.6c0.3-0.1,0.6-0.1,0.9,0.1
				s0.5,0.4,0.6,0.7c0.1,0.3,0.1,0.6-0.1,0.9c-0.1,0.3-0.4,0.5-0.7,0.6s-0.6,0.1-0.9,0S651.2,252.7,651.1,252.4z"/>
			<path class="st8" d="M652.2,262.7c0,0,0-0.1,0-0.1l3.1-6.7c0,0,0.1-0.1,0.1-0.1c0,0,0.1,0,0.1,0l1.6,0.7c0,0,0.1,0.1,0.1,0.1
				c0,0,0,0.1,0,0.1l-3.1,6.7c0,0-0.1,0.1-0.1,0.1s-0.1,0-0.1,0l-1.6-0.7C652.2,262.8,652.2,262.7,652.2,262.7z M656.1,254.7
				c-0.1-0.3-0.1-0.6,0.1-0.9c0.1-0.3,0.4-0.5,0.7-0.6c0.3-0.1,0.6-0.1,0.9,0.1s0.5,0.4,0.6,0.7c0.1,0.3,0.1,0.6-0.1,0.9
				c-0.1,0.3-0.4,0.5-0.7,0.6s-0.6,0.1-0.9-0.1C656.4,255.2,656.2,255,656.1,254.7z"/>
			<path class="st8" d="M662.2,267.2c-0.4-0.4-0.6-0.8-0.7-1.2c-0.1-0.4-0.1-0.8,0.1-1.2l0.1-0.1c0,0,0.1-0.1,0.1-0.1
				c0,0,0.1,0,0.1,0l1.5,0.7c0,0,0.1,0.1,0.1,0.1c0,0,0,0.1,0,0.1l0,0c-0.1,0.2-0.1,0.4,0.1,0.7s0.4,0.4,0.7,0.6
				c0.3,0.1,0.6,0.2,0.8,0.2c0.2,0,0.4-0.1,0.5-0.3c0.1-0.2,0.1-0.3-0.1-0.5c-0.1-0.2-0.4-0.4-0.7-0.6c-0.4-0.3-0.7-0.6-0.9-0.8
				c-0.5-0.5-0.8-0.9-1-1.4c-0.2-0.5-0.2-0.9,0.1-1.5c0.3-0.7,0.8-1.1,1.5-1.2c0.7-0.2,1.5,0,2.3,0.4c0.6,0.3,1,0.6,1.4,1
				c0.3,0.4,0.6,0.8,0.7,1.3c0.1,0.4,0,0.9-0.2,1.3c0,0-0.1,0.1-0.1,0.1c0,0-0.1,0-0.1,0l-1.5-0.7c0,0-0.1-0.1-0.1-0.1
				c0,0,0-0.1,0-0.1c0.1-0.2,0.1-0.4-0.1-0.6s-0.4-0.4-0.7-0.6c-0.3-0.1-0.6-0.2-0.8-0.2c-0.2,0-0.4,0.1-0.5,0.3
				c-0.1,0.2-0.1,0.4,0.1,0.5s0.4,0.4,0.8,0.7c0.1,0.1,0.2,0.2,0.3,0.2c0.1,0.1,0.2,0.2,0.4,0.3c0.6,0.5,1,1,1.2,1.4
				c0.2,0.5,0.2,1,0,1.6c-0.3,0.7-0.8,1.1-1.5,1.2c-0.7,0.1-1.5,0-2.4-0.4C663.1,267.9,662.6,267.6,662.2,267.2z"/>
			<path class="st8" d="M675.8,267c0,0-0.1,0-0.1,0l-1.3-0.6c0,0-0.1,0-0.1,0l-1.3,2.9c-0.1,0.3-0.2,0.5-0.1,0.8
				c0.1,0.2,0.2,0.4,0.5,0.5l0.4,0.2c0,0,0.1,0.1,0.1,0.1c0,0,0,0.1,0,0.1l-0.6,1.3c0,0.1-0.1,0.1-0.2,0.1c-0.4-0.2-0.7-0.3-0.8-0.4
				c-0.8-0.3-1.3-0.7-1.5-1.2c-0.3-0.4-0.2-1,0.1-1.7l1.7-3.6c0,0,0-0.1,0-0.1l-0.8-0.4c0,0-0.1-0.1-0.1-0.1c0,0,0-0.1,0-0.1
				l0.6-1.2c0,0,0.1-0.1,0.1-0.1c0,0,0.1,0,0.1,0l0.8,0.4c0,0,0.1,0,0.1,0l0.8-1.6c0,0,0.1-0.1,0.1-0.1c0,0,0.1,0,0.1,0l1.5,0.7
				c0,0,0.1,0.1,0.1,0.1c0,0,0,0.1,0,0.1l-0.8,1.6c0,0,0,0.1,0,0.1l1.3,0.6c0,0,0.1,0.1,0.1,0.1c0,0,0,0.1,0,0.1l-0.6,1.2
				C675.8,267,675.8,267,675.8,267z"/>
			<path class="st8" d="M676.3,273.6c-0.1-0.3-0.1-0.6,0.1-0.9c0.1-0.3,0.4-0.5,0.7-0.6c0.3-0.1,0.6-0.1,0.9,0.1
				c0.3,0.1,0.5,0.4,0.6,0.7c0.1,0.3,0.1,0.6-0.1,0.9c-0.1,0.3-0.4,0.5-0.7,0.6c-0.3,0.1-0.6,0.1-0.9-0.1
				C676.6,274.2,676.4,273.9,676.3,273.6z"/>
		</g>
		<g style="clip-path:url(#SVGID_00000085252412740462799340000014401053352277809544_);">
			<path class="st8" d="M170,176.8c0,0-0.1,0-0.1,0l-9-4.7c0,0-0.1-0.1-0.1-0.1c0,0,0-0.1,0-0.1l0.8-1.6c0,0,0.1-0.1,0.1-0.1
				c0,0,0.1,0,0.1,0l3.7,1.9c0,0,0,0,0.1,0c0,0,0,0,0-0.1l-2.2-5.1c0-0.1,0-0.2,0-0.2l0.9-1.8c0-0.1,0.1-0.1,0.1-0.1
				c0,0,0.1,0,0.1,0.1l2.3,4.9c0,0,0,0.1,0.1,0.1l6.7-0.5c0.1,0,0.1,0,0.1,0c0.1,0,0.1,0.1,0,0.2l-0.9,1.8c0,0.1-0.1,0.1-0.2,0.1
				l-5.1,0.4c0,0,0,0,0,0c0,0,0,0,0,0.1l0.6,1.4c0,0,0,0.1,0.1,0.1l2.6,1.4c0,0,0.1,0.1,0.1,0.1c0,0,0,0.1,0,0.1l-0.8,1.6
				C170.1,176.7,170.1,176.8,170,176.8z"/>
			<path class="st8" d="M174.9,166.3c-0.7,0.3-1.4,0.4-2.2,0.3c-0.5-0.1-1-0.3-1.5-0.5c-0.5-0.3-1-0.6-1.3-0.9
				c-0.6-0.5-0.9-1.2-1-1.9c-0.1-0.7,0-1.5,0.4-2.2c0.4-0.7,0.9-1.3,1.5-1.6c0.6-0.3,1.3-0.4,2.1-0.3c0.5,0.1,1,0.3,1.5,0.5
				c0.5,0.2,0.9,0.5,1.2,0.9c0.6,0.6,0.9,1.2,1.1,1.9c0.1,0.7,0,1.5-0.4,2.2S175.6,166,174.9,166.3z M175,163
				c-0.1-0.3-0.2-0.6-0.5-0.8c-0.2-0.2-0.5-0.4-0.9-0.6c-0.4-0.2-0.7-0.3-1-0.4c-0.4-0.1-0.7,0-0.9,0.1c-0.3,0.1-0.5,0.3-0.6,0.6
				c-0.2,0.3-0.2,0.6-0.1,0.9c0.1,0.3,0.2,0.6,0.5,0.8c0.2,0.2,0.5,0.4,0.9,0.6c0.4,0.2,0.7,0.3,1,0.4c0.4,0.1,0.7,0.1,1-0.1
				c0.3-0.1,0.5-0.3,0.7-0.6C175,163.6,175.1,163.3,175,163z"/>
			<path class="st8" d="M177.8,146.4c0.6-0.2,1.3-0.1,2.1,0.3l4.4,2.3c0,0,0.1,0.1,0.1,0.1c0,0,0,0.1,0,0.1l-0.8,1.6
				c0,0-0.1,0.1-0.1,0.1s-0.1,0-0.1,0l-4-2.1c-0.4-0.2-0.7-0.2-1-0.2c-0.3,0.1-0.5,0.3-0.7,0.6c-0.2,0.3-0.2,0.6-0.1,0.9
				c0.1,0.3,0.3,0.6,0.7,0.7l4,2.1c0,0,0.1,0.1,0.1,0.1c0,0,0,0.1,0,0.1l-0.8,1.5c0,0-0.1,0.1-0.1,0.1c0,0-0.1,0-0.1,0l-4-2.1
				c-0.4-0.2-0.7-0.2-1-0.2c-0.3,0.1-0.6,0.3-0.7,0.6c-0.1,0.3-0.2,0.6-0.1,0.8c0.1,0.3,0.2,0.5,0.5,0.7l4.2,2.2
				c0,0,0.1,0.1,0.1,0.1c0,0,0,0.1,0,0.1l-0.8,1.6c0,0-0.1,0.1-0.1,0.1c0,0-0.1,0-0.1,0l-6.5-3.4c0,0-0.1-0.1-0.1-0.1
				c0,0,0-0.1,0-0.1l0.8-1.6c0,0,0.1-0.1,0.1-0.1c0,0,0.1,0,0.1,0l0.5,0.3c0,0,0,0,0.1,0c0,0,0,0,0-0.1c-0.4-0.6-0.3-1.3,0.1-2.1
				c0.2-0.4,0.5-0.8,0.9-1c0.4-0.2,0.8-0.4,1.2-0.4c0.1,0,0.1,0,0-0.1c-0.3-0.4-0.4-0.8-0.4-1.2c0-0.4,0.1-0.8,0.3-1.3
				C176.7,147,177.2,146.6,177.8,146.4z"/>
			<path class="st8" d="M181.5,138.5c0.4-0.3,0.9-0.6,1.4-0.6c0.5-0.1,0.9,0,1.4,0.2l4.5,2.3c0,0,0.1,0.1,0.1,0.1c0,0,0,0.1,0,0.1
				l-0.8,1.6c0,0-0.1,0.1-0.1,0.1c0,0-0.1,0-0.1,0l-0.4-0.2c0,0,0,0-0.1,0c0,0,0,0,0,0.1c0.3,0.6,0.2,1.4-0.2,2.2
				c-0.4,0.7-0.8,1.2-1.4,1.4c-0.6,0.3-1.2,0.2-1.8-0.1c-0.7-0.4-1.1-0.9-1.2-1.5s0-1.5,0.5-2.3l0.7-1.4c0,0,0-0.1,0-0.1l-0.3-0.2
				c-0.3-0.2-0.6-0.2-0.8-0.1c-0.3,0.1-0.5,0.3-0.7,0.7c-0.1,0.3-0.2,0.5-0.2,0.8c0,0.2,0.1,0.4,0.2,0.6c0.1,0.1,0.1,0.2,0,0.2
				l-1,1.5c-0.1,0.1-0.1,0.1-0.2,0.1c-0.4-0.2-0.6-0.6-0.8-1c-0.2-0.4-0.2-0.9-0.2-1.4c0.1-0.5,0.2-1,0.5-1.6
				C180.7,139.3,181.1,138.9,181.5,138.5z M186.1,142c-0.1-0.4-0.3-0.6-0.6-0.8l-0.5-0.2c0,0-0.1,0-0.1,0l-0.5,1
				c-0.2,0.4-0.3,0.8-0.3,1.1c0,0.3,0.2,0.5,0.5,0.7c0.2,0.1,0.5,0.1,0.7,0c0.2-0.1,0.4-0.3,0.6-0.6
				C186.1,142.7,186.2,142.4,186.1,142z"/>
			<path class="st8" d="M190.2,138c0,0-0.1,0-0.1,0l-1.4-0.7c-0.1,0-0.1-0.1-0.2-0.2l-1.7-4.7c0-0.1-0.1-0.1-0.1,0l-1.5,2.8
				c0,0-0.1,0.1-0.1,0.1c0,0-0.1,0-0.1,0l-1.4-0.7c0,0-0.1-0.1-0.1-0.1c0,0,0-0.1,0-0.1l2.6-5c0,0,0.1-0.1,0.1-0.1c0,0,0.1,0,0.1,0
				l1.4,0.7c0.1,0,0.1,0.1,0.2,0.2l1.7,4.8c0,0.1,0.1,0.1,0.1,0l1.6-3c0,0,0.1-0.1,0.1-0.1c0,0,0.1,0,0.1,0l1.4,0.7
				c0,0,0.1,0.1,0.1,0.1c0,0,0,0.1,0,0.1l-2.7,5.1C190.2,138,190.2,138,190.2,138z"/>
			<path class="st8" d="M189.9,122.4c0.4-0.3,0.9-0.6,1.4-0.6c0.5-0.1,0.9,0,1.4,0.2l4.5,2.3c0,0,0.1,0.1,0.1,0.1c0,0,0,0.1,0,0.1
				l-0.8,1.6c0,0-0.1,0.1-0.1,0.1c0,0-0.1,0-0.1,0l-0.4-0.2c0,0,0,0-0.1,0c0,0,0,0,0,0.1c0.3,0.6,0.2,1.4-0.2,2.2
				c-0.4,0.7-0.8,1.2-1.4,1.4c-0.6,0.3-1.2,0.2-1.8-0.1c-0.7-0.4-1.1-0.9-1.2-1.5c-0.1-0.7,0-1.5,0.5-2.3l0.7-1.4c0,0,0-0.1,0-0.1
				l-0.3-0.2c-0.3-0.2-0.6-0.2-0.8-0.1c-0.3,0.1-0.5,0.3-0.7,0.7c-0.1,0.3-0.2,0.5-0.2,0.8c0,0.2,0.1,0.4,0.2,0.6
				c0.1,0.1,0.1,0.2,0,0.2l-1,1.5c-0.1,0.1-0.1,0.1-0.2,0.1c-0.4-0.2-0.6-0.6-0.8-1c-0.2-0.4-0.2-0.9-0.2-1.4c0.1-0.5,0.2-1,0.5-1.6
				C189.1,123.2,189.5,122.7,189.9,122.4z M194.5,125.8c-0.1-0.4-0.3-0.6-0.6-0.8l-0.5-0.2c0,0-0.1,0-0.1,0l-0.5,1
				c-0.2,0.4-0.3,0.8-0.3,1.1c0,0.3,0.2,0.5,0.5,0.7c0.2,0.1,0.5,0.1,0.7,0c0.2-0.1,0.4-0.3,0.6-0.6
				C194.5,126.6,194.6,126.2,194.5,125.8z"/>
			<path class="st8" d="M199.2,120.3l-7.5-1.5l-0.1,0c-0.1,0-0.1-0.1-0.1-0.2l0.8-1.6c0.1-0.1,0.1-0.1,0.2-0.1l4.5,1.1
				c0,0,0.1,0,0.1,0s0,0,0-0.1l-3.5-3.1c-0.1-0.1-0.1-0.2,0-0.3l0.7-1.4c0.1-0.1,0.1-0.1,0.2-0.1l4.6,1c0,0,0.1,0,0.1,0s0,0,0-0.1
				l-3.5-3.1c-0.1-0.1-0.1-0.2,0-0.3l0.9-1.6c0-0.1,0.1-0.1,0.1-0.1c0,0,0.1,0,0.1,0l5.5,5.3c0.1,0.1,0.1,0.2,0,0.2l-0.8,1.6
				c-0.1,0.1-0.1,0.1-0.2,0.1l-4.1-0.8c0,0-0.1,0-0.1,0c0,0,0,0,0,0.1l3.1,2.8c0.1,0.1,0.1,0.2,0,0.3l-0.8,1.6
				C199.4,120.3,199.3,120.3,199.2,120.3z"/>
			<path class="st8" d="M200.2,102.5c0.4-0.3,0.9-0.6,1.4-0.6c0.5-0.1,0.9,0,1.4,0.2l4.5,2.3c0,0,0.1,0.1,0.1,0.1c0,0,0,0.1,0,0.1
				l-0.8,1.6c0,0-0.1,0.1-0.1,0.1c0,0-0.1,0-0.1,0L206,106c0,0,0,0-0.1,0c0,0,0,0,0,0.1c0.3,0.6,0.2,1.4-0.2,2.2
				c-0.4,0.7-0.8,1.2-1.4,1.4c-0.6,0.3-1.2,0.2-1.8-0.1c-0.7-0.4-1.1-0.9-1.2-1.5c-0.1-0.7,0-1.5,0.5-2.3l0.7-1.4c0,0,0-0.1,0-0.1
				l-0.3-0.2c-0.3-0.2-0.6-0.2-0.8-0.1c-0.3,0.1-0.5,0.3-0.7,0.7c-0.1,0.3-0.2,0.5-0.2,0.8c0,0.2,0.1,0.4,0.2,0.6
				c0.1,0.1,0.1,0.2,0,0.2l-1,1.5c-0.1,0.1-0.1,0.1-0.2,0.1c-0.4-0.2-0.6-0.6-0.8-1c-0.2-0.4-0.2-0.9-0.2-1.4c0.1-0.5,0.2-1,0.5-1.6
				C199.4,103.3,199.8,102.8,200.2,102.5z M204.8,105.9c-0.1-0.4-0.3-0.6-0.6-0.8l-0.5-0.2c0,0-0.1,0-0.1,0l-0.5,1
				c-0.2,0.4-0.3,0.8-0.3,1.1c0,0.3,0.2,0.5,0.5,0.7c0.2,0.1,0.5,0.1,0.7,0c0.2-0.1,0.4-0.3,0.6-0.6
				C204.8,106.7,204.9,106.3,204.8,105.9z"/>
			<path class="st8" d="M211.5,96.6c-0.4,0.4-0.8,0.6-1.2,0.7c-0.4,0.1-0.8,0-1.2-0.2l-0.1-0.1c0,0-0.1-0.1-0.1-0.1c0,0,0-0.1,0-0.1
				l0.8-1.5c0,0,0.1-0.1,0.1-0.1c0,0,0.1,0,0.1,0l0,0c0.2,0.1,0.4,0.1,0.7-0.1c0.3-0.1,0.5-0.4,0.6-0.7c0.2-0.3,0.2-0.6,0.2-0.8
				c0-0.2-0.1-0.4-0.3-0.5c-0.2-0.1-0.3-0.1-0.5,0.1c-0.2,0.1-0.4,0.3-0.7,0.7c-0.3,0.4-0.6,0.6-0.8,0.8c-0.5,0.5-1,0.8-1.4,1
				c-0.5,0.2-1,0.1-1.5-0.1c-0.7-0.3-1-0.9-1.2-1.6c-0.1-0.7,0-1.5,0.5-2.3c0.3-0.6,0.6-1,1-1.3c0.4-0.3,0.8-0.5,1.3-0.6
				c0.5-0.1,0.9,0,1.3,0.2c0,0,0.1,0.1,0.1,0.1c0,0,0,0.1,0,0.1l-0.7,1.4c0,0-0.1,0.1-0.1,0.1c0,0-0.1,0-0.1,0
				c-0.2-0.1-0.4-0.1-0.6,0c-0.2,0.1-0.4,0.4-0.6,0.7c-0.2,0.3-0.2,0.6-0.2,0.8s0.1,0.4,0.3,0.5c0.2,0.1,0.4,0.1,0.5-0.1
				c0.2-0.1,0.4-0.4,0.8-0.8c0.1-0.1,0.2-0.2,0.3-0.3c0.1-0.1,0.2-0.2,0.3-0.3c0.5-0.5,1-0.9,1.5-1.1s1-0.2,1.6,0.1
				c0.7,0.3,1,0.9,1.1,1.6c0.1,0.7-0.1,1.5-0.5,2.4C212.3,95.7,211.9,96.2,211.5,96.6z"/>
			<path class="st8" d="M211.9,83.1c0,0,0,0.1,0,0.1l-0.7,1.3c0,0,0,0.1,0,0.1l2.8,1.5c0.3,0.2,0.5,0.2,0.7,0.2
				c0.2,0,0.4-0.2,0.5-0.5l0.2-0.4c0,0,0.1-0.1,0.1-0.1c0,0,0.1,0,0.1,0l1.3,0.7c0.1,0.1,0.1,0.1,0.1,0.2c-0.2,0.4-0.3,0.7-0.4,0.8
				c-0.4,0.7-0.8,1.2-1.2,1.5c-0.4,0.2-1,0.2-1.7-0.2l-3.6-1.9c0,0-0.1,0-0.1,0l-0.4,0.8c0,0-0.1,0.1-0.1,0.1c0,0-0.1,0-0.1,0
				l-1.2-0.6c0,0-0.1-0.1-0.1-0.1c0,0,0-0.1,0-0.1l0.4-0.8c0,0,0-0.1,0-0.1l-1.6-0.8c0,0-0.1-0.1-0.1-0.1c0,0,0-0.1,0-0.1l0.8-1.5
				c0,0,0.1-0.1,0.1-0.1c0,0,0.1,0,0.1,0l1.6,0.8c0,0,0.1,0,0.1,0l0.7-1.3c0,0,0.1-0.1,0.1-0.1c0,0,0.1,0,0.1,0l1.2,0.6
				C211.8,83,211.9,83,211.9,83.1z"/>
			<path class="st8" d="M218.5,82.8c-0.3,0.1-0.6,0.1-0.9-0.1c-0.3-0.2-0.5-0.4-0.6-0.7c-0.1-0.3-0.1-0.6,0.1-0.9
				c0.2-0.3,0.4-0.5,0.7-0.6s0.6-0.1,0.9,0.1c0.3,0.2,0.5,0.4,0.6,0.7c0.1,0.3,0.1,0.6-0.1,0.9C219.1,82.5,218.8,82.7,218.5,82.8z"
				/>
		</g>
		
			<path style="clip-path:url(#SVGID_00000085252412740462799340000014401053352277809544_);fill:none;stroke:#798160;stroke-width:9;stroke-miterlimit:10;" d="
			M50.1,319.4c-25.8,29.1-51.5,58.2-77.3,87.3"/>
		
			<path style="clip-path:url(#SVGID_00000085252412740462799340000014401053352277809544_);fill:none;stroke:#798160;stroke-width:9;stroke-miterlimit:10;" d="
			M689.4,14.4c0.1,29.3,0.1,58.6,0.2,88"/>
		
			<path style="clip-path:url(#SVGID_00000085252412740462799340000014401053352277809544_);fill:none;stroke:#BCC0AF;stroke-width:6;stroke-miterlimit:10;" d="
			M588.6,166.3c-3.4,1.5-6.9,3-10.3,4.5c11.9,28.9,23.8,57.9,35.6,86.8c-28.4,81.9-56.8,163.9-85.2,245.8"/>
		
			<path style="clip-path:url(#SVGID_00000085252412740462799340000014401053352277809544_);fill:none;stroke:#BCC0AF;stroke-width:12;stroke-miterlimit:10;" d="
			M106.3,276.1c0,0,102.6,118.3,113.6,120.3s257,44,274,47s266,43,266,43"/>
		
			<path style="clip-path:url(#SVGID_00000085252412740462799340000014401053352277809544_);fill:none;stroke:#BCC0AF;stroke-width:15;stroke-miterlimit:10;" d="
			M39.5-37.5c0.7,9.8,3.8,52.3,7.6,81.3c0.4,3.1,1.3,9.8,2.8,18.4c2.6,15.1,4.2,24.1,7.3,33c1.5,4.3,4.3,11.1,18.1,30.9
			c8.1,11.6,15.7,21.5,27.5,36.1c0,0,19.6,24.3,54.2,60.1c1.6,1.6,5.2,5.4,10.7,9.2c0.6,0.4,2,1.4,3.8,2.5
			c6.9,4.2,13.3,6.3,15.7,7.1c24.4,8.1,38.6,10.4,38.6,10.4C318,266.8,361,266.4,361,266.4c106.1-1,122.1-44.8,191-30
			c42,9,151,65,151,65c22.7,11.7,45.3,23.3,68,35"/>
		
			<line style="clip-path:url(#SVGID_00000085252412740462799340000014401053352277809544_);fill:none;stroke:#798160;stroke-width:4;stroke-miterlimit:10;" x1="-18" y1="109.4" x2="165.5" y2="509.9"/>
		
			<path style="clip-path:url(#SVGID_00000085252412740462799340000014401053352277809544_);fill:none;stroke:#798160;stroke-width:9;stroke-miterlimit:10;" d="
			M83.8,331.8c14.4,31.4,28.8,62.8,43.3,94.2"/>
		
			<path style="clip-path:url(#SVGID_00000085252412740462799340000014401053352277809544_);fill:none;stroke:#BCC0AF;stroke-width:6;stroke-miterlimit:10;" d="
			M374.3,37.2c0.2-2.3,0.9-3.9,1.5-4.8c0.4-0.7,0.7-1.2,1.3-1.8c0.4-0.3,1.2-1,4.6-1.9c0.7-0.2,1.6-0.4,2.8-0.6
			c3.2-0.5,4.4-2.1,4.8-2.6c0.6-0.9,0.8-1.9,1.2-3.9c0.3-1.5,0.5-2.8,0.6-3.7c1.3-15.7,2.6-31.3,3.9-47"/>
		
			<line style="clip-path:url(#SVGID_00000085252412740462799340000014401053352277809544_);fill:none;stroke:#BCC0AF;stroke-width:12;stroke-miterlimit:10;" x1="100.4" y1="270.3" x2="100.4" y2="270.3"/>
		<g style="clip-path:url(#SVGID_00000085252412740462799340000014401053352277809544_);">
			<g>
				<path class="st12" d="M689.4-22.1c0,2,0,4,0,6"/>
				<path class="st13" d="M689.4-4.3c0.1,30.4,0.1,54,0.1,73.4c0,21.8-0.1,30.8,0.5,46.1c0.9,24,2.1,25.2,1,30.4
					c-5,24.3-38.3,36.9-70.7,48.5c-103.4,37.1-96.3,31.4-124.8,41.7c-37.4,13.5-53.5,21.4-85.9,26.5c-23.7,3.7-42.6,3.8-56.4,3.9
					c-15.7,0-42.8-3.2-96.3-9.7c0,0-17.6-2.1-53.6-10.2c-6.5-1.5-14.5-3.6-24.1-8.4c-3-1.5-5.7-3-7.8-4.3"/>
				<path class="st12" d="M166.4,230.6c-1.7-1-3.5-2-5.2-2.9c-1.4,0.8-3.1,1.9-5,3.3"/>
				<path class="st14" d="M146.2,238.3c-2.9,2.4-6.6,5.6-12.2,10.5c-9.2,7.9-12.7,11.3-22.7,19.3c-17.8,14.4-31.2,24.2-33.7,26
					C57,309.5,21.7,343.8-42.3,423.9"/>
				<path class="st12" d="M-46.2,428.7c-1.2,1.5-2.5,3.1-3.7,4.7"/>
			</g>
		</g>
		
			<path style="clip-path:url(#SVGID_00000085252412740462799340000014401053352277809544_);fill:none;stroke:#798160;stroke-width:4;stroke-miterlimit:10;stroke-dasharray:12,12;" d="
			M143.6,239.2"/>
		
			<path style="clip-path:url(#SVGID_00000085252412740462799340000014401053352277809544_);fill:none;stroke:#BCC0AF;stroke-width:6;stroke-miterlimit:10;" d="
			M178,489.9c-14.7-38.2-29.5-76.4-44.2-114.6c0.6-0.6,3.9-4.3,7.1-3.4c1.7,0.5,2.7,2,3.4,3.4c1.7,3,4.1,7.6,6.5,13.8
			c-3.1,2.2-6.1,4.4-9.2,6.6"/>
		
			<path style="clip-path:url(#SVGID_00000085252412740462799340000014401053352277809544_);fill:none;stroke:#BCC0AF;stroke-width:6;stroke-miterlimit:10;" d="
			M149.2,388.3l60.5,2.8c-8.3,30.1-16.6,60.2-24.8,90.3"/>
		
			<line style="clip-path:url(#SVGID_00000085252412740462799340000014401053352277809544_);fill:none;stroke:#BCC0AF;stroke-width:6;stroke-miterlimit:10;" x1="100.4" y1="270.3" x2="-9.2" y2="62.8"/>
	</g>
</g>
</svg>
