<?xml version="1.0" encoding="utf-8"?>
<!-- Generator: Adobe Illustrator 26.3.1, SVG Export Plug-In . SVG Version: 6.00 Build 0)  -->
<svg version="1.1" id="レイヤー_1" xmlns="http://www.w3.org/2000/svg" xmlns:xlink="http://www.w3.org/1999/xlink" x="0px"
	 y="0px" width="486px" height="486px" viewBox="0 0 486 486" style="enable-background:new 0 0 486 486;" xml:space="preserve">
<style type="text/css">
	.st0{fill:#999B76;stroke:#999B76;stroke-width:0.1592;}
	.st1{fill:#A3A584;stroke:#999B76;stroke-width:0.2411;stroke-miterlimit:4.75;}
	.st2{fill:#ADAF91;stroke:#999B76;stroke-width:0.323;stroke-miterlimit:5.5;}
	.st3{fill:#B7B99F;stroke:#999B76;stroke-width:0.4048;stroke-miterlimit:6.25;}
	.st4{fill:#C2C3AD;stroke:#999B76;stroke-width:0.4867;stroke-miterlimit:7;}
	.st5{fill:#CCCDBA;stroke:#999B76;stroke-width:0.5685;stroke-miterlimit:7.75;}
	.st6{fill:#D6D7C8;stroke:#999B76;stroke-width:0.6504;stroke-miterlimit:8.5;}
	.st7{fill:#E0E1D6;stroke:#999B76;stroke-width:0.7323;stroke-miterlimit:9.25;}
	.st8{fill:#EBEBE4;stroke:#999B76;stroke-width:0.8141;stroke-miterlimit:10;}
</style>
<g>
	<g>
		<polygon class="st0" points="352.9,486 0.4,457.3 131.8,393.8 484.4,422.5 		"/>
		<polygon class="st1" points="352.9,437.2 0.4,408.5 131.8,345 484.4,373.7 		"/>
		<polygon class="st2" points="352.9,388.5 0.4,359.8 131.8,296.3 484.4,325 		"/>
		<polygon class="st3" points="352.9,339.7 0.4,311 131.8,247.5 484.4,276.2 		"/>
		<polygon class="st4" points="352.9,291 0.4,262.3 131.8,198.8 484.4,227.5 		"/>
		<polygon class="st5" points="352.9,242.2 0.4,213.5 131.8,150 484.4,178.7 		"/>
		<polygon class="st6" points="352.9,193.5 0.4,164.8 131.8,101.3 484.4,130 		"/>
		<polygon class="st7" points="352.9,144.7 0.4,116 131.8,52.5 484.4,81.2 		"/>
		<polygon class="st8" points="352.9,96 0.4,67.3 131.8,3.8 484.4,32.5 		"/>
	</g>
</g>
</svg>
