<?xml version="1.0" encoding="UTF-8"?><svg xmlns="http://www.w3.org/2000/svg" viewBox="0 0 852.8 317.5"><defs><style>.c{fill:#f5f3f0;}.c,.d{mix-blend-mode:multiply;stroke:#fff;stroke-width:7.06px;}.e{stroke-width:.28px;}.e,.f,.g,.h,.i,.j,.k,.l,.m,.n,.o{fill:none;stroke:#7a805f;}.e,.f,.o{stroke-miterlimit:10;}.f,.g{stroke-width:1.66px;}.p,.q{fill:#7a805f;}.h{stroke-width:.27px;}.h,.j,.k,.l{stroke-linejoin:round;}.d{fill:#d7d9cf;}.i{stroke-width:.84px;}.q,.r{opacity:.2;}.j{stroke-width:.29px;}.s{isolation:isolate;}.k{stroke-width:.27px;}.l{stroke-width:.25px;}.m{stroke-width:.36px;}.n{stroke-width:.35px;}.o{stroke-width:.5px;}</style></defs><g class="s"><g id="a"><g><path class="p" d="M644.62,136.74v-8.4h5.05v1.49h-3.56v1.92h2.64v1.49h-2.64v2.01h3.73v1.49h-5.22Z"/><path class="p" d="M654.63,136.74l-2.69-8.4h1.69l1.76,6.14,1.76-6.14h1.69l-2.66,8.4h-1.56Z"/></g><g><path class="p" d="M725.24,39.95l-2.01-8.4h1.71l1.24,6.3,1.32-6.3h1.71l1.32,6.3,1.24-6.3h1.71l-2,8.4h-1.86l-1.26-5.58-1.2,5.58h-1.92Z"/><path class="p" d="M735.36,36.8v-2.03c0-1.69,.98-3.36,3.07-3.36s3.07,1.67,3.07,3.36v2.03c0,1.69-.98,3.3-3.07,3.3s-3.07-1.61-3.07-3.3Zm4.63-.22v-1.63c0-.84-.26-2-1.56-2s-1.56,1.16-1.56,2v1.63c0,.96,.34,1.98,1.56,1.98s1.56-1.02,1.56-1.98Z"/><path class="p" d="M743.9,36.8v-2.03c0-1.69,.98-3.36,3.07-3.36s3.07,1.67,3.07,3.36v2.03c0,1.69-.98,3.3-3.07,3.3s-3.07-1.61-3.07-3.3Zm4.63-.22v-1.63c0-.84-.26-2-1.56-2s-1.56,1.16-1.56,2v1.63c0,.96,.33,1.98,1.56,1.98s1.56-1.02,1.56-1.98Z"/><path class="p" d="M752.71,39.95v-8.4h2.97c1.83,0,2.82,1.26,2.82,3.01v2.18c0,2.04-1.04,3.2-2.88,3.2h-2.92Zm1.49-1.49h1.37c.89,0,1.45-.52,1.45-1.71v-2.06c0-1.04-.7-1.63-1.45-1.63h-1.37v5.41Z"/><path class="p" d="M764.99,39.95v-8.4h1.49v6.91h3.35v1.49h-4.83Z"/><path class="p" d="M772.03,36.8v-2.03c0-1.69,.98-3.36,3.07-3.36s3.07,1.67,3.07,3.36v2.03c0,1.69-.98,3.3-3.07,3.3s-3.07-1.61-3.07-3.3Zm4.63-.22v-1.63c0-.84-.26-2-1.56-2s-1.56,1.16-1.56,2v1.63c0,.96,.33,1.98,1.56,1.98s1.56-1.02,1.56-1.98Z"/><path class="p" d="M780.79,36.66v-5.11h1.51v5.11c0,1,.46,1.83,1.54,1.83s1.54-.84,1.54-1.83v-5.11h1.51v5.11c0,1.81-1.02,3.43-3.05,3.43s-3.05-1.62-3.05-3.43Z"/><path class="p" d="M789.8,39.95v-8.4h1.39l3.36,5.37v-5.37h1.49v8.4h-1.39l-3.36-5.22v5.22h-1.49Z"/><path class="p" d="M805.04,39.95h-.94l-.23-.64c-.43,.47-1.08,.78-2.03,.78-2.21,0-3.17-1.83-3.17-3.57v-1.4c0-1.7,.9-3.71,3.21-3.71,1.93,0,3.04,1.25,3.12,2.82h-1.54c-.05-.67-.56-1.28-1.52-1.28-1.37,0-1.74,1.37-1.74,2.5v.73c0,1.31,.5,2.39,1.74,2.39,.79,0,1.69-.41,1.69-1.55v-.24l-1.43-.17v-1.18h2.82v4.52Z"/><path class="p" d="M807.78,39.95v-8.4h5.05v1.49h-3.56v1.92h2.64v1.49h-2.64v2.01h3.73v1.49h-5.22Z"/></g><g><path class="p" d="M91.76,85.03v-8.4h2.78c1.68,0,2.61,.96,2.61,2.81,0,1.09-.6,2.55-2.61,2.55h-1.3v3.03h-1.49Zm1.49-4.52h1.16c.72,0,1.25-.3,1.25-1.18s-.53-1.16-1.25-1.16h-1.16v2.34Z"/><path class="p" d="M105.63,85.03h-1.67l-1.39-3.05c-.14,.01-.29,.01-.43,.01h-1.03v3.03h-1.49v-8.4h2.88c1.98,0,2.66,1.31,2.66,2.66,0,1.1-.4,1.85-1.13,2.28l1.6,3.45Zm-4.52-4.52h1.39c.86,0,1.13-.66,1.13-1.21,0-.72-.46-1.18-1.13-1.18h-1.39v2.39Z"/><path class="p" d="M108.1,85.03v-8.4h1.49v8.4h-1.49Z"/><path class="p" d="M114.6,85.03l-2.69-8.4h1.69l1.76,6.14,1.76-6.14h1.69l-2.66,8.4h-1.56Z"/><path class="p" d="M125.13,85.03l-.5-1.62h-2.9l-.5,1.62h-1.62l2.73-8.4h1.68l2.73,8.4h-1.62Zm-2.94-3.13h1.97l-.98-3.19-.98,3.19Z"/><path class="p" d="M133.92,78.12h-2.37v6.91h-1.49v-6.91h-2.37v-1.49h6.24v1.49Z"/><path class="p" d="M136.38,85.03v-8.4h5.05v1.49h-3.56v1.92h2.64v1.49h-2.64v2.01h3.73v1.49h-5.22Z"/><path class="p" d="M147.78,81.88v-2.03c0-1.69,.98-3.36,3.07-3.36s3.07,1.67,3.07,3.36v2.03c0,1.69-.98,3.3-3.07,3.3s-3.07-1.61-3.07-3.3Zm4.63-.22v-1.63c0-.84-.26-2-1.56-2s-1.56,1.16-1.56,2v1.63c0,.96,.34,1.98,1.56,1.98s1.56-1.02,1.56-1.98Z"/><path class="p" d="M156.59,85.03v-8.4h4.86v1.54h-3.35v1.85h2.66v1.53h-2.66v3.48h-1.51Z"/><path class="p" d="M163.97,85.03v-8.4h4.86v1.54h-3.35v1.85h2.66v1.53h-2.66v3.48h-1.51Z"/><path class="p" d="M171.35,85.03v-8.4h1.49v8.4h-1.49Z"/><path class="p" d="M175.5,81.76v-1.81c0-1.91,1.07-3.45,3.05-3.45,1.51,0,2.66,.94,2.9,2.37l-1.51,.25c-.19-.72-.76-1.04-1.39-1.04-1.08,0-1.54,.89-1.54,1.94v1.39c0,1.27,.29,2.21,1.45,2.21,.83,0,1.38-.48,1.46-1.2l1.55,.11c-.14,1.56-1.38,2.65-3.03,2.65-1.81,0-2.94-1.35-2.94-3.42Z"/><path class="p" d="M184,85.03v-8.4h5.05v1.49h-3.56v1.92h2.64v1.49h-2.64v2.01h3.73v1.49h-5.22Z"/></g><g><path class="p" d="M404.59,96.32h-.94l-.23-.64c-.43,.47-1.08,.78-2.03,.78-2.21,0-3.17-1.83-3.17-3.57v-1.4c0-1.7,.9-3.71,3.21-3.71,1.93,0,3.04,1.25,3.12,2.82h-1.54c-.05-.67-.56-1.28-1.52-1.28-1.37,0-1.74,1.37-1.74,2.49v.73c0,1.31,.5,2.39,1.74,2.39,.79,0,1.69-.41,1.69-1.55v-.24l-1.43-.17v-1.18h2.82v4.52Z"/><path class="p" d="M413.33,96.32h-1.67l-1.39-3.05c-.14,.01-.29,.01-.43,.01h-1.03v3.03h-1.49v-8.4h2.88c1.98,0,2.66,1.31,2.66,2.66,0,1.1-.4,1.85-1.13,2.28l1.59,3.45Zm-4.52-4.52h1.39c.86,0,1.13-.66,1.13-1.21,0-.72-.46-1.18-1.13-1.18h-1.39v2.39Z"/><path class="p" d="M415.8,96.32v-8.4h5.05v1.49h-3.56v1.92h2.64v1.49h-2.64v2.01h3.73v1.49h-5.22Z"/><path class="p" d="M423.63,96.32v-8.4h5.05v1.49h-3.56v1.92h2.64v1.49h-2.64v2.01h3.73v1.49h-5.22Z"/><path class="p" d="M431.46,96.32v-8.4h1.39l3.36,5.37v-5.37h1.49v8.4h-1.39l-3.36-5.22v5.22h-1.49Z"/><path class="p" d="M444.54,96.32v-8.4h1.49v6.91h3.35v1.49h-4.83Z"/><path class="p" d="M451.58,93.16v-2.03c0-1.69,.98-3.36,3.07-3.36s3.07,1.67,3.07,3.36v2.03c0,1.69-.98,3.3-3.07,3.3s-3.07-1.61-3.07-3.3Zm4.63-.22v-1.63c0-.84-.26-2-1.56-2s-1.56,1.16-1.56,2v1.63c0,.96,.33,1.98,1.56,1.98s1.56-1.02,1.56-1.98Z"/><path class="p" d="M460.34,93.03v-5.11h1.51v5.11c0,1,.46,1.83,1.54,1.83s1.54-.84,1.54-1.83v-5.11h1.51v5.11c0,1.81-1.02,3.43-3.05,3.43s-3.05-1.62-3.05-3.43Z"/><path class="p" d="M469.35,96.32v-8.4h1.39l3.36,5.37v-5.37h1.49v8.4h-1.39l-3.36-5.22v5.22h-1.49Z"/><path class="p" d="M484.59,96.32h-.94l-.23-.64c-.43,.47-1.08,.78-2.03,.78-2.21,0-3.17-1.83-3.17-3.57v-1.4c0-1.7,.9-3.71,3.21-3.71,1.93,0,3.04,1.25,3.12,2.82h-1.54c-.05-.67-.56-1.28-1.52-1.28-1.37,0-1.74,1.37-1.74,2.49v.73c0,1.31,.5,2.39,1.74,2.39,.79,0,1.69-.41,1.69-1.55v-.24l-1.43-.17v-1.18h2.82v4.52Z"/><path class="p" d="M487.33,96.32v-8.4h5.05v1.49h-3.56v1.92h2.64v1.49h-2.64v2.01h3.73v1.49h-5.22Z"/></g><g><path class="p" d="M700.88,101.58h1.44v8.4h-1.49v-5.13l-1.56,2.89h-1.03l-1.56-2.89v5.13h-1.49v-8.4h1.44l2.12,4.08,2.12-4.08Z"/><path class="p" d="M705.26,109.97v-8.4h5.05v1.49h-3.56v1.92h2.64v1.49h-2.64v2.01h3.73v1.49h-5.22Z"/><path class="p" d="M713.09,109.97v-8.4h5.05v1.49h-3.56v1.92h2.64v1.49h-2.64v2.01h3.73v1.49h-5.22Z"/><path class="p" d="M726.77,103.06h-2.38v6.91h-1.49v-6.91h-2.38v-1.49h6.24v1.49Z"/><path class="p" d="M729.23,109.97v-8.4h1.49v8.4h-1.49Z"/><path class="p" d="M733.64,109.97v-8.4h1.39l3.36,5.37v-5.37h1.49v8.4h-1.39l-3.36-5.22v5.22h-1.49Z"/><path class="p" d="M748.88,109.97h-.94l-.23-.64c-.43,.47-1.08,.78-2.03,.78-2.21,0-3.17-1.83-3.17-3.57v-1.4c0-1.7,.9-3.71,3.21-3.71,1.93,0,3.04,1.25,3.12,2.82h-1.54c-.05-.67-.56-1.28-1.52-1.28-1.37,0-1.74,1.37-1.74,2.49v.73c0,1.31,.5,2.39,1.74,2.39,.79,0,1.69-.41,1.69-1.55v-.24l-1.43-.17v-1.18h2.82v4.52Z"/><path class="p" d="M711.59,122.45h-1.67l-1.39-3.05c-.14,.01-.29,.01-.43,.01h-1.03v3.03h-1.49v-8.4h2.88c1.98,0,2.66,1.31,2.66,2.66,0,1.1-.4,1.85-1.13,2.28l1.59,3.45Zm-4.52-4.52h1.39c.86,0,1.13-.66,1.13-1.21,0-.72-.46-1.18-1.13-1.18h-1.39v2.39Z"/><path class="p" d="M713.64,119.3v-2.03c0-1.69,.98-3.36,3.07-3.36s3.07,1.67,3.07,3.36v2.03c0,1.69-.98,3.3-3.07,3.3s-3.07-1.61-3.07-3.3Zm4.63-.22v-1.63c0-.84-.26-2-1.56-2s-1.56,1.16-1.56,2v1.63c0,.96,.33,1.98,1.56,1.98s1.56-1.02,1.56-1.98Z"/><path class="p" d="M722.19,119.3v-2.03c0-1.69,.98-3.36,3.07-3.36s3.07,1.67,3.07,3.36v2.03c0,1.69-.98,3.3-3.07,3.3s-3.07-1.61-3.07-3.3Zm4.63-.22v-1.63c0-.84-.26-2-1.56-2s-1.56,1.16-1.56,2v1.63c0,.96,.34,1.98,1.56,1.98s1.56-1.02,1.56-1.98Z"/><path class="p" d="M736.68,114.06h1.44v8.4h-1.49v-5.13l-1.56,2.89h-1.03l-1.56-2.89v5.13h-1.49v-8.4h1.44l2.12,4.08,2.12-4.08Z"/></g></g><g id="b"><line class="o" x1="80.2" y1="65.68" x2="99.2" y2="65.68"/><line class="o" x1="59.7" y1="71.18" x2="79.7" y2="71.18"/><line class="o" x1="58.7" y1="71.68" x2="58.7" y2="92.68"/><g><line class="f" x1="607.32" y1="69.84" x2="641" y2="69.84"/><g><polygon class="p" points="274.06 93.67 274.06 97.65 275.01 97.65 275.01 104.91 275.84 104.91 275.84 97.65 276.79 97.65 276.79 93.67 277.54 87.64 273.32 87.64 274.06 93.67"/><rect class="p" x="274.83" y="85.52" width="1.2" height="1.2"/></g><g><polygon class="p" points="285.48 97.59 283.27 91.52 283.27 87.58 280.56 87.58 280.56 91.52 278.36 97.59 281.5 97.59 281.5 104.85 282.33 104.85 282.33 97.59 285.48 97.59"/><rect class="p" x="281.32" y="85.46" width="1.2" height="1.2"/></g><line class="e" x1="611.15" y1="37.71" x2="611.15" y2="102.13"/><line class="e" x1="617.69" y1="37.71" x2="617.69" y2="102.13"/><line class="e" x1="623.92" y1="38.53" x2="623.92" y2="102.31"/><line class="e" x1="630.72" y1="38.04" x2="630.72" y2="102.13"/><line class="e" x1="636.96" y1="38.53" x2="636.96" y2="102.31"/><line class="e" x1="654.49" y1="40.37" x2="637.19" y2="69.42"/><line class="e" x1="667.91" y1="52.4" x2="637.96" y2="69.5"/><line class="e" x1="638.59" y1="69.63" x2="672.42" y2="69.63"/><line class="e" x1="637.53" y1="70.56" x2="667.78" y2="87.88"/><line class="e" x1="637.27" y1="70.56" x2="653.61" y2="99.5"/><polyline class="f" points="625.75 108.4 606.15 108.4 606.15 101.65 611.42 101.65"/><path class="f" d="M607.32,101.65h34.46c16.92,0,30.64-13.72,30.64-30.64v-1.84c0-16.92-13.72-30.64-30.64-30.64h-35.42"/><line class="h" x1="789.42" y1="234.84" x2="789.42" y2="288.83"/><line class="h" x1="782.97" y1="261.56" x2="782.97" y2="288.83"/><line class="h" x1="795.26" y1="234.57" x2="795.26" y2="288.55"/><line class="h" x1="800.81" y1="234.57" x2="800.81" y2="288.55"/><line class="h" x1="806.37" y1="234.57" x2="806.37" y2="288.83"/><line class="h" x1="812.32" y1="234.57" x2="812.32" y2="288.83"/><line class="j" x1="823.71" y1="234.57" x2="823.71" y2="261.56"/><line class="j" x1="828.79" y1="234.57" x2="828.79" y2="261.56"/><line class="j" x1="817.87" y1="234.57" x2="817.87" y2="261.56"/><line class="k" x1="755.89" y1="207.48" x2="780.98" y2="207.48"/><line class="k" x1="755.89" y1="213.9" x2="780.98" y2="213.9"/><line class="k" x1="755.89" y1="219.78" x2="780.98" y2="219.78"/><line class="k" x1="755.89" y1="225.15" x2="780.98" y2="225.15"/><line class="l" x1="756.4" y1="292.85" x2="779.21" y2="292.85"/><line class="l" x1="755.89" y1="298.22" x2="778.7" y2="298.22"/><line class="g" x1="16.97" y1="71.37" x2="59.88" y2="71.37"/><line class="g" x1="79.86" y1="36.89" x2="79.86" y2="72.14"/><polyline class="f" points="223.12 173.04 223.12 170.77 247.78 170.77 247.78 21.35 287.82 21.35"/><line class="g" x1="120.24" y1="25.18" x2="120.24" y2="65.31"/><line class="g" x1="99.19" y1="65.31" x2="124.31" y2="65.31"/><path class="g" d="M144.02,65.01h25.94l-.15-18.7c.31,.09,26.37,0,26.37,0V24.82h3.83"/><line class="g" x1="52.59" y1="124.05" x2="97.69" y2="124.05"/><polyline class="g" points="52.37 102.98 52.37 92.89 97.56 92.89 97.56 103.7"/><line class="g" x1="97.56" y1="123.09" x2="97.56" y2="135.84"/><path class="g" d="M97.56,156.46v16.45h-23.96v-22.68l-21.23-.04v-47s-50.01-.02-50.79-.21v98.88H139.85v5.34H755.89v100.23"/><line class="g" x1="136.57" y1="96.03" x2="184.62" y2="96.03"/><polyline class="g" points="137.44 116.45 137.44 129.85 247.78 129.85"/><path class="g" d="M137.44,150.68v14.62h6.54s0,3.83,0,3.84h27.67v-25.14h12.96v-55.39h10.25"/><line class="g" x1="169.81" y1="46.31" x2="169.44" y2="23.52"/><polyline class="g" points="185.3 144 193.8 144 193.8 173.81"/><line class="f" x1="225.48" y1="24.26" x2="247.39" y2="24.26"/><polyline class="g" points="577.16 177.3 577.16 157.25 624.36 157.25"/><line class="g" x1="656.52" y1="177.1" x2="690.59" y2="177.1"/><line class="f" x1="604.13" y1="38.53" x2="667.86" y2="38.53"/><path class="f" d="M402.24,167.44v9.86h78.37v-28.23h23v8.7h28.48v19.33"/><polyline class="f" points="312.26 158.58 312.26 177.3 351.84 177.3 351.84 167.94"/><line class="g" x1="782.97" y1="261.56" x2="828.96" y2="261.56"/><line class="i" x1="26.39" y1="128.01" x2="26.39" y2="170.9"/><path class="g" d="M79.86,24.5v13.28h-28.78v-12.27h-12.02c-9.87,0-17.88,8-17.88,17.88v15.53h-4.21v44.42"/><polyline class="f" points="678.42 60.12 678.42 157.25 690.59 157.25 690.59 177.1 732.01 177.1"/><line class="g" x1="109.26" y1="24.82" x2="139.85" y2="24.82"/><line class="f" x1="732.01" y1="147.49" x2="732.01" y2="177.3"/><line class="f" x1="796.33" y1="148.12" x2="796.33" y2="174.13"/><line class="f" x1="753.3" y1="148.95" x2="775.17" y2="148.95"/><path class="f" d="M273.03,155.94v21.36h24.87v-18.72h14.36V37.21c-4.06,.02-15.52,0-15.52,0v-15.85"/><g/><line class="m" x1="1.57" y1="129.82" x2="52.37" y2="129.82"/><line class="m" x1="1.57" y1="135.24" x2="52.37" y2="135.24"/><line class="m" x1="1.57" y1="141.28" x2="52.37" y2="141.28"/><line class="n" x1="1.57" y1="147.31" x2="52.37" y2="147.31"/><line class="m" x1="1.57" y1="153.47" x2="52.37" y2="153.47"/><line class="m" x1="1.57" y1="158.72" x2="52.37" y2="158.72"/><line class="n" x1="1.57" y1="164.41" x2="25.96" y2="164.41"/><line class="n" x1="1.57" y1="170.72" x2="26.39" y2="170.72"/><path class="g" d="M779.21,306.5v-17.68h72.53v-54.25h-70.76v-27.56h24.23v-29.92h-8.88v-3.24h38.96v-16.01h13.47V44.73h-15.88V10.38h-141.78v30.72h-12.67v19.02h64.28c13.03,0,23.6,10.56,23.6,23.55v65.27"/><polyline class="f" points="312.31 37.2 323.11 37.2 323.07 24.82 479.19 24.82 479.19 45.37 507.17 45.37 507.17 10.24 667.42 10.24 667.42 39.64 678.42 39.64 678.42 41.11"/><line class="g" x1="137.44" y1="165.3" x2="128.88" y2="165.3"/><polyline class="f" points="624.5 121.78 624.5 107.89 678.42 107.89"/><line class="f" x1="624.36" y1="157.25" x2="678.28" y2="157.25"/><polyline class="f" points="624.5 145.77 624.5 177.1 633.53 177.1"/><line class="g" x1="189.55" y1="65.24" x2="247.39" y2="65.24"/><polyline class="g" points="226.47 88.62 215.78 88.62 215.78 129.85"/><line class="f" x1="247.78" y1="177.3" x2="247.78" y2="170.77"/><line class="g" x1="52.37" y1="173.81" x2="52.37" y2="149.75"/><path class="c" d="M16.97,103.33V58.92h4.21v-15.53c0-9.87,8-17.88,17.88-17.88h12.02v12.27h28.78v-13.28l89.6,.43,.34,21.39h26.37V24.82l51.13-.32V170.77h-24.19v3.26h-29.32v-30.03h-22.14v25.14h-27.67v-3.84h-46.29v7.61h-24.09v-22.68h-21.23v-47.25l-35.4,.35Z"/><polygon class="d" points="312.31 37.2 323.11 37.2 323.11 24.82 479.19 24.82 479.19 45.37 507.17 45.37 507.17 10.24 667.42 10.24 667.42 38.53 606.36 38.53 606.36 108.4 624.36 108.4 624.36 157.25 577.16 157.25 577.16 177.3 532.09 177.3 532.09 157.77 503.61 157.77 503.61 149.07 480.6 149.07 480.6 177.3 402.24 177.3 402.24 167.44 351.84 167.44 351.84 177.3 312.26 177.3 312.31 37.2"/><path class="c" d="M678.42,60.12h64.28c13.03,0,23.6,10.56,23.6,23.55v65.27h-34.29v28.35h-41.41v-20.05h-12.32l.14-97.12Z"/><path class="d" d="M766.29,148.95V83.68c0-12.99-10.56-23.55-23.6-23.55h-64.28v-19.02h12.67V10.38h141.78V44.73h15.88v113.12h-13.47v16.01h-38.96v-24.79l-30.03-.13Z"/><rect class="q" x="195.95" y="104.91" width="8.87" height="6.4"/><rect class="q" x="207.23" y="40.84" width="8.87" height="6.4"/><rect class="q" x="70.14" y="105.42" width="8.87" height="6.4" transform="translate(183.19 34.05) rotate(90)"/><rect class="q" x="70.14" y="133.76" width="8.87" height="6.4" transform="translate(211.53 62.39) rotate(90)"/><rect class="q" x="150.19" y="40.84" width="8.87" height="6.4"/><rect class="q" x="226.74" y="104.91" width="8.87" height="6.4"/><rect class="q" x="230.8" y="40.84" width="8.87" height="6.4"/><rect class="q" x="191.83" y="105.88" width="16.34" height="30.65" transform="translate(321.2 -78.79) rotate(90)"/><rect class="q" x="223.52" y="105.88" width="16.34" height="30.65" transform="translate(352.9 -110.49) rotate(90)"/><rect class="q" x="147.51" y="17.34" width="13.61" height="28.78" transform="translate(186.04 -122.59) rotate(90)"/><rect class="q" x="90.69" y="40.84" width="8.87" height="6.4"/><rect class="q" x="36.09" y="52.18" width="8.87" height="6.4" transform="translate(95.9 14.85) rotate(90)"/><rect class="q" x="88.01" y="17.34" width="13.61" height="28.78" transform="translate(126.55 -63.09) rotate(90)"/><rect class="q" x="158.05" y="105.42" width="8.87" height="6.4" transform="translate(271.1 -53.86) rotate(90)"/><rect class="q" x="152.8" y="147.03" width="8.87" height="6.4" transform="translate(314.46 300.47) rotate(180)"/><rect class="q" x="207.75" y="146.46" width="8.87" height="6.4" transform="translate(424.37 299.32) rotate(180)"/><rect class="q" x="231.04" y="146.46" width="8.87" height="6.4" transform="translate(470.95 299.32) rotate(180)"/><rect class="q" x="372" y="58.08" width="7.02" height="10.02"/><rect class="q" x="372" y="74.27" width="7.02" height="10.02"/><rect class="q" x="372" y="90.47" width="7.02" height="10.02"/><rect class="q" x="372" y="106.67" width="7.02" height="10.02"/><rect class="q" x="372" y="122.87" width="7.02" height="10.02"/><rect class="q" x="409.87" y="104.46" width="9.1" height="9.1"/><rect class="q" x="406.58" y="79.2" width="14.86" height="23.14"/><path class="q" d="M403.67,26.64h14.86v10.21c0,4.1-3.33,7.43-7.43,7.43h0c-4.1,0-7.43-3.33-7.43-7.43v-10.21h0Z"/><rect class="q" x="425.48" y="68.63" width="9.1" height="9.1"/><rect class="q" x="409.97" y="68.63" width="9.1" height="9.1"/><rect class="q" x="425.48" y="104.46" width="9.1" height="9.1"/><rect class="q" x="422.19" y="79.2" width="14.86" height="23.14"/><rect class="q" x="441.09" y="68.63" width="9.1" height="9.1"/><rect class="q" x="441.09" y="104.46" width="9.1" height="9.1"/><rect class="q" x="437.8" y="79.2" width="14.86" height="23.14"/><rect class="q" x="456.7" y="68.63" width="9.1" height="9.1"/><rect class="q" x="456.7" y="104.46" width="9.1" height="9.1"/><rect class="q" x="453.41" y="79.2" width="14.86" height="23.14"/><rect class="q" x="472.31" y="68.63" width="9.1" height="9.1"/><rect class="q" x="472.31" y="104.46" width="9.1" height="9.1"/><rect class="q" x="469.02" y="79.2" width="14.86" height="23.14"/><path class="q" d="M414.77,131.06h0c3.21,0,5.81,2.6,5.81,5.81v2.5h-11.62v-2.5c0-3.21,2.6-5.81,5.81-5.81Z"/><path class="q" d="M431.23,131.06h0c3.21,0,5.81,2.6,5.81,5.81v2.5h-11.62v-2.5c0-3.21,2.6-5.81,5.81-5.81Z"/><path class="q" d="M451.47,131.06h0c3.21,0,5.81,2.6,5.81,5.81v2.5h-11.62v-2.5c0-3.21,2.6-5.81,5.81-5.81Z"/><path class="q" d="M467.93,131.06h0c3.21,0,5.81,2.6,5.81,5.81v2.5h-11.62v-2.5c0-3.21,2.6-5.81,5.81-5.81Z"/><path class="q" d="M533.32,59.7h0c3.21,0,5.81,2.6,5.81,5.81v2.5h-11.62v-2.5c0-3.21,2.6-5.81,5.81-5.81Z" transform="translate(23.2 232.05) rotate(-25.08)"/><path class="q" d="M560.09,60.04h0c3.21,0,5.81,2.6,5.81,5.81v2.5h-11.62v-2.5c0-3.21,2.6-5.81,5.81-5.81Z" transform="translate(70.28 -214.93) rotate(23.14)"/><path class="q" d="M576.12,80.26h0c3.21,0,5.81,2.6,5.81,5.81v2.5h-11.62v-2.5c0-3.21,2.6-5.81,5.81-5.81Z" transform="translate(519.72 -495.12) rotate(76.11)"/><path class="q" d="M570.23,106.53h0c3.21,0,5.81,2.6,5.81,5.81v2.5h-11.62v-2.5c0-3.21,2.6-5.81,5.81-5.81Z" transform="translate(1005.36 -274.12) rotate(127.53)"/><path class="q" d="M546.44,117.63h0c3.21,0,5.81,2.6,5.81,5.81v2.5h-11.62v-2.5c0-3.21,2.6-5.81,5.81-5.81Z" transform="translate(1092.88 243.57) rotate(180)"/><path class="q" d="M521.53,106.58h0c3.21,0,5.81,2.6,5.81,5.81v2.5h-11.62v-2.5c0-3.21,2.6-5.81,5.81-5.81Z" transform="translate(747.06 593.84) rotate(-127.01)"/><path class="q" d="M516.33,79.87h0c3.21,0,5.81,2.6,5.81,5.81v2.5h-11.62v-2.5c0-3.21,2.6-5.81,5.81-5.81Z" transform="translate(300.75 560.66) rotate(-74.91)"/><rect class="q" x="410.04" y="143.24" width="23.75" height="14.01"/><rect class="q" x="448.66" y="143.24" width="23.75" height="14.01"/><circle class="q" cx="546.24" cy="91.68" r="24.55"/><g class="r"><path class="p" d="M535.34,24.87c-2.77,0-5.09,1.91-5.73,4.48-.52-.15-1.08-.24-1.65-.24-3.26,0-5.91,2.65-5.91,5.91s2.65,5.91,5.91,5.91c2.77,0,5.09-1.91,5.73-4.48,.52,.15,1.08,.24,1.65,.24,3.26,0,5.91-2.65,5.91-5.91s-2.65-5.91-5.91-5.91Z"/></g><g class="r"><path class="p" d="M579.97,14.65c-2.46-1.27-5.4-.64-7.15,1.36-.4-.38-.85-.71-1.36-.97-2.9-1.5-6.46-.36-7.96,2.54s-.36,6.46,2.54,7.96c2.46,1.27,5.4,.64,7.15-1.36,.4,.38,.85,.71,1.36,.97,2.9,1.5,6.46,.36,7.96-2.54,1.5-2.9,.36-6.46-2.54-7.96Z"/></g><rect class="q" x="358.19" y="50.97" width="11.27" height="88.79" rx="2.66" ry="2.66"/><rect class="q" x="405.46" y="160.39" width="35.52" height="12.95" rx="2.41" ry="2.41"/><rect class="q" x="821.87" y="56.96" width="35.52" height="12.95" rx="2.41" ry="2.41" transform="translate(903.06 -776.19) rotate(90)"/><rect class="q" x="705.35" y="45.73" width="35.52" height="12.95" rx="2.41" ry="2.41" transform="translate(1446.23 104.41) rotate(180)"/><rect class="q" x="673.78" y="28.18" width="47.2" height="13.81" rx="2.49" ry="2.49" transform="translate(732.46 -662.29) rotate(90)"/><rect class="q" x="821.87" y="94.13" width="35.52" height="12.95" rx="2.41" ry="2.41" transform="translate(940.24 -739.01) rotate(90)"/><rect class="q" x="821.87" y="130.74" width="35.52" height="12.95" rx="2.41" ry="2.41" transform="translate(976.84 -702.41) rotate(90)"/><rect class="q" x="389.1" y="26.03" width="12.95" height="12.95" rx="1.46" ry="1.46" transform="translate(428.09 -363.07) rotate(90)"/><rect class="q" x="420.15" y="26.03" width="12.95" height="12.95" rx="1.46" ry="1.46" transform="translate(459.13 -394.11) rotate(90)"/><path class="q" d="M449.23,26.82h14.86v10.21c0,4.1-3.33,7.43-7.43,7.43h0c-4.1,0-7.43-3.33-7.43-7.43v-10.21h0Z"/><rect class="q" x="434.66" y="26.21" width="12.95" height="12.95" rx="1.46" ry="1.46" transform="translate(473.83 -408.45) rotate(90)"/><rect class="q" x="465.71" y="26.21" width="12.95" height="12.95" rx="1.46" ry="1.46" transform="translate(504.87 -439.49) rotate(90)"/><rect class="q" x="442.25" y="160.39" width="35.52" height="12.95" rx="2.41" ry="2.41"/><rect class="q" x="708.8" y="63.35" width="23.21" height="70.26"/><rect class="q" x="697.29" y="66.86" width="9.57" height="9.57"/><rect class="q" x="697.29" y="84.21" width="9.57" height="9.57"/><rect class="q" x="697.29" y="101.55" width="9.57" height="9.57"/><rect class="q" x="697.29" y="118.9" width="9.57" height="9.57"/><rect class="q" x="734.18" y="66.86" width="9.57" height="9.57"/><rect class="q" x="734.18" y="84.21" width="9.57" height="9.57"/><rect class="q" x="734.18" y="101.55" width="9.57" height="9.57"/><rect class="q" x="734.18" y="118.9" width="9.57" height="9.57"/><rect class="q" x="814.06" y="56.32" width="16.95" height="14.5"/><rect class="q" x="814.06" y="80.64" width="16.95" height="14.5"/><rect class="q" x="814.06" y="105.65" width="16.95" height="14.5"/><rect class="q" x="814.06" y="130.66" width="16.95" height="14.5"/><path class="q" d="M805.59,57.19h6.13v12.26h-6.13c-3.38,0-6.13-2.75-6.13-6.13h0c0-3.38,2.75-6.13,6.13-6.13Z"/><path class="q" d="M805.59,82.32h6.13v12.26h-6.13c-3.38,0-6.13-2.75-6.13-6.13h0c0-3.38,2.75-6.13,6.13-6.13Z"/><path class="q" d="M805.59,106.62h6.13v12.26h-6.13c-3.38,0-6.13-2.75-6.13-6.13h0c0-3.38,2.75-6.13,6.13-6.13Z"/><path class="q" d="M805.59,131.75h6.13v12.26h-6.13c-3.38,0-6.13-2.75-6.13-6.13h0c0-3.38,2.75-6.13,6.13-6.13Z"/><rect class="q" x="794.61" y="14.06" width="15.02" height="29.08"/><rect class="q" x="774.93" y="12.28" width="15.1" height="15.1"/><path class="q" d="M738.08,19.78h7.55c4.17,0,7.55,3.38,7.55,7.55h0c0,4.17-3.38,7.55-7.55,7.55h-7.55v-15.1h0Z" transform="translate(23.34 -159.77) rotate(12.42)"/><rect class="q" x="774.93" y="30.99" width="15.1" height="15.1"/><rect class="q" x="814.63" y="12.28" width="15.1" height="15.1"/><rect class="q" x="814.63" y="30.99" width="15.1" height="15.1"/><g class="r"><polygon class="p" points="585.19 32.16 556.73 32.16 556.73 14.02 556.68 14.02 556.68 12.2 516.95 12.2 516.95 12.2 507.41 12.2 507.41 41.53 516.95 41.53 516.95 21.74 547.19 21.74 547.19 32.16 547.14 32.16 547.14 41.71 547.19 41.71 547.19 41.9 556.73 41.9 556.73 41.71 585.19 41.71 585.19 32.16"/></g><rect class="q" x="592.12" y="10.72" width="9.54" height="9.54" transform="translate(581.41 612.38) rotate(-90)"/><circle class="q" cx="721.4" cy="28.91" r="10.26"/><rect class="q" x="313.74" y="56.32" width="15.53" height="22.4"/><rect class="q" x="323.32" y="29.22" width="8.73" height="16.69"/><rect class="q" x="313.74" y="40.35" width="8.73" height="12.67"/><g class="r"><polygon class="p" points="325.65 96.77 325.65 82.79 313.74 82.79 313.74 96.77 313.74 97.83 313.74 124.24 329.27 124.24 329.27 96.77 325.65 96.77"/></g><g class="r"><polygon class="p" points="328.22 155.24 328.22 135.72 324.34 135.72 324.34 168.44 328.22 168.44 332.1 168.44 332.1 155.24 328.22 155.24"/></g><rect class="q" x="161.7" y="101.9" width="27.74" height="16.55" transform="translate(285.75 -65.39) rotate(90)"/><rect class="q" x="45.45" y="100.02" width="30.51" height="16.97" transform="translate(169.21 47.8) rotate(90)"/><rect class="q" x="47.94" y="128.46" width="25.95" height="16.55" transform="translate(197.65 75.82) rotate(90)"/><rect class="q" x="151.17" y="148.65" width="14.2" height="26.79" transform="translate(320.31 3.78) rotate(90)"/><rect class="q" x="216.48" y="113.19" width="14.36" height="47.74" transform="translate(360.72 -86.59) rotate(90)"/><rect class="q" x="215.94" y="7.86" width="14.36" height="47.74" transform="translate(254.85 -191.39) rotate(90)"/><path class="q" d="M51.08,37.72v1.94h-10.61s-5.3-.5-5.3,6.53v25.17H16.42v-11.75h4.87v-17.57s1.44-13.08,12.73-15.06c11.29-1.98,17.06-.88,17.06-.88v11.62Z"/></g><line class="c" x1="80.7" y1="65.68" x2="99.7" y2="65.68"/><line class="o" x1="124.2" y1="65.68" x2="146.2" y2="65.68"/><line class="o" x1="80.7" y1="24.92" x2="109.82" y2="24.92"/><line class="o" x1="193.94" y1="88.62" x2="215.94" y2="88.62"/><line class="o" x1="97.56" y1="102.54" x2="97.56" y2="123.54"/><line class="o" x1="97.56" y1="135.51" x2="97.56" y2="156.51"/><line class="o" x1="137.44" y1="95.45" x2="137.44" y2="116.45"/><line class="o" x1="137.44" y1="129.49" x2="137.44" y2="150.49"/><line class="o" x1="193.99" y1="172.11" x2="223.26" y2="172.11"/><line class="o" x1="168.98" y1="65.24" x2="190.98" y2="65.24"/><line class="o" x1="226.47" y1="88.62" x2="248.47" y2="88.62"/><line class="o" x1="94.82" y1="23.91" x2="94.82" y2="26.04"/><line class="o" x1="139.75" y1="24.92" x2="168.87" y2="24.92"/><line class="o" x1="153.87" y1="23.91" x2="153.87" y2="26.04"/><line class="o" x1="197.47" y1="24.5" x2="226.59" y2="24.5"/><line class="o" x1="211.59" y1="23.49" x2="211.59" y2="25.61"/><line class="o" x1="285.55" y1="21.74" x2="296.42" y2="21.74"/></g></g></svg>