<?xml version="1.0" encoding="utf-8"?>
<!-- Generator: Adobe Illustrator 26.3.1, SVG Export Plug-In . SVG Version: 6.00 Build 0)  -->
<svg version="1.1" id="レイヤー_1" xmlns="http://www.w3.org/2000/svg" xmlns:xlink="http://www.w3.org/1999/xlink" x="0px"
	 y="0px" width="854.9px" height="291.7px" viewBox="0 0 854.9 291.7" style="enable-background:new 0 0 854.9 291.7;"
	 xml:space="preserve">
<style type="text/css">
	.st0{fill:#D7D9CF;stroke:#F5F3F0;stroke-width:7.0583;}
	.st1{fill:#EBE8E2;stroke:#F5F3F0;stroke-width:7.0583;}
	.st2{fill:#7A805F;}
	.st3{fill:none;stroke:#7A805F;stroke-width:0.3629;}
	.st4{fill:none;stroke:#7A805F;stroke-width:0.3587;}
	.st5{fill:none;stroke:#7A805F;stroke-width:0.5132;}
	.st6{fill:none;stroke:#7A805F;stroke-width:0.2693;stroke-linejoin:round;stroke-miterlimit:10;}
	.st7{fill:none;stroke:#7A805F;stroke-width:0.289;stroke-linejoin:round;stroke-miterlimit:10;}
	.st8{fill:none;stroke:#7A805F;stroke-width:1.66;}
	.st9{fill:none;stroke:#7A805F;stroke-width:0.271;stroke-linejoin:round;stroke-miterlimit:10;}
	.st10{fill:none;stroke:#7A805F;stroke-width:0.2556;stroke-linejoin:round;stroke-miterlimit:10;}
	.st11{fill:#EBE8E2;}
	.st12{fill:#D7D9CF;}
	.st13{fill:none;stroke:#7A805F;stroke-width:0.5;stroke-miterlimit:10;}
</style>
<rect x="500.4" y="56.8" class="st0" width="63.1" height="104.2"/>
<path class="st1" d="M13.8,85.9V41h5.1V21.3c0-9.9,8-17.9,17.9-17.9h13.8v18.2h21.1V8.4l96,0.2l-1,12h25v-12l55.2-0.2V161h-22l0,0
	h-33.4l0.2-26.5h-19.6l-0.1,21.3h-32.1l0,0l0,0l-35.6,0.7l-33,0.3L71.1,137H52.8V86L13.8,85.9z"/>
<polygon class="st1" points="311.7,20.4 323.1,20.4 323.1,8.3 478.6,8.3 478.6,20.4 500.4,20.4 500.4,161 320.6,161 320.6,142 
	311.6,142 "/>
<g>
	<g>
		<path class="st2" d="M67.4,249.5l1.5-0.2c0.1,0.9,0.7,1.3,1.4,1.3c0.6,0,1.2-0.2,1.3-0.8c0-0.3-0.1-0.7-1-1.1l-1.1-0.5
			c-1.3-0.6-1.9-1.3-1.9-2.4c0-1.4,1.1-2.4,2.8-2.4c1.5,0,2.5,0.9,2.8,2.3l-1.5,0.2c-0.1-0.6-0.6-1.1-1.3-1.1c-0.6,0-1.2,0.3-1.2,1
			c0,0.5,0.3,0.8,1.2,1.1l1.3,0.5c1.1,0.5,1.6,1.2,1.6,2.1c0,1.5-1.2,2.4-2.8,2.4C68.9,252.1,67.6,251.1,67.4,249.5z"/>
		<path class="st2" d="M81.5,243.6h1.4v8.4h-1.5v-5.1l-1.6,2.9h-1l-1.6-2.9v5.1h-1.5v-8.4h1.4l2.1,4.1L81.5,243.6z"/>
		<path class="st2" d="M90.8,252l-0.5-1.6h-2.9l-0.5,1.6h-1.6l2.7-8.4h1.7l2.7,8.4H90.8z M87.8,248.8h2l-1-3.2L87.8,248.8z"/>
		<path class="st2" d="M94.7,252v-8.4h1.5v6.9h3.3v1.5H94.7z"/>
		<path class="st2" d="M102.1,252v-8.4h1.5v6.9h3.3v1.5H102.1z"/>
		<path class="st2" d="M112.9,248.8v-2c0-1.7,1-3.4,3.1-3.4s3.1,1.7,3.1,3.4v2c0,1.7-1,3.3-3.1,3.3S112.9,250.5,112.9,248.8z
			 M117.6,248.6V247c0-0.8-0.3-2-1.6-2s-1.6,1.2-1.6,2v1.6c0,1,0.3,2,1.6,2S117.6,249.6,117.6,248.6z"/>
		<path class="st2" d="M121.7,252v-8.4h4.9v1.5h-3.3v1.8h2.7v1.5h-2.7v3.5L121.7,252L121.7,252z"/>
		<path class="st2" d="M129.1,252v-8.4h4.9v1.5h-3.3v1.8h2.7v1.5h-2.7v3.5L129.1,252L129.1,252z"/>
		<path class="st2" d="M136.5,252v-8.4h1.5v8.4H136.5z"/>
		<path class="st2" d="M140.7,248.7v-1.8c0-1.9,1.1-3.5,3-3.5c1.5,0,2.7,0.9,2.9,2.4l-1.5,0.3c-0.2-0.7-0.8-1-1.4-1
			c-1.1,0-1.5,0.9-1.5,1.9v1.4c0,1.3,0.3,2.2,1.5,2.2c0.8,0,1.4-0.5,1.5-1.2l1.5,0.1c-0.1,1.6-1.4,2.7-3,2.7
			C141.8,252.1,140.7,250.8,140.7,248.7z"/>
		<path class="st2" d="M149.2,252v-8.4h5v1.5h-3.6v1.9h2.6v1.5h-2.6v2h3.7v1.5H149.2z"/>
	</g>
</g>
<line class="st3" x1="0.7" y1="113.1" x2="52.8" y2="113.1"/>
<line class="st3" x1="0.7" y1="118.6" x2="52.8" y2="118.6"/>
<line class="st3" x1="0.7" y1="124.6" x2="52.8" y2="124.6"/>
<line class="st4" x1="0.7" y1="130.6" x2="52.8" y2="130.6"/>
<line class="st3" x1="0.7" y1="136.8" x2="52.8" y2="136.8"/>
<line class="st3" x1="0.7" y1="142" x2="52.8" y2="142"/>
<line class="st5" x1="1.1" y1="147.7" x2="52.3" y2="147.7"/>
<line class="st5" x1="0.7" y1="154" x2="52.8" y2="154"/>
<line class="st6" x1="787.1" y1="218.2" x2="787.1" y2="272.1"/>
<line class="st6" x1="780.7" y1="244.9" x2="780.7" y2="272.1"/>
<line class="st6" x1="793" y1="217.9" x2="793" y2="271.9"/>
<line class="st6" x1="798.5" y1="217.9" x2="798.5" y2="271.9"/>
<line class="st6" x1="804.1" y1="217.9" x2="804.1" y2="272.1"/>
<line class="st6" x1="810" y1="217.9" x2="810" y2="272.1"/>
<line class="st7" x1="821.4" y1="217.9" x2="821.4" y2="244.9"/>
<line class="st7" x1="826.5" y1="217.9" x2="826.5" y2="244.9"/>
<line class="st7" x1="815.6" y1="217.9" x2="815.6" y2="244.9"/>
<line class="st8" x1="780.7" y1="244.9" x2="826.7" y2="244.9"/>
<line class="st9" x1="754.5" y1="190.8" x2="780.7" y2="190.8"/>
<line class="st9" x1="754.5" y1="197.2" x2="780.7" y2="197.2"/>
<line class="st9" x1="754.5" y1="203.1" x2="780.7" y2="203.1"/>
<line class="st9" x1="754.5" y1="208.5" x2="780.7" y2="208.5"/>
<line class="st10" x1="755" y1="276.2" x2="778.3" y2="276.2"/>
<line class="st10" x1="754.5" y1="281.5" x2="777.8" y2="281.5"/>
<polyline class="st8" points="19.3,41 13.8,41 13.8,86 0.7,86 0.7,185.8 138.6,185.8 138.6,191 754.5,191 754.5,291.6 "/>
<polyline class="st8" points="448.6,151.5 448.6,161 436.6,161 436.6,7.9 "/>
<line class="st8" x1="418.7" y1="8" x2="450.1" y2="8"/>
<polyline class="st8" points="478.6,7.9 478.6,20.4 500.4,20.4 "/>
<polyline class="st8" points="358.8,8 374.5,8 390.1,8 "/>
<line class="st8" x1="374.5" y1="8" x2="374.5" y2="161"/>
<polyline class="st8" points="354.1,151.9 354.1,161 401.5,161 401.5,151.9 "/>
<path class="st8" d="M296.3,5.2c0,0-0.2,15,0,15.2s15.3,0,15.3,0V142h-13.9v19h-27.3v-21.4"/>
<polyline class="st8" points="288.1,5.2 246.9,5.2 246.9,161 224.9,161 224.9,151.5 "/>
<line class="st8" x1="226.9" y1="8.3" x2="246.9" y2="8.3"/>
<polyline class="st8" points="109.5,8.3 117.5,8.3 138.5,8.3 "/>
<polyline class="st8" points="117.5,8.3 117.5,155.8 104.3,155.8 104.3,145.8 "/>
<polyline class="st8" points="139.9,147 139.9,155.8 117.5,155.8 "/>
<polyline class="st8" points="13.8,86 52.8,86 52.8,137 71.1,137 71.1,156.7 "/>
<polyline class="st8" points="50.2,3.9 50.2,20.8 71.7,20.8 71.7,8.3 79.5,8.3 "/>
<polyline class="st8" points="166.8,8.3 166.8,20.8 182.1,20.8 191.6,20.8 191.6,8.3 197.4,8.3 "/>
<polyline class="st8" points="172.1,161 172.1,134.5 182.1,134.5 182.1,20.8 "/>
<polyline class="st8" points="191.7,161 191.7,134.5 182.1,134.5 "/>
<line class="st8" x1="50.6" y1="3.9" x2="40.4" y2="3.9"/>
<path class="st8" d="M15,41c0-0.2-0.1-5.3-0.1-11.5"/>
<polyline class="st8" points="329.5,8.3 323.2,8.3 323.1,20.4 311.6,20.4 "/>
<polyline class="st8" points="320.5,161 320.5,142 311.6,142 "/>
<line class="st8" x1="26.2" y1="111.3" x2="26.2" y2="154.2"/>
<line class="st8" x1="52.8" y1="156.3" x2="52.8" y2="136.8"/>
<polygon class="st1" points="500.4,8 664.9,8 664.9,20 690.3,20 690.3,8 832,8 832,20.4 851.2,20.4 851.2,142.2 835.5,142.2 
	835.5,160 689,160 689,141.4 675.8,141.4 675.8,91.9 597.9,91.9 597.9,86.1 563.5,86.1 563.5,56.8 500.4,56.8 "/>
<rect x="37.2" y="238.1" class="st11" width="18" height="18"/>
<g>
	<g>
		<path class="st2" d="M67.9,276.9v-5.1h1.5v5.1c0,1,0.5,1.8,1.5,1.8s1.5-0.8,1.5-1.8v-5.1H74v5.1c0,1.8-1,3.4-3,3.4
			C68.9,280.3,67.9,278.7,67.9,276.9z"/>
		<path class="st2" d="M82.7,273.2h-2.4v6.9h-1.5v-6.9h-2.4v-1.5h6.2v1.5H82.7z"/>
		<path class="st2" d="M85.1,280.2v-8.4h1.5v8.4H85.1z"/>
		<path class="st2" d="M89.5,280.2v-8.4H91v6.9h3.3v1.5H89.5z"/>
		<path class="st2" d="M96.9,280.2v-8.4h1.5v8.4H96.9z"/>
		<path class="st2" d="M107.1,273.2h-2.4v6.9h-1.5v-6.9h-2.4v-1.5h6.2v1.5H107.1z"/>
		<path class="st2" d="M111.5,280.2v-3.3l-2.4-5.1h1.7l1.5,3.2l1.5-3.2h1.7l-2.4,5.1v3.3H111.5z"/>
		<path class="st2" d="M126.1,280.2l-0.5-1.6h-2.9l-0.5,1.6h-1.6l2.7-8.4h1.7l2.7,8.4H126.1z M123.2,277h2l-1-3.2L123.2,277z"/>
		<path class="st2" d="M136.1,280.2h-1.7l-1.4-3c-0.1,0-0.3,0-0.4,0h-1v3h-1.5v-8.4h2.9c2,0,2.7,1.3,2.7,2.7c0,1.1-0.4,1.8-1.1,2.3
			L136.1,280.2z M131.6,275.6h1.4c0.9,0,1.1-0.7,1.1-1.2c0-0.7-0.5-1.2-1.1-1.2h-1.4V275.6z"/>
		<path class="st2" d="M138.6,280.2v-8.4h5v1.5H140v1.9h2.6v1.5H140v2h3.7v1.5H138.6z"/>
		<path class="st2" d="M151.5,280.2l-0.5-1.6h-2.9l-0.5,1.6H146l2.7-8.4h1.7l2.7,8.4H151.5z M148.6,277h2l-1-3.2L148.6,277z"/>
	</g>
</g>
<rect x="37.2" y="266.1" class="st12" width="18" height="18"/>
<g>
	<polygon class="st2" points="274.7,77.8 274.7,81.8 275.7,81.8 275.7,89 276.5,89 276.5,81.8 277.5,81.8 277.5,77.8 278.2,71.8 
		274,71.8 	"/>
	<rect x="275.5" y="69.6" class="st2" width="1.2" height="1.2"/>
</g>
<g>
	<polygon class="st2" points="286.2,81.7 284,75.6 284,71.7 281.2,71.7 281.2,75.6 279,81.7 282.2,81.7 282.2,89 283,89 283,81.7 	
		"/>
	<rect x="282" y="69.6" class="st2" width="1.2" height="1.2"/>
</g>
<line class="st13" x1="71.2" y1="155.6" x2="104.7" y2="155.6"/>
<line class="st13" x1="138.2" y1="155.6" x2="171.7" y2="155.6"/>
<line class="st13" x1="191.2" y1="159.6" x2="224.7" y2="159.6"/>
<line class="st13" x1="320.2" y1="159.6" x2="353.7" y2="159.6"/>
<line class="st13" x1="402.2" y1="159.6" x2="435.7" y2="159.6"/>
<line class="st13" x1="449.2" y1="159.6" x2="482.7" y2="159.6"/>
<line class="st13" x1="197.3" y1="8.2" x2="227.5" y2="8.2"/>
<line class="st13" x1="212.4" y1="7.2" x2="212.4" y2="9.3"/>
<line class="st13" x1="137.8" y1="8.2" x2="167.9" y2="8.2"/>
<line class="st13" x1="152.9" y1="7.2" x2="152.9" y2="9.3"/>
<line class="st13" x1="79.5" y1="8.2" x2="109.6" y2="8.2"/>
<line class="st13" x1="94.5" y1="7.2" x2="94.5" y2="9.3"/>
<line class="st13" x1="328" y1="8.2" x2="358.1" y2="8.2"/>
<line class="st13" x1="343.1" y1="7.2" x2="343.1" y2="9.3"/>
<line class="st13" x1="388.5" y1="8.2" x2="418.7" y2="8.2"/>
<line class="st13" x1="403.6" y1="7.2" x2="403.6" y2="9.3"/>
<line class="st13" x1="448.6" y1="8.2" x2="478.7" y2="8.2"/>
<line class="st13" x1="463.7" y1="7.2" x2="463.7" y2="9.3"/>
<path class="st13" d="M13.4,41.5h5.1V21.8c0-9.9,8-17.9,17.9-17.9h13.8v18.2"/>
<line class="st13" x1="285.6" y1="5.7" x2="296.5" y2="5.7"/>
<g>
	<g>
		<g>
			<path class="st2" d="M643.5,122.8v-8.4h5v1.5H645v1.9h2.6v1.5H645v2h3.7v1.5H643.5z"/>
			<path class="st2" d="M653.5,122.8l-2.7-8.4h1.7l1.8,6.1l1.8-6.1h1.7l-2.7,8.4H653.5z"/>
		</g>
	</g>
</g>
<line class="st13" x1="525.4" y1="135.4" x2="525.4" y2="157.6"/>
<line class="st13" x1="500.8" y1="119.2" x2="534.3" y2="119.2"/>
<path class="st8" d="M778.3,290.7v-18.4h72.9c0,0,0-54.1,0-54.3s-70.5,0-70.5,0v-26.7h0.6h23.5V160h30.6v-17.8h15.8V20.4H832V8h-9.2
	"/>
<polyline class="st8" points="736.3,8 764.2,8 793.1,8 "/>
<polyline class="st8" points="764.2,8 764.2,160 722.3,160 722.3,151.1 "/>
<polyline class="st8" points="800.2,151.7 800.2,160 804.9,160 "/>
<polyline class="st8" points="638.9,161 624.7,161 624.7,130.2 "/>
<polyline class="st8" points="652.2,8 664.9,8 664.9,20 676.1,20 676.1,141.4 689,141.4 689,162.1 "/>
<path class="st8" d="M654.4,161h13.9c0,0,0-19.1,0-19.7"/>
<line class="st8" x1="624.7" y1="141.4" x2="676.1" y2="141.4"/>
<polyline class="st8" points="594.2,86.1 597.9,86.1 597.9,91.9 676.1,91.9 "/>
<line class="st8" x1="624.7" y1="104.9" x2="624.7" y2="91.9"/>
<line class="st8" x1="565.5" y1="7.9" x2="623.4" y2="7.9"/>
<polyline class="st8" points="550.1,161 563.5,161 563.5,56.8 500.4,56.8 "/>
<line class="st8" x1="524.5" y1="86.1" x2="563.5" y2="86.1"/>
<line class="st8" x1="521.3" y1="119.2" x2="563.5" y2="119.2"/>
<line class="st8" x1="525.4" y1="136.6" x2="525.4" y2="119.2"/>
<polyline class="st8" points="525.4,155.8 525.4,161 537.8,161 "/>
<polyline class="st8" points="482.6,155 482.6,161 500.4,161 500.4,56.6 500.4,8 536.6,8 "/>
<polyline class="st8" points="707.1,8 690.2,8 690.3,20 676.2,20 "/>
<line class="st13" x1="562.3" y1="86.9" x2="595.8" y2="86.9"/>
<line class="st13" x1="689" y1="159.6" x2="722.5" y2="159.6"/>
<line class="st13" x1="764.5" y1="159.6" x2="799.3" y2="159.6"/>
<line class="st13" x1="535.3" y1="8.2" x2="565.5" y2="8.2"/>
<line class="st13" x1="550.4" y1="7.2" x2="550.4" y2="9.3"/>
<line class="st13" x1="622" y1="8.2" x2="652.2" y2="8.2"/>
<line class="st13" x1="637.1" y1="7.2" x2="637.1" y2="9.3"/>
<line class="st13" x1="707.1" y1="8.2" x2="737.2" y2="8.2"/>
<line class="st13" x1="722.1" y1="7.2" x2="722.1" y2="9.3"/>
<line class="st13" x1="793.1" y1="8.2" x2="823.3" y2="8.2"/>
<line class="st13" x1="808.2" y1="7.2" x2="808.2" y2="9.3"/>
</svg>
