<?xml version="1.0" encoding="utf-8"?>
<!-- Generator: Adobe Illustrator 26.3.1, SVG Export Plug-In . SVG Version: 6.00 Build 0)  -->
<svg version="1.1" id="レイヤー_1" xmlns="http://www.w3.org/2000/svg" xmlns:xlink="http://www.w3.org/1999/xlink" x="0px"
	 y="0px" width="258px" height="486px" viewBox="0 0 258 486" style="enable-background:new 0 0 258 486;" xml:space="preserve">
<style type="text/css">
	.st0{fill:#7A805F;}
	.st1{fill:#FFFFFF;}
	.st2{fill:none;stroke:#7A805F;stroke-width:1.2747;stroke-miterlimit:10;}
</style>
<g>
	<g>
		<path class="st0" d="M9.1,435.1h1.7c0.1,0,0.2,0.1,0.2,0.2v9.5c0,0.1-0.1,0.2-0.2,0.2H9.1c-0.1,0-0.2-0.1-0.2-0.2v-7.7
			c0,0,0-0.1-0.1-0.1l-1.4,0.4c-0.1,0-0.2,0-0.2-0.1l0-1.2c0-0.1,0-0.2,0.1-0.2l1.5-0.7C8.9,435.1,9,435.1,9.1,435.1z"/>
		<path class="st0" d="M20.6,436.8H16c0,0-0.1,0-0.1,0.1v2.2c0,0,0,0.1,0.1,0.1h3c0.1,0,0.2,0.1,0.2,0.2v1.4c0,0.1-0.1,0.2-0.2,0.2
			h-3c0,0-0.1,0-0.1,0.1v3.9c0,0.1-0.1,0.2-0.2,0.2h-1.6c-0.1,0-0.2-0.1-0.2-0.2v-9.5c0-0.1,0.1-0.2,0.2-0.2h6.4
			c0.1,0,0.2,0.1,0.2,0.2v1.4C20.8,436.8,20.7,436.8,20.6,436.8z"/>
	</g>
</g>
<g>
	<g>
		<path class="st0" d="M46.5,444.7l-1.8-3.9c0,0-0.1-0.1-0.1-0.1h-1.3c0,0-0.1,0-0.1,0.1v3.8c0,0.1-0.1,0.2-0.2,0.2h-1.6
			c-0.1,0-0.2-0.1-0.2-0.2v-9.5c0-0.1,0.1-0.2,0.2-0.2h4c1.8,0,3,1.2,3,3c0,1.3-0.7,2.2-1.8,2.6c0,0-0.1,0.1,0,0.1l1.9,4
			c0.1,0.1,0,0.2-0.1,0.2h-1.7C46.6,444.8,46.6,444.8,46.5,444.7z M43.3,436.8v2.4c0,0,0,0.1,0.1,0.1h1.8c0.8,0,1.3-0.5,1.3-1.3
			c0-0.8-0.5-1.3-1.3-1.3L43.3,436.8C43.3,436.7,43.3,436.7,43.3,436.8z"/>
		<path class="st0" d="M57.8,436.7h-4.6c0,0-0.1,0-0.1,0.1v2.2c0,0,0,0.1,0.1,0.1h3c0.1,0,0.2,0.1,0.2,0.2v1.4
			c0,0.1-0.1,0.2-0.2,0.2h-3c0,0-0.1,0-0.1,0.1v2.3c0,0,0,0.1,0.1,0.1h4.6c0.1,0,0.2,0.1,0.2,0.2v1.4c0,0.1-0.1,0.2-0.2,0.2h-6.5
			c-0.1,0-0.2-0.1-0.2-0.2v-9.5c0-0.1,0.1-0.2,0.2-0.2h6.5c0.1,0,0.2,0.1,0.2,0.2v1.4C58,436.6,57.9,436.7,57.8,436.7z"/>
		<path class="st0" d="M60.3,441.5v-3.2c0-2,1.4-3.4,3.6-3.4c2.2,0,3.6,1.3,3.6,3.2c0,0.1-0.1,0.1-0.2,0.2l-1.6,0.1
			c-0.1,0-0.2,0-0.2-0.2c0-1-0.7-1.6-1.7-1.6c-1,0-1.7,0.7-1.7,1.6v3.4c0,1,0.7,1.6,1.7,1.6c1,0,1.7-0.7,1.7-1.6
			c0-0.1,0.1-0.2,0.2-0.2l1.6,0.1c0.1,0,0.2,0.1,0.2,0.1c0,2-1.5,3.3-3.6,3.3C61.7,444.9,60.3,443.5,60.3,441.5z"/>
		<path class="st0" d="M76.8,436.7h-4.6c0,0-0.1,0-0.1,0.1v2.2c0,0,0,0.1,0.1,0.1h3c0.1,0,0.2,0.1,0.2,0.2v1.4
			c0,0.1-0.1,0.2-0.2,0.2h-3c0,0-0.1,0-0.1,0.1v2.3c0,0,0,0.1,0.1,0.1h4.6c0.1,0,0.2,0.1,0.2,0.2v1.4c0,0.1-0.1,0.2-0.2,0.2h-6.5
			c-0.1,0-0.2-0.1-0.2-0.2v-9.5c0-0.1,0.1-0.2,0.2-0.2h6.5c0.1,0,0.2,0.1,0.2,0.2v1.4C76.9,436.6,76.9,436.7,76.8,436.7z"/>
		<path class="st0" d="M86.8,438c0,1.8-1.3,3-3.2,3h-2c0,0-0.1,0-0.1,0.1v3.6c0,0.1-0.1,0.2-0.2,0.2h-1.6c-0.1,0-0.2-0.1-0.2-0.2
			v-9.5c0-0.1,0.1-0.2,0.2-0.2h3.9C85.6,435,86.8,436.2,86.8,438z M84.8,438.1c0-0.8-0.6-1.4-1.4-1.4h-1.8c0,0-0.1,0-0.1,0.1v2.6
			c0,0,0,0.1,0.1,0.1h1.8C84.2,439.4,84.8,438.9,84.8,438.1z"/>
		<path class="st0" d="M96.3,435.2v1.4c0,0.1-0.1,0.2-0.2,0.2h-2.5c0,0-0.1,0-0.1,0.1v7.9c0,0.1-0.1,0.2-0.2,0.2h-1.6
			c-0.1,0-0.2-0.1-0.2-0.2v-7.9c0,0,0-0.1-0.1-0.1h-2.4c-0.1,0-0.2-0.1-0.2-0.2v-1.4c0-0.1,0.1-0.2,0.2-0.2h7.1
			C96.3,435,96.3,435.1,96.3,435.2z"/>
		<path class="st0" d="M98.9,444.6v-9.5c0-0.1,0.1-0.2,0.2-0.2h1.6c0.1,0,0.2,0.1,0.2,0.2v9.5c0,0.1-0.1,0.2-0.2,0.2H99
			C98.9,444.8,98.9,444.7,98.9,444.6z"/>
		<path class="st0" d="M103.6,441.4v-3c0-2.1,1.5-3.5,3.7-3.5c2.2,0,3.7,1.4,3.7,3.5v3c0,2.1-1.5,3.6-3.7,3.6
			C105.1,445,103.6,443.5,103.6,441.4z M109,441.5v-3.1c0-1.1-0.7-1.8-1.7-1.8c-1,0-1.7,0.7-1.7,1.8v3.1c0,1.1,0.7,1.8,1.7,1.8
			C108.3,443.3,109,442.5,109,441.5z"/>
		<path class="st0" d="M119.6,435h1.6c0.1,0,0.2,0.1,0.2,0.2v9.5c0,0.1-0.1,0.2-0.2,0.2h-1.8c-0.1,0-0.2,0-0.2-0.1l-3.4-5.9
			c0-0.1-0.1,0-0.1,0l0,5.9c0,0.1-0.1,0.2-0.2,0.2h-1.6c-0.1,0-0.2-0.1-0.2-0.2v-9.5c0-0.1,0.1-0.2,0.2-0.2h1.8c0.1,0,0.2,0,0.2,0.1
			l3.4,5.9c0,0.1,0.1,0,0.1,0v-5.9C119.4,435.1,119.5,435,119.6,435z"/>
	</g>
</g>
<g>
	<g>
		<path class="st0" d="M41,126.4V126c0-0.1,0.1-0.2,0.2-0.2h1.6c0.1,0,0.2,0.1,0.2,0.2v0.2c0,0.7,0.7,1.3,1.9,1.3
			c1.1,0,1.5-0.5,1.5-1.1c0-0.7-0.7-1-2.1-1.5c-1.5-0.5-3.1-1.2-3.1-3c0-1.7,1.4-2.8,3.4-2.8c2.1,0,3.7,1.2,3.7,3v0.2
			c0,0.1-0.1,0.2-0.2,0.2h-1.6c-0.1,0-0.2-0.1-0.2-0.2v-0.1c0-0.7-0.6-1.4-1.8-1.4c-0.9,0-1.4,0.4-1.4,1.1c0,0.7,0.6,1,2.2,1.5
			c1.3,0.5,3,1,3,2.9c0,1.8-1.4,2.8-3.6,2.8C42.5,129.3,41,128.1,41,126.4z"/>
		<path class="st0" d="M57.4,119.4h1.6c0.1,0,0.2,0.1,0.2,0.2v9.5c0,0.1-0.1,0.2-0.2,0.2h-1.6c-0.1,0-0.2-0.1-0.2-0.2v-6.1
			c0-0.1-0.1-0.1-0.1,0l-1.5,2.4c0,0.1-0.1,0.1-0.2,0.1h-0.8c-0.1,0-0.2,0-0.2-0.1l-1.5-2.4c0-0.1-0.1,0-0.1,0v6.1
			c0,0.1-0.1,0.2-0.2,0.2h-1.6c-0.1,0-0.2-0.1-0.2-0.2v-9.5c0-0.1,0.1-0.2,0.2-0.2h1.6c0.1,0,0.2,0,0.2,0.1l2.1,3.3
			c0,0.1,0.1,0.1,0.1,0l2.1-3.3C57.3,119.4,57.3,119.4,57.4,119.4z"/>
		<path class="st0" d="M68.2,129l-0.4-1.4c0,0,0-0.1-0.1-0.1h-3.4c0,0-0.1,0-0.1,0.1l-0.4,1.4c0,0.1-0.1,0.1-0.2,0.1h-1.8
			c-0.1,0-0.2-0.1-0.1-0.2l3-9.5c0-0.1,0.1-0.1,0.2-0.1h2.2c0.1,0,0.2,0.1,0.2,0.1l3,9.5c0,0.1,0,0.2-0.1,0.2h-1.8
			C68.3,129.2,68.3,129.1,68.2,129z M64.8,126.1h2.5c0,0,0.1,0,0.1-0.1l-1.3-4.2c0-0.1-0.1-0.1-0.1,0L64.8,126.1
			C64.7,126,64.8,126.1,64.8,126.1z"/>
		<path class="st0" d="M72.9,129v-9.5c0-0.1,0.1-0.2,0.2-0.2h1.6c0.1,0,0.2,0.1,0.2,0.2v7.9c0,0,0,0.1,0.1,0.1h4.6
			c0.1,0,0.2,0.1,0.2,0.2v1.4c0,0.1-0.1,0.2-0.2,0.2H73C72.9,129.2,72.9,129.1,72.9,129z"/>
		<path class="st0" d="M82.2,129v-9.5c0-0.1,0.1-0.2,0.2-0.2H84c0.1,0,0.2,0.1,0.2,0.2v7.9c0,0,0,0.1,0.1,0.1h4.6
			c0.1,0,0.2,0.1,0.2,0.2v1.4c0,0.1-0.1,0.2-0.2,0.2h-6.5C82.3,129.2,82.2,129.1,82.2,129z"/>
		<path class="st0" d="M95.4,125.8v-3c0-2.1,1.5-3.5,3.7-3.5s3.7,1.4,3.7,3.5v3c0,2.1-1.5,3.6-3.7,3.6S95.4,127.9,95.4,125.8z
			 M100.8,125.8v-3.1c0-1.1-0.7-1.8-1.7-1.8c-1,0-1.7,0.7-1.7,1.8v3.1c0,1.1,0.7,1.8,1.7,1.8C100.1,127.6,100.8,126.9,100.8,125.8z"
			/>
		<path class="st0" d="M112.2,121.1h-4.6c0,0-0.1,0-0.1,0.1v2.2c0,0,0,0.1,0.1,0.1h3c0.1,0,0.2,0.1,0.2,0.2v1.4
			c0,0.1-0.1,0.2-0.2,0.2h-3c0,0-0.1,0-0.1,0.1v3.9c0,0.1-0.1,0.2-0.2,0.2h-1.6c-0.1,0-0.2-0.1-0.2-0.2v-9.5c0-0.1,0.1-0.2,0.2-0.2
			h6.4c0.1,0,0.2,0.1,0.2,0.2v1.4C112.3,121,112.3,121.1,112.2,121.1z"/>
		<path class="st0" d="M121.5,121.1h-4.6c0,0-0.1,0-0.1,0.1v2.2c0,0,0,0.1,0.1,0.1h3c0.1,0,0.2,0.1,0.2,0.2v1.4
			c0,0.1-0.1,0.2-0.2,0.2h-3c0,0-0.1,0-0.1,0.1v3.9c0,0.1-0.1,0.2-0.2,0.2h-1.6c-0.1,0-0.2-0.1-0.2-0.2v-9.5c0-0.1,0.1-0.2,0.2-0.2
			h6.4c0.1,0,0.2,0.1,0.2,0.2v1.4C121.7,121,121.6,121.1,121.5,121.1z"/>
		<path class="st0" d="M124.2,129v-9.5c0-0.1,0.1-0.2,0.2-0.2h1.6c0.1,0,0.2,0.1,0.2,0.2v9.5c0,0.1-0.1,0.2-0.2,0.2h-1.6
			C124.3,129.2,124.2,129.1,124.2,129z"/>
		<path class="st0" d="M129,125.9v-3.2c0-2,1.4-3.4,3.6-3.4c2.2,0,3.6,1.3,3.6,3.2c0,0.1-0.1,0.1-0.2,0.2l-1.6,0.1
			c-0.1,0-0.2,0-0.2-0.2c0-1-0.7-1.6-1.7-1.6c-1,0-1.7,0.7-1.7,1.6v3.4c0,1,0.7,1.6,1.7,1.6c1,0,1.7-0.7,1.7-1.6
			c0-0.1,0.1-0.2,0.2-0.2l1.6,0.1c0.1,0,0.2,0.1,0.2,0.1c0,2-1.5,3.3-3.6,3.3C130.4,129.3,129,127.9,129,125.9z"/>
		<path class="st0" d="M145.4,121.1h-4.6c0,0-0.1,0-0.1,0.1v2.2c0,0,0,0.1,0.1,0.1h3c0.1,0,0.2,0.1,0.2,0.2v1.4
			c0,0.1-0.1,0.2-0.2,0.2h-3c0,0-0.1,0-0.1,0.1v2.3c0,0,0,0.1,0.1,0.1h4.6c0.1,0,0.2,0.1,0.2,0.2v1.4c0,0.1-0.1,0.2-0.2,0.2H139
			c-0.1,0-0.2-0.1-0.2-0.2v-9.5c0-0.1,0.1-0.2,0.2-0.2h6.5c0.1,0,0.2,0.1,0.2,0.2v1.4C145.6,121,145.5,121.1,145.4,121.1z"/>
		<path class="st0" d="M50.8,135.7h1.7c0.1,0,0.2,0.1,0.2,0.2l-2.3,9.5c0,0.1-0.1,0.1-0.2,0.1h-1.7c-0.1,0-0.2,0-0.2-0.1l-1.4-6.1
			c0-0.1-0.1-0.1-0.1,0l-1.3,6.1c0,0.1-0.1,0.2-0.2,0.2h-1.6c-0.1,0-0.2,0-0.2-0.1l-2.5-9.5c0-0.1,0-0.2,0.1-0.2h1.7
			c0.1,0,0.2,0,0.2,0.1l1.3,5.7c0,0.1,0.1,0.1,0.1,0l1.3-5.7c0-0.1,0.1-0.2,0.2-0.2h1.7c0.1,0,0.2,0,0.2,0.1l1.4,5.7
			c0,0.1,0.1,0.1,0.1,0l1.3-5.7C50.6,135.7,50.7,135.7,50.8,135.7z"/>
		<path class="st0" d="M61.7,137.4h-4.6c0,0-0.1,0-0.1,0.1v2.2c0,0,0,0.1,0.1,0.1h3c0.1,0,0.2,0.1,0.2,0.2v1.4
			c0,0.1-0.1,0.2-0.2,0.2h-3c0,0-0.1,0-0.1,0.1v2.3c0,0,0,0.1,0.1,0.1h4.6c0.1,0,0.2,0.1,0.2,0.2v1.4c0,0.1-0.1,0.2-0.2,0.2h-6.5
			c-0.1,0-0.2-0.1-0.2-0.2v-9.5c0-0.1,0.1-0.2,0.2-0.2h6.5c0.1,0,0.2,0.1,0.2,0.2v1.4C61.9,137.3,61.8,137.4,61.7,137.4z"/>
		<path class="st0" d="M70.3,140.4c0.9,0.5,1.3,1.2,1.3,2.3c0,1.9-1.5,2.7-3.3,2.7h-3.6c-0.1,0-0.2-0.1-0.2-0.2v-9.5
			c0-0.1,0.1-0.2,0.2-0.2h3.5c2.1,0,3.3,0.8,3.3,2.7C71.5,139.3,71.1,140,70.3,140.4C70.3,140.4,70.3,140.4,70.3,140.4z M66.5,137.4
			v2.2c0,0,0,0.1,0.1,0.1h1.6c0.9,0,1.4-0.4,1.4-1.1c0-0.7-0.5-1.2-1.4-1.2L66.5,137.4C66.5,137.4,66.5,137.4,66.5,137.4z
			 M69.7,142.5c0-0.8-0.5-1.2-1.4-1.2h-1.7c0,0-0.1,0-0.1,0.1v2.3c0,0,0,0.1,0.1,0.1h1.8C69.2,143.8,69.7,143.3,69.7,142.5z"/>
		<path class="st0" d="M84.5,140.4c0.9,0.5,1.3,1.2,1.3,2.3c0,1.9-1.5,2.7-3.3,2.7h-3.6c-0.1,0-0.2-0.1-0.2-0.2v-9.5
			c0-0.1,0.1-0.2,0.2-0.2h3.5c2.1,0,3.3,0.8,3.3,2.7C85.7,139.3,85.2,140,84.5,140.4C84.4,140.4,84.4,140.4,84.5,140.4z M80.6,137.4
			v2.2c0,0,0,0.1,0.1,0.1h1.6c0.9,0,1.4-0.4,1.4-1.1c0-0.7-0.5-1.2-1.4-1.2L80.6,137.4C80.7,137.4,80.6,137.4,80.6,137.4z
			 M83.8,142.5c0-0.8-0.5-1.2-1.4-1.2h-1.7c0,0-0.1,0-0.1,0.1v2.3c0,0,0,0.1,0.1,0.1h1.8C83.3,143.8,83.8,143.3,83.8,142.5z"/>
		<path class="st0" d="M88.3,142.1v-3c0-2.1,1.5-3.5,3.7-3.5s3.7,1.4,3.7,3.5v3c0,2.1-1.5,3.6-3.7,3.6S88.3,144.2,88.3,142.1z
			 M93.7,142.1v-3.1c0-1.1-0.7-1.8-1.7-1.8c-1,0-1.7,0.7-1.7,1.8v3.1c0,1.1,0.7,1.8,1.7,1.8C93,143.9,93.7,143.2,93.7,142.1z"/>
		<path class="st0" d="M98.1,142.1v-3c0-2.1,1.5-3.5,3.7-3.5s3.7,1.4,3.7,3.5v3c0,2.1-1.5,3.6-3.7,3.6S98.1,144.2,98.1,142.1z
			 M103.6,142.1v-3.1c0-1.1-0.7-1.8-1.7-1.8c-1,0-1.7,0.7-1.7,1.8v3.1c0,1.1,0.7,1.8,1.7,1.8C102.9,143.9,103.6,143.2,103.6,142.1z"
			/>
		<path class="st0" d="M115.1,135.8v1.4c0,0.1-0.1,0.2-0.2,0.2h-2.5c0,0-0.1,0-0.1,0.1v7.9c0,0.1-0.1,0.2-0.2,0.2h-1.6
			c-0.1,0-0.2-0.1-0.2-0.2v-7.9c0,0,0-0.1-0.1-0.1h-2.4c-0.1,0-0.2-0.1-0.2-0.2v-1.4c0-0.1,0.1-0.2,0.2-0.2h7.1
			C115.1,135.7,115.1,135.7,115.1,135.8z"/>
		<path class="st0" d="M123,135.7h1.6c0.1,0,0.2,0.1,0.2,0.2v9.5c0,0.1-0.1,0.2-0.2,0.2H123c-0.1,0-0.2-0.1-0.2-0.2v-3.9
			c0,0,0-0.1-0.1-0.1h-3.1c0,0-0.1,0-0.1,0.1v3.9c0,0.1-0.1,0.2-0.2,0.2h-1.6c-0.1,0-0.2-0.1-0.2-0.2v-9.5c0-0.1,0.1-0.2,0.2-0.2
			h1.6c0.1,0,0.2,0.1,0.2,0.2v3.8c0,0,0,0.1,0.1,0.1h3.1c0,0,0.1,0,0.1-0.1v-3.8C122.8,135.7,122.9,135.7,123,135.7z"/>
	</g>
</g>
<g>
	<g>
		<path class="st0" d="M38,181.4v-0.3c0-0.1,0.1-0.2,0.2-0.2h1.6c0.1,0,0.2,0.1,0.2,0.2v0.2c0,0.7,0.7,1.3,1.9,1.3
			c1.1,0,1.5-0.5,1.5-1.1c0-0.7-0.7-1-2.1-1.5c-1.5-0.5-3.1-1.2-3.1-3c0-1.7,1.4-2.8,3.4-2.8c2.1,0,3.7,1.2,3.7,3v0.2
			c0,0.1-0.1,0.2-0.2,0.2h-1.6c-0.1,0-0.2-0.1-0.2-0.2v-0.1c0-0.7-0.6-1.4-1.8-1.4c-0.9,0-1.4,0.4-1.4,1.1c0,0.7,0.6,1,2.2,1.5
			c1.3,0.5,3,1,3,2.9c0,1.8-1.4,2.8-3.6,2.8C39.5,184.3,38,183.2,38,181.4z"/>
		<path class="st0" d="M54.4,174.4h1.6c0.1,0,0.2,0.1,0.2,0.2v9.5c0,0.1-0.1,0.2-0.2,0.2h-1.6c-0.1,0-0.2-0.1-0.2-0.2v-6.1
			c0-0.1-0.1-0.1-0.1,0l-1.5,2.4c0,0.1-0.1,0.1-0.2,0.1h-0.8c-0.1,0-0.2,0-0.2-0.1l-1.5-2.4c0-0.1-0.1,0-0.1,0v6.1
			c0,0.1-0.1,0.2-0.2,0.2h-1.6c-0.1,0-0.2-0.1-0.2-0.2v-9.5c0-0.1,0.1-0.2,0.2-0.2h1.6c0.1,0,0.2,0,0.2,0.1l2.1,3.3
			c0,0.1,0.1,0.1,0.1,0l2.1-3.3C54.3,174.4,54.3,174.4,54.4,174.4z"/>
		<path class="st0" d="M65.2,184l-0.4-1.4c0,0,0-0.1-0.1-0.1h-3.4c0,0-0.1,0-0.1,0.1l-0.4,1.4c0,0.1-0.1,0.1-0.2,0.1h-1.8
			c-0.1,0-0.2-0.1-0.1-0.2l3-9.5c0-0.1,0.1-0.1,0.2-0.1h2.2c0.1,0,0.2,0.1,0.2,0.1l3,9.5c0,0.1,0,0.2-0.1,0.2h-1.8
			C65.3,184.2,65.3,184.1,65.2,184z M61.8,181.1h2.5c0,0,0.1,0,0.1-0.1l-1.3-4.2c0-0.1-0.1-0.1-0.1,0L61.8,181.1
			C61.7,181.1,61.8,181.1,61.8,181.1z"/>
		<path class="st0" d="M69.9,184v-9.5c0-0.1,0.1-0.2,0.2-0.2h1.6c0.1,0,0.2,0.1,0.2,0.2v7.9c0,0,0,0.1,0.1,0.1h4.6
			c0.1,0,0.2,0.1,0.2,0.2v1.4c0,0.1-0.1,0.2-0.2,0.2H70C69.9,184.2,69.9,184.1,69.9,184z"/>
		<path class="st0" d="M79.2,184v-9.5c0-0.1,0.1-0.2,0.2-0.2H81c0.1,0,0.2,0.1,0.2,0.2v7.9c0,0,0,0.1,0.1,0.1h4.6
			c0.1,0,0.2,0.1,0.2,0.2v1.4c0,0.1-0.1,0.2-0.2,0.2h-6.5C79.3,184.2,79.2,184.1,79.2,184z"/>
		<path class="st0" d="M92.4,180.8v-3c0-2.1,1.5-3.5,3.7-3.5s3.7,1.4,3.7,3.5v3c0,2.1-1.5,3.6-3.7,3.6S92.4,182.9,92.4,180.8z
			 M97.8,180.9v-3.1c0-1.1-0.7-1.8-1.7-1.8c-1,0-1.7,0.7-1.7,1.8v3.1c0,1.1,0.7,1.8,1.7,1.8C97.1,182.6,97.8,181.9,97.8,180.9z"/>
		<path class="st0" d="M109.2,176.1h-4.6c0,0-0.1,0-0.1,0.1v2.2c0,0,0,0.1,0.1,0.1h3c0.1,0,0.2,0.1,0.2,0.2v1.4
			c0,0.1-0.1,0.2-0.2,0.2h-3c0,0-0.1,0-0.1,0.1v3.9c0,0.1-0.1,0.2-0.2,0.2h-1.6c-0.1,0-0.2-0.1-0.2-0.2v-9.5c0-0.1,0.1-0.2,0.2-0.2
			h6.4c0.1,0,0.2,0.1,0.2,0.2v1.4C109.3,176,109.3,176.1,109.2,176.1z"/>
		<path class="st0" d="M118.5,176.1h-4.6c0,0-0.1,0-0.1,0.1v2.2c0,0,0,0.1,0.1,0.1h3c0.1,0,0.2,0.1,0.2,0.2v1.4
			c0,0.1-0.1,0.2-0.2,0.2h-3c0,0-0.1,0-0.1,0.1v3.9c0,0.1-0.1,0.2-0.2,0.2h-1.6c-0.1,0-0.2-0.1-0.2-0.2v-9.5c0-0.1,0.1-0.2,0.2-0.2
			h6.4c0.1,0,0.2,0.1,0.2,0.2v1.4C118.7,176,118.6,176.1,118.5,176.1z"/>
		<path class="st0" d="M121.2,184v-9.5c0-0.1,0.1-0.2,0.2-0.2h1.6c0.1,0,0.2,0.1,0.2,0.2v9.5c0,0.1-0.1,0.2-0.2,0.2h-1.6
			C121.3,184.2,121.2,184.1,121.2,184z"/>
		<path class="st0" d="M126,180.9v-3.2c0-2,1.4-3.4,3.6-3.4c2.2,0,3.6,1.3,3.6,3.2c0,0.1-0.1,0.1-0.2,0.2l-1.6,0.1
			c-0.1,0-0.2,0-0.2-0.2c0-1-0.7-1.6-1.7-1.6c-1,0-1.7,0.7-1.7,1.6v3.4c0,1,0.7,1.6,1.7,1.6c1,0,1.7-0.7,1.7-1.6
			c0-0.1,0.1-0.2,0.2-0.2l1.6,0.1c0.1,0,0.2,0.1,0.2,0.1c0,2-1.5,3.3-3.6,3.3C127.4,184.3,126,182.9,126,180.9z"/>
		<path class="st0" d="M142.4,176.1h-4.6c0,0-0.1,0-0.1,0.1v2.2c0,0,0,0.1,0.1,0.1h3c0.1,0,0.2,0.1,0.2,0.2v1.4
			c0,0.1-0.1,0.2-0.2,0.2h-3c0,0-0.1,0-0.1,0.1v2.3c0,0,0,0.1,0.1,0.1h4.6c0.1,0,0.2,0.1,0.2,0.2v1.4c0,0.1-0.1,0.2-0.2,0.2H136
			c-0.1,0-0.2-0.1-0.2-0.2v-9.5c0-0.1,0.1-0.2,0.2-0.2h6.5c0.1,0,0.2,0.1,0.2,0.2v1.4C142.6,176,142.5,176.1,142.4,176.1z"/>
	</g>
</g>
<g>
	<g>
		<path class="st0" d="M42,228.4v-0.3c0-0.1,0.1-0.2,0.2-0.2h1.6c0.1,0,0.2,0.1,0.2,0.2v0.2c0,0.7,0.7,1.3,1.9,1.3
			c1.1,0,1.5-0.5,1.5-1.1c0-0.7-0.7-1-2.1-1.5c-1.5-0.5-3.1-1.2-3.1-3c0-1.7,1.4-2.8,3.4-2.8c2.1,0,3.7,1.2,3.7,3v0.2
			c0,0.1-0.1,0.2-0.2,0.2h-1.6c-0.1,0-0.2-0.1-0.2-0.2v-0.1c0-0.7-0.6-1.4-1.8-1.4c-0.9,0-1.4,0.4-1.4,1.1c0,0.7,0.6,1,2.2,1.5
			c1.3,0.5,3,1,3,2.9c0,1.8-1.4,2.8-3.6,2.8C43.5,231.3,42,230.2,42,228.4z"/>
		<path class="st0" d="M58.4,221.4h1.6c0.1,0,0.2,0.1,0.2,0.2v9.5c0,0.1-0.1,0.2-0.2,0.2h-1.6c-0.1,0-0.2-0.1-0.2-0.2v-6.1
			c0-0.1-0.1-0.1-0.1,0l-1.5,2.4c0,0.1-0.1,0.1-0.2,0.1h-0.8c-0.1,0-0.2,0-0.2-0.1l-1.5-2.4c0-0.1-0.1,0-0.1,0v6.1
			c0,0.1-0.1,0.2-0.2,0.2h-1.6c-0.1,0-0.2-0.1-0.2-0.2v-9.5c0-0.1,0.1-0.2,0.2-0.2h1.6c0.1,0,0.2,0,0.2,0.1l2.1,3.3
			c0,0.1,0.1,0.1,0.1,0l2.1-3.3C58.3,221.4,58.3,221.4,58.4,221.4z"/>
		<path class="st0" d="M69.2,231.1l-0.4-1.4c0,0,0-0.1-0.1-0.1h-3.4c0,0-0.1,0-0.1,0.1l-0.4,1.4c0,0.1-0.1,0.1-0.2,0.1h-1.8
			c-0.1,0-0.2-0.1-0.1-0.2l3-9.5c0-0.1,0.1-0.1,0.2-0.1h2.2c0.1,0,0.2,0.1,0.2,0.1l3,9.5c0,0.1,0,0.2-0.1,0.2h-1.8
			C69.3,231.2,69.3,231.2,69.2,231.1z M65.8,228.1h2.5c0,0,0.1,0,0.1-0.1l-1.3-4.2c0-0.1-0.1-0.1-0.1,0L65.8,228.1
			C65.7,228.1,65.8,228.1,65.8,228.1z"/>
		<path class="st0" d="M73.9,231v-9.5c0-0.1,0.1-0.2,0.2-0.2h1.6c0.1,0,0.2,0.1,0.2,0.2v7.9c0,0,0,0.1,0.1,0.1h4.6
			c0.1,0,0.2,0.1,0.2,0.2v1.4c0,0.1-0.1,0.2-0.2,0.2H74C73.9,231.2,73.9,231.1,73.9,231z"/>
		<path class="st0" d="M83.2,231v-9.5c0-0.1,0.1-0.2,0.2-0.2H85c0.1,0,0.2,0.1,0.2,0.2v7.9c0,0,0,0.1,0.1,0.1h4.6
			c0.1,0,0.2,0.1,0.2,0.2v1.4c0,0.1-0.1,0.2-0.2,0.2h-6.5C83.3,231.2,83.2,231.1,83.2,231z"/>
		<path class="st0" d="M96.4,227.8v-3c0-2.1,1.5-3.5,3.7-3.5s3.7,1.4,3.7,3.5v3c0,2.1-1.5,3.6-3.7,3.6S96.4,229.9,96.4,227.8z
			 M101.8,227.9v-3.1c0-1.1-0.7-1.8-1.7-1.8c-1,0-1.7,0.7-1.7,1.8v3.1c0,1.1,0.7,1.8,1.7,1.8C101.1,229.7,101.8,229,101.8,227.9z"/>
		<path class="st0" d="M113.2,223.1h-4.6c0,0-0.1,0-0.1,0.1v2.2c0,0,0,0.1,0.1,0.1h3c0.1,0,0.2,0.1,0.2,0.2v1.4
			c0,0.1-0.1,0.2-0.2,0.2h-3c0,0-0.1,0-0.1,0.1v3.9c0,0.1-0.1,0.2-0.2,0.2h-1.6c-0.1,0-0.2-0.1-0.2-0.2v-9.5c0-0.1,0.1-0.2,0.2-0.2
			h6.4c0.1,0,0.2,0.1,0.2,0.2v1.4C113.3,223,113.3,223.1,113.2,223.1z"/>
		<path class="st0" d="M122.5,223.1h-4.6c0,0-0.1,0-0.1,0.1v2.2c0,0,0,0.1,0.1,0.1h3c0.1,0,0.2,0.1,0.2,0.2v1.4
			c0,0.1-0.1,0.2-0.2,0.2h-3c0,0-0.1,0-0.1,0.1v3.9c0,0.1-0.1,0.2-0.2,0.2h-1.6c-0.1,0-0.2-0.1-0.2-0.2v-9.5c0-0.1,0.1-0.2,0.2-0.2
			h6.4c0.1,0,0.2,0.1,0.2,0.2v1.4C122.7,223,122.6,223.1,122.5,223.1z"/>
		<path class="st0" d="M125.2,231v-9.5c0-0.1,0.1-0.2,0.2-0.2h1.6c0.1,0,0.2,0.1,0.2,0.2v9.5c0,0.1-0.1,0.2-0.2,0.2h-1.6
			C125.3,231.2,125.2,231.1,125.2,231z"/>
		<path class="st0" d="M130,227.9v-3.2c0-2,1.4-3.4,3.6-3.4c2.2,0,3.6,1.3,3.6,3.2c0,0.1-0.1,0.1-0.2,0.2l-1.6,0.1
			c-0.1,0-0.2,0-0.2-0.2c0-1-0.7-1.6-1.7-1.6c-1,0-1.7,0.7-1.7,1.6v3.4c0,1,0.7,1.6,1.7,1.6c1,0,1.7-0.7,1.7-1.6
			c0-0.1,0.1-0.2,0.2-0.2l1.6,0.1c0.1,0,0.2,0.1,0.2,0.1c0,2-1.5,3.3-3.6,3.3C131.4,231.3,130,230,130,227.9z"/>
		<path class="st0" d="M146.4,223.1h-4.6c0,0-0.1,0-0.1,0.1v2.2c0,0,0,0.1,0.1,0.1h3c0.1,0,0.2,0.1,0.2,0.2v1.4
			c0,0.1-0.1,0.2-0.2,0.2h-3c0,0-0.1,0-0.1,0.1v2.3c0,0,0,0.1,0.1,0.1h4.6c0.1,0,0.2,0.1,0.2,0.2v1.4c0,0.1-0.1,0.2-0.2,0.2H140
			c-0.1,0-0.2-0.1-0.2-0.2v-9.5c0-0.1,0.1-0.2,0.2-0.2h6.5c0.1,0,0.2,0.1,0.2,0.2v1.4C146.6,223,146.5,223.1,146.4,223.1z"/>
		<path class="st0" d="M51.8,237.7h1.7c0.1,0,0.2,0.1,0.2,0.2l-2.3,9.5c0,0.1-0.1,0.1-0.2,0.1h-1.7c-0.1,0-0.2,0-0.2-0.1l-1.4-6.1
			c0-0.1-0.1-0.1-0.1,0l-1.3,6.1c0,0.1-0.1,0.2-0.2,0.2h-1.6c-0.1,0-0.2,0-0.2-0.1l-2.5-9.5c0-0.1,0-0.2,0.1-0.2h1.7
			c0.1,0,0.2,0,0.2,0.1l1.3,5.7c0,0.1,0.1,0.1,0.1,0l1.3-5.7c0-0.1,0.1-0.2,0.2-0.2h1.7c0.1,0,0.2,0,0.2,0.1l1.4,5.7
			c0,0.1,0.1,0.1,0.1,0l1.3-5.7C51.6,237.8,51.7,237.7,51.8,237.7z"/>
		<path class="st0" d="M62.7,239.4h-4.6c0,0-0.1,0-0.1,0.1v2.2c0,0,0,0.1,0.1,0.1h3c0.1,0,0.2,0.1,0.2,0.2v1.4
			c0,0.1-0.1,0.2-0.2,0.2h-3c0,0-0.1,0-0.1,0.1v2.3c0,0,0,0.1,0.1,0.1h4.6c0.1,0,0.2,0.1,0.2,0.2v1.4c0,0.1-0.1,0.2-0.2,0.2h-6.5
			c-0.1,0-0.2-0.1-0.2-0.2v-9.5c0-0.1,0.1-0.2,0.2-0.2h6.5c0.1,0,0.2,0.1,0.2,0.2v1.4C62.9,239.3,62.8,239.4,62.7,239.4z"/>
		<path class="st0" d="M71.3,242.5c0.9,0.5,1.3,1.2,1.3,2.3c0,1.9-1.5,2.7-3.3,2.7h-3.6c-0.1,0-0.2-0.1-0.2-0.2v-9.5
			c0-0.1,0.1-0.2,0.2-0.2h3.5c2.1,0,3.3,0.8,3.3,2.7C72.5,241.4,72.1,242,71.3,242.5C71.3,242.4,71.3,242.5,71.3,242.5z M67.5,239.5
			v2.2c0,0,0,0.1,0.1,0.1h1.6c0.9,0,1.4-0.4,1.4-1.1c0-0.7-0.5-1.2-1.4-1.2L67.5,239.5C67.5,239.4,67.5,239.4,67.5,239.5z
			 M70.7,244.6c0-0.8-0.5-1.2-1.4-1.2h-1.7c0,0-0.1,0-0.1,0.1v2.3c0,0,0,0.1,0.1,0.1h1.8C70.2,245.8,70.7,245.3,70.7,244.6z"/>
		<path class="st0" d="M85.5,242.5c0.9,0.5,1.3,1.2,1.3,2.3c0,1.9-1.5,2.7-3.3,2.7h-3.6c-0.1,0-0.2-0.1-0.2-0.2v-9.5
			c0-0.1,0.1-0.2,0.2-0.2h3.5c2.1,0,3.3,0.8,3.3,2.7C86.7,241.4,86.2,242,85.5,242.5C85.4,242.4,85.4,242.5,85.5,242.5z M81.6,239.5
			v2.2c0,0,0,0.1,0.1,0.1h1.6c0.9,0,1.4-0.4,1.4-1.1c0-0.7-0.5-1.2-1.4-1.2L81.6,239.5C81.7,239.4,81.6,239.4,81.6,239.5z
			 M84.8,244.6c0-0.8-0.5-1.2-1.4-1.2h-1.7c0,0-0.1,0-0.1,0.1v2.3c0,0,0,0.1,0.1,0.1h1.8C84.3,245.8,84.8,245.3,84.8,244.6z"/>
		<path class="st0" d="M89.3,244.1v-3c0-2.1,1.5-3.5,3.7-3.5s3.7,1.4,3.7,3.5v3c0,2.1-1.5,3.6-3.7,3.6S89.3,246.2,89.3,244.1z
			 M94.7,244.2v-3.1c0-1.1-0.7-1.8-1.7-1.8c-1,0-1.7,0.7-1.7,1.8v3.1c0,1.1,0.7,1.8,1.7,1.8C94,246,94.7,245.3,94.7,244.2z"/>
		<path class="st0" d="M99.1,244.1v-3c0-2.1,1.5-3.5,3.7-3.5s3.7,1.4,3.7,3.5v3c0,2.1-1.5,3.6-3.7,3.6S99.1,246.2,99.1,244.1z
			 M104.6,244.2v-3.1c0-1.1-0.7-1.8-1.7-1.8c-1,0-1.7,0.7-1.7,1.8v3.1c0,1.1,0.7,1.8,1.7,1.8C103.9,246,104.6,245.3,104.6,244.2z"/>
		<path class="st0" d="M116.1,237.9v1.4c0,0.1-0.1,0.2-0.2,0.2h-2.5c0,0-0.1,0-0.1,0.1v7.9c0,0.1-0.1,0.2-0.2,0.2h-1.6
			c-0.1,0-0.2-0.1-0.2-0.2v-7.9c0,0,0-0.1-0.1-0.1h-2.4c-0.1,0-0.2-0.1-0.2-0.2v-1.4c0-0.1,0.1-0.2,0.2-0.2h7.1
			C116.1,237.7,116.1,237.8,116.1,237.9z"/>
		<path class="st0" d="M124,237.7h1.6c0.1,0,0.2,0.1,0.2,0.2v9.5c0,0.1-0.1,0.2-0.2,0.2H124c-0.1,0-0.2-0.1-0.2-0.2v-3.9
			c0,0,0-0.1-0.1-0.1h-3.1c0,0-0.1,0-0.1,0.1v3.9c0,0.1-0.1,0.2-0.2,0.2h-1.6c-0.1,0-0.2-0.1-0.2-0.2v-9.5c0-0.1,0.1-0.2,0.2-0.2
			h1.6c0.1,0,0.2,0.1,0.2,0.2v3.8c0,0,0,0.1,0.1,0.1h3.1c0,0,0.1,0,0.1-0.1v-3.8C123.8,237.8,123.9,237.7,124,237.7z"/>
	</g>
</g>
<g>
	<g>
		<path class="st0" d="M41,278.7v-0.3c0-0.1,0.1-0.2,0.2-0.2h1.6c0.1,0,0.2,0.1,0.2,0.2v0.2c0,0.7,0.7,1.3,1.9,1.3
			c1.1,0,1.5-0.5,1.5-1.1c0-0.7-0.7-1-2.1-1.5c-1.5-0.5-3.1-1.2-3.1-3c0-1.7,1.4-2.8,3.4-2.8c2.1,0,3.7,1.2,3.7,3v0.2
			c0,0.1-0.1,0.2-0.2,0.2h-1.6c-0.1,0-0.2-0.1-0.2-0.2v-0.1c0-0.7-0.6-1.4-1.8-1.4c-0.9,0-1.4,0.4-1.4,1.1c0,0.7,0.6,1,2.2,1.5
			c1.3,0.5,3,1,3,2.9c0,1.8-1.4,2.8-3.6,2.8C42.5,281.6,41,280.5,41,278.7z"/>
		<path class="st0" d="M57.4,271.7h1.6c0.1,0,0.2,0.1,0.2,0.2v9.5c0,0.1-0.1,0.2-0.2,0.2h-1.6c-0.1,0-0.2-0.1-0.2-0.2v-6.1
			c0-0.1-0.1-0.1-0.1,0l-1.5,2.4c0,0.1-0.1,0.1-0.2,0.1h-0.8c-0.1,0-0.2,0-0.2-0.1l-1.5-2.4c0-0.1-0.1,0-0.1,0v6.1
			c0,0.1-0.1,0.2-0.2,0.2h-1.6c-0.1,0-0.2-0.1-0.2-0.2v-9.5c0-0.1,0.1-0.2,0.2-0.2h1.6c0.1,0,0.2,0,0.2,0.1l2.1,3.3
			c0,0.1,0.1,0.1,0.1,0l2.1-3.3C57.3,271.8,57.3,271.7,57.4,271.7z"/>
		<path class="st0" d="M68.2,281.4l-0.4-1.4c0,0,0-0.1-0.1-0.1h-3.4c0,0-0.1,0-0.1,0.1l-0.4,1.4c0,0.1-0.1,0.1-0.2,0.1h-1.8
			c-0.1,0-0.2-0.1-0.1-0.2l3-9.5c0-0.1,0.1-0.1,0.2-0.1h2.2c0.1,0,0.2,0.1,0.2,0.1l3,9.5c0,0.1,0,0.2-0.1,0.2h-1.8
			C68.3,281.5,68.3,281.5,68.2,281.4z M64.8,278.4h2.5c0,0,0.1,0,0.1-0.1l-1.3-4.2c0-0.1-0.1-0.1-0.1,0L64.8,278.4
			C64.7,278.4,64.8,278.4,64.8,278.4z"/>
		<path class="st0" d="M72.9,281.4v-9.5c0-0.1,0.1-0.2,0.2-0.2h1.6c0.1,0,0.2,0.1,0.2,0.2v7.9c0,0,0,0.1,0.1,0.1h4.6
			c0.1,0,0.2,0.1,0.2,0.2v1.4c0,0.1-0.1,0.2-0.2,0.2H73C72.9,281.5,72.9,281.5,72.9,281.4z"/>
		<path class="st0" d="M82.2,281.4v-9.5c0-0.1,0.1-0.2,0.2-0.2H84c0.1,0,0.2,0.1,0.2,0.2v7.9c0,0,0,0.1,0.1,0.1h4.6
			c0.1,0,0.2,0.1,0.2,0.2v1.4c0,0.1-0.1,0.2-0.2,0.2h-6.5C82.3,281.5,82.2,281.5,82.2,281.4z"/>
		<path class="st0" d="M95.4,278.1v-3c0-2.1,1.5-3.5,3.7-3.5s3.7,1.4,3.7,3.5v3c0,2.1-1.5,3.6-3.7,3.6S95.4,280.3,95.4,278.1z
			 M100.8,278.2v-3.1c0-1.1-0.7-1.8-1.7-1.8c-1,0-1.7,0.7-1.7,1.8v3.1c0,1.1,0.7,1.8,1.7,1.8C100.1,280,100.8,279.3,100.8,278.2z"/>
		<path class="st0" d="M112.2,273.4h-4.6c0,0-0.1,0-0.1,0.1v2.2c0,0,0,0.1,0.1,0.1h3c0.1,0,0.2,0.1,0.2,0.2v1.4
			c0,0.1-0.1,0.2-0.2,0.2h-3c0,0-0.1,0-0.1,0.1v3.9c0,0.1-0.1,0.2-0.2,0.2h-1.6c-0.1,0-0.2-0.1-0.2-0.2v-9.5c0-0.1,0.1-0.2,0.2-0.2
			h6.4c0.1,0,0.2,0.1,0.2,0.2v1.4C112.3,273.4,112.3,273.4,112.2,273.4z"/>
		<path class="st0" d="M121.5,273.4h-4.6c0,0-0.1,0-0.1,0.1v2.2c0,0,0,0.1,0.1,0.1h3c0.1,0,0.2,0.1,0.2,0.2v1.4
			c0,0.1-0.1,0.2-0.2,0.2h-3c0,0-0.1,0-0.1,0.1v3.9c0,0.1-0.1,0.2-0.2,0.2h-1.6c-0.1,0-0.2-0.1-0.2-0.2v-9.5c0-0.1,0.1-0.2,0.2-0.2
			h6.4c0.1,0,0.2,0.1,0.2,0.2v1.4C121.7,273.4,121.6,273.4,121.5,273.4z"/>
		<path class="st0" d="M124.2,281.4v-9.5c0-0.1,0.1-0.2,0.2-0.2h1.6c0.1,0,0.2,0.1,0.2,0.2v9.5c0,0.1-0.1,0.2-0.2,0.2h-1.6
			C124.3,281.5,124.2,281.5,124.2,281.4z"/>
		<path class="st0" d="M129,278.2V275c0-2,1.4-3.4,3.6-3.4c2.2,0,3.6,1.3,3.6,3.2c0,0.1-0.1,0.1-0.2,0.2l-1.6,0.1
			c-0.1,0-0.2,0-0.2-0.2c0-1-0.7-1.6-1.7-1.6c-1,0-1.7,0.7-1.7,1.6v3.4c0,1,0.7,1.6,1.7,1.6c1,0,1.7-0.7,1.7-1.6
			c0-0.1,0.1-0.2,0.2-0.2l1.6,0.1c0.1,0,0.2,0.1,0.2,0.1c0,2-1.5,3.3-3.6,3.3C130.4,281.6,129,280.3,129,278.2z"/>
		<path class="st0" d="M145.4,273.4h-4.6c0,0-0.1,0-0.1,0.1v2.2c0,0,0,0.1,0.1,0.1h3c0.1,0,0.2,0.1,0.2,0.2v1.4
			c0,0.1-0.1,0.2-0.2,0.2h-3c0,0-0.1,0-0.1,0.1v2.3c0,0,0,0.1,0.1,0.1h4.6c0.1,0,0.2,0.1,0.2,0.2v1.4c0,0.1-0.1,0.2-0.2,0.2H139
			c-0.1,0-0.2-0.1-0.2-0.2v-9.5c0-0.1,0.1-0.2,0.2-0.2h6.5c0.1,0,0.2,0.1,0.2,0.2v1.4C145.6,273.4,145.5,273.4,145.4,273.4z"/>
	</g>
</g>
<g>
	<g>
		<path class="st0" d="M40,320.7v-0.3c0-0.1,0.1-0.2,0.2-0.2h1.6c0.1,0,0.2,0.1,0.2,0.2v0.2c0,0.7,0.7,1.3,1.9,1.3
			c1.1,0,1.5-0.5,1.5-1.1c0-0.7-0.7-1-2.1-1.5c-1.5-0.5-3.1-1.2-3.1-3c0-1.7,1.4-2.8,3.4-2.8c2.1,0,3.7,1.2,3.7,3v0.2
			c0,0.1-0.1,0.2-0.2,0.2h-1.6c-0.1,0-0.2-0.1-0.2-0.2v-0.1c0-0.7-0.6-1.4-1.8-1.4c-0.9,0-1.4,0.4-1.4,1.1c0,0.7,0.6,1,2.2,1.5
			c1.3,0.5,3,1,3,2.9c0,1.8-1.4,2.8-3.6,2.8C41.5,323.7,40,322.5,40,320.7z"/>
		<path class="st0" d="M56.4,313.8h1.6c0.1,0,0.2,0.1,0.2,0.2v9.5c0,0.1-0.1,0.2-0.2,0.2h-1.6c-0.1,0-0.2-0.1-0.2-0.2v-6.1
			c0-0.1-0.1-0.1-0.1,0l-1.5,2.4c0,0.1-0.1,0.1-0.2,0.1h-0.8c-0.1,0-0.2,0-0.2-0.1l-1.5-2.4c0-0.1-0.1,0-0.1,0v6.1
			c0,0.1-0.1,0.2-0.2,0.2h-1.6c-0.1,0-0.2-0.1-0.2-0.2v-9.5c0-0.1,0.1-0.2,0.2-0.2h1.6c0.1,0,0.2,0,0.2,0.1l2.1,3.3
			c0,0.1,0.1,0.1,0.1,0l2.1-3.3C56.3,313.8,56.3,313.8,56.4,313.8z"/>
		<path class="st0" d="M67.2,323.4l-0.4-1.4c0,0,0-0.1-0.1-0.1h-3.4c0,0-0.1,0-0.1,0.1l-0.4,1.4c0,0.1-0.1,0.1-0.2,0.1h-1.8
			c-0.1,0-0.2-0.1-0.1-0.2l3-9.5c0-0.1,0.1-0.1,0.2-0.1h2.2c0.1,0,0.2,0.1,0.2,0.1l3,9.5c0,0.1,0,0.2-0.1,0.2h-1.8
			C67.3,323.6,67.3,323.5,67.2,323.4z M63.8,320.5h2.5c0,0,0.1,0,0.1-0.1l-1.3-4.2c0-0.1-0.1-0.1-0.1,0L63.8,320.5
			C63.7,320.4,63.8,320.5,63.8,320.5z"/>
		<path class="st0" d="M71.9,323.4v-9.5c0-0.1,0.1-0.2,0.2-0.2h1.6c0.1,0,0.2,0.1,0.2,0.2v7.9c0,0,0,0.1,0.1,0.1h4.6
			c0.1,0,0.2,0.1,0.2,0.2v1.4c0,0.1-0.1,0.2-0.2,0.2H72C71.9,323.6,71.9,323.5,71.9,323.4z"/>
		<path class="st0" d="M81.2,323.4v-9.5c0-0.1,0.1-0.2,0.2-0.2H83c0.1,0,0.2,0.1,0.2,0.2v7.9c0,0,0,0.1,0.1,0.1h4.6
			c0.1,0,0.2,0.1,0.2,0.2v1.4c0,0.1-0.1,0.2-0.2,0.2h-6.5C81.3,323.6,81.2,323.5,81.2,323.4z"/>
		<path class="st0" d="M94.4,320.2v-3c0-2.1,1.5-3.5,3.7-3.5s3.7,1.4,3.7,3.5v3c0,2.1-1.5,3.6-3.7,3.6S94.4,322.3,94.4,320.2z
			 M99.8,320.2v-3.1c0-1.1-0.7-1.8-1.7-1.8c-1,0-1.7,0.7-1.7,1.8v3.1c0,1.1,0.7,1.8,1.7,1.8C99.1,322,99.8,321.3,99.8,320.2z"/>
		<path class="st0" d="M111.2,315.4h-4.6c0,0-0.1,0-0.1,0.1v2.2c0,0,0,0.1,0.1,0.1h3c0.1,0,0.2,0.1,0.2,0.2v1.4
			c0,0.1-0.1,0.2-0.2,0.2h-3c0,0-0.1,0-0.1,0.1v3.9c0,0.1-0.1,0.2-0.2,0.2h-1.6c-0.1,0-0.2-0.1-0.2-0.2v-9.5c0-0.1,0.1-0.2,0.2-0.2
			h6.4c0.1,0,0.2,0.1,0.2,0.2v1.4C111.3,315.4,111.3,315.4,111.2,315.4z"/>
		<path class="st0" d="M120.5,315.4h-4.6c0,0-0.1,0-0.1,0.1v2.2c0,0,0,0.1,0.1,0.1h3c0.1,0,0.2,0.1,0.2,0.2v1.4
			c0,0.1-0.1,0.2-0.2,0.2h-3c0,0-0.1,0-0.1,0.1v3.9c0,0.1-0.1,0.2-0.2,0.2h-1.6c-0.1,0-0.2-0.1-0.2-0.2v-9.5c0-0.1,0.1-0.2,0.2-0.2
			h6.4c0.1,0,0.2,0.1,0.2,0.2v1.4C120.7,315.4,120.6,315.4,120.5,315.4z"/>
		<path class="st0" d="M123.2,323.4v-9.5c0-0.1,0.1-0.2,0.2-0.2h1.6c0.1,0,0.2,0.1,0.2,0.2v9.5c0,0.1-0.1,0.2-0.2,0.2h-1.6
			C123.3,323.6,123.2,323.5,123.2,323.4z"/>
		<path class="st0" d="M128,320.3V317c0-2,1.4-3.4,3.6-3.4c2.2,0,3.6,1.3,3.6,3.2c0,0.1-0.1,0.1-0.2,0.2l-1.6,0.1
			c-0.1,0-0.2,0-0.2-0.2c0-1-0.7-1.6-1.7-1.6c-1,0-1.7,0.7-1.7,1.6v3.4c0,1,0.7,1.6,1.7,1.6c1,0,1.7-0.7,1.7-1.6
			c0-0.1,0.1-0.2,0.2-0.2l1.6,0.1c0.1,0,0.2,0.1,0.2,0.1c0,2-1.5,3.3-3.6,3.3C129.4,323.7,128,322.3,128,320.3z"/>
		<path class="st0" d="M144.4,315.4h-4.6c0,0-0.1,0-0.1,0.1v2.2c0,0,0,0.1,0.1,0.1h3c0.1,0,0.2,0.1,0.2,0.2v1.4
			c0,0.1-0.1,0.2-0.2,0.2h-3c0,0-0.1,0-0.1,0.1v2.3c0,0,0,0.1,0.1,0.1h4.6c0.1,0,0.2,0.1,0.2,0.2v1.4c0,0.1-0.1,0.2-0.2,0.2H138
			c-0.1,0-0.2-0.1-0.2-0.2v-9.5c0-0.1,0.1-0.2,0.2-0.2h6.5c0.1,0,0.2,0.1,0.2,0.2v1.4C144.6,315.4,144.5,315.4,144.4,315.4z"/>
	</g>
</g>
<g>
	<g>
		<path class="st0" d="M47.9,354.1c0,1.8-1.3,3-3.2,3h-2c0,0-0.1,0-0.1,0.1v3.6c0,0.1-0.1,0.2-0.2,0.2h-1.6c-0.1,0-0.2-0.1-0.2-0.2
			v-9.5c0-0.1,0.1-0.2,0.2-0.2h3.9C46.7,351.1,47.9,352.3,47.9,354.1z M45.9,354.1c0-0.8-0.6-1.4-1.4-1.4h-1.8c0,0-0.1,0-0.1,0.1
			v2.6c0,0,0,0.1,0.1,0.1h1.8C45.4,355.5,45.9,354.9,45.9,354.1z"/>
		<path class="st0" d="M55.7,360.8l-1.8-3.9c0,0-0.1-0.1-0.1-0.1h-1.3c0,0-0.1,0-0.1,0.1v3.8c0,0.1-0.1,0.2-0.2,0.2h-1.6
			c-0.1,0-0.2-0.1-0.2-0.2v-9.5c0-0.1,0.1-0.2,0.2-0.2h4c1.8,0,3,1.2,3,3c0,1.3-0.7,2.2-1.8,2.6c0,0-0.1,0.1,0,0.1l1.9,4
			c0.1,0.1,0,0.2-0.1,0.2h-1.7C55.8,360.9,55.7,360.8,55.7,360.8z M52.5,352.8v2.4c0,0,0,0.1,0.1,0.1h1.8c0.8,0,1.3-0.5,1.3-1.3
			c0-0.8-0.5-1.3-1.3-1.3L52.5,352.8C52.5,352.8,52.5,352.8,52.5,352.8z"/>
		<path class="st0" d="M60.3,360.7v-9.5c0-0.1,0.1-0.2,0.2-0.2h1.6c0.1,0,0.2,0.1,0.2,0.2v9.5c0,0.1-0.1,0.2-0.2,0.2h-1.6
			C60.4,360.9,60.3,360.8,60.3,360.7z"/>
		<path class="st0" d="M70.9,351.1h1.7c0.1,0,0.2,0.1,0.1,0.2l-2.9,9.5c0,0.1-0.1,0.1-0.2,0.1h-1.8c-0.1,0-0.2-0.1-0.2-0.1l-2.9-9.5
			c0-0.1,0-0.2,0.1-0.2h1.8c0.1,0,0.2,0,0.2,0.1l1.9,6.9c0,0.1,0.1,0.1,0.1,0l1.8-6.9C70.7,351.1,70.8,351.1,70.9,351.1z"/>
		<path class="st0" d="M80.1,360.7l-0.4-1.4c0,0,0-0.1-0.1-0.1h-3.4c0,0-0.1,0-0.1,0.1l-0.4,1.4c0,0.1-0.1,0.1-0.2,0.1h-1.8
			c-0.1,0-0.2-0.1-0.1-0.2l3-9.5c0-0.1,0.1-0.1,0.2-0.1H79c0.1,0,0.2,0.1,0.2,0.1l3,9.5c0,0.1,0,0.2-0.1,0.2h-1.8
			C80.2,360.9,80.2,360.8,80.1,360.7z M76.7,357.8h2.5c0,0,0.1,0,0.1-0.1l-1.3-4.2c0-0.1-0.1-0.1-0.1,0L76.7,357.8
			C76.6,357.8,76.7,357.8,76.7,357.8z"/>
		<path class="st0" d="M90.6,351.2v1.4c0,0.1-0.1,0.2-0.2,0.2h-2.5c0,0-0.1,0-0.1,0.1v7.9c0,0.1-0.1,0.2-0.2,0.2H86
			c-0.1,0-0.2-0.1-0.2-0.2v-7.9c0,0,0-0.1-0.1-0.1h-2.4c-0.1,0-0.2-0.1-0.2-0.2v-1.4c0-0.1,0.1-0.2,0.2-0.2h7.1
			C90.5,351.1,90.6,351.1,90.6,351.2z"/>
		<path class="st0" d="M99.7,352.8h-4.6c0,0-0.1,0-0.1,0.1v2.2c0,0,0,0.1,0.1,0.1h3c0.1,0,0.2,0.1,0.2,0.2v1.4
			c0,0.1-0.1,0.2-0.2,0.2h-3c0,0-0.1,0-0.1,0.1v2.3c0,0,0,0.1,0.1,0.1h4.6c0.1,0,0.2,0.1,0.2,0.2v1.4c0,0.1-0.1,0.2-0.2,0.2h-6.5
			c-0.1,0-0.2-0.1-0.2-0.2v-9.5c0-0.1,0.1-0.2,0.2-0.2h6.5c0.1,0,0.2,0.1,0.2,0.2v1.4C99.9,352.7,99.8,352.8,99.7,352.8z"/>
		<path class="st0" d="M106.5,357.5v-3c0-2.1,1.5-3.5,3.7-3.5s3.7,1.4,3.7,3.5v3c0,2.1-1.5,3.6-3.7,3.6S106.5,359.6,106.5,357.5z
			 M111.9,357.5v-3.1c0-1.1-0.7-1.8-1.7-1.8c-1,0-1.7,0.7-1.7,1.8v3.1c0,1.1,0.7,1.8,1.7,1.8C111.3,359.3,111.9,358.6,111.9,357.5z"
			/>
		<path class="st0" d="M123.3,352.8h-4.6c0,0-0.1,0-0.1,0.1v2.2c0,0,0,0.1,0.1,0.1h3c0.1,0,0.2,0.1,0.2,0.2v1.4
			c0,0.1-0.1,0.2-0.2,0.2h-3c0,0-0.1,0-0.1,0.1v3.9c0,0.1-0.1,0.2-0.2,0.2h-1.6c-0.1,0-0.2-0.1-0.2-0.2v-9.5c0-0.1,0.1-0.2,0.2-0.2
			h6.4c0.1,0,0.2,0.1,0.2,0.2v1.4C123.5,352.7,123.4,352.8,123.3,352.8z"/>
		<path class="st0" d="M132.6,352.8h-4.6c0,0-0.1,0-0.1,0.1v2.2c0,0,0,0.1,0.1,0.1h3c0.1,0,0.2,0.1,0.2,0.2v1.4
			c0,0.1-0.1,0.2-0.2,0.2h-3c0,0-0.1,0-0.1,0.1v3.9c0,0.1-0.1,0.2-0.2,0.2h-1.6c-0.1,0-0.2-0.1-0.2-0.2v-9.5c0-0.1,0.1-0.2,0.2-0.2
			h6.4c0.1,0,0.2,0.1,0.2,0.2v1.4C132.8,352.7,132.7,352.8,132.6,352.8z"/>
		<path class="st0" d="M135.4,360.7v-9.5c0-0.1,0.1-0.2,0.2-0.2h1.6c0.1,0,0.2,0.1,0.2,0.2v9.5c0,0.1-0.1,0.2-0.2,0.2h-1.6
			C135.4,360.9,135.4,360.8,135.4,360.7z"/>
		<path class="st0" d="M140.1,357.6v-3.2c0-2,1.4-3.4,3.6-3.4c2.2,0,3.6,1.3,3.6,3.2c0,0.1-0.1,0.1-0.2,0.2l-1.6,0.1
			c-0.1,0-0.2,0-0.2-0.2c0-1-0.7-1.6-1.7-1.6c-1,0-1.7,0.7-1.7,1.6v3.4c0,1,0.7,1.6,1.7,1.6c1,0,1.7-0.7,1.7-1.6
			c0-0.1,0.1-0.2,0.2-0.2l1.6,0.1c0.1,0,0.2,0.1,0.2,0.1c0,2-1.5,3.3-3.6,3.3C141.6,361,140.1,359.6,140.1,357.6z"/>
		<path class="st0" d="M156.6,352.8H152c0,0-0.1,0-0.1,0.1v2.2c0,0,0,0.1,0.1,0.1h3c0.1,0,0.2,0.1,0.2,0.2v1.4
			c0,0.1-0.1,0.2-0.2,0.2h-3c0,0-0.1,0-0.1,0.1v2.3c0,0,0,0.1,0.1,0.1h4.6c0.1,0,0.2,0.1,0.2,0.2v1.4c0,0.1-0.1,0.2-0.2,0.2h-6.5
			c-0.1,0-0.2-0.1-0.2-0.2v-9.5c0-0.1,0.1-0.2,0.2-0.2h6.5c0.1,0,0.2,0.1,0.2,0.2v1.4C156.7,352.7,156.7,352.8,156.6,352.8z"/>
		<path class="st0" d="M47.2,367.4h1.6c0.1,0,0.2,0.1,0.2,0.2v9.5c0,0.1-0.1,0.2-0.2,0.2h-1.6c-0.1,0-0.2-0.1-0.2-0.2v-6.1
			c0-0.1-0.1-0.1-0.1,0l-1.5,2.4c0,0.1-0.1,0.1-0.2,0.1h-0.8c-0.1,0-0.2,0-0.2-0.1l-1.5-2.4c0-0.1-0.1,0-0.1,0v6.1
			c0,0.1-0.1,0.2-0.2,0.2h-1.6c-0.1,0-0.2-0.1-0.2-0.2v-9.5c0-0.1,0.1-0.2,0.2-0.2h1.6c0.1,0,0.2,0,0.2,0.1l2.1,3.3
			c0,0.1,0.1,0.1,0.1,0l2.1-3.3C47,367.4,47.1,367.4,47.2,367.4z"/>
		<path class="st0" d="M58.7,369.1h-4.6c0,0-0.1,0-0.1,0.1v2.2c0,0,0,0.1,0.1,0.1h3c0.1,0,0.2,0.1,0.2,0.2v1.4
			c0,0.1-0.1,0.2-0.2,0.2h-3c0,0-0.1,0-0.1,0.1v2.3c0,0,0,0.1,0.1,0.1h4.6c0.1,0,0.2,0.1,0.2,0.2v1.4c0,0.1-0.1,0.2-0.2,0.2h-6.5
			c-0.1,0-0.2-0.1-0.2-0.2v-9.5c0-0.1,0.1-0.2,0.2-0.2h6.5c0.1,0,0.2,0.1,0.2,0.2v1.4C58.9,369,58.8,369.1,58.7,369.1z"/>
		<path class="st0" d="M68.1,369.1h-4.6c0,0-0.1,0-0.1,0.1v2.2c0,0,0,0.1,0.1,0.1h3c0.1,0,0.2,0.1,0.2,0.2v1.4
			c0,0.1-0.1,0.2-0.2,0.2h-3c0,0-0.1,0-0.1,0.1v2.3c0,0,0,0.1,0.1,0.1h4.6c0.1,0,0.2,0.1,0.2,0.2v1.4c0,0.1-0.1,0.2-0.2,0.2h-6.5
			c-0.1,0-0.2-0.1-0.2-0.2v-9.5c0-0.1,0.1-0.2,0.2-0.2h6.5c0.1,0,0.2,0.1,0.2,0.2v1.4C68.3,369,68.2,369.1,68.1,369.1z"/>
		<path class="st0" d="M78,367.5v1.4c0,0.1-0.1,0.2-0.2,0.2h-2.5c0,0-0.1,0-0.1,0.1v7.9c0,0.1-0.1,0.2-0.2,0.2h-1.6
			c-0.1,0-0.2-0.1-0.2-0.2v-7.9c0,0,0-0.1-0.1-0.1h-2.4c-0.1,0-0.2-0.1-0.2-0.2v-1.4c0-0.1,0.1-0.2,0.2-0.2h7.1
			C77.9,367.4,78,367.4,78,367.5z"/>
		<path class="st0" d="M80.5,377v-9.5c0-0.1,0.1-0.2,0.2-0.2h1.6c0.1,0,0.2,0.1,0.2,0.2v9.5c0,0.1-0.1,0.2-0.2,0.2h-1.6
			C80.6,377.2,80.5,377.1,80.5,377z"/>
		<path class="st0" d="M91.4,367.4H93c0.1,0,0.2,0.1,0.2,0.2v9.5c0,0.1-0.1,0.2-0.2,0.2h-1.8c-0.1,0-0.2,0-0.2-0.1l-3.4-5.9
			c0-0.1-0.1,0-0.1,0l0,5.9c0,0.1-0.1,0.2-0.2,0.2h-1.6c-0.1,0-0.2-0.1-0.2-0.2v-9.5c0-0.1,0.1-0.2,0.2-0.2h1.8c0.1,0,0.2,0,0.2,0.1
			l3.4,5.9c0,0.1,0.1,0,0.1,0v-5.9C91.2,367.4,91.3,367.4,91.4,367.4z"/>
		<path class="st0" d="M96,373.8v-3.1c0-2.1,1.4-3.4,3.6-3.4c2.2,0,3.6,1.4,3.6,3.2v0.1c0,0.1-0.1,0.2-0.2,0.2h-1.6
			c-0.1,0-0.2-0.1-0.2-0.2v0c0-0.8-0.6-1.5-1.7-1.5c-1,0-1.7,0.7-1.7,1.7v3.2c0,1,0.7,1.7,1.7,1.7c1,0,1.6-0.5,1.6-1.5v-0.6
			c0,0,0-0.1-0.1-0.1h-1.6c-0.1,0-0.2-0.1-0.2-0.2V372c0-0.1,0.1-0.2,0.2-0.2h3.4c0.1,0,0.2,0.1,0.2,0.2v1.8c0,2.2-1.4,3.5-3.6,3.5
			C97.4,377.3,96,375.9,96,373.8z"/>
		<path class="st0" d="M115.4,377l-1.8-3.9c0,0-0.1-0.1-0.1-0.1h-1.3c0,0-0.1,0-0.1,0.1v3.8c0,0.1-0.1,0.2-0.2,0.2h-1.6
			c-0.1,0-0.2-0.1-0.2-0.2v-9.5c0-0.1,0.1-0.2,0.2-0.2h4c1.8,0,3,1.2,3,3c0,1.3-0.7,2.2-1.8,2.6c0,0-0.1,0.1,0,0.1l1.9,4
			c0.1,0.1,0,0.2-0.1,0.2h-1.7C115.5,377.2,115.5,377.1,115.4,377z M112.2,369.1v2.4c0,0,0,0.1,0.1,0.1h1.8c0.8,0,1.3-0.5,1.3-1.3
			c0-0.8-0.5-1.3-1.3-1.3L112.2,369.1C112.3,369.1,112.2,369.1,112.2,369.1z"/>
		<path class="st0" d="M119.9,373.8v-3c0-2.1,1.5-3.5,3.7-3.5c2.2,0,3.7,1.4,3.7,3.5v3c0,2.1-1.5,3.6-3.7,3.6
			C121.4,377.3,119.9,375.9,119.9,373.8z M125.3,373.8v-3.1c0-1.1-0.7-1.8-1.7-1.8c-1,0-1.7,0.7-1.7,1.8v3.1c0,1.1,0.7,1.8,1.7,1.8
			C124.6,375.6,125.3,374.9,125.3,373.8z"/>
		<path class="st0" d="M129.8,373.8v-3c0-2.1,1.5-3.5,3.7-3.5s3.7,1.4,3.7,3.5v3c0,2.1-1.5,3.6-3.7,3.6S129.8,375.9,129.8,373.8z
			 M135.2,373.8v-3.1c0-1.1-0.7-1.8-1.7-1.8c-1,0-1.7,0.7-1.7,1.8v3.1c0,1.1,0.7,1.8,1.7,1.8C134.5,375.6,135.2,374.9,135.2,373.8z"
			/>
		<path class="st0" d="M146.5,367.4h1.6c0.1,0,0.2,0.1,0.2,0.2v9.5c0,0.1-0.1,0.2-0.2,0.2h-1.6c-0.1,0-0.2-0.1-0.2-0.2v-6.1
			c0-0.1-0.1-0.1-0.1,0l-1.5,2.4c0,0.1-0.1,0.1-0.2,0.1h-0.8c-0.1,0-0.2,0-0.2-0.1l-1.5-2.4c0-0.1-0.1,0-0.1,0v6.1
			c0,0.1-0.1,0.2-0.2,0.2h-1.6c-0.1,0-0.2-0.1-0.2-0.2v-9.5c0-0.1,0.1-0.2,0.2-0.2h1.6c0.1,0,0.2,0,0.2,0.1l2.1,3.3
			c0,0.1,0.1,0.1,0.1,0l2.1-3.3C146.3,367.4,146.4,367.4,146.5,367.4z"/>
		<path class="st0" d="M49.8,383.7h1.7c0.1,0,0.2,0.1,0.2,0.2l-2.3,9.5c0,0.1-0.1,0.1-0.2,0.1h-1.7c-0.1,0-0.2,0-0.2-0.1l-1.4-6.1
			c0-0.1-0.1-0.1-0.1,0l-1.3,6.1c0,0.1-0.1,0.2-0.2,0.2h-1.6c-0.1,0-0.2,0-0.2-0.1l-2.5-9.5c0-0.1,0-0.2,0.1-0.2h1.7
			c0.1,0,0.2,0,0.2,0.1l1.3,5.7c0,0.1,0.1,0.1,0.1,0l1.3-5.7c0-0.1,0.1-0.2,0.2-0.2h1.7c0.1,0,0.2,0,0.2,0.1l1.4,5.7
			c0,0.1,0.1,0.1,0.1,0l1.3-5.7C49.6,383.7,49.7,383.7,49.8,383.7z"/>
		<path class="st0" d="M53.6,390.1v-3c0-2.1,1.5-3.5,3.7-3.5c2.2,0,3.7,1.4,3.7,3.5v3c0,2.1-1.5,3.6-3.7,3.6
			C55.1,393.6,53.6,392.2,53.6,390.1z M59,390.1v-3.1c0-1.1-0.7-1.8-1.7-1.8c-1,0-1.7,0.7-1.7,1.8v3.1c0,1.1,0.7,1.8,1.7,1.8
			C58.3,391.9,59,391.2,59,390.1z"/>
		<path class="st0" d="M63.5,390.1v-3c0-2.1,1.5-3.5,3.7-3.5c2.2,0,3.7,1.4,3.7,3.5v3c0,2.1-1.5,3.6-3.7,3.6
			C65,393.6,63.5,392.2,63.5,390.1z M68.9,390.1v-3.1c0-1.1-0.7-1.8-1.7-1.8c-1,0-1.7,0.7-1.7,1.8v3.1c0,1.1,0.7,1.8,1.7,1.8
			C68.2,391.9,68.9,391.2,68.9,390.1z"/>
		<path class="st0" d="M73.7,393.3v-9.5c0-0.1,0.1-0.2,0.2-0.2h3.5c2.1,0,3.5,1.2,3.5,3v3.9c0,1.8-1.4,3-3.5,3h-3.5
			C73.7,393.5,73.7,393.4,73.7,393.3z M75.7,391.8h1.7c0.9,0,1.4-0.6,1.5-1.6V387c0-1-0.6-1.6-1.5-1.6h-1.7c0,0-0.1,0-0.1,0.1
			L75.7,391.8C75.7,391.8,75.7,391.8,75.7,391.8z"/>
		<path class="st0" d="M87.9,393.3v-9.5c0-0.1,0.1-0.2,0.2-0.2h1.6c0.1,0,0.2,0.1,0.2,0.2v7.9c0,0,0,0.1,0.1,0.1h4.6
			c0.1,0,0.2,0.1,0.2,0.2v1.4c0,0.1-0.1,0.2-0.2,0.2h-6.5C88,393.5,87.9,393.4,87.9,393.3z"/>
		<path class="st0" d="M96.9,390.1v-3c0-2.1,1.5-3.5,3.7-3.5c2.2,0,3.7,1.4,3.7,3.5v3c0,2.1-1.5,3.6-3.7,3.6
			C98.4,393.6,96.9,392.2,96.9,390.1z M102.3,390.1v-3.1c0-1.1-0.7-1.8-1.7-1.8c-1,0-1.7,0.7-1.7,1.8v3.1c0,1.1,0.7,1.8,1.7,1.8
			C101.6,391.9,102.3,391.2,102.3,390.1z"/>
		<path class="st0" d="M107,390.2v-6.4c0-0.1,0.1-0.2,0.2-0.2h1.6c0.1,0,0.2,0.1,0.2,0.2v6.4c0,1,0.7,1.7,1.7,1.7
			c1,0,1.7-0.7,1.7-1.7v-6.4c0-0.1,0.1-0.2,0.2-0.2h1.6c0.1,0,0.2,0.1,0.2,0.2v6.4c0,2-1.4,3.4-3.6,3.4
			C108.5,393.6,107,392.2,107,390.2z"/>
		<path class="st0" d="M123.1,383.7h1.6c0.1,0,0.2,0.1,0.2,0.2v9.5c0,0.1-0.1,0.2-0.2,0.2h-1.8c-0.1,0-0.2,0-0.2-0.1l-3.4-5.9
			c0-0.1-0.1,0-0.1,0l0,5.9c0,0.1-0.1,0.2-0.2,0.2h-1.6c-0.1,0-0.2-0.1-0.2-0.2v-9.5c0-0.1,0.1-0.2,0.2-0.2h1.8c0.1,0,0.2,0,0.2,0.1
			l3.4,5.9c0,0.1,0.1,0,0.1,0v-5.9C122.9,383.7,123,383.7,123.1,383.7z"/>
		<path class="st0" d="M127.7,390.1V387c0-2.1,1.4-3.4,3.6-3.4c2.2,0,3.6,1.4,3.6,3.2v0.1c0,0.1-0.1,0.2-0.2,0.2h-1.6
			c-0.1,0-0.2-0.1-0.2-0.2v0c0-0.8-0.6-1.5-1.7-1.5c-1,0-1.7,0.7-1.7,1.7v3.2c0,1,0.7,1.7,1.7,1.7c1,0,1.6-0.5,1.6-1.5v-0.6
			c0,0,0-0.1-0.1-0.1h-1.6c-0.1,0-0.2-0.1-0.2-0.2v-1.3c0-0.1,0.1-0.2,0.2-0.2h3.4c0.1,0,0.2,0.1,0.2,0.2v1.8c0,2.2-1.4,3.5-3.6,3.5
			C129.1,393.6,127.7,392.2,127.7,390.1z"/>
		<path class="st0" d="M144.3,385.4h-4.6c0,0-0.1,0-0.1,0.1v2.2c0,0,0,0.1,0.1,0.1h3c0.1,0,0.2,0.1,0.2,0.2v1.4
			c0,0.1-0.1,0.2-0.2,0.2h-3c0,0-0.1,0-0.1,0.1v2.3c0,0,0,0.1,0.1,0.1h4.6c0.1,0,0.2,0.1,0.2,0.2v1.4c0,0.1-0.1,0.2-0.2,0.2h-6.5
			c-0.1,0-0.2-0.1-0.2-0.2v-9.5c0-0.1,0.1-0.2,0.2-0.2h6.5c0.1,0,0.2,0.1,0.2,0.2v1.4C144.5,385.3,144.4,385.4,144.3,385.4z"/>
		<path class="st0" d="M40.3,406.4v-3.1c0-2.1,1.4-3.4,3.6-3.4s3.6,1.4,3.6,3.2v0.1c0,0.1-0.1,0.2-0.2,0.2h-1.6
			c-0.1,0-0.2-0.1-0.2-0.2v0c0-0.8-0.6-1.5-1.7-1.5c-1,0-1.7,0.7-1.7,1.7v3.2c0,1,0.7,1.7,1.7,1.7c1,0,1.6-0.5,1.6-1.5v-0.6
			c0,0,0-0.1-0.1-0.1H44c-0.1,0-0.2-0.1-0.2-0.2v-1.3c0-0.1,0.1-0.2,0.2-0.2h3.4c0.1,0,0.2,0.1,0.2,0.2v1.8c0,2.2-1.4,3.5-3.6,3.5
			S40.3,408.5,40.3,406.4z"/>
		<path class="st0" d="M55.5,409.6l-1.8-3.9c0,0-0.1-0.1-0.1-0.1h-1.3c0,0-0.1,0-0.1,0.1v3.8c0,0.1-0.1,0.2-0.2,0.2h-1.6
			c-0.1,0-0.2-0.1-0.2-0.2v-9.5c0-0.1,0.1-0.2,0.2-0.2h4c1.8,0,3,1.2,3,3c0,1.3-0.7,2.2-1.8,2.6c0,0-0.1,0.1,0,0.1l1.9,4
			c0.1,0.1,0,0.2-0.1,0.2h-1.7C55.6,409.8,55.6,409.7,55.5,409.6z M52.3,401.7v2.4c0,0,0,0.1,0.1,0.1h1.8c0.8,0,1.3-0.5,1.3-1.3
			c0-0.8-0.5-1.3-1.3-1.3L52.3,401.7C52.4,401.7,52.3,401.7,52.3,401.7z"/>
		<path class="st0" d="M66.8,401.7h-4.6c0,0-0.1,0-0.1,0.1v2.2c0,0,0,0.1,0.1,0.1h3c0.1,0,0.2,0.1,0.2,0.2v1.4
			c0,0.1-0.1,0.2-0.2,0.2h-3c0,0-0.1,0-0.1,0.1v2.3c0,0,0,0.1,0.1,0.1h4.6c0.1,0,0.2,0.1,0.2,0.2v1.4c0,0.1-0.1,0.2-0.2,0.2h-6.5
			c-0.1,0-0.2-0.1-0.2-0.2v-9.5c0-0.1,0.1-0.2,0.2-0.2h6.5c0.1,0,0.2,0.1,0.2,0.2v1.4C67,401.6,66.9,401.7,66.8,401.7z"/>
		<path class="st0" d="M76.3,401.7h-4.6c0,0-0.1,0-0.1,0.1v2.2c0,0,0,0.1,0.1,0.1h3c0.1,0,0.2,0.1,0.2,0.2v1.4
			c0,0.1-0.1,0.2-0.2,0.2h-3c0,0-0.1,0-0.1,0.1v2.3c0,0,0,0.1,0.1,0.1h4.6c0.1,0,0.2,0.1,0.2,0.2v1.4c0,0.1-0.1,0.2-0.2,0.2h-6.5
			c-0.1,0-0.2-0.1-0.2-0.2v-9.5c0-0.1,0.1-0.2,0.2-0.2h6.5c0.1,0,0.2,0.1,0.2,0.2v1.4C76.4,401.6,76.4,401.7,76.3,401.7z"/>
		<path class="st0" d="M84.9,400h1.6c0.1,0,0.2,0.1,0.2,0.2v9.5c0,0.1-0.1,0.2-0.2,0.2h-1.8c-0.1,0-0.2,0-0.2-0.1l-3.4-5.9
			c0-0.1-0.1,0-0.1,0l0,5.9c0,0.1-0.1,0.2-0.2,0.2h-1.6c-0.1,0-0.2-0.1-0.2-0.2v-9.5c0-0.1,0.1-0.2,0.2-0.2H81c0.1,0,0.2,0,0.2,0.1
			l3.4,5.9c0,0.1,0.1,0,0.1,0v-5.9C84.7,400,84.8,400,84.9,400z"/>
		<path class="st0" d="M94.1,409.6v-9.5c0-0.1,0.1-0.2,0.2-0.2h1.6c0.1,0,0.2,0.1,0.2,0.2v7.9c0,0,0,0.1,0.1,0.1h4.6
			c0.1,0,0.2,0.1,0.2,0.2v1.4c0,0.1-0.1,0.2-0.2,0.2h-6.5C94.2,409.8,94.1,409.7,94.1,409.6z"/>
		<path class="st0" d="M103.1,406.4v-3c0-2.1,1.5-3.5,3.7-3.5c2.2,0,3.7,1.4,3.7,3.5v3c0,2.1-1.5,3.6-3.7,3.6
			C104.6,409.9,103.1,408.5,103.1,406.4z M108.5,406.4v-3.1c0-1.1-0.7-1.8-1.7-1.8c-1,0-1.7,0.7-1.7,1.8v3.1c0,1.1,0.7,1.8,1.7,1.8
			C107.8,408.2,108.5,407.5,108.5,406.4z"/>
		<path class="st0" d="M113.2,406.5v-6.4c0-0.1,0.1-0.2,0.2-0.2h1.6c0.1,0,0.2,0.1,0.2,0.2v6.4c0,1,0.7,1.7,1.7,1.7s1.7-0.7,1.7-1.7
			v-6.4c0-0.1,0.1-0.2,0.2-0.2h1.6c0.1,0,0.2,0.1,0.2,0.2v6.4c0,2-1.4,3.4-3.6,3.4C114.7,409.9,113.2,408.5,113.2,406.5z"/>
		<path class="st0" d="M129.3,400h1.6c0.1,0,0.2,0.1,0.2,0.2v9.5c0,0.1-0.1,0.2-0.2,0.2h-1.8c-0.1,0-0.2,0-0.2-0.1l-3.4-5.9
			c0-0.1-0.1,0-0.1,0l0,5.9c0,0.1-0.1,0.2-0.2,0.2h-1.6c-0.1,0-0.2-0.1-0.2-0.2v-9.5c0-0.1,0.1-0.2,0.2-0.2h1.8c0.1,0,0.2,0,0.2,0.1
			l3.4,5.9c0,0.1,0.1,0,0.1,0v-5.9C129.1,400,129.2,400,129.3,400z"/>
		<path class="st0" d="M133.9,406.4v-3.1c0-2.1,1.4-3.4,3.6-3.4c2.2,0,3.6,1.4,3.6,3.2v0.1c0,0.1-0.1,0.2-0.2,0.2h-1.6
			c-0.1,0-0.2-0.1-0.2-0.2v0c0-0.8-0.6-1.5-1.7-1.5c-1,0-1.7,0.7-1.7,1.7v3.2c0,1,0.7,1.7,1.7,1.7c1,0,1.6-0.5,1.6-1.5v-0.6
			c0,0,0-0.1-0.1-0.1h-1.6c-0.1,0-0.2-0.1-0.2-0.2v-1.3c0-0.1,0.1-0.2,0.2-0.2h3.4c0.1,0,0.2,0.1,0.2,0.2v1.8c0,2.2-1.4,3.5-3.6,3.5
			C135.3,409.9,133.9,408.5,133.9,406.4z"/>
		<path class="st0" d="M150.5,401.7h-4.6c0,0-0.1,0-0.1,0.1v2.2c0,0,0,0.1,0.1,0.1h3c0.1,0,0.2,0.1,0.2,0.2v1.4
			c0,0.1-0.1,0.2-0.2,0.2h-3c0,0-0.1,0-0.1,0.1v2.3c0,0,0,0.1,0.1,0.1h4.6c0.1,0,0.2,0.1,0.2,0.2v1.4c0,0.1-0.1,0.2-0.2,0.2h-6.5
			c-0.1,0-0.2-0.1-0.2-0.2v-9.5c0-0.1,0.1-0.2,0.2-0.2h6.5c0.1,0,0.2,0.1,0.2,0.2v1.4C150.7,401.6,150.6,401.7,150.5,401.7z"/>
	</g>
</g>
<g>
	<g>
		<path class="st0" d="M10.1,359h3.8c0.1,0,0.2,0.1,0.2,0.2v1.4c0,0.1-0.1,0.2-0.2,0.2H7.6c-0.1,0-0.2-0.1-0.2-0.2v-1.3
			c0-0.1,0-0.2,0.1-0.2c1.1-1.1,2.1-2.3,3.1-3.3c0.8-0.8,1.3-1.6,1.3-2.1c0-0.7-0.5-1.1-1.3-1.1s-1.3,0.5-1.2,1.1v0.4
			c0,0.1-0.1,0.2-0.2,0.2H7.6c-0.1,0-0.2-0.1-0.2-0.2v-0.7c0.1-1.6,1.5-2.5,3.2-2.5c2,0,3.3,1.2,3.3,2.8c0,0.8-0.4,1.6-1.2,2.5
			C12,357,11.1,357.9,10.1,359C10.1,359,10.1,359,10.1,359z"/>
		<path class="st0" d="M23.4,352.6h-4.6c0,0-0.1,0-0.1,0.1v2.2c0,0,0,0.1,0.1,0.1h3c0.1,0,0.2,0.1,0.2,0.2v1.4
			c0,0.1-0.1,0.2-0.2,0.2h-3c0,0-0.1,0-0.1,0.1v3.9c0,0.1-0.1,0.2-0.2,0.2h-1.6c-0.1,0-0.2-0.1-0.2-0.2v-9.5c0-0.1,0.1-0.2,0.2-0.2
			h6.4c0.1,0,0.2,0.1,0.2,0.2v1.4C23.5,352.5,23.5,352.6,23.4,352.6z"/>
	</g>
</g>
<g>
	<g>
		<path class="st0" d="M13.8,320.3c0,0.6-0.1,1-0.3,1.4c-0.4,1.2-1.6,1.9-3,1.9s-2.6-0.8-3-2c-0.1-0.4-0.2-0.8-0.2-1.2
			c0-0.1,0.1-0.2,0.2-0.2h1.7c0.1,0,0.2,0.1,0.2,0.2c0,0.2,0.1,0.5,0.2,0.7c0.2,0.5,0.6,0.8,1.1,0.8c0.5,0,0.9-0.2,1.1-0.7
			c0.1-0.3,0.2-0.6,0.2-1c0-0.4-0.1-0.8-0.2-1.1c-0.2-0.4-0.6-0.7-1.1-0.7c-0.2,0-0.5,0.2-0.7,0.4c-0.1,0.1-0.2,0-0.2,0l-0.8-1.2
			c-0.1-0.1,0-0.2,0-0.2l2.2-1.9c0,0,0-0.1,0-0.1H7.7c-0.1,0-0.2-0.1-0.2-0.2v-1.4c0-0.1,0.1-0.2,0.2-0.2h5.8c0.1,0,0.2,0.1,0.2,0.2
			v1.5c0,0.1,0,0.2-0.1,0.2l-1.8,1.7c0,0,0,0.1,0,0.1c0.9,0.2,1.4,0.7,1.7,1.4C13.7,319.2,13.8,319.7,13.8,320.3z"/>
		<path class="st0" d="M23.2,315.3h-4.6c0,0-0.1,0-0.1,0.1v2.2c0,0,0,0.1,0.1,0.1h3c0.1,0,0.2,0.1,0.2,0.2v1.4
			c0,0.1-0.1,0.2-0.2,0.2h-3c0,0-0.1,0-0.1,0.1v3.9c0,0.1-0.1,0.2-0.2,0.2h-1.6c-0.1,0-0.2-0.1-0.2-0.2v-9.5c0-0.1,0.1-0.2,0.2-0.2
			h6.4c0.1,0,0.2,0.1,0.2,0.2v1.4C23.4,315.3,23.3,315.3,23.2,315.3z"/>
	</g>
</g>
<g>
	<g>
		<path class="st0" d="M14.6,279.1v1.4c0,0.1-0.1,0.2-0.2,0.2h-0.6c0,0-0.1,0-0.1,0.1v2.3c0,0.1-0.1,0.2-0.2,0.2H12
			c-0.1,0-0.2-0.1-0.2-0.2v-2.3c0,0,0-0.1-0.1-0.1H7.4c-0.1,0-0.2-0.1-0.2-0.2v-1.1c0-0.1,0-0.1,0-0.2l2.5-5.7
			c0-0.1,0.1-0.1,0.2-0.1h1.8c0.1,0,0.2,0.1,0.1,0.2l-2.3,5.3c0,0,0,0.1,0,0.1h2.1c0,0,0.1,0,0.1-0.1v-1.7c0-0.1,0.1-0.2,0.2-0.2
			h1.6c0.1,0,0.2,0.1,0.2,0.2v1.7c0,0,0,0.1,0.1,0.1h0.6C14.5,278.9,14.6,279,14.6,279.1z"/>
		<path class="st0" d="M23.8,275.1h-4.6c0,0-0.1,0-0.1,0.1v2.2c0,0,0,0.1,0.1,0.1h3c0.1,0,0.2,0.1,0.2,0.2v1.4
			c0,0.1-0.1,0.2-0.2,0.2h-3c0,0-0.1,0-0.1,0.1v3.9c0,0.1-0.1,0.2-0.2,0.2h-1.6c-0.1,0-0.2-0.1-0.2-0.2v-9.5c0-0.1,0.1-0.2,0.2-0.2
			h6.4c0.1,0,0.2,0.1,0.2,0.2v1.4C24,275,23.9,275.1,23.8,275.1z"/>
	</g>
</g>
<g>
	<g>
		<path class="st0" d="M14.1,227.8c0,0.5-0.1,0.9-0.2,1.3c-0.4,1.2-1.6,1.9-3,1.9c-1.4,0-2.6-0.7-3-1.9c-0.1-0.3-0.2-0.5-0.2-0.8
			c0-0.1,0.1-0.2,0.2-0.2h1.7c0.1,0,0.2,0.1,0.2,0.2c0,0.1,0.1,0.2,0.1,0.2c0.2,0.5,0.6,0.8,1.1,0.8c0.5,0,0.9-0.3,1.1-0.8
			c0.1-0.2,0.1-0.5,0.1-0.7s0-0.5-0.1-0.7c-0.1-0.5-0.6-0.8-1.1-0.8c-0.5,0-1,0.3-1.2,0.7c0,0.1-0.1,0.1-0.2,0.1H7.8
			c-0.1,0-0.2-0.1-0.2-0.2v-5.6c0-0.1,0.1-0.2,0.2-0.2h5.8c0.1,0,0.2,0.1,0.2,0.2v1.4c0,0.1-0.1,0.2-0.2,0.2H9.7c0,0-0.1,0-0.1,0.1
			l0,2.1c0,0.1,0,0.1,0.1,0c0.4-0.3,0.9-0.4,1.4-0.4c1.3,0,2.4,0.7,2.8,1.9C14,227,14.1,227.4,14.1,227.8z"/>
		<path class="st0" d="M23.4,222.9h-4.6c0,0-0.1,0-0.1,0.1v2.2c0,0,0,0.1,0.1,0.1h3c0.1,0,0.2,0.1,0.2,0.2v1.4
			c0,0.1-0.1,0.2-0.2,0.2h-3c0,0-0.1,0-0.1,0.1v3.9c0,0.1-0.1,0.2-0.2,0.2h-1.6c-0.1,0-0.2-0.1-0.2-0.2v-9.5c0-0.1,0.1-0.2,0.2-0.2
			h6.4c0.1,0,0.2,0.1,0.2,0.2v1.4C23.5,222.8,23.5,222.9,23.4,222.9z"/>
	</g>
</g>
<g>
	<g>
		<path class="st0" d="M13,180.6c0,0.6-0.1,1.1-0.3,1.5c-0.5,1.1-1.5,1.8-3,1.8c-1.4,0-2.5-0.7-3-1.9c-0.2-0.4-0.2-0.9-0.2-1.4v-4.2
			c0-1.5,1.3-2.5,3.1-2.5c1.8,0,3.1,1,3.1,2.5v0.4c0,0.1-0.1,0.2-0.2,0.2h-1.6c-0.1,0-0.2-0.1-0.2-0.2v-0.1c0-0.6-0.5-1.1-1.1-1.1
			c-0.7,0-1.2,0.5-1.2,1.1v1.3c0,0.1,0,0.1,0.1,0c0.4-0.4,1-0.5,1.5-0.5c1.1,0,2.1,0.5,2.5,1.5C12.9,179.4,13,180,13,180.6z
			 M11,180.6c0-0.3-0.1-0.7-0.2-0.9c-0.2-0.4-0.5-0.6-1-0.6c-0.5,0-0.8,0.2-1.1,0.6c-0.2,0.3-0.2,0.6-0.2,0.9c0,0.3,0.1,0.6,0.2,0.9
			c0.2,0.4,0.6,0.6,1.1,0.6c0.5,0,0.9-0.2,1.1-0.6C10.9,181.3,11,181,11,180.6z"/>
		<path class="st0" d="M22.2,175.6h-4.6c0,0-0.1,0-0.1,0.1v2.2c0,0,0,0.1,0.1,0.1h3c0.1,0,0.2,0.1,0.2,0.2v1.4
			c0,0.1-0.1,0.2-0.2,0.2h-3c0,0-0.1,0-0.1,0.1v3.9c0,0.1-0.1,0.2-0.2,0.2h-1.6c-0.1,0-0.2-0.1-0.2-0.2v-9.5c0-0.1,0.1-0.2,0.2-0.2
			h6.4c0.1,0,0.2,0.1,0.2,0.2v1.4C22.4,175.5,22.3,175.6,22.2,175.6z"/>
	</g>
</g>
<g>
	<g>
		<path class="st0" d="M8.6,129.3l3-7.8c0-0.1,0-0.1-0.1-0.1H8.9c0,0-0.1,0-0.1,0.1v0.6c0,0.1-0.1,0.2-0.2,0.2H7.4
			c-0.1,0-0.2-0.1-0.2-0.2l0-2.2c0-0.1,0.1-0.2,0.2-0.2h6.1c0.1,0,0.2,0.1,0.2,0.2v1.4c0,0.1,0,0.1,0,0.2l-3,7.9
			c0,0.1-0.1,0.1-0.2,0.1H8.7C8.6,129.5,8.5,129.4,8.6,129.3z"/>
		<path class="st0" d="M22.9,121.4h-4.6c0,0-0.1,0-0.1,0.1v2.2c0,0,0,0.1,0.1,0.1h3c0.1,0,0.2,0.1,0.2,0.2v1.4
			c0,0.1-0.1,0.2-0.2,0.2h-3c0,0-0.1,0-0.1,0.1v3.9c0,0.1-0.1,0.2-0.2,0.2h-1.6c-0.1,0-0.2-0.1-0.2-0.2v-9.5c0-0.1,0.1-0.2,0.2-0.2
			h6.4c0.1,0,0.2,0.1,0.2,0.2v1.4C23.1,121.3,23,121.4,22.9,121.4z"/>
	</g>
</g>
<g>
	<g>
		<path class="st0" d="M14.1,80.4c0,0.6-0.2,1.1-0.4,1.4c-0.5,0.9-1.5,1.5-2.9,1.5c-1.3,0-2.4-0.5-2.9-1.6c-0.2-0.4-0.3-0.9-0.3-1.4
			c0-0.6,0.1-1.1,0.3-1.4c0.2-0.4,0.4-0.6,0.7-0.8c0,0,0-0.1,0-0.1c-0.2-0.2-0.4-0.4-0.6-0.7c-0.2-0.4-0.3-0.8-0.3-1.3
			c0-0.6,0.2-1.2,0.6-1.7c0.5-0.7,1.5-1.1,2.6-1.1c1.2,0,2.1,0.5,2.6,1.1c0.4,0.5,0.6,1.1,0.6,1.7c0,0.5-0.1,1-0.4,1.3
			c-0.2,0.2-0.4,0.4-0.6,0.6c0,0,0,0.1,0,0.1c0.3,0.2,0.5,0.4,0.7,0.8S14.1,79.8,14.1,80.4z M12.1,80.2c0-0.4-0.1-0.6-0.2-0.9
			c-0.2-0.4-0.6-0.6-1.1-0.6c-0.5,0-0.8,0.2-1.1,0.6c-0.1,0.2-0.2,0.5-0.2,0.9c0,0.4,0.1,0.7,0.2,0.9c0.2,0.4,0.6,0.5,1,0.5
			c0.4,0,0.8-0.2,1-0.5C12,80.9,12.1,80.6,12.1,80.2z M9.6,76.2c0,0.3,0.1,0.5,0.2,0.7c0.2,0.3,0.5,0.5,1,0.5s0.8-0.2,1-0.5
			c0.1-0.2,0.2-0.5,0.2-0.7c0-0.2,0-0.4-0.1-0.6c-0.2-0.4-0.6-0.6-1.1-0.6c-0.4,0-0.8,0.2-1,0.6C9.7,75.8,9.6,76,9.6,76.2z"/>
		<path class="st0" d="M23.4,75.1h-4.6c0,0-0.1,0-0.1,0.1v2.2c0,0,0,0.1,0.1,0.1h3c0.1,0,0.2,0.1,0.2,0.2V79c0,0.1-0.1,0.2-0.2,0.2
			h-3c0,0-0.1,0-0.1,0.1v3.9c0,0.1-0.1,0.2-0.2,0.2H17c-0.1,0-0.2-0.1-0.2-0.2v-9.5c0-0.1,0.1-0.2,0.2-0.2h6.4
			c0.1,0,0.2,0.1,0.2,0.2V75C23.6,75.1,23.5,75.1,23.4,75.1z"/>
	</g>
</g>
<g>
	<g>
		<path class="st0" d="M13.9,32.3v4.2c0,1.5-1.3,2.5-3.2,2.5c-1.8,0-3.1-1-3.1-2.5v-0.4c0-0.1,0.1-0.2,0.2-0.2h1.6
			c0.1,0,0.2,0.1,0.2,0.2v0.1c0,0.6,0.5,1.1,1.1,1.1c0.7,0,1.2-0.5,1.2-1.1V35c0-0.1,0-0.1-0.1,0c-0.4,0.4-1,0.5-1.5,0.5
			c-1.1,0-2.1-0.5-2.5-1.5c-0.2-0.4-0.4-1-0.4-1.6c0-0.6,0.1-1.1,0.3-1.5c0.5-1.1,1.5-1.8,3-1.8c1.4,0,2.5,0.7,3,1.9
			C13.8,31.4,13.9,31.9,13.9,32.3z M11.7,33.2c0.2-0.3,0.2-0.6,0.2-0.9c0-0.3-0.1-0.6-0.2-0.9c-0.2-0.4-0.6-0.6-1.1-0.6
			c-0.5,0-0.9,0.2-1.1,0.6c-0.1,0.2-0.2,0.5-0.2,0.9c0,0.3,0.1,0.7,0.2,0.9c0.2,0.4,0.5,0.6,1,0.6C11.1,33.8,11.5,33.6,11.7,33.2z"
			/>
		<path class="st0" d="M23.3,30.9h-4.6c0,0-0.1,0-0.1,0.1v2.2c0,0,0,0.1,0.1,0.1h3c0.1,0,0.2,0.1,0.2,0.2v1.4c0,0.1-0.1,0.2-0.2,0.2
			h-3c0,0-0.1,0-0.1,0.1v3.9c0,0.1-0.1,0.2-0.2,0.2h-1.6c-0.1,0-0.2-0.1-0.2-0.2v-9.5c0-0.1,0.1-0.2,0.2-0.2h6.4
			c0.1,0,0.2,0.1,0.2,0.2v1.4C23.5,30.8,23.4,30.9,23.3,30.9z"/>
	</g>
</g>
<g>
	<g>
		<path class="st0" d="M41,80v-0.3c0-0.1,0.1-0.2,0.2-0.2h1.6c0.1,0,0.2,0.1,0.2,0.2v0.2c0,0.7,0.7,1.3,1.9,1.3
			c1.1,0,1.5-0.5,1.5-1.1c0-0.7-0.7-1-2.1-1.5c-1.5-0.5-3.1-1.2-3.1-3c0-1.7,1.4-2.8,3.4-2.8c2.1,0,3.7,1.2,3.7,3v0.2
			c0,0.1-0.1,0.2-0.2,0.2h-1.6c-0.1,0-0.2-0.1-0.2-0.2V76c0-0.7-0.6-1.4-1.8-1.4c-0.9,0-1.4,0.4-1.4,1.1c0,0.7,0.6,1,2.2,1.5
			c1.3,0.5,3,1,3,2.9c0,1.8-1.4,2.8-3.6,2.8C42.5,83,41,81.8,41,80z"/>
		<path class="st0" d="M57.4,73h1.6c0.1,0,0.2,0.1,0.2,0.2v9.5c0,0.1-0.1,0.2-0.2,0.2h-1.6c-0.1,0-0.2-0.1-0.2-0.2v-6.1
			c0-0.1-0.1-0.1-0.1,0l-1.5,2.4c0,0.1-0.1,0.1-0.2,0.1h-0.8c-0.1,0-0.2,0-0.2-0.1L53,76.5c0-0.1-0.1,0-0.1,0v6.1
			c0,0.1-0.1,0.2-0.2,0.2h-1.6c-0.1,0-0.2-0.1-0.2-0.2v-9.5c0-0.1,0.1-0.2,0.2-0.2h1.6c0.1,0,0.2,0,0.2,0.1l2.1,3.3
			c0,0.1,0.1,0.1,0.1,0l2.1-3.3C57.3,73.1,57.3,73,57.4,73z"/>
		<path class="st0" d="M68.2,82.7l-0.4-1.4c0,0,0-0.1-0.1-0.1h-3.4c0,0-0.1,0-0.1,0.1l-0.4,1.4c0,0.1-0.1,0.1-0.2,0.1h-1.8
			c-0.1,0-0.2-0.1-0.1-0.2l3-9.5c0-0.1,0.1-0.1,0.2-0.1h2.2c0.1,0,0.2,0.1,0.2,0.1l3,9.5c0,0.1,0,0.2-0.1,0.2h-1.8
			C68.3,82.8,68.3,82.8,68.2,82.7z M64.8,79.8h2.5c0,0,0.1,0,0.1-0.1l-1.3-4.2c0-0.1-0.1-0.1-0.1,0L64.8,79.8
			C64.7,79.7,64.8,79.8,64.8,79.8z"/>
		<path class="st0" d="M72.9,82.7v-9.5c0-0.1,0.1-0.2,0.2-0.2h1.6c0.1,0,0.2,0.1,0.2,0.2v7.9c0,0,0,0.1,0.1,0.1h4.6
			c0.1,0,0.2,0.1,0.2,0.2v1.4c0,0.1-0.1,0.2-0.2,0.2H73C72.9,82.8,72.9,82.8,72.9,82.7z"/>
		<path class="st0" d="M82.2,82.7v-9.5c0-0.1,0.1-0.2,0.2-0.2H84c0.1,0,0.2,0.1,0.2,0.2v7.9c0,0,0,0.1,0.1,0.1h4.6
			c0.1,0,0.2,0.1,0.2,0.2v1.4c0,0.1-0.1,0.2-0.2,0.2h-6.5C82.3,82.8,82.2,82.8,82.2,82.7z"/>
		<path class="st0" d="M95.4,79.4v-3c0-2.1,1.5-3.5,3.7-3.5s3.7,1.4,3.7,3.5v3c0,2.1-1.5,3.6-3.7,3.6S95.4,81.6,95.4,79.4z
			 M100.8,79.5v-3.1c0-1.1-0.7-1.8-1.7-1.8c-1,0-1.7,0.7-1.7,1.8v3.1c0,1.1,0.7,1.8,1.7,1.8C100.1,81.3,100.8,80.6,100.8,79.5z"/>
		<path class="st0" d="M112.2,74.7h-4.6c0,0-0.1,0-0.1,0.1V77c0,0,0,0.1,0.1,0.1h3c0.1,0,0.2,0.1,0.2,0.2v1.4c0,0.1-0.1,0.2-0.2,0.2
			h-3c0,0-0.1,0-0.1,0.1v3.9c0,0.1-0.1,0.2-0.2,0.2h-1.6c-0.1,0-0.2-0.1-0.2-0.2v-9.5c0-0.1,0.1-0.2,0.2-0.2h6.4
			c0.1,0,0.2,0.1,0.2,0.2v1.4C112.3,74.7,112.3,74.7,112.2,74.7z"/>
		<path class="st0" d="M121.5,74.7h-4.6c0,0-0.1,0-0.1,0.1V77c0,0,0,0.1,0.1,0.1h3c0.1,0,0.2,0.1,0.2,0.2v1.4c0,0.1-0.1,0.2-0.2,0.2
			h-3c0,0-0.1,0-0.1,0.1v3.9c0,0.1-0.1,0.2-0.2,0.2h-1.6c-0.1,0-0.2-0.1-0.2-0.2v-9.5c0-0.1,0.1-0.2,0.2-0.2h6.4
			c0.1,0,0.2,0.1,0.2,0.2v1.4C121.7,74.7,121.6,74.7,121.5,74.7z"/>
		<path class="st0" d="M124.2,82.7v-9.5c0-0.1,0.1-0.2,0.2-0.2h1.6c0.1,0,0.2,0.1,0.2,0.2v9.5c0,0.1-0.1,0.2-0.2,0.2h-1.6
			C124.3,82.8,124.2,82.8,124.2,82.7z"/>
		<path class="st0" d="M129,79.6v-3.2c0-2,1.4-3.4,3.6-3.4c2.2,0,3.6,1.3,3.6,3.2c0,0.1-0.1,0.1-0.2,0.2l-1.6,0.1
			c-0.1,0-0.2,0-0.2-0.2c0-1-0.7-1.6-1.7-1.6c-1,0-1.7,0.7-1.7,1.6v3.4c0,1,0.7,1.6,1.7,1.6c1,0,1.7-0.7,1.7-1.6
			c0-0.1,0.1-0.2,0.2-0.2l1.6,0.1c0.1,0,0.2,0.1,0.2,0.1c0,2-1.5,3.3-3.6,3.3C130.4,83,129,81.6,129,79.6z"/>
		<path class="st0" d="M145.4,74.7h-4.6c0,0-0.1,0-0.1,0.1V77c0,0,0,0.1,0.1,0.1h3c0.1,0,0.2,0.1,0.2,0.2v1.4c0,0.1-0.1,0.2-0.2,0.2
			h-3c0,0-0.1,0-0.1,0.1v2.3c0,0,0,0.1,0.1,0.1h4.6c0.1,0,0.2,0.1,0.2,0.2v1.4c0,0.1-0.1,0.2-0.2,0.2H139c-0.1,0-0.2-0.1-0.2-0.2
			v-9.5c0-0.1,0.1-0.2,0.2-0.2h6.5c0.1,0,0.2,0.1,0.2,0.2v1.4C145.6,74.7,145.5,74.7,145.4,74.7z"/>
	</g>
</g>
<g>
	<g>
		<path class="st0" d="M41,35.7v-0.3c0-0.1,0.1-0.2,0.2-0.2h1.6c0.1,0,0.2,0.1,0.2,0.2v0.2c0,0.7,0.7,1.3,1.9,1.3
			c1.1,0,1.5-0.5,1.5-1.1c0-0.7-0.7-1-2.1-1.5c-1.5-0.5-3.1-1.2-3.1-3c0-1.7,1.4-2.8,3.4-2.8c2.1,0,3.7,1.2,3.7,3v0.2
			c0,0.1-0.1,0.2-0.2,0.2h-1.6c-0.1,0-0.2-0.1-0.2-0.2v-0.1c0-0.7-0.6-1.4-1.8-1.4c-0.9,0-1.4,0.4-1.4,1.1c0,0.7,0.6,1,2.2,1.5
			c1.3,0.5,3,1,3,2.9c0,1.8-1.4,2.8-3.6,2.8C42.5,38.6,41,37.5,41,35.7z"/>
		<path class="st0" d="M57.4,28.7h1.6c0.1,0,0.2,0.1,0.2,0.2v9.5c0,0.1-0.1,0.2-0.2,0.2h-1.6c-0.1,0-0.2-0.1-0.2-0.2v-6.1
			c0-0.1-0.1-0.1-0.1,0l-1.5,2.4c0,0.1-0.1,0.1-0.2,0.1h-0.8c-0.1,0-0.2,0-0.2-0.1L53,32.2c0-0.1-0.1,0-0.1,0v6.1
			c0,0.1-0.1,0.2-0.2,0.2h-1.6c-0.1,0-0.2-0.1-0.2-0.2v-9.5c0-0.1,0.1-0.2,0.2-0.2h1.6c0.1,0,0.2,0,0.2,0.1l2.1,3.3
			c0,0.1,0.1,0.1,0.1,0l2.1-3.3C57.3,28.7,57.3,28.7,57.4,28.7z"/>
		<path class="st0" d="M68.2,38.4L67.8,37c0,0,0-0.1-0.1-0.1h-3.4c0,0-0.1,0-0.1,0.1l-0.4,1.4c0,0.1-0.1,0.1-0.2,0.1h-1.8
			c-0.1,0-0.2-0.1-0.1-0.2l3-9.5c0-0.1,0.1-0.1,0.2-0.1h2.2c0.1,0,0.2,0.1,0.2,0.1l3,9.5c0,0.1,0,0.2-0.1,0.2h-1.8
			C68.3,38.5,68.3,38.5,68.2,38.4z M64.8,35.4h2.5c0,0,0.1,0,0.1-0.1l-1.3-4.2c0-0.1-0.1-0.1-0.1,0L64.8,35.4
			C64.7,35.4,64.8,35.4,64.8,35.4z"/>
		<path class="st0" d="M72.9,38.4v-9.5c0-0.1,0.1-0.2,0.2-0.2h1.6c0.1,0,0.2,0.1,0.2,0.2v7.9c0,0,0,0.1,0.1,0.1h4.6
			c0.1,0,0.2,0.1,0.2,0.2v1.4c0,0.1-0.1,0.2-0.2,0.2H73C72.9,38.5,72.9,38.5,72.9,38.4z"/>
		<path class="st0" d="M82.2,38.4v-9.5c0-0.1,0.1-0.2,0.2-0.2H84c0.1,0,0.2,0.1,0.2,0.2v7.9c0,0,0,0.1,0.1,0.1h4.6
			c0.1,0,0.2,0.1,0.2,0.2v1.4c0,0.1-0.1,0.2-0.2,0.2h-6.5C82.3,38.5,82.2,38.5,82.2,38.4z"/>
		<path class="st0" d="M95.4,35.1v-3c0-2.1,1.5-3.5,3.7-3.5s3.7,1.4,3.7,3.5v3c0,2.1-1.5,3.6-3.7,3.6S95.4,37.3,95.4,35.1z
			 M100.8,35.2v-3.1c0-1.1-0.7-1.8-1.7-1.8c-1,0-1.7,0.7-1.7,1.8v3.1c0,1.1,0.7,1.8,1.7,1.8C100.1,37,100.8,36.3,100.8,35.2z"/>
		<path class="st0" d="M112.2,30.4h-4.6c0,0-0.1,0-0.1,0.1v2.2c0,0,0,0.1,0.1,0.1h3c0.1,0,0.2,0.1,0.2,0.2v1.4
			c0,0.1-0.1,0.2-0.2,0.2h-3c0,0-0.1,0-0.1,0.1v3.9c0,0.1-0.1,0.2-0.2,0.2h-1.6c-0.1,0-0.2-0.1-0.2-0.2v-9.5c0-0.1,0.1-0.2,0.2-0.2
			h6.4c0.1,0,0.2,0.1,0.2,0.2v1.4C112.3,30.3,112.3,30.4,112.2,30.4z"/>
		<path class="st0" d="M121.5,30.4h-4.6c0,0-0.1,0-0.1,0.1v2.2c0,0,0,0.1,0.1,0.1h3c0.1,0,0.2,0.1,0.2,0.2v1.4
			c0,0.1-0.1,0.2-0.2,0.2h-3c0,0-0.1,0-0.1,0.1v3.9c0,0.1-0.1,0.2-0.2,0.2h-1.6c-0.1,0-0.2-0.1-0.2-0.2v-9.5c0-0.1,0.1-0.2,0.2-0.2
			h6.4c0.1,0,0.2,0.1,0.2,0.2v1.4C121.7,30.3,121.6,30.4,121.5,30.4z"/>
		<path class="st0" d="M124.2,38.4v-9.5c0-0.1,0.1-0.2,0.2-0.2h1.6c0.1,0,0.2,0.1,0.2,0.2v9.5c0,0.1-0.1,0.2-0.2,0.2h-1.6
			C124.3,38.5,124.2,38.5,124.2,38.4z"/>
		<path class="st0" d="M129,35.2V32c0-2,1.4-3.4,3.6-3.4c2.2,0,3.6,1.3,3.6,3.2c0,0.1-0.1,0.1-0.2,0.2l-1.6,0.1
			c-0.1,0-0.2,0-0.2-0.2c0-1-0.7-1.6-1.7-1.6c-1,0-1.7,0.7-1.7,1.6v3.4c0,1,0.7,1.6,1.7,1.6c1,0,1.7-0.7,1.7-1.6
			c0-0.1,0.1-0.2,0.2-0.2l1.6,0.1c0.1,0,0.2,0.1,0.2,0.1c0,2-1.5,3.3-3.6,3.3C130.4,38.6,129,37.3,129,35.2z"/>
		<path class="st0" d="M145.4,30.4h-4.6c0,0-0.1,0-0.1,0.1v2.2c0,0,0,0.1,0.1,0.1h3c0.1,0,0.2,0.1,0.2,0.2v1.4
			c0,0.1-0.1,0.2-0.2,0.2h-3c0,0-0.1,0-0.1,0.1v2.3c0,0,0,0.1,0.1,0.1h4.6c0.1,0,0.2,0.1,0.2,0.2v1.4c0,0.1-0.1,0.2-0.2,0.2H139
			c-0.1,0-0.2-0.1-0.2-0.2v-9.5c0-0.1,0.1-0.2,0.2-0.2h6.5c0.1,0,0.2,0.1,0.2,0.2v1.4C145.6,30.3,145.5,30.4,145.4,30.4z"/>
	</g>
</g>
<g>
	<path class="st0" d="M228.7,33.5c-0.5-2.8-3.1-4.8-5.9-4.4l-0.4-2.9h-2h-0.1v-1.5h-1.5v1.5h-0.1h-2l-1.4,9
		c-0.9-1.2-1.8-2.5-2.7-3.7c-0.4,0-0.7,0-1.1,0c1.1,2.3,2.2,4.6,3.3,6.9l-0.5,3h4.3h1.8h4.3l-0.2-1.6c1.4-0.3,2.6-1,3.4-2.2
		C228.7,36.3,229,34.9,228.7,33.5z M226.9,36.9c-0.6,0.9-1.6,1.5-2.7,1.7l-1.3-8.5c2.2-0.2,4.3,1.3,4.7,3.6
		C227.9,34.8,227.6,35.9,226.9,36.9z"/>
	<rect x="211.3" y="29.4" class="st0" width="1.2" height="1.2"/>
	<rect x="210.7" y="25.7" class="st0" width="1.2" height="1.2"/>
	<rect x="209.7" y="27.7" class="st0" width="1.2" height="1.2"/>
</g>
<g>
	<rect x="188.7" y="37.2" class="st0" width="12.6" height="1.4"/>
	<rect x="199.8" y="35.1" class="st0" width="1.3" height="1.3"/>
	<rect x="199.6" y="30.7" class="st0" width="1.3" height="1.3"/>
	<rect x="198.9" y="32.9" class="st0" width="1.3" height="1.3"/>
	<rect x="200.9" y="28.4" class="st0" width="1.3" height="1.3"/>
	<rect x="200.9" y="26.2" class="st0" width="1.3" height="1.3"/>
</g>
<g>
	<path class="st0" d="M229.7,77.5c-0.5-2.8-3.1-4.8-5.9-4.4l-0.4-2.9h-2h-0.1v-1.5h-1.5v1.5h-0.1h-2l-1.4,9
		c-0.9-1.2-1.8-2.5-2.7-3.7c-0.4,0-0.7,0-1.1,0c1.1,2.3,2.2,4.6,3.3,6.9l-0.5,3h4.3h1.8h4.3l-0.2-1.6c1.4-0.3,2.6-1,3.4-2.2
		C229.7,80.3,230,78.9,229.7,77.5z M227.9,80.9c-0.6,0.9-1.6,1.5-2.7,1.7l-1.3-8.5c2.2-0.2,4.3,1.3,4.7,3.6
		C228.9,78.8,228.6,79.9,227.9,80.9z"/>
	<rect x="212.3" y="73.4" class="st0" width="1.2" height="1.2"/>
	<rect x="211.7" y="69.7" class="st0" width="1.2" height="1.2"/>
	<rect x="210.7" y="71.7" class="st0" width="1.2" height="1.2"/>
</g>
<g>
	<rect x="195.2" y="70.6" class="st0" width="1.4" height="1.4"/>
	<polygon class="st0" points="190.7,74.3 191.7,85.6 200,85.6 201,74.3 	"/>
	<rect x="189.8" y="71.8" class="st0" width="12.1" height="1.2"/>
	<g>
		
			<rect x="193" y="81.7" transform="matrix(0.9155 -0.4023 0.4023 0.9155 -16.9567 85.1334)" class="st1" width="2.4" height="2.4"/>
		<rect x="196.3" y="80.5" transform="matrix(0.5 -0.866 0.866 0.5 28.1035 211.3355)" class="st1" width="1.6" height="1.6"/>
		<rect x="194.3" y="77.1" class="st1" width="2" height="2"/>
	</g>
</g>
<g>
	<g>
		<rect x="188.1" y="118.9" class="st0" width="16.1" height="10.2"/>
		<rect x="195.4" y="129.8" class="st0" width="1.5" height="1.5"/>
	</g>
</g>
<g>
	<g>
		<rect x="189.1" y="221.9" class="st0" width="16.1" height="10.2"/>
		<rect x="196.4" y="232.8" class="st0" width="1.5" height="1.5"/>
	</g>
</g>
<g>
	<g>
		<rect x="217.4" y="271.1" class="st0" width="9.5" height="9.5"/>
	</g>
	<rect x="214" y="273.1" class="st1" width="9.5" height="9.5"/>
	<g>
		<rect x="213.5" y="273.6" class="st0" width="9.5" height="9.5"/>
	</g>
</g>
<g>
	<rect x="189.1" y="267.6" class="st0" width="11.1" height="15.5"/>
	<rect x="190.3" y="279.3" class="st1" width="8.6" height="2.3"/>
	<rect x="190.3" y="270.1" class="st1" width="1.3" height="1.3"/>
	<rect x="192.1" y="270.1" class="st1" width="1.3" height="1.3"/>
	<rect x="194" y="270.1" class="st1" width="1.3" height="1.3"/>
	<rect x="195.8" y="270.1" class="st1" width="1.3" height="1.3"/>
	<rect x="197.7" y="270.1" class="st1" width="1.3" height="1.3"/>
	<rect x="190.3" y="272.7" class="st1" width="1.3" height="1.3"/>
	<rect x="192.1" y="272.7" class="st1" width="1.3" height="1.3"/>
	<rect x="194" y="272.7" class="st1" width="1.3" height="1.3"/>
	<rect x="195.8" y="272.7" class="st1" width="1.3" height="1.3"/>
	<rect x="197.7" y="272.7" class="st1" width="1.3" height="1.3"/>
</g>
<g>
	<path class="st0" d="M229.7,178.5c-0.5-2.8-3.1-4.8-5.9-4.4l-0.4-2.9h-2h-0.1v-1.5h-1.5v1.5h-0.1h-2l-1.4,9
		c-0.9-1.2-1.8-2.5-2.7-3.7c-0.4,0-0.7,0-1.1,0c1.1,2.3,2.2,4.6,3.3,6.9l-0.5,3h4.3h1.8h4.3l-0.2-1.6c1.4-0.3,2.6-1,3.4-2.2
		C229.7,181.3,230,179.9,229.7,178.5z M227.9,181.9c-0.6,0.9-1.6,1.5-2.7,1.7l-1.3-8.5c2.2-0.2,4.3,1.3,4.7,3.6
		C228.9,179.8,228.6,180.9,227.9,181.9z"/>
	<rect x="212.3" y="174.4" class="st0" width="1.2" height="1.2"/>
	<rect x="211.7" y="170.7" class="st0" width="1.2" height="1.2"/>
	<rect x="210.7" y="172.7" class="st0" width="1.2" height="1.2"/>
</g>
<g>
	<path class="st0" d="M254.2,275c-0.5-2.8-3.1-4.8-5.9-4.4l-0.4-2.9h-2h-0.1v-1.5h-1.5v1.5H244h-2l-1.4,9c-0.9-1.2-1.8-2.5-2.7-3.7
		c-0.4,0-0.7,0-1.1,0c1.1,2.3,2.2,4.6,3.3,6.9l-0.5,3h4.3h1.8h4.3l-0.2-1.6c1.4-0.3,2.6-1,3.4-2.2
		C254.2,277.8,254.5,276.4,254.2,275z M252.4,278.4c-0.6,0.9-1.6,1.5-2.7,1.7l-1.3-8.5c2.2-0.2,4.3,1.3,4.7,3.6
		C253.4,276.3,253.1,277.4,252.4,278.4z"/>
	<rect x="236.8" y="270.9" class="st0" width="1.2" height="1.2"/>
	<rect x="236.2" y="267.2" class="st0" width="1.2" height="1.2"/>
	<rect x="235.2" y="269.2" class="st0" width="1.2" height="1.2"/>
</g>
<g>
	<rect x="195.2" y="171.6" class="st0" width="1.4" height="1.4"/>
	<polygon class="st0" points="190.7,175.3 191.7,186.6 200,186.6 201,175.3 	"/>
	<rect x="189.8" y="172.8" class="st0" width="12.1" height="1.2"/>
	<g>
		
			<rect x="193" y="182.7" transform="matrix(0.9155 -0.4023 0.4023 0.9155 -57.5874 93.6664)" class="st1" width="2.4" height="2.4"/>
		<rect x="196.3" y="181.5" transform="matrix(0.5 -0.866 0.866 0.5 -59.3653 261.8358)" class="st1" width="1.6" height="1.6"/>
		<rect x="194.3" y="178.1" class="st1" width="2" height="2"/>
	</g>
</g>
<g>
	<rect x="195.2" y="309.6" class="st0" width="1.4" height="1.4"/>
	<polygon class="st0" points="190.7,313.3 191.7,324.6 200,324.6 201,313.3 	"/>
	<rect x="189.8" y="310.8" class="st0" width="12.1" height="1.2"/>
	<g>
		
			<rect x="193" y="320.7" transform="matrix(0.9155 -0.4023 0.4023 0.9155 -113.1025 105.3253)" class="st1" width="2.4" height="2.4"/>
		<rect x="196.3" y="319.5" transform="matrix(0.5 -0.866 0.866 0.5 -178.877 330.8363)" class="st1" width="1.6" height="1.6"/>
		<rect x="194.3" y="316.1" class="st1" width="2" height="2"/>
	</g>
</g>
<line class="st2" x1="187.5" y1="358.3" x2="206.2" y2="358.3"/>
<g>
	<rect x="190.4" y="351.8" class="st0" width="2.9" height="6.1"/>
	<rect x="191.2" y="349.5" class="st0" width="1.3" height="1.3"/>
	<rect x="195.4" y="351.8" class="st0" width="2.9" height="6.1"/>
	<rect x="196.2" y="349.5" class="st0" width="1.3" height="1.3"/>
	<rect x="201.3" y="349.5" class="st0" width="1.3" height="1.3"/>
	<rect x="200.4" y="351.8" class="st0" width="2.9" height="6.1"/>
</g>
<g>
	<rect x="218.5" y="358.5" class="st0" width="2.1" height="2.1"/>
	<rect x="215.8" y="349.2" class="st0" width="2.1" height="11.4"/>
	<polygon class="st0" points="223.3,360.6 226.5,360.6 227.1,360.6 228.5,360.6 228.5,349.2 226.5,349.2 226.5,358.5 223.3,358.5 
		223.3,349.2 221.2,349.2 221.2,360.6 223,360.6 	"/>
</g>
<g>
	<rect x="241.2" y="354.2" class="st0" width="2.1" height="2.1"/>
	<polygon class="st0" points="238.4,360.6 243.9,360.6 245.9,360.6 245.9,360.6 245.9,354.2 243.9,354.2 243.9,358.5 238.4,358.5 
		238.4,351.3 245.9,351.3 245.9,349.2 238.4,349.2 236.4,349.2 236.4,351.3 236.4,360.6 236.5,360.6 	"/>
</g>
</svg>
