<?xml version="1.0" encoding="utf-8"?>
<!-- Generator: Adobe Illustrator 26.3.1, SVG Export Plug-In . SVG Version: 6.00 Build 0)  -->
<svg version="1.1" id="レイヤー_1" xmlns="http://www.w3.org/2000/svg" xmlns:xlink="http://www.w3.org/1999/xlink" x="0px"
	 y="0px" width="852.8px" height="317.5px" viewBox="0 0 852.8 317.5" style="enable-background:new 0 0 852.8 317.5;"
	 xml:space="preserve">
<style type="text/css">
	.st0{fill:#D7D9CF;stroke:#FFFFFF;stroke-width:7.0583;}
	.st1{fill:#F5F3F0;stroke:#FFFFFF;stroke-width:7.0583;}
	.st2{fill:#7A805F;}
	.st3{fill:none;stroke:#7A805F;stroke-width:0.5;stroke-miterlimit:10;}
	.st4{fill:none;stroke:#7A805F;stroke-width:1.66;stroke-miterlimit:10;}
	.st5{fill:none;stroke:#7A805F;stroke-width:0.2823;stroke-miterlimit:10;}
	.st6{fill:#FFFFFF;stroke:#7A805F;stroke-width:0.2712;stroke-miterlimit:10;}
	.st7{fill:none;stroke:#7A805F;stroke-width:0.2693;stroke-linejoin:round;stroke-miterlimit:10;}
	.st8{fill:none;stroke:#7A805F;stroke-width:0.289;stroke-linejoin:round;stroke-miterlimit:10;}
	.st9{fill:none;stroke:#7A805F;stroke-width:0.2653;stroke-linejoin:round;stroke-miterlimit:10;}
	.st10{fill:none;stroke:#7A805F;stroke-width:0.2529;stroke-linejoin:round;stroke-miterlimit:10;}
	.st11{fill:none;stroke:#7A805F;stroke-width:1.66;}
	.st12{fill:none;stroke:#7A805F;stroke-width:0.8406;}
	.st13{fill:none;stroke:#7A805F;stroke-width:0.2703;}
	.st14{fill:none;stroke:#7A805F;stroke-width:0.3583;}
	.st15{fill:none;stroke:#7A805F;stroke-width:0.3541;}
	.st16{opacity:0.2;fill:#7A805F;}
	.st17{opacity:0.2;}
</style>
<path class="st0" d="M766,148.9V83.6c0-13-10.6-23.6-23.6-23.6h-64.3V41h12.7V10.3h141.8l0,0v34.3l15.9,0v113.1H835v16h-39V149
	L766,148.9z"/>
<path class="st1" d="M678.2,60h64.3c13,0,23.6,10.6,23.6,23.6v65.3h-34.3v28.4h-41.4v-20.1H678L678.2,60z"/>
<g>
	<g>
		<g>
			<path class="st2" d="M644.4,136.7v-8.4h5v1.5h-3.6v1.9h2.6v1.5h-2.6v2h3.7v1.5H644.4z"/>
			<path class="st2" d="M654.4,136.7l-2.7-8.4h1.7l1.8,6.1l1.8-6.1h1.7l-2.7,8.4H654.4z"/>
		</g>
	</g>
</g>
<line class="st3" x1="79.9" y1="65.6" x2="98.9" y2="65.6"/>
<line class="st3" x1="59.4" y1="71.1" x2="79.4" y2="71.1"/>
<line class="st3" x1="58.4" y1="71.6" x2="58.4" y2="92.6"/>
<line class="st4" x1="607.1" y1="69.8" x2="640.7" y2="69.8"/>
<g>
	<polygon class="st2" points="273.8,93.6 273.8,97.6 274.8,97.6 274.8,104.8 275.6,104.8 275.6,97.6 276.5,97.6 276.5,93.6 
		277.3,87.6 273.1,87.6 	"/>
	<rect x="274.6" y="85.4" class="st2" width="1.2" height="1.2"/>
</g>
<g>
	<polygon class="st2" points="285.2,97.5 283,91.4 283,87.5 280.3,87.5 280.3,91.4 278.1,97.5 281.2,97.5 281.2,104.8 282.1,104.8 
		282.1,97.5 	"/>
	<rect x="281.1" y="85.4" class="st2" width="1.2" height="1.2"/>
</g>
<line class="st5" x1="610.9" y1="37.6" x2="610.9" y2="102"/>
<line class="st5" x1="617.4" y1="37.6" x2="617.4" y2="102"/>
<line class="st5" x1="623.7" y1="38.4" x2="623.7" y2="102.2"/>
<line class="st5" x1="630.5" y1="38" x2="630.5" y2="102"/>
<line class="st5" x1="636.7" y1="38.4" x2="636.7" y2="102.2"/>
<line class="st5" x1="654.2" y1="40.3" x2="636.9" y2="69.3"/>
<line class="st5" x1="667.7" y1="52.3" x2="637.7" y2="69.4"/>
<line class="st5" x1="638.3" y1="69.5" x2="672.2" y2="69.5"/>
<line class="st5" x1="637.3" y1="70.5" x2="667.5" y2="87.8"/>
<line class="st5" x1="637" y1="70.5" x2="653.4" y2="99.4"/>
<path class="st6" d="M671.7,59.5"/>
<line class="st7" x1="789.2" y1="234.8" x2="789.2" y2="288.7"/>
<line class="st7" x1="782.7" y1="261.5" x2="782.7" y2="288.7"/>
<line class="st7" x1="795" y1="234.5" x2="795" y2="288.5"/>
<line class="st7" x1="800.6" y1="234.5" x2="800.6" y2="288.5"/>
<line class="st7" x1="806.1" y1="234.5" x2="806.1" y2="288.7"/>
<line class="st7" x1="812.1" y1="234.5" x2="812.1" y2="288.7"/>
<line class="st8" x1="823.5" y1="234.5" x2="823.5" y2="261.5"/>
<line class="st8" x1="828.5" y1="234.5" x2="828.5" y2="261.5"/>
<line class="st8" x1="817.6" y1="234.5" x2="817.6" y2="261.5"/>
<line class="st9" x1="755.6" y1="207.4" x2="780.7" y2="207.4"/>
<line class="st9" x1="755.6" y1="213.8" x2="780.7" y2="213.8"/>
<line class="st9" x1="755.6" y1="219.7" x2="780.7" y2="219.7"/>
<line class="st9" x1="755.6" y1="225.1" x2="780.7" y2="225.1"/>
<line class="st10" x1="756.1" y1="292.8" x2="779" y2="292.8"/>
<line class="st10" x1="755.6" y1="298.1" x2="778.4" y2="298.1"/>
<line class="st11" x1="782.7" y1="261.5" x2="828.7" y2="261.5"/>
<line class="st12" x1="26.1" y1="127.9" x2="26.1" y2="170.8"/>
<g>
	<path class="st13" d="M754.7,150L754.7,150"/>
	<path class="st13" d="M734.8,169.8"/>
</g>
<line class="st14" x1="1.3" y1="129.7" x2="52.1" y2="129.7"/>
<line class="st14" x1="1.3" y1="135.2" x2="52.1" y2="135.2"/>
<line class="st14" x1="1.3" y1="141.2" x2="52.1" y2="141.2"/>
<line class="st15" x1="1.3" y1="147.2" x2="52.1" y2="147.2"/>
<line class="st14" x1="1.3" y1="153.4" x2="52.1" y2="153.4"/>
<line class="st14" x1="1.3" y1="158.6" x2="52.1" y2="158.6"/>
<line class="st15" x1="1.3" y1="164.3" x2="25.7" y2="164.3"/>
<line class="st15" x1="1.3" y1="170.6" x2="26.1" y2="170.6"/>
<line class="st4" x1="247.5" y1="177.2" x2="247.5" y2="170.7"/>
<path class="st1" d="M16.7,103.2V58.8h4.2V43.3c0-9.9,8-17.9,17.9-17.9h12v12.3h28.8V24.4l89.6,0.4l0.3,21.4h26.4V24.7l51.1-0.3
	v146.3h-24.2v3.3h-29.3v-30h-22.1v25.1h-27.7v-3.8H97.4v7.6H73.3v-22.7H52.1v-47.2L16.7,103.2z"/>
<polygon class="st0" points="312.1,37.1 322.9,37.1 322.9,24.7 478.9,24.7 478.9,45.3 506.9,45.3 506.9,10.2 667.2,10.2 667.2,38.4 
	606.1,38.4 606.1,108.3 624.1,108.3 624.1,157.2 576.9,157.2 576.9,177.2 531.8,177.2 531.8,157.7 503.4,157.7 503.4,149 480.3,149 
	480.3,177.2 402,177.2 402,167.4 351.6,167.4 351.6,177.2 312,177.2 "/>
<path class="st1" d="M796.1,173.8"/>
<rect x="195.7" y="104.8" class="st16" width="8.9" height="6.4"/>
<rect x="207" y="40.8" class="st16" width="8.9" height="6.4"/>
<rect x="69.9" y="105.3" transform="matrix(-1.836970e-16 1 -1 -1.836970e-16 182.8516 34.2224)" class="st16" width="8.9" height="6.4"/>
<rect x="69.9" y="133.7" transform="matrix(-1.836970e-16 1 -1 -1.836970e-16 211.1889 62.5597)" class="st16" width="8.9" height="6.4"/>
<rect x="149.9" y="40.8" class="st16" width="8.9" height="6.4"/>
<rect x="226.5" y="104.8" class="st16" width="8.9" height="6.4"/>
<rect x="230.5" y="40.8" class="st16" width="8.9" height="6.4"/>
<rect x="191.6" y="105.8" transform="matrix(-1.836970e-16 1 -1 -1.836970e-16 320.862 -78.6206)" class="st16" width="16.3" height="30.6"/>
<rect x="223.3" y="105.8" transform="matrix(-1.836970e-16 1 -1 -1.836970e-16 352.5571 -110.3157)" class="st16" width="16.3" height="30.6"/>
<rect x="147.3" y="17.3" transform="matrix(-1.836970e-16 1 -1 -1.836970e-16 185.7014 -122.4154)" class="st16" width="13.6" height="28.8"/>
<rect x="90.4" y="40.8" class="st16" width="8.9" height="6.4"/>
<rect x="35.8" y="52.1" transform="matrix(-1.836970e-16 1 -1 -1.836970e-16 95.5631 15.0207)" class="st16" width="8.9" height="6.4"/>
<rect x="87.8" y="17.3" transform="matrix(-1.836970e-16 1 -1 -1.836970e-16 126.2067 -62.9207)" class="st16" width="13.6" height="28.8"/>
<rect x="157.8" y="105.3" transform="matrix(-1.836970e-16 1 -1 -1.836970e-16 270.7631 -53.6891)" class="st16" width="8.9" height="6.4"/>
<rect x="152.5" y="146.9" transform="matrix(-1 -1.224647e-16 1.224647e-16 -1 313.9482 300.298)" class="st16" width="8.9" height="6.4"/>
<rect x="207.5" y="146.4" transform="matrix(-1 -1.224647e-16 1.224647e-16 -1 423.8555 299.1527)" class="st16" width="8.9" height="6.4"/>
<rect x="230.8" y="146.4" transform="matrix(-1 -1.224647e-16 1.224647e-16 -1 470.442 299.1527)" class="st16" width="8.9" height="6.4"/>
<rect x="371.7" y="58" class="st16" width="7" height="10"/>
<rect x="371.7" y="74.2" class="st16" width="7" height="10"/>
<rect x="371.7" y="90.4" class="st16" width="7" height="10"/>
<rect x="371.7" y="106.6" class="st16" width="7" height="10"/>
<rect x="371.7" y="122.8" class="st16" width="7" height="10"/>
<rect x="409.6" y="104.4" class="st16" width="9.1" height="9.1"/>
<rect x="406.3" y="79.1" class="st16" width="14.9" height="23.1"/>
<path class="st16" d="M410.8,44.2L410.8,44.2c-4.1,0-7.4-3.3-7.4-7.4V26.6h14.9v10.2C418.3,40.9,414.9,44.2,410.8,44.2z"/>
<rect x="425.2" y="68.5" class="st16" width="9.1" height="9.1"/>
<rect x="409.7" y="68.5" class="st16" width="9.1" height="9.1"/>
<rect x="425.2" y="104.4" class="st16" width="9.1" height="9.1"/>
<rect x="421.9" y="79.1" class="st16" width="14.9" height="23.1"/>
<rect x="440.8" y="68.5" class="st16" width="9.1" height="9.1"/>
<rect x="440.8" y="104.4" class="st16" width="9.1" height="9.1"/>
<rect x="437.5" y="79.1" class="st16" width="14.9" height="23.1"/>
<rect x="456.4" y="68.5" class="st16" width="9.1" height="9.1"/>
<rect x="456.4" y="104.4" class="st16" width="9.1" height="9.1"/>
<rect x="453.2" y="79.1" class="st16" width="14.9" height="23.1"/>
<rect x="472.1" y="68.5" class="st16" width="9.1" height="9.1"/>
<rect x="472.1" y="104.4" class="st16" width="9.1" height="9.1"/>
<rect x="468.8" y="79.1" class="st16" width="14.9" height="23.1"/>
<path class="st16" d="M420.3,139.3h-11.6v-2.5c0-3.2,2.6-5.8,5.8-5.8l0,0c3.2,0,5.8,2.6,5.8,5.8V139.3z"/>
<path class="st16" d="M436.8,139.3h-11.6v-2.5c0-3.2,2.6-5.8,5.8-5.8l0,0c3.2,0,5.8,2.6,5.8,5.8V139.3z"/>
<path class="st16" d="M457,139.3h-11.6v-2.5c0-3.2,2.6-5.8,5.8-5.8l0,0c3.2,0,5.8,2.6,5.8,5.8V139.3z"/>
<path class="st16" d="M473.5,139.3h-11.6v-2.5c0-3.2,2.6-5.8,5.8-5.8l0,0c3.2,0,5.8,2.6,5.8,5.8V139.3z"/>
<path class="st16" d="M540.1,65.1L529.6,70l-1.1-2.3c-1.4-2.9-0.1-6.4,2.8-7.7l0,0c2.9-1.4,6.4-0.1,7.7,2.8L540.1,65.1z"/>
<path class="st16" d="M563.5,70.2l-10.7-4.6l1-2.3c1.3-2.9,4.7-4.3,7.6-3.1v0c3,1.3,4.3,4.7,3.1,7.6L563.5,70.2z"/>
<path class="st16" d="M573.2,91l-2.8-11.3l2.4-0.6c3.1-0.8,6.3,1.1,7,4.2v0c0.8,3.1-1.1,6.3-4.2,7L573.2,91z"/>
<path class="st16" d="M563.1,112.7l7.1-9.2l2,1.5c2.5,2,3,5.6,1.1,8.1v0c-2,2.5-5.6,3-8.1,1.1L563.1,112.7z"/>
<path class="st16" d="M540.4,117.5H552v2.5c0,3.2-2.6,5.8-5.8,5.8l0,0c-3.2,0-5.8-2.6-5.8-5.8V117.5z"/>
<path class="st16" d="M521.1,103.5l7,9.3l-2,1.5c-2.6,1.9-6.2,1.4-8.1-1.1v0c-1.9-2.6-1.4-6.2,1.1-8.1L521.1,103.5z"/>
<path class="st16" d="M521.6,79.4l-3,11.2l-2.4-0.7c-3.1-0.8-4.9-4-4.1-7.1v0c0.8-3.1,4-4.9,7.1-4.1L521.6,79.4z"/>
<rect x="409.8" y="143.2" class="st16" width="23.7" height="14"/>
<rect x="448.4" y="143.2" class="st16" width="23.7" height="14"/>
<circle class="st16" cx="546" cy="91.6" r="24.6"/>
<g class="st17">
	<g>
		<path class="st2" d="M535.1,24.8c-2.8,0-5.1,1.9-5.7,4.5c-0.5-0.2-1.1-0.2-1.7-0.2c-3.3,0-5.9,2.6-5.9,5.9s2.6,5.9,5.9,5.9
			c2.8,0,5.1-1.9,5.7-4.5c0.5,0.2,1.1,0.2,1.7,0.2c3.3,0,5.9-2.6,5.9-5.9S538.4,24.8,535.1,24.8z"/>
	</g>
</g>
<g class="st17">
	<g>
		<path class="st2" d="M579.7,14.6c-2.5-1.3-5.4-0.6-7.1,1.4c-0.4-0.4-0.8-0.7-1.4-1c-2.9-1.5-6.5-0.4-8,2.5c-1.5,2.9-0.4,6.5,2.5,8
			c2.5,1.3,5.4,0.6,7.1-1.4c0.4,0.4,0.8,0.7,1.4,1c2.9,1.5,6.5,0.4,8-2.5S582.6,16.1,579.7,14.6z"/>
	</g>
</g>
<path class="st16" d="M366.5,139.7h-5.9c-1.5,0-2.7-1.2-2.7-2.7V53.5c0-1.5,1.2-2.7,2.7-2.7h5.9c1.5,0,2.7,1.2,2.7,2.7V137
	C369.2,138.5,368,139.7,366.5,139.7z"/>
<path class="st16" d="M438.3,173.3h-30.7c-1.3,0-2.4-1.1-2.4-2.4v-8.1c0-1.3,1.1-2.4,2.4-2.4h30.7c1.3,0,2.4,1.1,2.4,2.4v8.1
	C440.7,172.2,439.7,173.3,438.3,173.3z"/>
<path class="st16" d="M832.9,78.7V48c0-1.3,1.1-2.4,2.4-2.4h8.1c1.3,0,2.4,1.1,2.4,2.4v30.7c0,1.3-1.1,2.4-2.4,2.4h-8.1
	C834,81.1,832.9,80,832.9,78.7z"/>
<path class="st16" d="M707.5,45.6h30.7c1.3,0,2.4,1.1,2.4,2.4v8.1c0,1.3-1.1,2.4-2.4,2.4h-30.7c-1.3,0-2.4-1.1-2.4-2.4v-8.1
	C705.1,46.7,706.2,45.6,707.5,45.6z"/>
<path class="st16" d="M690.2,56.1V13.9c0-1.4,1.1-2.5,2.5-2.5h8.8c1.4,0,2.5,1.1,2.5,2.5v42.2c0,1.4-1.1,2.5-2.5,2.5h-8.8
	C691.3,58.6,690.2,57.5,690.2,56.1z"/>
<path class="st16" d="M832.9,115.9V85.2c0-1.3,1.1-2.4,2.4-2.4h8.1c1.3,0,2.4,1.1,2.4,2.4v30.7c0,1.3-1.1,2.4-2.4,2.4h-8.1
	C834,118.3,832.9,117.2,832.9,115.9z"/>
<path class="st16" d="M832.9,152.5v-30.7c0-1.3,1.1-2.4,2.4-2.4h8.1c1.3,0,2.4,1.1,2.4,2.4v30.7c0,1.3-1.1,2.4-2.4,2.4h-8.1
	C834,154.9,832.9,153.8,832.9,152.5z"/>
<path class="st16" d="M388.8,37.4v-10c0-0.8,0.7-1.5,1.5-1.5h10c0.8,0,1.5,0.7,1.5,1.5v10c0,0.8-0.7,1.5-1.5,1.5h-10
	C389.5,38.9,388.8,38.3,388.8,37.4z"/>
<path class="st16" d="M419.9,37.4v-10c0-0.8,0.7-1.5,1.5-1.5h10c0.8,0,1.5,0.7,1.5,1.5v10c0,0.8-0.7,1.5-1.5,1.5h-10
	C420.5,38.9,419.9,38.3,419.9,37.4z"/>
<path class="st16" d="M456.4,44.4L456.4,44.4c-4.1,0-7.4-3.3-7.4-7.4V26.7h14.9v10.2C463.8,41,460.5,44.4,456.4,44.4z"/>
<path class="st16" d="M434.4,37.6v-10c0-0.8,0.7-1.5,1.5-1.5h10c0.8,0,1.5,0.7,1.5,1.5v10c0,0.8-0.7,1.5-1.5,1.5h-10
	C435.1,39.1,434.4,38.4,434.4,37.6z"/>
<path class="st16" d="M465.5,37.6v-10c0-0.8,0.7-1.5,1.5-1.5h10c0.8,0,1.5,0.7,1.5,1.5v10c0,0.8-0.7,1.5-1.5,1.5h-10
	C466.1,39.1,465.5,38.4,465.5,37.6z"/>
<path class="st16" d="M475.1,173.3h-30.7c-1.3,0-2.4-1.1-2.4-2.4v-8.1c0-1.3,1.1-2.4,2.4-2.4h30.7c1.3,0,2.4,1.1,2.4,2.4v8.1
	C477.5,172.2,476.4,173.3,475.1,173.3z"/>
<rect x="708.5" y="63.3" class="st16" width="23.2" height="70.3"/>
<rect x="697" y="66.8" class="st16" width="9.6" height="9.6"/>
<rect x="697" y="84.1" class="st16" width="9.6" height="9.6"/>
<rect x="697" y="101.5" class="st16" width="9.6" height="9.6"/>
<rect x="697" y="118.8" class="st16" width="9.6" height="9.6"/>
<rect x="733.9" y="66.8" class="st16" width="9.6" height="9.6"/>
<rect x="733.9" y="84.1" class="st16" width="9.6" height="9.6"/>
<rect x="733.9" y="101.5" class="st16" width="9.6" height="9.6"/>
<rect x="733.9" y="118.8" class="st16" width="9.6" height="9.6"/>
<rect x="813.8" y="56.2" class="st16" width="17" height="14.5"/>
<rect x="813.8" y="80.6" class="st16" width="17" height="14.5"/>
<rect x="813.8" y="105.6" class="st16" width="17" height="14.5"/>
<rect x="813.8" y="130.6" class="st16" width="17" height="14.5"/>
<path class="st16" d="M811.5,69.4h-6.1c-3.4,0-6.1-2.7-6.1-6.1v0c0-3.4,2.7-6.1,6.1-6.1h6.1V69.4z"/>
<path class="st16" d="M811.5,94.5h-6.1c-3.4,0-6.1-2.7-6.1-6.1v0c0-3.4,2.7-6.1,6.1-6.1h6.1V94.5z"/>
<path class="st16" d="M811.5,118.8h-6.1c-3.4,0-6.1-2.7-6.1-6.1v0c0-3.4,2.7-6.1,6.1-6.1h6.1V118.8z"/>
<path class="st16" d="M811.5,143.9h-6.1c-3.4,0-6.1-2.7-6.1-6.1v0c0-3.4,2.7-6.1,6.1-6.1h6.1V143.9z"/>
<rect x="794.4" y="14" class="st16" width="15" height="29.1"/>
<rect x="774.7" y="12.2" class="st16" width="15.1" height="15.1"/>
<path class="st16" d="M747,19.9l-7.4-1.6L736.4,33l7.4,1.6c4.1,0.9,8.1-1.7,9-5.7v0C753.6,24.8,751.1,20.8,747,19.9z"/>
<rect x="774.7" y="30.9" class="st16" width="15.1" height="15.1"/>
<rect x="814.4" y="12.2" class="st16" width="15.1" height="15.1"/>
<rect x="814.4" y="30.9" class="st16" width="15.1" height="15.1"/>
<g class="st17">
	<g>
		<polygon class="st2" points="584.9,32.1 556.5,32.1 556.5,13.9 556.4,13.9 556.4,12.1 516.7,12.1 516.7,12.1 507.2,12.1 
			507.2,41.4 516.7,41.4 516.7,21.7 546.9,21.7 546.9,32.1 546.9,32.1 546.9,41.6 546.9,41.6 546.9,41.8 556.5,41.8 556.5,41.6 
			584.9,41.6 		"/>
	</g>
</g>
<rect x="591.9" y="10.6" transform="matrix(6.123234e-17 -1 1 6.123234e-17 581.2364 612.0407)" class="st16" width="9.5" height="9.5"/>
<circle class="st16" cx="721.1" cy="28.8" r="10.3"/>
<rect x="313.5" y="56.2" class="st16" width="15.5" height="22.4"/>
<rect x="323.1" y="29.1" class="st16" width="8.7" height="16.7"/>
<rect x="313.5" y="40.3" class="st16" width="8.7" height="12.7"/>
<g class="st17">
	<g>
		<polygon class="st2" points="325.4,96.7 325.4,82.7 313.5,82.7 313.5,96.7 313.5,97.7 313.5,124.2 329,124.2 329,96.7 		"/>
	</g>
</g>
<g class="st17">
	<g>
		<polygon class="st2" points="328,155.2 328,135.6 324.1,135.6 324.1,168.4 328,168.4 331.8,168.4 331.8,155.2 		"/>
	</g>
</g>
<rect x="161.4" y="101.8" transform="matrix(-1.836970e-16 1 -1 -1.836970e-16 285.4062 -65.2244)" class="st16" width="27.7" height="16.6"/>
<rect x="45.2" y="99.9" transform="matrix(-1.836970e-16 1 -1 -1.836970e-16 168.8702 47.9744)" class="st16" width="30.5" height="17"/>
<rect x="47.7" y="128.4" transform="matrix(-1.836970e-16 1 -1 -1.836970e-16 197.3068 75.995)" class="st16" width="26" height="16.6"/>
<rect x="150.9" y="148.6" transform="matrix(-1.836970e-16 1 -1 -1.836970e-16 319.9727 3.9531)" class="st16" width="14.2" height="26.8"/>
<rect x="216.2" y="113.1" transform="matrix(-1.836970e-16 1 -1 -1.836970e-16 360.3756 -86.4227)" class="st16" width="14.4" height="47.7"/>
<rect x="215.7" y="7.8" transform="matrix(-1.836970e-16 1 -1 -1.836970e-16 254.5058 -191.2198)" class="st16" width="14.4" height="47.7"/>
<path class="st16" d="M50.8,37.6v1.9H40.2c0,0-5.3-0.5-5.3,6.5s0,25.2,0,25.2H16.2V59.5H21V42c0,0,1.4-13.1,12.7-15.1
	S50.8,26,50.8,26V37.6z"/>
<line class="st1" x1="80.4" y1="65.6" x2="99.4" y2="65.6"/>
<line class="st3" x1="123.9" y1="65.6" x2="145.9" y2="65.6"/>
<line class="st3" x1="80.4" y1="24.8" x2="109.6" y2="24.8"/>
<line class="st3" x1="193.7" y1="88.5" x2="215.7" y2="88.5"/>
<line class="st3" x1="97.3" y1="102.5" x2="97.3" y2="123.5"/>
<line class="st3" x1="97.3" y1="135.4" x2="97.3" y2="156.4"/>
<line class="st3" x1="137.2" y1="95.4" x2="137.2" y2="116.4"/>
<line class="st3" x1="137.2" y1="129.4" x2="137.2" y2="150.4"/>
<line class="st3" x1="193.7" y1="172" x2="223" y2="172"/>
<line class="st3" x1="168.7" y1="65.2" x2="190.7" y2="65.2"/>
<line class="st3" x1="226.2" y1="88.5" x2="248.2" y2="88.5"/>
<line class="st3" x1="94.6" y1="23.8" x2="94.6" y2="26"/>
<line class="st3" x1="139.5" y1="24.8" x2="168.6" y2="24.8"/>
<line class="st3" x1="153.6" y1="23.8" x2="153.6" y2="26"/>
<line class="st3" x1="211.3" y1="23.4" x2="211.3" y2="25.5"/>
<line class="st3" x1="285.3" y1="21.7" x2="296.2" y2="21.7"/>
<path class="st3" d="M845.9,96.2"/>
<path class="st3" d="M848,96.2"/>
<g>
	<g>
		<path class="st2" d="M91.5,84.9v-8.4h2.8c1.7,0,2.6,1,2.6,2.8c0,1.1-0.6,2.6-2.6,2.6H93v3H91.5z M93,80.4h1.2
			c0.7,0,1.2-0.3,1.2-1.2c0-0.9-0.5-1.2-1.2-1.2H93V80.4z"/>
		<path class="st2" d="M105.4,84.9h-1.7l-1.4-3c-0.1,0-0.3,0-0.4,0h-1v3h-1.5v-8.4h2.9c2,0,2.7,1.3,2.7,2.7c0,1.1-0.4,1.8-1.1,2.3
			L105.4,84.9z M100.9,80.4h1.4c0.9,0,1.1-0.7,1.1-1.2c0-0.7-0.5-1.2-1.1-1.2h-1.4V80.4z"/>
		<path class="st2" d="M107.8,84.9v-8.4h1.5v8.4H107.8z"/>
		<path class="st2" d="M114.3,84.9l-2.7-8.4h1.7l1.8,6.1l1.8-6.1h1.7l-2.7,8.4H114.3z"/>
		<path class="st2" d="M124.9,84.9l-0.5-1.6h-2.9l-0.5,1.6h-1.6l2.7-8.4h1.7l2.7,8.4H124.9z M121.9,81.8h2l-1-3.2L121.9,81.8z"/>
		<path class="st2" d="M133.7,78h-2.4v6.9h-1.5V78h-2.4v-1.5h6.2V78z"/>
		<path class="st2" d="M136.1,84.9v-8.4h5V78h-3.6V80h2.6v1.5h-2.6v2h3.7v1.5H136.1z"/>
		<path class="st2" d="M147.5,81.8v-2c0-1.7,1-3.4,3.1-3.4s3.1,1.7,3.1,3.4v2c0,1.7-1,3.3-3.1,3.3S147.5,83.5,147.5,81.8z
			 M152.2,81.6v-1.6c0-0.8-0.3-2-1.6-2s-1.6,1.2-1.6,2v1.6c0,1,0.3,2,1.6,2S152.2,82.5,152.2,81.6z"/>
		<path class="st2" d="M156.3,84.9v-8.4h4.9v1.5h-3.3v1.8h2.7v1.5h-2.7v3.5H156.3z"/>
		<path class="st2" d="M163.7,84.9v-8.4h4.9v1.5h-3.3v1.8h2.7v1.5h-2.7v3.5H163.7z"/>
		<path class="st2" d="M171.1,84.9v-8.4h1.5v8.4H171.1z"/>
		<path class="st2" d="M175.2,81.7v-1.8c0-1.9,1.1-3.5,3-3.5c1.5,0,2.7,0.9,2.9,2.4l-1.5,0.3c-0.2-0.7-0.8-1-1.4-1
			c-1.1,0-1.5,0.9-1.5,1.9v1.4c0,1.3,0.3,2.2,1.5,2.2c0.8,0,1.4-0.5,1.5-1.2l1.5,0.1c-0.1,1.6-1.4,2.7-3,2.7
			C176.4,85.1,175.2,83.7,175.2,81.7z"/>
		<path class="st2" d="M183.7,84.9v-8.4h5V78h-3.6V80h2.6v1.5h-2.6v2h3.7v1.5H183.7z"/>
	</g>
</g>
<g>
	<g>
		<path class="st2" d="M404.3,96.2h-0.9l-0.2-0.6c-0.4,0.5-1.1,0.8-2,0.8c-2.2,0-3.2-1.8-3.2-3.6v-1.4c0-1.7,0.9-3.7,3.2-3.7
			c1.9,0,3,1.2,3.1,2.8h-1.5c0-0.7-0.6-1.3-1.5-1.3c-1.4,0-1.7,1.4-1.7,2.5v0.7c0,1.3,0.5,2.4,1.7,2.4c0.8,0,1.7-0.4,1.7-1.5v-0.2
			l-1.4-0.2v-1.2h2.8V96.2z"/>
		<path class="st2" d="M413.1,96.2h-1.7l-1.4-3c-0.1,0-0.3,0-0.4,0h-1v3h-1.5v-8.4h2.9c2,0,2.7,1.3,2.7,2.7c0,1.1-0.4,1.8-1.1,2.3
			L413.1,96.2z M408.6,91.7h1.4c0.9,0,1.1-0.7,1.1-1.2c0-0.7-0.5-1.2-1.1-1.2h-1.4V91.7z"/>
		<path class="st2" d="M415.5,96.2v-8.4h5v1.5H417v1.9h2.6v1.5H417v2h3.7v1.5H415.5z"/>
		<path class="st2" d="M423.4,96.2v-8.4h5v1.5h-3.6v1.9h2.6v1.5h-2.6v2h3.7v1.5H423.4z"/>
		<path class="st2" d="M431.2,96.2v-8.4h1.4l3.4,5.4v-5.4h1.5v8.4H436l-3.4-5.2v5.2H431.2z"/>
		<path class="st2" d="M444.3,96.2v-8.4h1.5v6.9h3.3v1.5H444.3z"/>
		<path class="st2" d="M451.3,93.1v-2c0-1.7,1-3.4,3.1-3.4s3.1,1.7,3.1,3.4v2c0,1.7-1,3.3-3.1,3.3S451.3,94.8,451.3,93.1z M456,92.9
			v-1.6c0-0.8-0.3-2-1.6-2s-1.6,1.2-1.6,2v1.6c0,1,0.3,2,1.6,2S456,93.8,456,92.9z"/>
		<path class="st2" d="M460.1,92.9v-5.1h1.5v5.1c0,1,0.5,1.8,1.5,1.8s1.5-0.8,1.5-1.8v-5.1h1.5v5.1c0,1.8-1,3.4-3,3.4
			C461.1,96.4,460.1,94.8,460.1,92.9z"/>
		<path class="st2" d="M469.1,96.2v-8.4h1.4l3.4,5.4v-5.4h1.5v8.4h-1.4l-3.4-5.2v5.2H469.1z"/>
		<path class="st2" d="M484.3,96.2h-0.9l-0.2-0.6c-0.4,0.5-1.1,0.8-2,0.8c-2.2,0-3.2-1.8-3.2-3.6v-1.4c0-1.7,0.9-3.7,3.2-3.7
			c1.9,0,3,1.2,3.1,2.8h-1.5c0-0.7-0.6-1.3-1.5-1.3c-1.4,0-1.7,1.4-1.7,2.5v0.7c0,1.3,0.5,2.4,1.7,2.4c0.8,0,1.7-0.4,1.7-1.5v-0.2
			l-1.4-0.2v-1.2h2.8V96.2z"/>
		<path class="st2" d="M487.1,96.2v-8.4h5v1.5h-3.6v1.9h2.6v1.5h-2.6v2h3.7v1.5H487.1z"/>
	</g>
</g>
<g>
	<g>
		<path class="st2" d="M700.6,101.5h1.4v8.4h-1.5v-5.1l-1.6,2.9h-1l-1.6-2.9v5.1h-1.5v-8.4h1.4l2.1,4.1L700.6,101.5z"/>
		<path class="st2" d="M705,109.9v-8.4h5v1.5h-3.6v1.9h2.6v1.5h-2.6v2h3.7v1.5H705z"/>
		<path class="st2" d="M712.8,109.9v-8.4h5v1.5h-3.6v1.9h2.6v1.5h-2.6v2h3.7v1.5H712.8z"/>
		<path class="st2" d="M726.5,103h-2.4v6.9h-1.5V103h-2.4v-1.5h6.2V103z"/>
		<path class="st2" d="M729,109.9v-8.4h1.5v8.4H729z"/>
		<path class="st2" d="M733.4,109.9v-8.4h1.4l3.4,5.4v-5.4h1.5v8.4h-1.4l-3.4-5.2v5.2H733.4z"/>
		<path class="st2" d="M748.6,109.9h-0.9l-0.2-0.6c-0.4,0.5-1.1,0.8-2,0.8c-2.2,0-3.2-1.8-3.2-3.6v-1.4c0-1.7,0.9-3.7,3.2-3.7
			c1.9,0,3,1.2,3.1,2.8h-1.5c0-0.7-0.6-1.3-1.5-1.3c-1.4,0-1.7,1.4-1.7,2.5v0.7c0,1.3,0.5,2.4,1.7,2.4c0.8,0,1.7-0.4,1.7-1.5v-0.2
			l-1.4-0.2v-1.2h2.8V109.9z"/>
		<path class="st2" d="M711.3,122.4h-1.7l-1.4-3c-0.1,0-0.3,0-0.4,0h-1v3h-1.5V114h2.9c2,0,2.7,1.3,2.7,2.7c0,1.1-0.4,1.8-1.1,2.3
			L711.3,122.4z M706.8,117.8h1.4c0.9,0,1.1-0.7,1.1-1.2c0-0.7-0.5-1.2-1.1-1.2h-1.4V117.8z"/>
		<path class="st2" d="M713.4,119.2v-2c0-1.7,1-3.4,3.1-3.4s3.1,1.7,3.1,3.4v2c0,1.7-1,3.3-3.1,3.3S713.4,120.9,713.4,119.2z
			 M718,119v-1.6c0-0.8-0.3-2-1.6-2s-1.6,1.2-1.6,2v1.6c0,1,0.3,2,1.6,2S718,120,718,119z"/>
		<path class="st2" d="M721.9,119.2v-2c0-1.7,1-3.4,3.1-3.4s3.1,1.7,3.1,3.4v2c0,1.7-1,3.3-3.1,3.3S721.9,120.9,721.9,119.2z
			 M726.6,119v-1.6c0-0.8-0.3-2-1.6-2s-1.6,1.2-1.6,2v1.6c0,1,0.3,2,1.6,2S726.6,120,726.6,119z"/>
		<path class="st2" d="M736.4,114h1.4v8.4h-1.5v-5.1l-1.6,2.9h-1l-1.6-2.9v5.1h-1.5V114h1.4l2.1,4.1L736.4,114z"/>
	</g>
</g>
<g>
	<g>
		<path class="st2" d="M725,39.9l-2-8.4h1.7l1.2,6.3l1.3-6.3h1.7l1.3,6.3l1.2-6.3h1.7l-2,8.4h-1.9l-1.3-5.6l-1.2,5.6H725z"/>
		<path class="st2" d="M735.1,36.7v-2c0-1.7,1-3.4,3.1-3.4s3.1,1.7,3.1,3.4v2c0,1.7-1,3.3-3.1,3.3S735.1,38.4,735.1,36.7z
			 M739.7,36.5v-1.6c0-0.8-0.3-2-1.6-2s-1.6,1.2-1.6,2v1.6c0,1,0.3,2,1.6,2S739.7,37.5,739.7,36.5z"/>
		<path class="st2" d="M743.6,36.7v-2c0-1.7,1-3.4,3.1-3.4s3.1,1.7,3.1,3.4v2c0,1.7-1,3.3-3.1,3.3S743.6,38.4,743.6,36.7z
			 M748.3,36.5v-1.6c0-0.8-0.3-2-1.6-2s-1.6,1.2-1.6,2v1.6c0,1,0.3,2,1.6,2S748.3,37.5,748.3,36.5z"/>
		<path class="st2" d="M752.5,39.9v-8.4h3c1.8,0,2.8,1.3,2.8,3v2.2c0,2-1,3.2-2.9,3.2H752.5z M753.9,38.4h1.4c0.9,0,1.5-0.5,1.5-1.7
			v-2.1c0-1-0.7-1.6-1.5-1.6h-1.4V38.4z"/>
		<path class="st2" d="M764.7,39.9v-8.4h1.5v6.9h3.3v1.5H764.7z"/>
		<path class="st2" d="M771.8,36.7v-2c0-1.7,1-3.4,3.1-3.4s3.1,1.7,3.1,3.4v2c0,1.7-1,3.3-3.1,3.3S771.8,38.4,771.8,36.7z
			 M776.4,36.5v-1.6c0-0.8-0.3-2-1.6-2s-1.6,1.2-1.6,2v1.6c0,1,0.3,2,1.6,2S776.4,37.5,776.4,36.5z"/>
		<path class="st2" d="M780.5,36.6v-5.1h1.5v5.1c0,1,0.5,1.8,1.5,1.8s1.5-0.8,1.5-1.8v-5.1h1.5v5.1c0,1.8-1,3.4-3,3.4
			C781.5,40,780.5,38.4,780.5,36.6z"/>
		<path class="st2" d="M789.5,39.9v-8.4h1.4l3.4,5.4v-5.4h1.5v8.4h-1.4l-3.4-5.2v5.2H789.5z"/>
		<path class="st2" d="M804.8,39.9h-0.9l-0.2-0.6c-0.4,0.5-1.1,0.8-2,0.8c-2.2,0-3.2-1.8-3.2-3.6V35c0-1.7,0.9-3.7,3.2-3.7
			c1.9,0,3,1.2,3.1,2.8h-1.5c0-0.7-0.6-1.3-1.5-1.3c-1.4,0-1.7,1.4-1.7,2.5v0.7c0,1.3,0.5,2.4,1.7,2.4c0.8,0,1.7-0.4,1.7-1.5v-0.2
			l-1.4-0.2v-1.2h2.8V39.9z"/>
		<path class="st2" d="M807.5,39.9v-8.4h5V33H809v1.9h2.6v1.5H809v2h3.7v1.5H807.5z"/>
	</g>
</g>
<polyline class="st4" points="625.5,108.3 605.9,108.3 605.9,101.6 611.2,101.6 "/>
<polyline class="st11" points="576.9,177.2 576.9,157.2 624.1,157.2 "/>
<line class="st11" x1="656.3" y1="177" x2="690.3" y2="177"/>
<path class="st4" d="M402,167.4v9.9h78.4V149h23v8.7h28.5c0,0,0,18.8,0,19.3"/>
<polyline class="st4" points="312,158.5 312,177.2 351.6,177.2 351.6,167.9 "/>
<polyline class="st4" points="678.2,60 678.2,157.2 690.3,157.2 690.3,177 731.8,177 "/>
<line class="st4" x1="731.8" y1="147.4" x2="731.8" y2="177.2"/>
<line class="st4" x1="796.1" y1="148" x2="796.1" y2="174"/>
<line class="st4" x1="753" y1="148.9" x2="774.9" y2="148.9"/>
<path class="st4" d="M272.8,155.9c0,0.4,0,21.4,0,21.4h24.9c0-3,0-18.7,0-18.7s9.3,0,14.4,0V37.1c-4.1,0-15.5,0-15.5,0
	s0-15.2,0-15.9"/>
<path class="st11" d="M779,306.4v-17.7h72.5v-54.3h-70.8v-27.6c0,0,23.1,0,24.2,0V177h-8.9v-3.2h39v-16h13.5V44.6l-15.9,0V10.3l0,0
	H690.8V41h-12.7v19h64.3c13,0,23.6,10.6,23.6,23.6v65.3"/>
<polyline class="st4" points="312.1,37.1 322.9,37.1 322.8,24.7 478.9,24.7 478.9,45.3 506.9,45.3 506.9,10.2 667.2,10.2 
	667.2,39.6 678.2,39.6 678.2,41 "/>
<line class="st4" x1="624.1" y1="157.2" x2="678" y2="157.2"/>
<path class="st4" d="M607.1,101.6h34.5c16.9,0,30.6-13.7,30.6-30.6v-1.8c0-16.9-13.7-30.6-30.6-30.6h-35.4"/>
<line class="st4" x1="603.9" y1="38.4" x2="667.6" y2="38.4"/>
<polyline class="st4" points="624.2,121.7 624.2,107.8 678.2,107.8 "/>
<polyline class="st4" points="624.2,145.7 624.2,177 633.3,177 "/>
<line class="st11" x1="16.7" y1="71.3" x2="59.6" y2="71.3"/>
<line class="st11" x1="79.6" y1="36.8" x2="79.6" y2="72.1"/>
<polyline class="st4" points="222.9,173 222.9,170.7 247.5,170.7 247.5,21.3 287.6,21.3 "/>
<line class="st11" x1="120" y1="25.1" x2="120" y2="65.2"/>
<line class="st11" x1="98.9" y1="65.2" x2="124.1" y2="65.2"/>
<path class="st11" d="M143.8,64.9h25.9l-0.2-18.7c0.3,0.1,26.4,0,26.4,0V24.7h3.8"/>
<line class="st11" x1="52.3" y1="124" x2="97.4" y2="124"/>
<polyline class="st11" points="52.1,102.9 52.1,92.8 97.3,92.8 97.3,103.6 "/>
<line class="st11" x1="97.3" y1="123" x2="97.3" y2="135.8"/>
<path class="st11" d="M97.3,156.4v16.4h-24v-22.7l-21.2,0v-47c0,0-50,0-50.8-0.2v98.9h138.3v5.3h616v100.2"/>
<line class="st11" x1="136.3" y1="95.9" x2="184.4" y2="95.9"/>
<polyline class="st11" points="137.2,116.4 137.2,129.8 247.5,129.8 "/>
<path class="st11" d="M137.2,150.6v14.6h6.5c0,0,0,3.8,0,3.8l27.7,0v-25.1h13V88.5h10.3"/>
<line class="st11" x1="169.6" y1="46.2" x2="169.2" y2="23.4"/>
<polyline class="st11" points="185,143.9 193.5,143.9 193.5,173.7 "/>
<line class="st4" x1="225.2" y1="24.2" x2="247.1" y2="24.2"/>
<path class="st11" d="M79.6,24.4v13.3H50.8V25.4h-12c-9.9,0-17.9,8-17.9,17.9v15.5h-4.2v44.4"/>
<line class="st11" x1="109" y1="24.7" x2="139.6" y2="24.7"/>
<line class="st11" x1="137.2" y1="165.2" x2="128.6" y2="165.2"/>
<line class="st11" x1="189.3" y1="65.2" x2="247.1" y2="65.2"/>
<polyline class="st11" points="226.2,88.5 215.5,88.5 215.5,129.8 "/>
<line class="st11" x1="52.1" y1="173.7" x2="52.1" y2="149.7"/>
<line class="st3" x1="197.2" y1="24.4" x2="226.3" y2="24.4"/>
</svg>
