<?xml version="1.0" encoding="utf-8"?>
<!-- Generator: Adobe Illustrator 26.3.1, SVG Export Plug-In . SVG Version: 6.00 Build 0)  -->
<svg version="1.1" id="レイヤー_1" xmlns="http://www.w3.org/2000/svg" xmlns:xlink="http://www.w3.org/1999/xlink" x="0px"
	 y="0px" width="123.8px" height="153px" viewBox="0 0 123.8 153" style="enable-background:new 0 0 123.8 153;"
	 xml:space="preserve">
<style type="text/css">
	.st0{display:none;}
	.st1{display:inline;fill:#7B8063;}
	.st2{fill:#FFFFFF;}
</style>
<g class="st0">
	<path class="st1" d="M61.7,67.1c2.4,0,2.7,0,3.6,0.1c0.9,0,1.4,0.2,1.7,0.3c0.4,0.2,0.7,0.4,1,0.7c0.3,0.3,0.5,0.6,0.7,1
		c0.1,0.3,0.3,0.8,0.3,1.7c0,0.9,0.1,1.2,0.1,3.6c0,2.4,0,2.7-0.1,3.6c0,0.9-0.2,1.4-0.3,1.7c-0.2,0.4-0.4,0.7-0.7,1
		c-0.3,0.3-0.6,0.5-1,0.7c-0.3,0.1-0.8,0.3-1.7,0.3c-0.9,0-1.2,0.1-3.6,0.1s-2.7,0-3.6-0.1c-0.9,0-1.4-0.2-1.7-0.3
		c-0.4-0.2-0.7-0.4-1-0.7c-0.3-0.3-0.5-0.6-0.7-1c-0.1-0.3-0.3-0.8-0.3-1.7c0-0.9-0.1-1.2-0.1-3.6c0-2.4,0-2.7,0.1-3.6
		c0-0.9,0.2-1.4,0.3-1.7c0.2-0.4,0.4-0.7,0.7-1c0.3-0.3,0.6-0.5,1-0.7c0.3-0.1,0.8-0.3,1.7-0.3C59.1,67.1,59.3,67.1,61.7,67.1
		 M61.7,65.5c-2.4,0-2.8,0-3.7,0.1c-1,0-1.6,0.2-2.2,0.4c-0.6,0.2-1.1,0.5-1.6,1c-0.5,0.5-0.8,1-1,1.6c-0.2,0.6-0.4,1.2-0.4,2.2
		c0,1-0.1,1.3-0.1,3.7c0,2.4,0,2.8,0.1,3.7c0,1,0.2,1.6,0.4,2.2c0.2,0.6,0.5,1.1,1,1.6c0.5,0.5,1,0.8,1.6,1c0.6,0.2,1.2,0.4,2.2,0.4
		c1,0,1.3,0.1,3.7,0.1c2.4,0,2.8,0,3.7-0.1c1,0,1.6-0.2,2.2-0.4c0.6-0.2,1.1-0.5,1.6-1c0.5-0.5,0.8-1,1-1.6c0.2-0.6,0.4-1.2,0.4-2.2
		c0-1,0.1-1.3,0.1-3.7c0-2.4,0-2.8-0.1-3.7c0-1-0.2-1.6-0.4-2.2c-0.2-0.6-0.5-1.1-1-1.6s-1-0.8-1.6-1c-0.6-0.2-1.2-0.4-2.2-0.4
		C64.5,65.5,64.2,65.5,61.7,65.5z M61.7,69.9c-2.6,0-4.6,2.1-4.6,4.6c0,2.6,2.1,4.6,4.6,4.6c2.6,0,4.6-2.1,4.6-4.6
		C66.4,72,64.3,69.9,61.7,69.9z M61.7,77.5c-1.7,0-3-1.3-3-3c0-1.7,1.3-3,3-3s3,1.3,3,3C64.7,76.2,63.4,77.5,61.7,77.5z M67.6,69.7
		c0,0.6-0.5,1.1-1.1,1.1s-1.1-0.5-1.1-1.1s0.5-1.1,1.1-1.1S67.6,69.1,67.6,69.7z"/>
</g>
<g>
	<path class="st2" d="M82.1,41.1l0.2-3.8l1.2-21.5L62.3,0L0,2.8l1.3,31.7L9.2,56l1.1,33.2L76,108l27.9-29.8l2.9-32.6L82.1,41.1z
		 M4.9,33.8L3.8,6.2l57.4-2.6l18.6,13.9l-1.5,26.5l0,0L78,48.8l-65.8,5L4.9,33.8z M100.4,76.7l-25.5,27.3L13.8,86.5l-1-29.1
		l68.6-5.2l0.4-7.4l21,3.8L100.4,76.7z"/>
	<g>
		<path class="st2" d="M23.7,148.1v-3c0-2.5,1.4-5,4.5-5s4.5,2.5,4.5,5v3c0,2.5-1.4,4.9-4.5,4.9S23.7,150.6,23.7,148.1z M30.6,147.8
			v-2.4c0-1.2-0.4-3-2.3-3s-2.3,1.7-2.3,3v2.4c0,1.4,0.5,2.9,2.3,2.9S30.6,149.2,30.6,147.8z"/>
		<path class="st2" d="M37.7,152.8v-12.4h7.2v2.3H40v2.7h3.9v2.3H40v5.1H37.7z"/>
		<path class="st2" d="M49.7,152.8v-12.4h7.2v2.3h-4.9v2.7h3.9v2.3h-3.9v5.1H49.7z"/>
		<path class="st2" d="M61.6,152.8v-12.4h2.2v12.4H61.6z"/>
		<path class="st2" d="M68.8,148v-2.7c0-2.8,1.6-5.1,4.5-5.1c2.2,0,3.9,1.4,4.3,3.5l-2.2,0.4c-0.3-1.1-1.1-1.5-2.1-1.5
			c-1.6,0-2.3,1.3-2.3,2.9v2.1c0,1.9,0.4,3.3,2.1,3.3c1.2,0,2-0.7,2.2-1.8l2.3,0.2c-0.2,2.3-2,3.9-4.5,3.9
			C70.4,153,68.8,151,68.8,148z"/>
		<path class="st2" d="M82.3,152.8v-12.4h7.4v2.2h-5.3v2.8h3.9v2.2h-3.9v3H90v2.2H82.3z"/>
	</g>
	<g>
		<path class="st2" d="M3,135.5V117h6.2c3.7,0,6,1.6,6,5.1c0,2.5-1.2,3.7-2.6,3.8c1.4,0.1,3,1.5,3,4.1c0,2.9-1.8,5.4-5.9,5.4H3z
			 M6.2,124.5h3c1.5,0,2.5-0.9,2.5-2.3c0-1.3-1.1-2-2.4-2H6.2V124.5z M6.2,132.3h3.1c1.4,0,2.7-0.8,2.7-2.3c0-1.4-1.1-2.2-2.7-2.2
			H6.2V132.3z"/>
		<path class="st2" d="M22.9,135.5V117h3.3v15.3h7.4v3.3H22.9z"/>
		<path class="st2" d="M39.6,128.6v-4.5c0-3.7,2.2-7.4,6.8-7.4c4.6,0,6.8,3.7,6.8,7.4v4.5c0,3.7-2.2,7.3-6.8,7.3
			C41.8,135.9,39.6,132.3,39.6,128.6z M49.8,128.1v-3.6c0-1.9-0.6-4.4-3.4-4.4c-2.9,0-3.4,2.6-3.4,4.4v3.6c0,2.1,0.7,4.4,3.4,4.4
			C49.1,132.5,49.8,130.2,49.8,128.1z"/>
		<path class="st2" d="M59.8,128.3v-4c0-4.2,2.4-7.6,6.7-7.6c3.3,0,5.9,2.1,6.4,5.3l-3.3,0.6c-0.4-1.6-1.7-2.3-3.1-2.3
			c-2.4,0-3.4,2-3.4,4.3v3.1c0,2.8,0.6,4.9,3.2,4.9c1.8,0,3.1-1.1,3.2-2.7L73,130c-0.3,3.5-3.1,5.9-6.7,5.9
			C62.3,135.9,59.8,132.9,59.8,128.3z"/>
		<path class="st2" d="M90.5,135.5l-4.9-8l-2.1,2.8v5.2h-3.3V117h3.3v7.9l6.1-7.9h4l-5.8,7.6l6.8,10.9H90.5z"/>
		<path class="st2" d="M99,130.2l3.4-0.4c0.3,1.9,1.6,2.8,3.1,2.9c1.2,0.1,2.8-0.4,2.9-1.7c0.1-0.7-0.1-1.6-2.3-2.5l-2.5-1
			c-2.8-1.2-4.2-2.9-4.2-5.4c0-3.2,2.5-5.4,6.1-5.4c3.4,0,5.6,2.1,6.1,5.2l-3.3,0.5c-0.2-1.4-1.2-2.4-2.9-2.4
			c-1.4,0-2.7,0.8-2.7,2.2c0,1.1,0.7,1.7,2.7,2.5l2.8,1.2c2.5,1,3.5,2.7,3.5,4.7c0,3.2-2.7,5.4-6.2,5.4
			C102.3,135.9,99.4,133.5,99,130.2z"/>
		<path class="st2" d="M123.8,120.4c0,2.2-1.8,4.1-4,4.1c-2.3,0-4.1-1.8-4.1-4.1c0-2.3,1.8-4.1,4.1-4.1
			C122,116.3,123.8,118.1,123.8,120.4z M122.9,120.4c0-1.8-1.4-3.2-3.1-3.2c-1.8,0-3.2,1.4-3.2,3.2c0,1.7,1.4,3.1,3.2,3.1
			C121.5,123.5,122.9,122.1,122.9,120.4z M121.3,119.6c0,0.5-0.2,0.9-0.6,1.1l0.8,1.7h-0.8l-0.7-1.5h-0.1h-0.5v1.5h-0.8v-4.3h1.5
			C120.8,118.2,121.3,118.7,121.3,119.6L121.3,119.6z M119.3,119v1.1h0.6c0.4,0,0.6-0.2,0.6-0.6c0-0.3-0.2-0.5-0.6-0.5H119.3z"/>
	</g>
</g>
</svg>
