<?xml version="1.0" encoding="utf-8"?>
<!-- Generator: Adobe Illustrator 26.3.1, SVG Export Plug-In . SVG Version: 6.00 Build 0)  -->
<svg version="1.1" id="レイヤー_1" xmlns="http://www.w3.org/2000/svg" xmlns:xlink="http://www.w3.org/1999/xlink" x="0px"
	 y="0px" width="10.3px" height="12px" viewBox="0 0 10.3 12" style="enable-background:new 0 0 10.3 12;" xml:space="preserve">
<style type="text/css">
	.st0{display:none;}
	.st1{display:inline;fill:#7B8063;}
	.st2{display:inline;}
	.st3{fill:#7B8063;}
	.st4{fill:#FFFFFF;}
	.st5{display:inline;fill:#FFFFFF;}
	.st6{fill:#7A805F;}
</style>
<g class="st0">
	<rect x="1.7" y="8.4" class="st1" width="6.4" height="0.7"/>
	<rect x="7.4" y="7.4" class="st1" width="0.6" height="0.6"/>
	<rect x="7.3" y="5.1" class="st1" width="0.6" height="0.6"/>
	<rect x="6.9" y="6.3" class="st1" width="0.6" height="0.6"/>
	<rect x="7.9" y="4" class="st1" width="0.6" height="0.6"/>
	<rect x="7.9" y="2.9" class="st1" width="0.6" height="0.6"/>
</g>
<g class="st0">
	<g class="st2">
		<polygon class="st3" points="1.9,5.1 1.9,7.5 2.4,7.5 2.4,12 3,12 3,7.5 3.5,7.5 3.5,5.1 4,1.4 1.4,1.4 		"/>
		<rect x="2.3" class="st3" width="0.7" height="0.7"/>
	</g>
	<g class="st2">
		<polygon class="st3" points="8.9,7.5 7.6,3.8 7.6,1.3 5.9,1.3 5.9,3.8 4.5,7.5 6.5,7.5 6.5,12 7,12 7,7.5 		"/>
		<rect x="6.3" class="st3" width="0.7" height="0.7"/>
	</g>
</g>
<g class="st0">
	<rect x="4.7" y="1.4" class="st1" width="0.8" height="0.8"/>
	<polygon class="st1" points="2,3.7 2.6,10.6 7.7,10.6 8.3,3.7 	"/>
	<rect x="1.4" y="2.1" class="st1" width="7.4" height="0.7"/>
	<g class="st2">
		<rect x="3.4" y="8.2" transform="matrix(0.9155 -0.4023 0.4023 0.9155 -3.2508 2.4207)" class="st4" width="1.5" height="1.5"/>
		<rect x="5.4" y="7.5" transform="matrix(0.5 -0.866 0.866 0.5 -3.9733 9.109)" class="st4" width="1" height="1"/>
		<rect x="4.2" y="5.4" class="st4" width="1.2" height="1.2"/>
	</g>
</g>
<g class="st0">
	<rect y="2.1" class="st1" width="10.3" height="6.5"/>
	<rect x="4.7" y="9" class="st1" width="1" height="1"/>
</g>
<g class="st0">
	<g class="st2">
		<rect x="3.2" y="2" class="st3" width="6.4" height="6.4"/>
	</g>
	<rect x="1" y="3.3" class="st5" width="6.4" height="6.4"/>
	<g class="st2">
		<rect x="0.7" y="3.7" class="st3" width="6.4" height="6.4"/>
	</g>
</g>
<g class="st0">
	<rect x="1.9" y="1.4" class="st1" width="6.6" height="9.2"/>
	<rect x="2.6" y="8.3" class="st5" width="5.1" height="1.4"/>
	<rect x="2.6" y="2.9" class="st5" width="0.7" height="0.7"/>
	<rect x="3.7" y="2.9" class="st5" width="0.7" height="0.7"/>
	<rect x="4.8" y="2.9" class="st5" width="0.7" height="0.7"/>
	<rect x="5.8" y="2.9" class="st5" width="0.7" height="0.7"/>
	<rect x="7" y="2.9" class="st5" width="0.7" height="0.7"/>
	<rect x="2.6" y="4.4" class="st5" width="0.7" height="0.7"/>
	<rect x="3.7" y="4.4" class="st5" width="0.7" height="0.7"/>
	<rect x="4.8" y="4.4" class="st5" width="0.7" height="0.7"/>
	<rect x="5.8" y="4.4" class="st5" width="0.7" height="0.7"/>
	<rect x="7" y="4.4" class="st5" width="0.7" height="0.7"/>
</g>
<g class="st0">
	<rect x="1.4" y="4.9" class="st1" width="1.7" height="3.5"/>
	<rect x="1.9" y="3.6" class="st1" width="0.7" height="0.7"/>
	<rect x="4.3" y="4.9" class="st1" width="1.7" height="3.5"/>
	<rect x="4.8" y="3.6" class="st1" width="0.7" height="0.7"/>
	<rect x="7.7" y="3.6" class="st1" width="0.7" height="0.7"/>
	<rect x="7.2" y="4.9" class="st1" width="1.7" height="3.5"/>
</g>
<g>
	<rect x="2.9" y="8.2" class="st6" width="1.3" height="1.3"/>
	<rect x="1.2" y="2.4" class="st6" width="1.3" height="7"/>
	<polygon class="st6" points="5.9,9.5 7.8,9.5 8.2,9.5 9.1,9.5 9.1,2.4 7.8,2.4 7.8,8.2 5.9,8.2 5.9,2.4 4.6,2.4 4.6,9.5 5.7,9.5 	
		"/>
</g>
</svg>
