<?xml version="1.0" encoding="utf-8"?>
<!-- Generator: Adobe Illustrator 26.3.1, SVG Export Plug-In . SVG Version: 6.00 Build 0)  -->
<svg version="1.1" id="レイヤー_1" xmlns="http://www.w3.org/2000/svg" xmlns:xlink="http://www.w3.org/1999/xlink" x="0px"
	 y="0px" width="66.6px" height="56px" viewBox="0 0 66.6 56" style="enable-background:new 0 0 66.6 56;" xml:space="preserve">
<style type="text/css">
	.st0{display:none;}
	.st1{display:inline;}
	.st2{fill:#7A7E62;}
	.st3{fill:none;stroke:#7A7E62;stroke-width:3;stroke-miterlimit:10;}
	.st4{fill:#535252;}
	.st5{fill:#FFFFFF;}
</style>
<g class="st0">
	<g class="st1">
		<rect y="21.1" class="st2" width="66.6" height="5.1"/>
		<rect x="4.2" y="25" class="st2" width="5.5" height="27.5"/>
		<rect x="55.9" y="23.8" class="st2" width="5.5" height="27.5"/>
		<rect x="24" y="3.5" class="st2" width="18.5" height="15.7"/>
		<rect x="23.8" y="27.5" class="st2" width="19" height="7.4"/>
		<rect x="23.8" y="34.9" class="st2" width="3.5" height="16.6"/>
		<rect x="39.3" y="34.9" class="st2" width="3.5" height="16.6"/>
	</g>
</g>
<g class="st0">
	<g class="st1">
		<path class="st2" d="M33.3,53c-13.8,0-25-11.2-25-25s11.2-25,25-25s25,11.2,25,25S47.1,53,33.3,53z M33.3,6c-12.1,0-22,9.9-22,22
			s9.9,22,22,22s22-9.9,22-22S45.4,6,33.3,6z"/>
		<rect x="31.8" y="4.5" class="st2" width="3" height="47"/>
		<path class="st2" d="M34,52.8l-1.4-2.6c0.5-0.3,12.7-7.2,13.2-21.2c0.4-9.4-4.8-18.5-13.2-23.1L34,3.2
			c9.5,5.2,15.2,15.2,14.8,25.9C48.2,44.8,34.6,52.5,34,52.8z"/>
		<path class="st2" d="M31.6,52.8c-0.6-0.3-14.2-8-14.8-23.8C16.4,18.3,22.1,8.4,31.6,3.2L33,5.8c-8.4,4.6-13.6,13.7-13.2,23.1
			C20.3,43,32.5,49.9,33,50.2L31.6,52.8z"/>
		<path class="st3" d="M9.8,28"/>
		<rect x="9.8" y="26.5" class="st2" width="47" height="3"/>
		<rect x="12.8" y="14.5" class="st2" width="41" height="3"/>
		<rect x="12.8" y="38.5" class="st2" width="41" height="3"/>
	</g>
</g>
<g class="st0">
	<g class="st1">
		<g>
			<polyline class="st4" points="38.7,28.8 38.7,14.4 28.1,14.4 28.1,28.8 			"/>
			<polygon class="st4" points="39.2,28.8 38.2,28.8 38.2,14.9 28.6,14.9 28.6,28.8 27.6,28.8 27.6,13.9 39.2,13.9 			"/>
		</g>
		<g>
			<polyline class="st4" points="38.7,28.8 38.7,14.4 28.1,14.4 28.1,28.8 			"/>
			<polygon class="st4" points="40,28.8 37.4,28.8 37.4,15.8 29.4,15.8 29.4,28.8 26.7,28.8 26.7,13.1 40,13.1 			"/>
		</g>
		<g>
			<path class="st2" d="M38.7,34.5c0-5,0-15,0-20H28.1c0,5,0,15,0,20C31.6,34.5,35.2,34.5,38.7,34.5z"/>
			<path class="st2" d="M41.2,37H25.6v-25h15.7V37z M30.6,32h5.7v-15h-5.7V32z"/>
		</g>
		<g>
			<path class="st2" d="M51.9,34.5c0-0.5,0-1.4,0-1.9H41.2c0,0.5,0,1.4,0,1.9C44.8,34.5,48.4,34.5,51.9,34.5z"/>
			<rect x="38.7" y="30.1" class="st2" width="15.7" height="6.9"/>
		</g>
		<rect x="30" class="st2" width="6.8" height="6.8"/>
		<rect x="12.2" y="39.2" class="st2" width="34.8" height="16.5"/>
		<rect x="49.4" y="34.5" class="st2" width="5" height="21.5"/>
		<rect x="12.2" y="20.3" class="st2" width="8.5" height="18.8"/>
	</g>
</g>
<g class="st0">
	<g class="st1">
		<path class="st2" d="M46.3,38.6c-10.4,0-20.9,0-31.3,0c-0.8-10.2-1.6-20.3-2.4-30.5h36.1C47.9,18.3,47.1,28.4,46.3,38.6z"/>
		<g>
			<line class="st4" x1="9.2" y1="45.4" x2="52.1" y2="45.4"/>
			<rect x="9.2" y="42.9" class="st2" width="42.9" height="5"/>
		</g>
		<path class="st2" d="M45.5,34.3l-0.4-5c4-0.3,7.2-3.5,7.3-7.2c0.1-1.9-0.8-3.9-2.3-5.3c-1.7-1.6-4-2.4-6.3-2.3l-0.4-5
			c3.7-0.3,7.4,1.1,10.1,3.6c2.5,2.4,4,5.8,3.9,9.1C57.2,28.5,52,33.8,45.5,34.3z"/>
	</g>
</g>
<g class="st0">
	<g class="st1">
		<g>
			<rect x="23" y="6.6" class="st2" width="34.1" height="34.1"/>
			<path class="st5" d="M57.1,6.6v34.1H23V6.6H57.1 M60.1,3.6h-3H23h-3v3v34.1v3h3h34.1h3v-3V6.6V3.6L60.1,3.6z"/>
		</g>
		<g>
			<rect x="9.4" y="15.3" class="st2" width="34.1" height="34.1"/>
			<path class="st5" d="M43.6,15.3v34.1H9.4V15.3H43.6 M46.6,12.3h-3H9.4h-3v3v34.1v3h3h34.1h3v-3V15.3V12.3L46.6,12.3z"/>
		</g>
	</g>
</g>
<g>
	<g>
		<polygon class="st2" points="62.3,54 57.3,54 57.3,6.5 9.3,6.5 9.3,54 4.3,54 4.3,1.5 62.3,1.5 		"/>
		<g>
			<path class="st2" d="M39,52c0-5.4,0-15.9,0-21.3H27.7c0,5.4,0,15.9,0,21.3C31.4,52,35.2,52,39,52z"/>
			<path class="st2" d="M41.5,54.5H25.2V28.2h16.3V54.5z M30.2,49.5h6.3V33.2h-6.3V49.5z"/>
		</g>
		<g>
			<rect x="29.7" y="15.4" class="st2" width="7.2" height="7.2"/>
			<path class="st2" d="M37.5,23.2h-8.2v-8.2h8.2V23.2z M30.2,22.2h6.2v-6.2h-6.2V22.2z"/>
		</g>
	</g>
</g>
</svg>
