<?xml version="1.0" encoding="utf-8"?>
<!-- Generator: Adobe Illustrator 26.3.1, SVG Export Plug-In . SVG Version: 6.00 Build 0)  -->
<svg version="1.1" id="レイヤー_1" xmlns="http://www.w3.org/2000/svg" xmlns:xlink="http://www.w3.org/1999/xlink" x="0px"
	 y="0px" width="243.5px" height="24.6px" viewBox="0 0 243.5 24.6" style="enable-background:new 0 0 243.5 24.6;"
	 xml:space="preserve">
<style type="text/css">
	.st0{fill:#FFFFFF;}
</style>
<path class="st0" d="M0,24.2V0.4h8c4.7,0,7.6,2.1,7.6,6.6c0,3.2-1.6,4.8-3.4,4.9C14,12,16,13.8,16,17.2c0,3.7-2.3,7-7.5,7H0z
	 M4.2,10.1H8c1.9,0,3.2-1.2,3.2-2.9s-1.4-2.6-3-2.6h-4V10.1z M4.2,20.1h4c1.8,0,3.5-1,3.5-2.9c0-1.8-1.4-2.9-3.5-2.9h-4V20.1z"/>
<path class="st0" d="M23.2,24.2V0.4h4.2V20h9.5v4.2H23.2z"/>
<path class="st0" d="M42.9,15.3V9.5c0-4.8,2.8-9.5,8.7-9.5s8.7,4.7,8.7,9.5v5.7c0,4.8-2.8,9.3-8.7,9.3
	C45.7,24.6,42.9,20.1,42.9,15.3z M56,14.7V10c0-2.4-0.7-5.7-4.4-5.7s-4.4,3.3-4.4,5.7v4.6c0,2.7,1,5.6,4.4,5.6S56,17.4,56,14.7z"/>
<path class="st0" d="M66.9,14.9V9.8c0-5.4,3-9.8,8.6-9.8c4.3,0,7.5,2.7,8.2,6.7l-4.3,0.7c-0.5-2-2.1-3-3.9-3c-3.1,0-4.4,2.5-4.4,5.5
	v3.9c0,3.6,0.8,6.3,4.1,6.3c2.3,0,3.9-1.4,4.1-3.4l4.4,0.3c-0.4,4.4-3.9,7.5-8.6,7.5C70.1,24.6,66.9,20.8,66.9,14.9z"/>
<path class="st0" d="M103.9,24.2L97.6,14L95,17.5v6.7h-4.3V0.4H95v10.2l7.8-10.2h5.1l-7.4,9.8l8.7,14H103.9z"/>
<path class="st0" d="M113.2,17.3l4.4-0.5c0.4,2.4,2.1,3.6,4,3.7c1.6,0.1,3.5-0.5,3.8-2.2c0.1-0.9-0.2-2-3-3.2l-3.2-1.3
	c-3.6-1.6-5.3-3.7-5.3-6.9c0-4.1,3.2-6.9,7.8-6.9c4.4,0,7.2,2.7,7.9,6.6l-4.2,0.6c-0.3-1.7-1.6-3.1-3.7-3.1c-1.8,0-3.4,1-3.4,2.8
	c0,1.4,0.9,2.1,3.5,3.2l3.6,1.5c3.2,1.3,4.5,3.4,4.5,6.1c0,4.1-3.4,6.9-8,6.9C117.4,24.6,113.8,21.6,113.2,17.3z"/>
<path class="st0" d="M146.5,24.2V0.4h14.3v4.2h-10.1V10h7.5v4.2h-7.5V20h10.6v4.2H146.5z"/>
<path class="st0" d="M168.4,24.2V0.4h8c4.7,0,7.6,2.1,7.6,6.6c0,3.2-1.6,4.8-3.4,4.9c1.8,0.1,3.8,1.9,3.8,5.3c0,3.7-2.3,7-7.5,7
	H168.4z M172.6,10.1h3.8c1.9,0,3.2-1.2,3.2-2.9s-1.4-2.6-3-2.6h-4V10.1z M172.6,20.1h4c1.8,0,3.5-1,3.5-2.9c0-1.8-1.4-2.9-3.5-2.9
	h-4V20.1z"/>
<path class="st0" d="M191.6,24.2V0.4h4.2v23.8C195.8,24.2,191.6,24.2,191.6,24.2z"/>
<path class="st0" d="M202.6,17.3l4.4-0.5c0.4,2.4,2.1,3.6,4,3.7c1.6,0.1,3.5-0.5,3.8-2.2c0.1-0.9-0.2-2-3-3.2l-3.2-1.3
	c-3.6-1.6-5.3-3.7-5.3-6.9c0-4.1,3.2-6.9,7.8-6.9c4.4,0,7.2,2.7,7.9,6.6l-4.2,0.6c-0.3-1.7-1.6-3.1-3.7-3.1c-1.8,0-3.4,1-3.4,2.8
	c0,1.4,0.9,2.1,3.5,3.2l3.6,1.5c3.2,1.3,4.5,3.4,4.5,6.1c0,4.1-3.4,6.9-8,6.9C206.8,24.6,203.2,21.6,202.6,17.3z"/>
<path class="st0" d="M226.1,14.9V0.4h4.3v14.5c0,2.8,1.3,5.2,4.4,5.2s4.4-2.4,4.4-5.2V0.4h4.3v14.5c0,5.1-2.9,9.7-8.6,9.7
	C228.9,24.6,226.1,20,226.1,14.9z"/>
</svg>
