<?xml version="1.0" encoding="utf-8"?>
<!-- Generator: Adobe Illustrator 26.3.1, SVG Export Plug-In . SVG Version: 6.00 Build 0)  -->
<svg version="1.1" id="レイヤー_1" xmlns="http://www.w3.org/2000/svg" xmlns:xlink="http://www.w3.org/1999/xlink" x="0px"
	 y="0px" width="100.6px" height="41.4px" viewBox="0 0 100.6 41.4" style="enable-background:new 0 0 100.6 41.4;"
	 xml:space="preserve">
<style type="text/css">
	.st0{fill:#FFFFFF;}
</style>
<g id="グループ_70_00000044153074421823718380000011720947508272196235_" transform="translate(0 0)">
	<path id="パス_79_00000100340645524568940550000005277687452843805355_" class="st0" d="M49,16.9c0.5-0.4,1-0.8,1.4-1.1
		c0.4-0.3,0.6-0.2,0.6,0.3c0,0.1,0,0.3,0,0.4c0,7.6,0,15.2,0,22.8c0,1.1,0,1.1-1,0.6c-0.9-0.4-1.5-1.2-1.5-2.2
		c-0.1-1.8-0.4-3.5-0.6-5.3c0-0.7-0.4-1.3-1.1-1.6c-1.2-0.4-1.5-1.2-1.7-2.3c-0.8-5.2-1.8-10.4-2.7-15.6c-0.1-0.6,0.1-1.1,0.5-1.5
		c1.7-1.5,3.4-3,5.1-4.5c0.1-0.1,0.3-0.3,0.5-0.3c0.3,0.1,0.2,0.4,0.2,0.7c0,2.8,0,5.7,0,8.5C48.8,16.2,48.9,16.6,49,16.9z"/>
	<path id="パス_80_00000018213466655789354860000003421290492399714720_" class="st0" d="M57.8,8.9c0,2.3,0,4.5,0,6.8
		c0,0.8-0.3,0.9-1,0.7c-1.2-0.4-2.4-0.8-3.6-1.1c-0.5-0.1-0.8-0.5-0.8-1c0-2.8,0-5.6,0-8.4c0-0.4,0.2-0.8,0.5-1.1
		c1.4-1.1,2.7-2.2,4-3.3c0.2-0.1,0.4-0.4,0.6-0.3c0.3,0.1,0.2,0.4,0.2,0.6C57.8,4.2,57.8,6.6,57.8,8.9z"/>
	<path id="パス_81_00000067955754810068765400000017140793073889948595_" class="st0" d="M37.6,30c-0.1,3.7-3.1,6.7-6.9,6.7
		c-3.6-0.1-6.6-3-6.7-6.6c0-3.7,3.1-6.8,6.8-6.8c0,0,0,0,0,0C34.7,23.3,37.8,26.5,37.6,30z M36.2,30.2c0.1-2.8-2.1-5.2-5-5.3
		c-0.1,0-0.1,0-0.2,0c-2.9,0-5.2,2.2-5.3,5.1s2.2,5.2,5.1,5.3C33.8,35.3,36.2,33.1,36.2,30.2C36.2,30.2,36.2,30.2,36.2,30.2z"/>
	<path id="パス_82_00000066481775875923780550000006542300301391190445_" class="st0" d="M0,30.1c0-1.8,0-3.6,0-5.5
		c0-0.7,0.3-1,1-0.9c1.2,0,2.5,0,3.8,0c1.8,0,3.3,1.2,3.6,2.9C8.7,28.3,8,30,6.6,31c-0.8,0.4-1.7,0.6-2.6,0.6c-0.5,0-1,0-1.5,0
		c-0.6,0-0.9,0.2-0.9,0.8c0,1.1,0,2.2,0,3.2c0,0.5-0.1,0.9-0.8,0.9c-0.7,0-0.8-0.3-0.8-0.9c0,0,0-0.1,0-0.1C0,33.7,0,31.9,0,30.1z
		 M1.6,27.5L1.6,27.5c0,0.7,0,1.3,0,2c0,0.3,0.1,0.6,0.5,0.6c1.1,0.1,2.2,0,3.3-0.3c0.4-0.1,0.7-0.4,0.9-0.7c0.7-0.9,0.7-2.1,0-3
		c-0.7-0.9-3-1.5-4.3-0.9c-0.9,0.4-0.3,1.3-0.4,2C1.6,27.3,1.6,27.4,1.6,27.5L1.6,27.5z"/>
	<path id="パス_83_00000112597187559625081290000011592135393302759356_" class="st0" d="M96.2,23.4c1.1,0,2.1,0,3.2,0
		c1.1,0,1.4,0.5,0.9,1.5c-0.8,1.4-1.6,2.8-2.5,4.2c-1.1,1.8-2.1,3.5-3.2,5.3c-0.4,0.7-0.4,0.8,0.4,0.8c1.5,0,3,0,4.5,0
		c0.5,0,1.1-0.1,1.1,0.7c0,0.7-0.5,0.7-1,0.7c-2.2,0-4.3,0-6.5,0c-1.1,0-1.3-0.4-0.8-1.4c1.3-2.3,2.7-4.5,4-6.7
		c0.6-0.9,1.1-1.9,1.7-2.8c0.3-0.5,0.2-0.7-0.4-0.7c-1.6,0-3.1,0-4.7,0c-0.6,0-1,0-1-0.8s0.5-0.8,1-0.8C94,23.4,95.1,23.4,96.2,23.4
		z"/>
	<path id="パス_84_00000049222254438194706170000003347946559046275976_" class="st0" d="M63.7,29.9c0-1.8,0-3.7,0-5.5
		c0-0.7,0.2-1,1-1c1.7,0,3.4,0,5,0c0.5,0,0.9,0.2,0.9,0.8c0,0.6-0.3,0.8-0.8,0.8c-1.2,0-2.4,0-3.6,0c-0.6,0-0.9,0.2-0.9,0.9
		c0,0.9,0,1.7,0,2.6c0,0.6,0.3,0.9,0.9,0.8c1.1,0,2.3,0,3.4,0c0.6,0,1,0.1,1,0.8c0,0.7-0.5,0.7-1,0.7c-1.1,0-2.2,0-3.3,0
		c-0.7,0-1,0.2-1,0.9c0,1.3,0,2.6,0,3.9c0,0.5-0.1,1-0.8,1c-0.7,0-0.8-0.4-0.8-1C63.7,33.7,63.7,31.8,63.7,29.9z"/>
	<path id="パス_85_00000086662148855334303780000000089552341826329734_" class="st0" d="M85.8,30.7c0,1.6,0,3.2,0,4.8
		c0,0.6-0.1,1-0.9,1.1c-0.8,0-0.9-0.4-0.9-1c0-3.2,0-6.3,0-9.5c0-1.1-0.1-1.1-1.1-1.1c-0.5,0-0.9,0-1.4,0c-0.5,0-0.8-0.3-0.8-0.8
		c0-0.4,0.2-0.7,0.6-0.7c0.1,0,0.1,0,0.2,0c2.2,0,4.5,0,6.7,0c0.5,0,0.7,0.3,0.7,0.8c0,0.5-0.2,0.8-0.8,0.8c-0.5,0-1,0-1.5,0
		c-0.7,0-1,0.2-1,0.9C85.8,27.5,85.8,29.1,85.8,30.7z"/>
	<path id="パス_86_00000147935635013603269120000006326543229245762986_" class="st0" d="M14.6,23.7c0.4,0,0.9,0,1.3,0
		c1.5,0.2,2.8,0.6,3.4,2.1c0.7,1.5,0.6,3.2-0.3,4.5c-0.4,0.7-1.1,1.1-1.9,1.2c-0.8,0.1-0.8,0.4-0.4,1c0.7,1,1.4,2.1,2.1,3.1
		c0.1,0.2,0.4,0.4,0.2,0.7c-0.2,0.2-0.5,0.1-0.7,0.2c-0.4,0.1-0.9-0.1-1.1-0.5c-0.9-1.5-1.9-2.9-2.9-4.3c-0.3-0.5-0.3-0.8,0.4-0.8
		c0.7,0,1.5-0.1,2.1-0.5c1-0.7,1.4-1.9,1.1-3.1c-0.2-1.1-1.1-1.9-2.1-2c-0.8-0.1-1.7-0.2-2.6-0.1c-0.5,0-0.9-0.1-0.9-0.7
		c0-0.6,0.4-0.7,0.9-0.7C13.8,23.7,14.2,23.7,14.6,23.7L14.6,23.7z"/>
	<path id="パス_87_00000038385551322402029310000002956260819145839269_" class="st0" d="M76.7,30c0,1.8,0,3.7,0,5.5
		c0,0.6-0.1,1-0.8,1c-0.7,0-0.7-0.4-0.7-1c0-3.8,0-7.5,0-11.3c0-0.6,0.1-0.9,0.8-0.9s0.8,0.4,0.8,0.9C76.7,26.2,76.7,28.1,76.7,30z"
		/>
</g>
</svg>
