<svg xmlns="http://www.w3.org/2000/svg" width="811.605" height="828.796" viewBox="0 0 811.605 828.796">
  <path id="合体_2" data-name="合体 2" d="M-1447.854,876.824v-.445c0-43.932,32.558-80.726,77.158-80.726,28.991,0,44.824,10.7,59.988,24.753l-5.352,5.576c-12.934-12.488-28.767-23.415-54.858-23.415-39.695,0-69.13,33.227-69.13,73.59v.445c0,40.363,29.882,73.59,69.352,73.59,24.307,0,41.7-10.7,55.527-24.976l5.352,5.129c-14.719,14.941-33.674,26.76-61.325,26.76C-1415.3,957.1-1447.854,921.2-1447.854,876.824Zm-529.625-.223v-.445c0-42.593,30.775-80.5,78.05-80.5s77.828,37.91,77.828,80.5c.223,0,.223.223,0,.445,0,42.593-30.774,80.5-78.05,80.5S-1977.479,919.194-1977.479,876.6Zm7.8-.669v.446c0,39.47,28.768,73.813,70.468,73.813,41.478,0,69.8-33.9,69.8-73.367v-.445c0-39.471-28.768-73.813-70.245-73.813C-1941.353,802.565-1969.674,836.461-1969.674,875.932Zm691.746,78.5v-156.1h109.939v6.914h-102.356v67.123h92.544v6.913h-92.544v68.238h103.471v6.913Zm-218.54,0v-156.1h7.582v156.1Zm-143.612,0v-156.1h108.824v6.914H-1632.5v69.13h91.43v6.913h-91.43v73.144Zm-142.051,0v-156.1h108.823v6.914h-101.242v69.13h91.43v6.913h-91.43v73.144Zm334.357-260.311V571.04h3.372c19.389,25.29,45.522,37.935,69.969,37.935,46.365,0,68.283-26.977,68.283-82.615V129.308h117.177V548.279c0,97.788-44.68,171.129-162.7,171.129C-1385.392,719.408-1421.64,710.135-1447.773,694.118Zm16.86-10.116c20.232,11.8,49.738,18.546,75.87,18.546V672.2h-7.587c-21.918,0-48.051-6.745-68.283-18.546Zm192.2-144.153c0,69.969-26.132,121.392-99.473,130.666V701.7c98.631-5.9,132.35-69.125,132.35-155.955V146.168h-32.877Zm-192.2,96.1c17.7,13.488,42.993,20.232,67.441,20.232,77.556,0,107.9-39.621,107.9-120.549V377.993h-33.72v151.74c0,61.539-27.819,96.1-83.457,96.1-19.389,0-42.993-7.587-58.167-21.918Zm141.624-274.818h33.72V146.168h-33.72Zm-334.67,343.1-187.146-269.76v-4.215c123.078-19.39,160.169-56.481,160.169-111.276,0-50.581-37.935-81.771-105.375-81.771h-64.911V704.234h-118.021V129.308h201.478c121.392,0,206.535,58.167,206.535,176.187,0,81.771-19.389,131.508-106.218,177.872v1.687l157.641,219.18ZM-1685.5,504.443l133.194,182.931h39.622l-142.467-196.42C-1661.9,494.327-1678.756,501.914-1685.5,504.443ZM-1871.8,174.83h124.763c99.474,0,164.385,48.893,164.385,134.879,0,83.457-27.819,132.351-176.187,171.129l145,206.536h41.306l-139.1-191.362c150.9-49.737,162.7-117.176,162.7-189.675,0-105.375-80.085-160.169-192.2-160.169H-1871.8Zm0,512.544h33.719V237.212H-1871.8Zm-50.58,0h33.719V220.352h133.195c76.712,0,122.234,36.248,122.234,96.1,0,59.01-32.877,102.847-151.74,126.45l16.861,23.6c150.053-37.092,168.6-88.515,168.6-154.269,0-77.556-60.7-120.549-150.9-120.549h-138.253V146.168h-33.719Z" transform="translate(1977.979 -128.808)" fill="#fff" stroke="rgba(0,0,0,0)" stroke-miterlimit="10" stroke-width="1"/>
</svg>
