<?xml version="1.0" encoding="utf-8"?>
<!-- Generator: Adobe Illustrator 26.3.1, SVG Export Plug-In . SVG Version: 6.00 Build 0)  -->
<svg version="1.1" id="レイヤー_1" xmlns="http://www.w3.org/2000/svg" xmlns:xlink="http://www.w3.org/1999/xlink" x="0px"
	 y="0px" width="18px" height="18px" viewBox="0 0 18 18" style="enable-background:new 0 0 18 18;" xml:space="preserve">
<style type="text/css">
	.st0{fill:#7B8063;}
	.st1{display:none;}
	.st2{display:inline;fill:#7B8063;}
</style>
<path id="パス_88_00000105391047901049801850000006734806401337576577_" class="st0" d="M18,9.1c0-5-4-9-9-9c-5,0-9,4-9,9
	c0,4.4,3.2,8.2,7.6,8.9v-6.3H5.3V9.1h2.3v-2c0-2.3,1.3-3.5,3.4-3.5c0.7,0,1.3,0.1,2,0.2V6h-1.1c-0.7-0.1-1.4,0.4-1.5,1.1
	c0,0.1,0,0.2,0,0.3v1.7h2.5l-0.4,2.6h-2.1v6.3C14.8,17.3,18,13.5,18,9.1z"/>
<g class="st1">
	<path class="st2" d="M9,1.6c2.4,0,2.7,0,3.6,0.1c0.9,0,1.4,0.2,1.7,0.3c0.4,0.2,0.7,0.4,1,0.7s0.5,0.6,0.7,1
		c0.1,0.3,0.3,0.8,0.3,1.7c0,0.9,0.1,1.2,0.1,3.6s0,2.7-0.1,3.6c0,0.9-0.2,1.4-0.3,1.7c-0.2,0.4-0.4,0.7-0.7,1
		c-0.3,0.3-0.6,0.5-1,0.7c-0.3,0.1-0.8,0.3-1.7,0.3c-0.9,0-1.2,0.1-3.6,0.1s-2.7,0-3.6-0.1c-0.9,0-1.4-0.2-1.7-0.3
		c-0.4-0.2-0.7-0.4-1-0.7c-0.3-0.3-0.5-0.6-0.7-1c-0.1-0.3-0.3-0.8-0.3-1.7c0-0.9-0.1-1.2-0.1-3.6s0-2.7,0.1-3.6
		C1.7,4.5,1.9,4,2,3.7c0.2-0.4,0.4-0.7,0.7-1s0.6-0.5,1-0.7C4,1.9,4.5,1.7,5.4,1.7C6.3,1.6,6.6,1.6,9,1.6 M9,0C6.6,0,6.2,0,5.3,0.1
		c-1,0-1.6,0.2-2.2,0.4C2.5,0.7,2,1,1.5,1.5s-0.8,1-1,1.6C0.2,3.7,0.1,4.3,0.1,5.3C0,6.2,0,6.6,0,9s0,2.8,0.1,3.7
		c0,1,0.2,1.6,0.4,2.2c0.2,0.6,0.5,1.1,1,1.6c0.5,0.5,1,0.8,1.6,1c0.6,0.2,1.2,0.4,2.2,0.4C6.2,18,6.6,18,9,18s2.8,0,3.7-0.1
		c1,0,1.6-0.2,2.2-0.4c0.6-0.2,1.1-0.5,1.6-1c0.5-0.5,0.8-1,1-1.6c0.2-0.6,0.4-1.2,0.4-2.2c0-1,0.1-1.3,0.1-3.7s0-2.8-0.1-3.7
		c0-1-0.2-1.6-0.4-2.2c-0.2-0.6-0.5-1.1-1-1.6s-1-0.8-1.6-1c-0.6-0.2-1.2-0.4-2.2-0.4C11.8,0,11.4,0,9,0z M9,4.4
		C6.4,4.4,4.4,6.4,4.4,9s2.1,4.6,4.6,4.6s4.6-2.1,4.6-4.6S11.6,4.4,9,4.4z M9,12c-1.7,0-3-1.3-3-3s1.3-3,3-3s3,1.3,3,3S10.7,12,9,12
		z M14.9,4.2c0,0.6-0.5,1.1-1.1,1.1c-0.6,0-1.1-0.5-1.1-1.1s0.5-1.1,1.1-1.1C14.4,3.1,14.9,3.6,14.9,4.2z"/>
</g>
</svg>
