<?xml version="1.0" encoding="utf-8"?>
<!-- Generator: Adobe Illustrator 26.3.1, SVG Export Plug-In . SVG Version: 6.00 Build 0)  -->
<svg version="1.1" id="レイヤー_1" xmlns="http://www.w3.org/2000/svg" xmlns:xlink="http://www.w3.org/1999/xlink" x="0px"
	 y="0px" width="195.8px" height="203.4px" viewBox="0 0 195.8 203.4" style="enable-background:new 0 0 195.8 203.4;"
	 xml:space="preserve">
<style type="text/css">
	.st0{fill:#FFFFFF;}
</style>
<g>
	<path class="st0" d="M177,51.1l-44.8-4.4l0.3-30.9l0-1.7L103.2,0L0,2.8l1.3,53.9l14,23.4l14.4-0.7l3.2-0.2l0.6,34.9l95.7,14.7
		l46.7-25.3L177,51.1z M18.3,74.5L6.7,55.2l-1.2-47l96.5-2.7l24.9,12l0,2.6l-0.3,31.6h0l-0.2,17.5l-88.2,4.4v0L18.3,74.5z
		 M170.5,100.3l-42.3,22.9l-89.3-13.8L38.4,79l93.5-4.6l0.2-22.2l39.3,3.9L170.5,100.3z"/>
	<path class="st0" d="M52.3,184.1c-4.6,0-6.8,3.7-6.8,7.4v4.5c0,3.7,2.2,7.3,6.8,7.3s6.8-3.6,6.8-7.3v-4.5
		C59.1,187.8,56.9,184.1,52.3,184.1z M55.7,195.6c0,2.1-0.7,4.4-3.5,4.4s-3.5-2.3-3.5-4.4V192c0-1.9,0.6-4.4,3.5-4.4
		c2.9,0,3.5,2.6,3.5,4.4V195.6z"/>
	<polygon class="st0" points="66.5,203 69.9,203 69.9,195.3 75.8,195.3 75.8,191.9 69.9,191.9 69.9,187.8 77.3,187.8 77.3,184.4 
		66.5,184.4 	"/>
	<polygon class="st0" points="84.5,203 87.8,203 87.8,195.3 93.7,195.3 93.7,191.9 87.8,191.9 87.8,187.8 95.2,187.8 95.2,184.4 
		84.5,184.4 	"/>
	<rect x="102.4" y="184.4" class="st0" width="3.3" height="18.6"/>
	<path class="st0" d="M119.7,199.9c-2.6,0-3.2-2.1-3.2-4.9v-3.1c0-2.3,1-4.3,3.4-4.3c1.4,0,2.7,0.7,3.1,2.3l3.3-0.6
		c-0.5-3.2-3.1-5.3-6.4-5.3c-4.4,0-6.7,3.4-6.7,7.6v4c0,4.6,2.5,7.6,6.5,7.6c3.7,0,6.4-2.4,6.7-5.9l-3.4-0.2
		C122.7,198.8,121.5,199.9,119.7,199.9z"/>
	<polygon class="st0" points="136.8,195.3 142.6,195.3 142.6,192 136.8,192 136.8,187.7 144.7,187.7 144.7,184.4 133.5,184.4 
		133.5,203 145.1,203 145.1,199.7 136.8,199.7 	"/>
	<path class="st0" d="M29.1,66.3l-4.2,0.2c0,0-0.1,0-0.1-0.1l-0.1-2.1c0,0,0-0.1,0.1-0.1l2.7-0.1c0.1,0,0.2-0.1,0.1-0.2l-0.1-1.2
		c0-0.1-0.1-0.2-0.2-0.1l-2.7,0.1c0,0-0.1,0-0.1-0.1l-0.1-2c0,0,0-0.1,0.1-0.1l4.2-0.2c0.1,0,0.2-0.1,0.1-0.2L29,59
		c0-0.1-0.1-0.2-0.2-0.1l-5.9,0.2c-0.1,0-0.1,0.1-0.1,0.2l0.4,8.7c0,0.1,0.1,0.2,0.2,0.1l5.9-0.2c0.1,0,0.2-0.1,0.1-0.2l-0.1-1.2
		C29.3,66.4,29.2,66.3,29.1,66.3z"/>
	<path class="st0" d="M37.7,62.9C37.6,62.9,37.6,62.9,37.7,62.9c0.7-0.5,1.1-1.1,1-2c-0.1-1.7-1.2-2.4-3.2-2.3l-3.2,0.1
		c-0.1,0-0.2,0.1-0.1,0.2l0.4,8.7c0,0.1,0.1,0.2,0.2,0.1l3.3-0.1c1.7-0.1,3-0.9,3-2.6C39,64,38.5,63.3,37.7,62.9z M34.1,60.3
		C34.1,60.3,34.1,60.2,34.1,60.3l1.6-0.1c0.8,0,1.3,0.4,1.3,1c0,0.7-0.4,1.1-1.2,1.1l-1.5,0.1c0,0-0.1,0-0.1-0.1L34.1,60.3z M36,66
		l-1.6,0.1c0,0-0.1,0-0.1-0.1l-0.1-2.1c0,0,0-0.1,0.1-0.1l1.6-0.1c0.8,0,1.3,0.4,1.3,1.1C37.2,65.6,36.8,66,36,66z"/>
	<path class="st0" d="M42.5,67.3l1.5-0.1c0.1,0,0.1-0.1,0.1-0.2l-0.4-8.7c0-0.1-0.1-0.2-0.2-0.1l-1.5,0.1c-0.1,0-0.2,0.1-0.1,0.2
		l0.4,8.7C42.3,67.3,42.4,67.3,42.5,67.3z"/>
	<path class="st0" d="M49.9,63.2c1.3,0.4,1.9,0.6,1.9,1.3c0,0.5-0.3,1-1.3,1.1c-1.1,0-1.8-0.5-1.8-1.1l0-0.2c0-0.1-0.1-0.2-0.2-0.1
		l-1.5,0.1c-0.1,0-0.2,0.1-0.1,0.2l0,0.3c0.1,1.6,1.4,2.6,3.5,2.5c2-0.1,3.2-1.1,3.2-2.7c-0.1-1.7-1.7-2.2-2.9-2.6
		c-1.4-0.4-2-0.7-2.1-1.3c0-0.6,0.4-1,1.2-1c1.1,0,1.7,0.6,1.7,1.2l0,0.1c0,0.1,0.1,0.2,0.2,0.1l1.5-0.1c0.1,0,0.1-0.1,0.1-0.2
		l0-0.2c-0.1-1.7-1.5-2.7-3.5-2.6c-1.8,0.1-3.1,1.1-3,2.7C47,62.3,48.6,62.8,49.9,63.2z"/>
	<path class="st0" d="M60.1,66.7c2-0.1,3.3-1.4,3.2-3.2l-0.2-5.9c0-0.1-0.1-0.2-0.2-0.1l-1.5,0.1c-0.1,0-0.2,0.1-0.1,0.2l0.2,5.9
		c0,0.9-0.5,1.5-1.5,1.6s-1.5-0.6-1.6-1.5l-0.2-5.9c0-0.1-0.1-0.2-0.2-0.1l-1.5,0.1c-0.1,0-0.2,0.1-0.1,0.2l0.2,5.9
		C56.8,65.6,58.1,66.8,60.1,66.7z"/>
	<path class="st0" d="M28.7,162.7c2.1-0.2,3.9-2.1,3.9-5.8c0-5.3-3.5-7.7-9-7.7h-9.4v27.9h10c6.2,0,8.8-3.9,8.8-8.2
		C33.1,165,30.7,162.9,28.7,162.7z M19.2,154.1h4.7c1.9,0,3.5,1.1,3.5,3.1c0,2-1.6,3.4-3.8,3.4h-4.5V154.1z M23.9,172.3h-4.7v-6.7
		h4.7c2.5,0,4.1,1.3,4.1,3.3C28,171.1,26.1,172.3,23.9,172.3z"/>
	<polygon class="st0" points="49.2,149.2 44.3,149.2 44.3,177.1 60.3,177.1 60.3,172.2 49.2,172.2 	"/>
	<path class="st0" d="M89.7,166.7v-6.7c0-5.6-3.3-11.2-10.2-11.2c-6.9,0-10.2,5.5-10.2,11.2v6.7c0,5.6,3.3,11,10.2,11
		C86.4,177.6,89.7,172.3,89.7,166.7z M84.7,165.9c0,3.2-1.1,6.6-5.2,6.6c-4.1,0-5.2-3.4-5.2-6.6v-5.4c0-2.8,0.9-6.7,5.2-6.7
		c4.3,0,5.2,3.9,5.2,6.7V165.9z"/>
	<path class="st0" d="M119.5,168.8l-5.1-0.4c-0.3,2.4-2.1,4-4.9,4c-3.9,0-4.8-3.1-4.8-7.3v-4.6c0-3.5,1.5-6.5,5.1-6.5
		c2.1,0,4,1.1,4.6,3.5l5-0.8c-0.8-4.8-4.6-7.9-9.6-7.9c-6.6,0-10.1,5.1-10.1,11.5v6c0,6.9,3.7,11.4,9.8,11.4
		C114.9,177.6,119,174,119.5,168.8z"/>
	<polygon class="st0" points="150.4,149.2 144.4,149.2 135.3,161.2 135.3,149.2 130.3,149.2 130.3,177.1 135.3,177.1 135.3,169.3 
		138.4,165.1 145.8,177.1 151.9,177.1 141.7,160.7 	"/>
	<path class="st0" d="M172.7,162.5l-4.2-1.8c-3-1.2-4.1-2.1-4.1-3.7c0-2.2,1.9-3.3,4-3.3c2.4,0,4,1.6,4.3,3.6l4.9-0.7
		c-0.8-4.6-4.1-7.8-9.2-7.8c-5.4,0-9.2,3.3-9.2,8.1c0,3.7,2,6.2,6.3,8l3.8,1.6c3.3,1.4,3.6,2.7,3.5,3.7c-0.3,1.9-2.6,2.7-4.4,2.6
		c-2.2-0.1-4.2-1.4-4.7-4.3l-5.1,0.6c0.6,5.1,4.9,8.6,10.1,8.6c5.4,0,9.4-3.2,9.4-8C178,166.5,176.4,164,172.7,162.5z"/>
	<path class="st0" d="M189.7,148.2c-3.4,0-6.2,2.8-6.2,6.1c0,3.3,2.7,6.1,6.2,6.1c3.3,0,6.1-2.8,6.1-6.1
		C195.8,151,193.1,148.2,189.7,148.2z M189.8,159c-2.7,0-4.8-2.1-4.8-4.7c0-2.6,2.1-4.7,4.8-4.7c2.5,0,4.6,2.1,4.6,4.7
		C194.4,156.9,192.3,159,189.8,159z"/>
	<path class="st0" d="M192,153.2L192,153.2c0-1.3-0.8-2.1-2-2.1h-2.2v6.4h1.2v-2.3h0.8h0.2l1,2.3h1.3l-1.1-2.6
		C191.7,154.6,192,154,192,153.2z M189.9,154H189v-1.7h0.9c0.5,0,0.9,0.3,0.9,0.8C190.8,153.7,190.5,154,189.9,154z"/>
</g>
</svg>
